<svg viewBox="0 0 21 21" fill="none" xmlns="http://www.w3.org/2000/svg">
<path fill-rule="evenodd" clip-rule="evenodd" d="M10.4867 1.93066C7.2875 1.93066 4.68832 4.52985 4.68832 7.72904V11.786L3.09748 14.1723C3.02277 14.2843 2.98291 14.416 2.98291 14.5507V15.4034C2.98291 15.7801 3.28832 16.0855 3.66507 16.0855H8.10441L8.09971 16.1989C8.09932 16.2083 8.09913 16.2178 8.09913 16.2272C8.09913 17.5469 9.16121 18.6436 10.4867 18.6436C11.8122 18.6436 12.8743 17.5469 12.8743 16.2272V16.0855H17.3083C17.6851 16.0855 17.9905 15.7801 17.9905 15.4034V14.5507C17.9905 14.416 17.9506 14.2843 17.8759 14.1723L16.2851 11.786V7.72904C16.2851 4.52985 13.6859 1.93066 10.4867 1.93066ZM11.5099 16.0855H9.4699L9.46352 16.2396C9.47012 16.8217 9.94011 17.2793 10.4867 17.2793C11.0372 17.2793 11.5099 16.8151 11.5099 16.2272V16.0855ZM16.6022 14.7212L15.0353 12.371C14.9606 12.2589 14.9207 12.1272 14.9207 11.9926V7.72904C14.9207 5.28334 12.9324 3.29499 10.4867 3.29499C8.041 3.29499 6.05264 5.28334 6.05264 7.72904V11.9926C6.05264 12.1272 6.01278 12.2589 5.93807 12.371L4.37124 14.7212H16.6022Z" fill="#212124"/>
</svg>
