<svg viewBox="0 0 21 21" fill="none" xmlns="http://www.w3.org/2000/svg">
<path fill-rule="evenodd" clip-rule="evenodd" d="M4.91162 3.86874H2.9368C2.56005 3.86874 2.25464 4.17415 2.25464 4.5509C2.25464 4.92765 2.56005 5.23306 2.9368 5.23306H4.91162C5.20514 6.21929 6.11874 6.93847 7.20031 6.93847C8.28189 6.93847 9.19549 6.21929 9.48901 5.23306H18.2854C18.6622 5.23306 18.9676 4.92765 18.9676 4.5509C18.9676 4.17415 18.6622 3.86874 18.2854 3.86874H9.48901C9.19549 2.8825 8.28189 2.16333 7.20031 2.16333C6.11874 2.16333 5.20514 2.8825 4.91162 3.86874ZM6.17707 4.5509C6.17707 3.98578 6.63519 3.52765 7.20031 3.52765C7.76544 3.52765 8.22356 3.98578 8.22356 4.5509C8.22356 5.11602 7.76544 5.57414 7.20031 5.57414C6.63519 5.57414 6.17707 5.11602 6.17707 4.5509Z" fill="#212124"/>
<path fill-rule="evenodd" clip-rule="evenodd" d="M2.9368 9.83765C2.56005 9.83765 2.25464 10.1431 2.25464 10.5198C2.25464 10.8966 2.56005 11.202 2.9368 11.202H11.7332C12.0268 12.1882 12.9404 12.9074 14.0219 12.9074C15.1035 12.9074 16.0171 12.1882 16.3106 11.202H18.2854C18.6622 11.202 18.9676 10.8966 18.9676 10.5198C18.9676 10.1431 18.6622 9.83765 18.2854 9.83765H16.3106C16.0171 8.85142 15.1035 8.13225 14.0219 8.13225C12.9404 8.13225 12.0268 8.85142 11.7332 9.83765H2.9368ZM14.0219 9.49657C14.5871 9.49657 15.0452 9.9547 15.0452 10.5198C15.0452 11.0849 14.5871 11.5431 14.0219 11.5431C13.4568 11.5431 12.9987 11.0849 12.9987 10.5198C12.9987 9.9547 13.4568 9.49657 14.0219 9.49657Z" fill="#212124"/>
<path fill-rule="evenodd" clip-rule="evenodd" d="M2.25464 16.4887C2.25464 16.112 2.56005 15.8066 2.9368 15.8066H4.91162C5.20514 14.8203 6.11874 14.1012 7.20031 14.1012C8.28189 14.1012 9.19549 14.8203 9.48901 15.8066H18.2854C18.6622 15.8066 18.9676 16.112 18.9676 16.4887C18.9676 16.8655 18.6622 17.1709 18.2854 17.1709H9.48901C9.19549 18.1571 8.28189 18.8763 7.20031 18.8763C6.11874 18.8763 5.20514 18.1571 4.91162 17.1709H2.9368C2.56005 17.1709 2.25464 16.8655 2.25464 16.4887ZM8.22356 16.4887C8.22356 15.9236 7.76544 15.4655 7.20031 15.4655C6.63519 15.4655 6.17707 15.9236 6.17707 16.4887C6.17707 17.0539 6.63519 17.512 7.20031 17.512C7.76544 17.512 8.22356 17.0539 8.22356 16.4887Z" fill="#212124"/>
</svg>
