<svg viewBox="0 0 21 21" fill="none" xmlns="http://www.w3.org/2000/svg">
<path d="M12.8337 2.68353C10.03 2.68353 7.75866 4.94495 7.75866 7.7442C7.75866 9.31943 8.4853 10.7261 9.61619 11.6508C7.37103 12.8121 5.83366 15.1456 5.83366 17.8502C5.83366 18.1724 6.09483 18.4335 6.41699 18.4335C6.73916 18.4335 7.00033 18.1724 7.00033 17.8502C7.00033 15.26 8.69523 13.0729 11.0427 12.3162C11.2694 12.2431 11.429 12.0395 11.4456 11.8019C11.4623 11.5642 11.3328 11.3403 11.1185 11.2363C9.82196 10.6068 8.92532 9.27647 8.92532 7.7442C8.92532 5.5928 10.6708 3.8502 12.8337 3.8502C14.9965 3.8502 16.742 5.5928 16.742 7.7442C16.742 9.27632 15.8518 10.6008 14.5479 11.2367C14.3339 11.3411 14.2048 11.5649 14.2217 11.8024C14.2386 12.0398 14.398 12.2432 14.6246 12.3162C16.9717 13.0728 18.667 15.2661 18.667 17.8502C18.667 18.1724 18.9282 18.4335 19.2503 18.4335C19.5725 18.4335 19.8337 18.1724 19.8337 17.8502C19.8337 15.1512 18.2962 12.8132 16.0506 11.6508C17.1845 10.7248 17.9087 9.32119 17.9087 7.7442C17.9087 4.94495 15.6373 2.68353 12.8337 2.68353Z" fill="#212124"/>
<path d="M7.65824 3.88272C7.97776 3.84153 8.20339 3.54912 8.1622 3.22959C8.12102 2.91007 7.8286 2.68444 7.50908 2.72563C5.01613 3.04698 3.09199 5.16763 3.09199 7.74421C3.09199 9.3195 3.81887 10.7263 4.94947 11.6508C2.70452 12.812 1.16699 15.1456 1.16699 17.8502C1.16699 18.1724 1.42816 18.4335 1.75033 18.4335C2.07249 18.4335 2.33366 18.1724 2.33366 17.8502C2.33366 15.3528 3.90915 13.2302 6.12655 12.4029C6.69883 12.1894 6.74096 11.4102 6.22849 11.1187C5.05298 10.45 4.25866 9.18664 4.25866 7.74421C4.25866 5.76429 5.73718 4.13035 7.65824 3.88272Z" fill="#212124"/>
<path d="M12.8337 2.68353C10.03 2.68353 7.75866 4.94495 7.75866 7.7442C7.75866 9.31943 8.4853 10.7261 9.61619 11.6508C7.37103 12.8121 5.83366 15.1456 5.83366 17.8502C5.83366 18.1724 6.09483 18.4335 6.41699 18.4335C6.73916 18.4335 7.00033 18.1724 7.00033 17.8502C7.00033 15.26 8.69523 13.0729 11.0427 12.3162C11.2694 12.2431 11.429 12.0395 11.4456 11.8019C11.4623 11.5642 11.3328 11.3403 11.1185 11.2363C9.82196 10.6068 8.92532 9.27647 8.92532 7.7442C8.92532 5.5928 10.6708 3.8502 12.8337 3.8502C14.9965 3.8502 16.742 5.5928 16.742 7.7442C16.742 9.27632 15.8518 10.6008 14.5479 11.2367C14.3339 11.3411 14.2048 11.5649 14.2217 11.8024C14.2386 12.0398 14.398 12.2432 14.6246 12.3162C16.9717 13.0728 18.667 15.2661 18.667 17.8502C18.667 18.1724 18.9282 18.4335 19.2503 18.4335C19.5725 18.4335 19.8337 18.1724 19.8337 17.8502C19.8337 15.1512 18.2962 12.8132 16.0506 11.6508C17.1845 10.7248 17.9087 9.32119 17.9087 7.7442C17.9087 4.94495 15.6373 2.68353 12.8337 2.68353Z" stroke="#212124" stroke-width="0.6" stroke-miterlimit="10" stroke-linecap="round" stroke-linejoin="round"/>
<path d="M7.65824 3.88272C7.97776 3.84153 8.20339 3.54912 8.1622 3.22959C8.12102 2.91007 7.8286 2.68444 7.50908 2.72563C5.01613 3.04698 3.09199 5.16763 3.09199 7.74421C3.09199 9.3195 3.81887 10.7263 4.94947 11.6508C2.70452 12.812 1.16699 15.1456 1.16699 17.8502C1.16699 18.1724 1.42816 18.4335 1.75033 18.4335C2.07249 18.4335 2.33366 18.1724 2.33366 17.8502C2.33366 15.3528 3.90915 13.2302 6.12655 12.4029C6.69883 12.1894 6.74096 11.4102 6.22849 11.1187C5.05298 10.45 4.25866 9.18664 4.25866 7.74421C4.25866 5.76429 5.73718 4.13035 7.65824 3.88272Z" stroke="#212124" stroke-width="0.6" stroke-miterlimit="10" stroke-linecap="round" stroke-linejoin="round"/>
</svg>
