
<svg width="170" height="170" viewBox="0 0 170 170" fill="none" xmlns="http://www.w3.org/2000/svg">
<rect x="0.5" y="0.5" width="169" height="169" rx="29.5" fill="white"/>
<path d="M85.285 69.2734C65.9069 69.2734 50.1973 84.6491 50.1973 104.027C50.1973 130.82 85.3818 145.039 85.285 144.998C85.1882 145.039 120.373 130.82 120.373 104.027C120.373 84.6491 104.663 69.2734 85.285 69.2734ZM85.285 118.094C82.6581 118.093 80.0903 117.314 77.9063 115.854C75.7223 114.394 74.0202 112.32 73.0153 109.893C72.0103 107.465 71.7476 104.795 72.2604 102.218C72.7732 99.6421 74.0384 97.2756 75.8961 95.4182C77.7538 93.5609 80.1205 92.2961 82.697 91.7838C85.2735 91.2715 87.944 91.5346 90.371 92.54C92.7979 93.5454 94.8722 95.2479 96.3316 97.4321C97.791 99.6164 98.5699 102.184 98.5699 104.811C98.5699 106.556 98.2263 108.283 97.5586 109.895C96.891 111.506 95.9124 112.971 94.6787 114.204C93.4451 115.438 91.9805 116.416 90.3687 117.083C88.7569 117.751 87.0295 118.094 85.285 118.094Z" fill="#FF6F0F"/>
<path d="M93.1859 25C84.9972 25 79.296 30.7205 78.3983 37.4573C67.4799 34.4398 58.9258 42.7132 58.9258 51.8699C58.9258 58.8512 63.7122 64.4943 70.1248 66.3261C75.2863 67.7998 84.5785 66.7036 84.5785 66.7036C84.5326 64.4459 86.6112 61.9679 89.8151 59.7126C98.9306 53.2976 106.067 50.2753 107.17 41.5299C108.322 32.3999 101.527 25 93.1859 25Z" fill="#00A05B"/>
<rect x="0.5" y="0.5" width="169" height="169" rx="29.5" stroke="#D1D3D8"/>
</svg>