
<svg width="24" height="24" viewBox="0 0 24 24" fill="none" xmlns="http://www.w3.org/2000/svg">
<path d="M12.0566 8.85449C8.18099 8.85449 5.03906 11.9296 5.03906 15.8052C5.03906 21.1637 12.076 24.0075 12.0566 23.9993C12.0372 24.0075 19.0742 21.1637 19.0742 15.8052C19.0742 11.9296 15.9322 8.85449 12.0566 8.85449ZM12.0566 18.6186C11.5312 18.6185 11.0177 18.4626 10.5809 18.1706C10.1441 17.8787 9.80365 17.4637 9.60266 16.9783C9.40167 16.4929 9.34913 15.9588 9.45169 15.4435C9.55425 14.9282 9.80729 14.4549 10.1788 14.0835C10.5504 13.712 11.0237 13.459 11.539 13.3566C12.0543 13.2541 12.5884 13.3067 13.0738 13.5078C13.5592 13.7089 13.974 14.0494 14.2659 14.4862C14.5578 14.9231 14.7136 15.4367 14.7136 15.9621C14.7136 16.311 14.6449 16.6564 14.5113 16.9788C14.3778 17.3011 14.1821 17.594 13.9354 17.8407C13.6886 18.0873 13.3957 18.283 13.0734 18.4165C12.751 18.55 12.4055 18.6186 12.0566 18.6186Z" fill="white"/>
<path d="M13.6372 0C11.9994 0 10.8592 1.1441 10.6797 2.49147C8.49598 1.88796 6.78516 3.54265 6.78516 5.37399C6.78516 6.77023 7.74244 7.89885 9.02496 8.26521C10.0573 8.55995 11.9157 8.34071 11.9157 8.34071C11.9065 7.88917 12.3222 7.39359 12.963 6.94253C14.7861 5.65953 16.2134 5.05505 16.434 3.30599C16.6644 1.47998 15.3054 0 13.6372 0Z" fill="white"/>
</svg>