<svg width="24" height="24" viewBox="0 0 24 24" fill="none" xmlns="http://www.w3.org/2000/svg">
<path d="M12.5945 5.71143C8.40205 5.71143 5 9.11348 5 13.3059C5 15.0585 5.61856 16.6736 6.61512 17.9794C6.68384 18.0825 6.78694 18.1856 6.85567 18.2544C6.95876 18.3918 7.09622 18.5293 7.23367 18.6667C8.67697 20.2131 10.5326 21.3815 12.5945 22C14.6563 21.3815 16.512 20.2131 17.9553 18.6667C18.0928 18.5293 18.1958 18.3918 18.3333 18.2544C18.402 18.1513 18.5051 18.0482 18.5739 17.9794C19.5704 16.708 20.189 15.0928 20.189 13.3059C20.189 9.11348 16.7869 5.71143 12.5945 5.71143ZM12.5945 16.1925C10.9794 16.1925 9.67353 14.8867 9.67353 13.2715C9.67353 11.6564 10.9794 10.3506 12.5945 10.3506C14.2096 10.3506 15.4811 11.6564 15.4811 13.2715C15.4811 14.8867 14.2096 16.1925 12.5945 16.1925Z" fill="white"/>
<path d="M15.0688 5.53951C15.5842 5.43642 15.9622 4.98968 15.9622 4.43986C15.9622 3.8213 15.4468 3.3402 14.8626 3.3402C14.6908 3.3402 14.519 3.37457 14.3815 3.4433C14.1753 2.61856 13.4537 2 12.5946 2C11.7355 2 11.0138 2.61856 10.842 3.4433C10.7045 3.37457 10.5327 3.3402 10.3609 3.3402C9.74233 3.3402 9.26123 3.85567 9.26123 4.43986C9.26123 4.98968 9.63924 5.43642 10.1547 5.53951C10.9451 5.2646 11.7698 5.12714 12.6289 5.12714C13.488 5.12714 14.2784 5.2646 15.0688 5.53951Z" fill="white"/>
</svg>
