<svg width="10" height="17" viewBox="0 0 10 17" fill="none" xmlns="http://www.w3.org/2000/svg">
<g clip-path="url(#clip0_4163_2616)">
<path d="M5.03931 6.14893C2.34791 6.14893 0.166016 8.28444 0.166016 10.9758C0.166016 14.697 5.05275 16.6719 5.03931 16.6662C5.02587 16.6719 9.9126 14.697 9.9126 10.9758C9.9126 8.28444 7.73071 6.14893 5.03931 6.14893ZM5.03931 12.9295C4.67446 12.9295 4.31782 12.8212 4.01449 12.6185C3.71116 12.4157 3.47476 12.1276 3.33518 11.7905C3.19561 11.4534 3.15912 11.0825 3.23034 10.7246C3.30156 10.3668 3.47729 10.0381 3.7353 9.78015C3.99331 9.52218 4.32202 9.34652 4.67987 9.27536C5.03771 9.20421 5.40862 9.24076 5.7457 9.3804C6.08277 9.52004 6.37087 9.75649 6.57356 10.0599C6.77625 10.3632 6.88444 10.7199 6.88444 11.0847C6.88444 11.327 6.83671 11.5669 6.74398 11.7908C6.65125 12.0146 6.51534 12.218 6.34399 12.3893C6.17265 12.5606 5.96924 12.6965 5.74538 12.7892C5.52153 12.8819 5.2816 12.9296 5.03931 12.9295Z" fill="#FF6F0F"/>
<path d="M6.13726 0C4.99993 0 4.2081 0.794514 4.08342 1.73019C2.56698 1.31108 1.37891 2.46017 1.37891 3.73193C1.37891 4.70155 2.04369 5.48531 2.93433 5.73973C3.6512 5.94441 4.94179 5.79216 4.94179 5.79216C4.9354 5.47859 5.2241 5.13443 5.66909 4.8212C6.93514 3.93023 7.92626 3.51045 8.07952 2.29583C8.2395 1.02776 7.29576 0 6.13726 0Z" fill="#00A05B"/>
</g>
<defs>
<clipPath id="clip0_4163_2616">
<rect width="10" height="16.6667" fill="white"/>
</clipPath>
</defs>
</svg>