<svg width="170" height="170" viewBox="0 0 170 170" fill="none" xmlns="http://www.w3.org/2000/svg">
<rect width="170" height="170" fill="white"/>
<rect x="3.5" y="2.5" width="165" height="165" rx="45.5" fill="white" stroke="#D1D3D8"/>
<path d="M85.1546 53.2861C64.2786 53.2861 47.3425 70.2222 47.3425 91.0982C47.3425 99.8602 50.3416 107.917 55.3695 114.326C55.7517 114.826 56.134 115.297 56.5456 115.767C57.1337 116.473 57.7511 117.149 58.398 117.796C58.4274 117.825 58.4274 117.825 58.4568 117.855C65.6899 125.529 74.8342 131.38 85.184 134.497C95.5338 131.351 104.678 125.529 111.911 117.855C111.941 117.825 111.941 117.825 111.97 117.796C112.617 117.149 113.205 116.473 113.822 115.767C114.234 115.297 114.616 114.797 114.998 114.326C119.997 107.917 123.025 99.8602 123.025 91.0982C122.967 70.2222 106.031 53.2861 85.1546 53.2861ZM85.1546 105.564C77.157 105.564 70.6884 99.0957 70.6884 91.0982C70.6884 83.1006 77.157 76.632 85.1546 76.632C93.1521 76.632 99.6208 83.1006 99.6208 91.0982C99.6208 99.0957 93.1521 105.564 85.1546 105.564Z" fill="#FF7E36"/>
<path d="M97.48 51.9489C99.9792 51.3903 101.861 49.1851 101.861 46.5094C101.861 43.4515 99.3617 40.9523 96.3038 40.9523C95.4512 40.9523 94.6279 41.1581 93.9222 41.5109C93.1283 37.3945 89.5118 34.2778 85.1602 34.2778C80.8086 34.2778 77.2214 37.3945 76.4275 41.5109C75.6925 41.1581 74.8986 40.9523 74.0459 40.9523C70.988 40.9523 68.4888 43.4515 68.4888 46.5094C68.4888 49.1851 70.3706 51.3903 72.8698 51.9489C76.7216 50.6258 80.8674 49.8613 85.1896 49.8613C89.5118 49.8613 93.5988 50.5964 97.48 51.9489Z" fill="#00B493"/>
</svg>
