<svg width="18" height="18" viewBox="0 0 18 18" fill="none" xmlns="http://www.w3.org/2000/svg">
<path fill-rule="evenodd" clip-rule="evenodd" d="M12.8533 5.25552C11.9952 4.39752 10.6041 4.39752 9.74614 5.25552C8.88814 6.11353 8.88814 7.50463 9.74614 8.36263C10.6041 9.22063 11.9952 9.22063 12.8533 8.36263C13.7113 7.50463 13.7113 6.11353 12.8533 5.25552ZM10.4533 5.96263C10.9207 5.49515 11.6787 5.49515 12.1461 5.96263C12.6136 6.43011 12.6136 7.18804 12.1461 7.65552C11.6787 8.123 10.9207 8.123 10.4533 7.65552C9.98577 7.18804 9.98577 6.43011 10.4533 5.96263Z" fill="#696F70"/>
<path fill-rule="evenodd" clip-rule="evenodd" d="M14.254 1.74718C13.633 1.12623 12.7318 0.876605 11.8799 1.08959L8.71586 1.88059C8.27628 1.99048 7.87483 2.21778 7.55443 2.53818L1.56036 8.53225C0.584048 9.50856 0.584047 11.0915 1.56036 12.0678L5.93193 16.4394C6.90824 17.4157 8.49116 17.4157 9.46747 16.4394L15.4615 10.4453C15.7819 10.1249 16.0092 9.72344 16.1191 9.28386L16.9101 6.11986C17.1231 5.26792 16.8735 4.3667 16.2525 3.74575L14.254 1.74718ZM12.1224 2.05973C12.6336 1.93194 13.1743 2.08171 13.5469 2.45429L15.5454 4.45286C15.918 4.82543 16.0678 5.36616 15.94 5.87732L15.149 9.04132C15.083 9.30507 14.9467 9.54594 14.7544 9.73818L8.76036 15.7322C8.17457 16.318 7.22482 16.318 6.63904 15.7323L2.26746 11.3607C1.68168 10.7749 1.68168 9.82514 2.26747 9.23936L8.26154 3.24529C8.45377 3.05305 8.69464 2.91667 8.95839 2.85073L12.1224 2.05973Z" fill="#696F70"/>
<path fill-rule="evenodd" clip-rule="evenodd" d="M12.8533 5.25552C11.9952 4.39752 10.6041 4.39752 9.74614 5.25552C8.88814 6.11353 8.88814 7.50463 9.74614 8.36263C10.6041 9.22063 11.9952 9.22063 12.8533 8.36263C13.7113 7.50463 13.7113 6.11353 12.8533 5.25552ZM10.4533 5.96263C10.9207 5.49515 11.6787 5.49515 12.1461 5.96263C12.6136 6.43011 12.6136 7.18804 12.1461 7.65552C11.6787 8.123 10.9207 8.123 10.4533 7.65552C9.98577 7.18804 9.98577 6.43011 10.4533 5.96263Z" stroke="#696F70" stroke-width="0.5" stroke-miterlimit="10" stroke-linecap="round" stroke-linejoin="round"/>
<path fill-rule="evenodd" clip-rule="evenodd" d="M14.254 1.74718C13.633 1.12623 12.7318 0.876605 11.8799 1.08959L8.71586 1.88059C8.27628 1.99048 7.87483 2.21778 7.55443 2.53818L1.56036 8.53225C0.584048 9.50856 0.584047 11.0915 1.56036 12.0678L5.93193 16.4394C6.90824 17.4157 8.49116 17.4157 9.46747 16.4394L15.4615 10.4453C15.7819 10.1249 16.0092 9.72344 16.1191 9.28386L16.9101 6.11986C17.1231 5.26792 16.8735 4.3667 16.2525 3.74575L14.254 1.74718ZM12.1224 2.05973C12.6336 1.93194 13.1743 2.08171 13.5469 2.45429L15.5454 4.45286C15.918 4.82543 16.0678 5.36616 15.94 5.87732L15.149 9.04132C15.083 9.30507 14.9467 9.54594 14.7544 9.73818L8.76036 15.7322C8.17457 16.318 7.22482 16.318 6.63904 15.7323L2.26746 11.3607C1.68168 10.7749 1.68168 9.82514 2.26747 9.23936L8.26154 3.24529C8.45377 3.05305 8.69464 2.91667 8.95839 2.85073L12.1224 2.05973Z" stroke="#696F70" stroke-width="0.5" stroke-miterlimit="10" stroke-linecap="round" stroke-linejoin="round"/>
</svg>
