<svg width="14" height="14" viewBox="0 0 14 14" fill="none" xmlns="http://www.w3.org/2000/svg">
<path fill-rule="evenodd" clip-rule="evenodd" d="M7.00838 0.5C4.12719 0.5 1.80005 2.9341 1.80005 5.92581C1.80005 7.95063 2.9658 9.75831 4.12843 11.0659C5.30029 12.3838 6.52716 13.2586 6.76319 13.422C6.8272 13.4664 6.91096 13.5 7.00838 13.5C7.10581 13.5 7.18957 13.4664 7.25358 13.422C7.4896 13.2586 8.71647 12.3838 9.88834 11.0659C11.051 9.75831 12.2167 7.95063 12.2167 5.92581C12.2167 2.9341 9.88958 0.5 7.00838 0.5ZM5.14826 5.85827C5.14826 4.80138 5.98107 3.9446 7.00838 3.9446C8.0357 3.9446 8.8685 4.80138 8.8685 5.85827C8.8685 6.91516 8.0357 7.77193 7.00838 7.77193C5.98107 7.77193 5.14826 6.91516 5.14826 5.85827Z" fill="#212124"/>
</svg>
