<svg viewBox="0 0 13 13" fill="none" xmlns="http://www.w3.org/2000/svg">
<path fill-rule="evenodd" clip-rule="evenodd" d="M5.764 1.18774C3.42241 1.18774 1.52417 3.08598 1.52417 5.42757C1.52417 7.76917 3.42241 9.6674 5.764 9.6674C6.66053 9.6674 7.4928 9.38873 8.17785 8.91359L10.1024 10.8381C10.3984 11.1341 10.8783 11.1341 11.1743 10.8381C11.4703 10.5421 11.4703 10.0622 11.1743 9.76622L9.24981 7.84172C9.72507 7.15661 10.0038 6.32423 10.0038 5.42757C10.0038 3.08598 8.10559 1.18774 5.764 1.18774ZM3.04009 5.42757C3.04009 3.9232 4.25962 2.70366 5.764 2.70366C7.26837 2.70366 8.48791 3.9232 8.48791 5.42757C8.48791 6.93195 7.26837 8.15148 5.764 8.15148C4.25962 8.15148 3.04009 6.93195 3.04009 5.42757Z" fill="#4D5159"/>
</svg>
