<svg viewBox="0 0 13 13" fill="none" xmlns="http://www.w3.org/2000/svg">
<path fill-rule="evenodd" clip-rule="evenodd" d="M6.33624 11.627L6.33973 11.6286L6.34126 11.6293C6.39655 11.6539 6.45604 11.6662 6.51553 11.6662C6.57505 11.6662 6.63458 11.6538 6.6899 11.6291L6.69103 11.6286L6.69452 11.627L6.70634 11.6216C6.71633 11.617 6.73052 11.6104 6.74861 11.6019C6.78479 11.5848 6.83664 11.5597 6.90192 11.5269C7.03243 11.4612 7.21699 11.364 7.43763 11.2362C7.87796 10.9812 8.46688 10.6013 9.05791 10.1021C10.2272 9.11442 11.4766 7.59717 11.4766 5.60404C11.4766 2.83549 9.26076 0.581299 6.51538 0.581299C3.76999 0.581299 1.5542 2.83549 1.5542 5.60404C1.5542 7.59717 2.80355 9.11442 3.97285 10.1021C4.56387 10.6013 5.1528 10.9812 5.59313 11.2362C5.81377 11.364 5.99833 11.4612 6.12884 11.5269C6.19412 11.5597 6.24597 11.5848 6.28215 11.6019C6.30024 11.6104 6.31443 11.617 6.32442 11.6216L6.33624 11.627ZM4.84864 5.54249C4.84864 4.62203 5.59482 3.87584 6.51528 3.87584C7.43575 3.87584 8.18193 4.62203 8.18193 5.54249C8.18193 6.46295 7.43575 7.20913 6.51528 7.20913C5.59482 7.20913 4.84864 6.46295 4.84864 5.54249Z" fill="#4D5159"/>
</svg>
