<svg width="40" height="32" viewBox="0 0 40 32" fill="none" xmlns="http://www.w3.org/2000/svg">
<path d="M18.2572 23.1202C18.2572 18.5002 15.3972 15.5302 10.4472 15.5302C9.45718 15.5302 8.68718 15.7502 8.13718 16.0802C8.35718 11.0202 12.9772 7.61023 17.1572 6.95023V0.240234C10.2272 0.900232 0.107178 5.85023 0.107178 20.5902C0.107178 26.4202 3.84718 31.1502 9.67718 31.1502C14.8472 31.1502 18.2572 27.4102 18.2572 23.1202ZM39.9272 23.1202C39.9272 18.5002 37.0672 15.5302 32.1172 15.5302C31.1272 15.5302 30.3572 15.7502 29.8072 16.0802C30.0272 11.0202 34.6472 7.61023 38.8272 6.95023V0.240234C31.8972 0.900232 21.7772 5.85023 21.7772 20.5902C21.7772 26.4202 25.5172 31.1502 31.3472 31.1502C36.5172 31.1502 39.9272 27.4102 39.9272 23.1202Z" fill="#EAEBEE"/>
</svg>
