<svg viewBox="0 0 21 21" fill="none" xmlns="http://www.w3.org/2000/svg">
<path fill-rule="evenodd" clip-rule="evenodd" d="M9.22416 2.16333C5.3154 2.16333 2.14673 5.332 2.14673 9.24076C2.14673 13.1495 5.3154 16.3182 9.22416 16.3182C10.9329 16.3182 12.5002 15.7127 13.7231 14.7045L17.6952 18.6765C17.9616 18.9429 18.3935 18.9429 18.6599 18.6765C18.9263 18.4101 18.9263 17.9782 18.6599 17.7118L14.6879 13.7397C15.6961 12.5168 16.3016 10.9495 16.3016 9.24076C16.3016 5.332 13.1329 2.16333 9.22416 2.16333ZM3.51105 9.24076C3.51105 6.0855 6.0689 3.52765 9.22416 3.52765C12.3794 3.52765 14.9373 6.0855 14.9373 9.24076C14.9373 12.396 12.3794 14.9539 9.22416 14.9539C6.0689 14.9539 3.51105 12.396 3.51105 9.24076Z" fill="#212124"/>
</svg>
