<svg xmlns="http://www.w3.org/2000/svg" xmlns:xlink="http://www.w3.org/1999/xlink">
  <symbol id="icon_chevron_right_regular" width="24" height="24" viewBox="0 0 24 24" fill="none" xmlns="http://www.w3.org/2000/svg" data-karrot-ui-icon="true">
  <path fill-rule="evenodd" clip-rule="evenodd" d="M8.42511 3.22988L16.6551 11.4499C16.9551 11.7499 16.9551 12.2399 16.6551 12.5399L8.42511 20.7699C8.12511 21.0699 7.63511 21.0699 7.33511 20.7699C7.03511 20.4699 7.03511 19.9799 7.33511 19.6799L15.0151 11.9999L7.33511 4.31988C7.03511 4.01988 7.03511 3.52988 7.33511 3.22988C7.63511 2.92988 8.12511 2.92988 8.42511 3.22988Z" fill="currentColor"/>
  </symbol>
  <symbol id="icon_call_fill" width="24" height="24" viewBox="0 0 24 24" fill="none" xmlns="http://www.w3.org/2000/svg" data-karrot-ui-icon="true">
  <path d="M3 6.85714C3 14.668 9.33197 21 17.1429 21C17.9209 21 19.3388 21 20.5463 20.5529C20.8304 20.4476 21 20.1657 21 19.8627V15.3714C21 14.9296 20.6418 14.5714 20.2 14.5714H16.2714C16.0061 14.5714 15.7518 14.6768 15.5642 14.8643L13.9286 16.5C13.2857 16.2857 11.5348 15.6955 10.1068 14.2675C8.32053 12.4813 7.71429 10.7143 7.5 10.0714L9.16461 8.43681C9.35609 8.24878 9.46396 7.99168 9.46396 7.72331V3.8C9.46396 3.35817 9.10579 3 8.66396 3H4.13728C3.83427 3 3.55236 3.16959 3.44713 3.45375C3 4.66116 3 6.07911 3 6.85714Z" fill="currentColor"/>
  </symbol>
  <symbol id="icon_close_regular" width="24" height="24" viewBox="0 0 24 24" fill="none" xmlns="http://www.w3.org/2000/svg" data-karrot-ui-icon="true">
  <path fill-rule="evenodd" clip-rule="evenodd" d="M3.72633 3.72633C4.0281 3.42456 4.51736 3.42456 4.81913 3.72633L12 10.9072L19.1809 3.72633C19.4826 3.42456 19.9719 3.42456 20.2737 3.72633C20.5754 4.0281 20.5754 4.51736 20.2737 4.81913L13.0928 12L20.2737 19.1809C20.5754 19.4826 20.5754 19.9719 20.2737 20.2737C19.9719 20.5754 19.4826 20.5754 19.1809 20.2737L12 13.0928L4.81913 20.2737C4.51736 20.5754 4.0281 20.5754 3.72633 20.2737C3.42456 19.9719 3.42456 19.4826 3.72633 19.1809L10.9072 12L3.72633 4.81913C3.42456 4.51736 3.42456 4.0281 3.72633 3.72633Z" fill="currentColor"/>
  </symbol>
  <symbol id="icon_forward_regular" width="24" height="24" viewBox="0 0 24 24" fill="none" xmlns="http://www.w3.org/2000/svg" data-karrot-ui-icon="true">
  <path d="M11.4344 4.56564C11.1219 4.25322 11.1219 3.74669 11.4344 3.43427C11.7468 3.12185 12.2533 3.12185 12.5657 3.43427L20.5657 11.4343C20.8782 11.7467 20.8782 12.2532 20.5657 12.5656L12.5657 20.5656C12.2533 20.8781 11.7468 20.8781 11.4344 20.5656C11.1219 20.2532 11.1219 19.7467 11.4344 19.4343L18.0687 12.8L4.00044 12.8C3.55861 12.8 3.20044 12.4418 3.20044 12C3.20044 11.5581 3.55861 11.2 4.00044 11.2H18.0687L11.4344 4.56564Z" fill="currentColor"/>
  </symbol>
</svg>
