<svg viewBox="0 0 186 32" fill="none" xmlns="http://www.w3.org/2000/svg">
<g clip-path="url(#clip0_2192_102)">
<path d="M12.1421 5.93457C5.44027 5.93457 0 11.3566 0 18.0603C0 20.8797 0.965845 23.4626 2.56245 25.5131C2.68071 25.6709 2.81869 25.8286 2.93696 25.9863C3.13407 26.2032 3.31147 26.4201 3.52829 26.637L3.548 26.6567C5.87392 29.1213 8.81088 30.9943 12.1223 31.9999C15.4338 30.9943 18.3708 29.1213 20.6967 26.6567L20.7164 26.637C20.9135 26.4201 21.1106 26.2032 21.3077 25.9863C21.4457 25.8286 21.564 25.6709 21.6822 25.5131C23.2788 23.4626 24.2447 20.8797 24.2447 18.0603C24.2644 11.3566 18.8438 5.93457 12.1421 5.93457ZM12.1421 22.7134C9.57961 22.7134 7.50994 20.6431 7.50994 18.08C7.50994 15.5168 9.57961 13.4466 12.1421 13.4466C14.7045 13.4466 16.7742 15.5168 16.7742 18.08C16.7742 20.6431 14.7045 22.7134 12.1421 22.7134Z" fill="#FF7E36"/>
<path d="M16.0842 5.67837C16.8923 5.50092 17.4837 4.79113 17.4837 3.94331C17.4837 2.95749 16.6755 2.14911 15.6899 2.14911C15.414 2.14911 15.1577 2.20826 14.9212 2.32656C14.6847 1.00555 13.5217 0 12.1419 0C10.7622 0 9.5795 1.00555 9.34297 2.32656C9.10643 2.20826 8.85019 2.14911 8.57423 2.14911C7.58867 2.14911 6.78052 2.95749 6.78052 3.94331C6.78052 4.79113 7.39156 5.50092 8.18001 5.67837C9.42181 5.24461 10.7425 5.00801 12.1222 5.00801C13.502 5.00801 14.8424 5.24461 16.0842 5.67837Z" fill="#00B493"/>
<path d="M32.9374 18.2378H40.3685C41.2949 18.2378 42.0242 17.6858 42.0242 16.5422C42.0242 15.3987 41.2949 14.8466 40.3685 14.8466H33.9032C33.5681 14.8466 33.371 14.6494 33.371 14.334V11.4356C33.371 11.1202 33.5681 10.923 33.9032 10.923H40.3685C41.2949 10.923 42.0242 10.3709 42.0242 9.22736C42.0242 8.0838 41.2949 7.53174 40.3685 7.53174H32.9374C30.4144 7.53174 29.2317 8.65558 29.2317 10.7653V15.0438C29.2317 17.1337 30.4144 18.2378 32.9374 18.2378Z" fill="#FF7E36"/>
<path d="M42.2411 19.5984H34.9282C31.6365 19.5984 29.4683 21.4123 29.4683 24.074C29.4683 26.6766 31.6365 28.4906 34.9282 28.4906H42.2411C45.5328 28.4906 47.7208 26.6766 47.7208 24.074C47.7208 21.432 45.5328 19.5984 42.2411 19.5984ZM42.2411 25.0796H34.9282C34.1201 25.0796 33.6864 24.6458 33.6864 24.0938C33.6864 23.5023 34.1201 23.0488 34.9282 23.0488H42.2411C43.0492 23.0488 43.5026 23.5023 43.5026 24.0938C43.5026 24.6261 43.0295 25.0796 42.2411 25.0796Z" fill="#FF7E36"/>
<path d="M48.4304 10.9822H47.2674V8.75422C47.2674 7.78811 46.4199 7.05859 45.1978 7.05859C43.9757 7.05859 43.1084 7.78811 43.1084 8.75422V17.3901C43.1084 18.3562 43.9757 19.0857 45.1978 19.0857C46.4199 19.0857 47.2674 18.3562 47.2674 17.3901V15.0438H48.4304C49.3765 15.0438 50.1256 14.2157 50.1256 13.0327C50.1256 11.8892 49.3765 10.9822 48.4304 10.9822Z" fill="#FF7E36"/>
<path d="M69.1664 20.1505H52.1951C51.2095 20.1505 50.4014 19.4999 50.4014 18.2972C50.4014 17.1733 51.2095 16.4832 52.1951 16.4832H69.1664C70.1519 16.4832 70.9601 17.193 70.9601 18.2972C70.9601 19.4802 70.1519 20.1505 69.1664 20.1505ZM65.6775 14.1764V11.9682C65.6775 11.5738 65.4607 11.3569 65.1256 11.3569H53.358C52.3331 11.3569 51.4658 10.7063 51.4658 9.46415C51.4658 8.28115 52.3331 7.51221 53.358 7.51221H66.0323C68.5553 7.51221 69.8365 8.8135 69.8365 11.1203V14.1567C69.8365 15.1228 68.989 15.8523 67.7669 15.8523C66.5448 15.8523 65.6775 15.1425 65.6775 14.1764ZM55.7234 22.5362V23.9953C55.7234 24.291 55.9402 24.4882 56.2753 24.4882H68.3779C69.4029 24.4882 70.2702 25.1585 70.2702 26.381C70.2702 27.564 69.4029 28.2738 68.3779 28.2738H55.3883C52.885 28.2738 51.5446 27.2091 51.5446 24.9417V22.5362C51.5446 21.5701 52.3922 20.8406 53.6143 20.8406C54.8364 20.8406 55.7234 21.5701 55.7234 22.5362Z" fill="#FF7E36"/>
<path d="M73.0693 24.4289V10.4301C73.0693 8.51762 74.0352 7.51207 76.026 7.51207H81.4466C83.4374 7.51207 84.4032 8.4979 84.4032 10.4301V24.4289C84.4032 26.3414 83.4374 27.3469 81.4466 27.3469H76.026C74.0549 27.3469 73.0693 26.3611 73.0693 24.4289ZM80.5004 23.1079V11.7709C80.5004 11.4948 80.3625 11.3371 80.1062 11.3371H77.3861C77.1495 11.3371 76.9919 11.5145 76.9919 11.7709V23.1079C76.9919 23.3839 77.1298 23.5416 77.3861 23.5416H80.1062C80.3625 23.5416 80.5004 23.3642 80.5004 23.1079ZM86.9657 26.6963V8.87252C86.9657 7.84726 87.833 7.05859 89.0551 7.05859C90.2772 7.05859 91.1247 7.86697 91.1247 8.87252V14.7086H92.2877C93.2338 14.7086 93.9828 15.6156 93.9828 16.7394C93.9828 17.9619 93.2338 18.8097 92.2877 18.8097H91.1247V26.6963C91.1247 27.7216 90.2772 28.5102 89.0551 28.5102C87.833 28.5102 86.9657 27.7216 86.9657 26.6963Z" fill="#FF7E36"/>
<path d="M104.607 11.9089H105.455V8.71479C105.455 7.78811 106.204 7.15718 107.347 7.15718C108.49 7.15718 109.2 7.78811 109.2 8.71479V18.297C109.2 19.2237 108.49 19.8546 107.347 19.8546C106.204 19.8546 105.455 19.2237 105.455 18.297V15.4776H104.607C104.154 15.4776 103.74 15.2607 103.464 14.8466C102.321 17.3704 100.31 19.4012 97.511 20.6433C96.6043 21.0376 95.6385 20.7813 95.126 19.9335C94.6135 19.0857 94.9486 17.9816 95.737 17.6464C96.9985 17.0943 98.0432 16.3451 98.8514 15.379H96.8211C96.0524 15.379 95.3625 14.9255 95.3625 13.9002C95.3625 12.9538 96.0327 12.4215 96.8211 12.4215H100.389C100.487 12.0666 100.586 11.6723 100.625 11.2582C100.665 10.9428 100.507 10.7259 100.211 10.7259H96.9394C96.013 10.7259 95.3625 10.1935 95.3625 9.12883C95.3625 8.10357 96.013 7.49236 96.9394 7.49236H100.921C103.562 7.49236 104.784 8.75422 104.39 11.5934C104.371 11.692 104.371 11.8103 104.351 11.9089C104.43 11.9089 104.508 11.9089 104.607 11.9089ZM112.038 28.1356C109.515 27.6033 106.499 26.2231 104.548 24.6458C102.734 26.44 100.31 27.761 97.7476 28.2539C96.8803 28.4314 95.8553 28.0173 95.5399 26.9526C95.2443 25.9274 95.7567 25.0007 96.6832 24.7641C99.4821 24.0346 101.808 22.4178 102.971 20.249C103.326 19.5983 104.311 19.1646 105.415 19.4998C106.578 19.8547 107.051 20.9588 106.696 21.7277L106.677 21.7672C108.293 23.1079 110.698 24.1529 113.063 24.6655C113.97 24.8627 114.502 25.7893 114.206 26.8343C113.911 27.8793 112.925 28.3328 112.038 28.1356ZM110.106 18.9477V8.6162C110.106 7.68952 110.875 7.05859 112.058 7.05859C113.241 7.05859 113.97 7.68952 113.97 8.6162V18.9674C113.97 19.8941 113.221 20.525 112.058 20.525C110.895 20.525 110.106 19.8744 110.106 18.9477Z" fill="#FF7E36"/>
<path d="M128.832 13.9988C128.832 16.6211 130.133 19.4208 132.833 20.5447L131.572 22.3783C129.699 21.5699 128.418 19.9926 127.689 18.0407C126.979 20.1504 125.678 21.9248 123.786 22.7727L122.465 20.939C125.166 19.7166 126.486 16.7591 126.486 13.9988V13.1115H123.116V11.199H132.163V13.1115H128.832V13.9988ZM135.967 9.66113V25.809H133.661V9.66113H135.967Z" fill="#FF7E36"/>
<path d="M152.209 9.66113V19.2237H149.903V17.1731H146.395C145.626 18.0012 144.463 18.5139 143.162 18.5139C140.777 18.5139 138.924 16.838 138.924 14.4917C138.924 12.1849 140.777 10.4892 143.162 10.4892C144.483 10.4892 145.626 11.0019 146.414 11.83H149.903V9.66113H152.209ZM145.232 14.4917C145.232 13.2298 144.364 12.4806 143.162 12.4806C141.979 12.4806 141.112 13.2298 141.112 14.4917C141.112 15.7733 141.979 16.5225 143.162 16.5225C144.364 16.5225 145.232 15.7733 145.232 14.4917ZM141.23 19.9532H152.229V25.8287H149.923V21.7868H141.25V19.9532H141.23ZM149.903 15.3395V13.6833H147.341C147.4 13.9396 147.42 14.2157 147.42 14.5114C147.42 14.7874 147.38 15.0635 147.341 15.3592H149.903V15.3395Z" fill="#FF7E36"/>
<path d="M164.687 18.2181C161.375 18.7702 157.729 18.8293 154.851 18.8293L154.614 16.9957C155.521 16.9957 156.526 16.9957 157.551 16.976V14.1368H159.818V16.9168C161.415 16.838 163.031 16.7394 164.529 16.5619L164.687 18.2181ZM161.237 15.655C161.474 14.3142 161.553 13.2693 161.572 12.382H155.58V10.5484H163.859V11.5934C163.859 12.6581 163.859 14.0776 163.484 15.8324L161.237 15.655ZM167.88 22.7332C167.88 24.6457 165.731 25.7893 162.302 25.7893C158.852 25.7893 156.684 24.6457 156.684 22.7332C156.684 20.8207 158.832 19.6772 162.302 19.6772C165.712 19.6772 167.88 20.8207 167.88 22.7332ZM165.515 22.7332C165.515 21.8657 164.371 21.4714 162.302 21.4714C160.193 21.4714 159.049 21.8657 159.049 22.7332C159.049 23.6008 160.193 23.9754 162.302 23.9754C164.371 23.9754 165.515 23.6008 165.515 22.7332ZM169.674 13.6242V15.5367H167.742V19.5194H165.436V9.66113H167.742V13.6242H169.674Z" fill="#FF7E36"/>
<path d="M185.6 22.0037V23.857H170.994V22.0037H176.158V16.4436H178.465V22.0037H185.6ZM181.224 20.0517C181.835 16.9957 181.875 14.748 181.875 12.8749H172.472V11.0413H184.201V12.5792C184.201 14.5902 184.201 16.8774 183.55 20.308L181.224 20.0517Z" fill="#FF7E36"/>
</g>
<defs>
<clipPath id="clip0_2192_102">
<rect width="185.6" height="32" fill="white"/>
</clipPath>
</defs>
</svg>
