<svg viewBox="0 0 97 28" fill="none" xmlns="http://www.w3.org/2000/svg">
<g clip-path="url(#clip0_27912_1672)">
<g clip-path="url(#clip1_27912_1672)">
<path d="M7.94643 8.73195C3.55906 8.73195 0.00268555 12.2883 0.00268555 16.6757C0.00268555 16.8606 0.0113238 17.0428 0.0234174 17.2225C0.0260088 17.2571 0.0286003 17.2916 0.0311918 17.327C0.122757 18.4578 0.450147 19.5229 0.965852 20.4705C2.6935 23.7591 6.25506 25.7683 7.50329 26.3946C7.78403 26.5354 8.11056 26.5354 8.39044 26.3946C9.6378 25.7683 13.1994 23.7599 14.927 20.4714C15.4436 19.5229 15.771 18.4569 15.8625 17.3244C15.8651 17.2916 15.8677 17.2579 15.8703 17.2251C15.8824 17.0437 15.891 16.8606 15.891 16.6757C15.891 12.2883 12.3347 8.73195 7.94729 8.73195H7.94643ZM7.94643 19.6343C6.30084 19.6343 4.96709 18.3006 4.96709 16.655C4.96709 15.0094 6.30084 13.6756 7.94643 13.6756C9.59202 13.6756 10.9258 15.0094 10.9258 16.655C10.9258 18.3006 9.59202 19.6343 7.94643 19.6343Z" fill="#FF7E36"/>
<path d="M4.96798 7.95365H5.60894C6.34837 7.72646 7.13359 7.60293 7.94731 7.60293C8.76104 7.60293 9.54626 7.7256 10.2857 7.95365H10.9267C11.749 7.95365 12.4159 7.28677 12.4159 6.46441C12.4159 5.64205 11.749 4.97517 10.9267 4.97517C10.6157 4.97517 10.328 5.07106 10.0896 5.23346C10.3047 4.86547 10.4308 4.43874 10.4308 3.98264C10.4308 2.61174 9.31907 1.5 7.94818 1.5C6.57729 1.5 5.46554 2.61174 5.46554 3.98264C5.46554 4.4396 5.5908 4.86633 5.80675 5.23346C5.56834 5.07106 5.27982 4.97517 4.96971 4.97517C4.14734 4.97517 3.48047 5.64205 3.48047 6.46441C3.48047 7.28677 4.14734 7.95365 4.96971 7.95365H4.96798Z" fill="#00B493"/>
</g>
<path d="M37.1064 9.07315H32.2994L28.12 14.7392V4.46429H23.8911V23.2466H28.12V18.0596L32.1094 23.2466H37.346L31.6799 16.1351L37.1064 9.07315Z" fill="#FF7E36"/>
<path d="M46.6627 9.94035C46.2332 9.65126 45.7542 9.46129 45.176 9.27132C44.4574 9.03179 43.6893 8.93268 42.8716 8.93268C41.9134 8.93268 40.9471 9.12265 40.0881 9.51085C39.2208 9.89905 38.4527 10.4194 37.8332 11.0471C37.2055 11.7162 36.6769 12.4843 36.2969 13.3516C35.9087 14.2601 35.7188 15.2265 35.7188 16.2342C35.7188 17.2418 35.9087 18.1999 36.2969 19.1167C36.6851 19.984 37.2055 20.7521 37.8332 21.3716C38.4609 21.9993 39.2291 22.528 40.0881 22.9079C40.9553 23.2961 41.8639 23.4861 42.8716 23.4861C43.6893 23.4861 44.4574 23.387 45.176 23.1474C45.7046 23.007 46.2332 22.7592 46.6627 22.4784V23.2961H50.8421V9.07309H46.6627V9.94035ZM41.8639 19.3976C41.4757 19.2076 41.0957 18.9681 40.8067 18.679C40.5176 18.3403 40.278 18.01 40.0881 17.5722C39.8981 17.1427 39.8485 16.7049 39.8485 16.2259C39.8485 15.7468 39.9477 15.3173 40.0881 14.8796C40.278 14.4501 40.5176 14.0619 40.8067 13.7728C41.0957 13.4837 41.4757 13.1946 41.8639 13.0542C42.2521 12.8642 42.7311 12.7651 43.2102 12.7651C43.6893 12.7651 44.1683 12.8642 44.5565 13.0542C44.986 13.2442 45.3742 13.4837 45.6633 13.7728C46.0019 14.0619 46.2415 14.4418 46.4314 14.8796C46.6214 15.3091 46.7205 15.7468 46.7205 16.2259C46.7205 16.7049 46.6214 17.184 46.481 17.5722C46.291 18.0017 46.0515 18.3403 45.7624 18.679C45.4238 19.0176 45.0934 19.2572 44.6556 19.3976C43.7388 19.7362 42.6816 19.7858 41.8639 19.3976Z" fill="#FF7E36"/>
<path d="M58.0528 9.46144C57.5737 9.75053 57.0947 10.0892 56.7065 10.5187V9.0815H52.5271V23.2467H56.756V16.7629C56.756 15.6561 57.0451 14.7476 57.6233 14.0703C58.2015 13.4426 59.1596 13.1122 60.4563 13.1122H60.6959V8.88327H60.4563C59.5891 8.88327 58.7714 9.07324 58.0528 9.46144Z" fill="#FF7E36"/>
<path d="M67.7495 9.46144C67.2705 9.75053 66.7914 10.0892 66.4032 10.5187V9.0815H62.2239V23.2467H66.4528V16.7629C66.4528 15.6561 66.7419 14.7476 67.32 14.0703C67.8982 13.4426 68.8563 13.1122 70.1531 13.1122H70.3926V8.88327H70.1531C69.2858 8.88327 68.4681 9.07324 67.7495 9.46144Z" fill="#FF7E36"/>
<path d="M83.7483 10.948C83.0793 10.279 82.2616 9.75038 81.3448 9.36218C80.428 8.97398 79.4203 8.78401 78.3218 8.78401C77.215 8.78401 76.2073 8.97398 75.2987 9.36218C74.3819 9.75038 73.5725 10.2707 72.8952 10.948C72.2262 11.6171 71.6976 12.3852 71.3094 13.302C70.9212 14.2106 70.7312 15.1769 70.7312 16.1846C70.7312 17.1923 70.9212 18.1999 71.3094 19.0672C71.6976 19.9758 72.2179 20.7522 72.8952 21.4212C73.5642 22.0902 74.3819 22.6188 75.2987 22.9575C76.2073 23.3457 77.2232 23.5356 78.3218 23.5356C79.379 23.5356 80.4362 23.3457 81.3448 22.9575C82.2533 22.5693 83.071 22.0489 83.7483 21.3716C84.4173 20.7026 84.9459 19.9345 85.3341 19.0176C85.7223 18.1091 85.9123 17.1427 85.9123 16.135C85.9123 15.1274 85.7223 14.1197 85.3341 13.2524C84.9955 12.3852 84.4669 11.6171 83.7483 10.948ZM76.9754 12.9138C77.4049 12.7238 77.8427 12.6743 78.3218 12.6743C78.8008 12.6743 79.2799 12.7734 79.6681 12.9138C80.0976 13.1038 80.4362 13.3433 80.7749 13.6324C81.0639 13.971 81.3035 14.3014 81.4934 14.7392C81.6834 15.1687 81.733 15.6477 81.733 16.1763C81.733 16.705 81.6339 17.184 81.4439 17.6135C81.2539 18.043 81.0144 18.4312 80.6757 18.7203C80.3371 19.0589 80.0067 19.2985 79.569 19.4884C78.7017 19.8766 77.6445 19.8766 76.835 19.4884C76.4055 19.2985 76.0669 19.0589 75.7778 18.7203C75.4887 18.3817 75.2492 18.0513 75.0592 17.6135C74.9188 17.184 74.8197 16.705 74.8197 16.1763C74.8197 15.6477 74.9188 15.1687 75.0592 14.7392C75.2492 14.3097 75.4887 13.9215 75.7778 13.6324C76.1578 13.302 76.5377 13.0625 76.9754 12.9138Z" fill="#FF7E36"/>
<path d="M95.9477 12.8644V9.07321H92.5861V5.52159H88.4067V9.02366H86.4409V12.8231H88.4067V18.2992C88.4067 19.9346 88.8362 21.1322 89.753 21.9995C90.6203 22.8172 92.0574 23.2467 93.9324 23.2467H95.9973V19.5959H94.2214C93.6433 19.5959 93.2633 19.4968 93.0238 19.2573C92.7843 19.0673 92.6356 18.6791 92.6356 18.1009V12.8148H95.9477V12.8644Z" fill="#FF7E36"/>
</g>
<defs>
<clipPath id="clip0_27912_1672">
<rect width="96" height="27" fill="white" transform="translate(0.00268555 0.5)"/>
</clipPath>
<clipPath id="clip1_27912_1672">
<rect width="15.8884" height="25" fill="white" transform="translate(0.00268555 1.5)"/>
</clipPath>
</defs>
</svg>
