<svg style="height: 36px;" viewBox="0 0 300 114" fill="none" xmlns="http://www.w3.org/2000/svg">
<g clip-path="url(#clip0_3983_2855)">
<path d="M149.339 86.4738V81.5837L149.039 81.4687C146.284 84.7188 142.214 87.4688 136.704 87.4688C125.179 87.4688 116.159 78.1537 116.159 65.6437C116.159 53.1336 125.009 43.8535 136.534 43.8535C138.933 43.8634 141.298 44.407 143.461 45.4448C145.623 46.4826 147.527 47.9886 149.034 49.8536L149.334 49.7435V44.8235H160.299V86.4738H149.339ZM127.499 65.6337C127.499 71.9987 132.214 77.5637 138.789 77.5637C145.199 77.5637 149.874 72.2137 149.874 65.6337C149.874 59.0536 145.199 53.9086 138.789 53.9086C132.189 53.9086 127.499 59.2686 127.499 65.6337Z" fill="#FF6F0F"/>
<path d="M272.468 65.6339C272.468 78.189 262.913 87.459 249.928 87.459C236.943 87.459 227.498 78.189 227.498 65.6339C227.498 53.0788 236.998 43.8438 249.953 43.8438C262.908 43.8438 272.468 53.0788 272.468 65.6339ZM238.968 65.6339C238.968 72.5739 243.628 78.019 249.968 78.019C256.308 78.019 260.968 72.5739 260.968 65.6339C260.968 58.6939 256.308 53.2688 249.968 53.2688C243.628 53.2688 238.948 58.6939 238.948 65.6339H238.968Z" fill="#FF6F0F"/>
<path d="M286.677 54.3093V72.1144C286.677 75.9494 289.437 77.4394 291.912 77.6544C294.62 77.9388 297.351 77.3875 299.737 76.0744L299.997 85.7045C296.676 87.0409 293.102 87.6331 289.527 87.4395C280.647 86.9395 275.422 82.7145 275.422 73.3694V37.0542L286.677 33.3691V44.8242H298.782V54.3243L286.677 54.3093Z" fill="#FF6F0F"/>
<path d="M194.334 44.6285L194.089 56.2736C191.572 55.2291 188.845 54.7923 186.129 54.9986C181.679 55.3536 177.764 57.2636 177.764 63.4536V86.4738H166.434V44.8235H177.434V51.4135L177.764 51.4935C179.549 47.9335 182.849 44.4935 188.674 43.8885C190.592 43.6812 192.533 43.9349 194.334 44.6285Z" fill="#FF6F0F"/>
<path d="M226.913 44.6282L226.668 56.2732C224.15 55.2289 221.421 54.7921 218.703 54.9982C214.258 55.3532 210.343 57.2633 210.343 63.4533V86.4734H198.998V44.8232H209.998V51.4132L210.328 51.4932C212.113 47.9332 215.418 44.4932 221.243 43.8882C223.165 43.6797 225.109 43.9334 226.913 44.6282Z" fill="#FF6F0F"/>
<path d="M105.584 86.474H120.349L100.964 63.7189C107.624 60.3488 115.079 52.9238 117.819 44.8087H104.404C101.764 51.3538 96.8091 57.2538 89.9041 59.3088L89.7041 59.1788V27.4736H78.499V86.474H89.6991V67.5239H89.9891L105.584 86.474Z" fill="#FF6F0F"/>
<path d="M29.2397 36.8691C13.0899 36.8691 0 49.684 0 65.8338C0 88.1586 29.3197 100.009 29.2397 99.9735C29.1597 99.9385 58.4994 88.1586 58.4994 65.8338C58.4994 49.684 45.3845 36.8691 29.2397 36.8691ZM29.2397 77.5537C27.0505 77.5547 24.9102 76.9066 23.0893 75.6913C21.2684 74.4759 19.8488 72.748 19.0099 70.7259C18.1709 68.7038 17.9504 66.4784 18.3762 64.331C18.8019 62.1836 19.8549 60.2106 21.4018 58.6616C22.9488 57.1125 24.9203 56.0569 27.0671 55.6283C29.2139 55.1996 31.4397 55.4171 33.4629 56.2532C35.4861 57.0894 37.216 58.5067 38.4338 60.326C39.6516 62.1452 40.3026 64.2846 40.3046 66.4738C40.3059 67.928 40.0207 69.3681 39.4653 70.712C38.9099 72.0559 38.0951 73.2772 37.0676 74.3061C36.0401 75.3351 34.8199 76.1515 33.4767 76.7087C32.1336 77.2659 30.6938 77.5531 29.2397 77.5537Z" fill="#FF6F0F"/>
<path d="M35.8202 -0.0263672C28.9952 -0.0263672 24.2451 4.74367 23.5001 10.3537C14.4001 7.85369 7.27002 14.7387 7.27002 22.3538C7.27002 28.1738 11.2701 32.8788 16.6051 34.4038C20.9051 35.6289 28.6502 34.7188 28.6502 34.7188C28.6102 32.8338 30.3402 30.7688 33.0152 28.8888C40.6102 23.5438 46.5553 21.0288 47.4753 13.7387C48.4353 6.13369 42.7753 -0.0263672 35.8202 -0.0263672Z" fill="#00A05B"/>
</g>
<defs>
<clipPath id="clip0_3983_2855">
<rect width="300" height="114" fill="white"/>
</clipPath>
</defs>
</svg>
