<svg width="170" height="170" viewBox="0 0 170 170" fill="none" xmlns="http://www.w3.org/2000/svg">
<rect x="3.5" y="2.5" width="165" height="165" rx="45.5" fill="white" stroke="#D1D3D8"/>
<g clip-path="url(#clip0_27899_78168)">
<path d="M84.775 62.9279C67.2255 62.9279 53 77.1533 53 94.7028C53 95.4423 53.0346 96.1713 53.0829 96.89C53.0933 97.0283 53.1037 97.1665 53.114 97.3081C53.4803 101.831 54.7898 106.092 56.8527 109.882C63.7633 123.036 78.0095 131.073 83.0024 133.578C84.1254 134.142 85.4315 134.142 86.551 133.578C91.5405 131.073 105.787 123.04 112.697 109.885C114.764 106.092 116.073 101.828 116.439 97.2978C116.45 97.1665 116.46 97.0317 116.471 96.9004C116.519 96.1748 116.553 95.4423 116.553 94.7028C116.553 77.1533 102.328 62.9279 84.7784 62.9279H84.775ZM84.775 106.537C78.1926 106.537 72.8576 101.202 72.8576 94.6199C72.8576 88.0376 78.1926 82.7026 84.775 82.7026C91.3573 82.7026 96.6923 88.0376 96.6923 94.6199C96.6923 101.202 91.3573 106.537 84.775 106.537Z" fill="#FF7E36"/>
<path d="M72.8612 59.8146H75.425C78.3827 58.9058 81.5236 58.4117 84.7785 58.4117C88.0334 58.4117 91.1743 58.9024 94.132 59.8146H96.6959C99.9853 59.8146 102.653 57.1471 102.653 53.8576C102.653 50.5682 99.9853 47.9007 96.6959 47.9007C95.452 47.9007 94.3013 48.2842 93.3477 48.9338C94.208 47.4619 94.7125 45.7549 94.7125 43.9305C94.7125 38.447 90.2655 34 84.782 34C79.2984 34 74.8514 38.447 74.8514 43.9305C74.8514 45.7584 75.3524 47.4653 76.2163 48.9338C75.2626 48.2842 74.1085 47.9007 72.8681 47.9007C69.5786 47.9007 66.9111 50.5682 66.9111 53.8576C66.9111 57.1471 69.5786 59.8146 72.8681 59.8146H72.8612Z" fill="#00B493"/>
</g>
<defs>
<clipPath id="clip0_27899_78168">
<rect width="63.5534" height="100" fill="white" transform="translate(53 34)"/>
</clipPath>
</defs>
</svg>
