<svg width="24" height="24" viewBox="0 0 24 24" fill="none" xmlns="http://www.w3.org/2000/svg">
<g clip-path="url(#clip0_27899_78160)">
<path d="M11.9996 7.36414C8.13369 7.36414 5 10.4937 5 14.3546C5 14.5173 5.00761 14.6777 5.01827 14.8358C5.02055 14.8662 5.02283 14.8966 5.02512 14.9278C5.1058 15.9229 5.39428 16.8601 5.84869 17.694C7.37101 20.588 10.5093 22.3562 11.6091 22.9073C11.8565 23.0312 12.1442 23.0312 12.3909 22.9073C13.49 22.3562 16.6282 20.5888 18.1505 17.6948C18.6057 16.8601 18.8942 15.9221 18.9749 14.9255C18.9772 14.8966 18.9794 14.867 18.9817 14.8381C18.9924 14.6785 19 14.5173 19 14.3546C19 10.4937 15.8663 7.36414 12.0004 7.36414H11.9996ZM11.9996 16.9582C10.5496 16.9582 9.37438 15.7845 9.37438 14.3364C9.37438 12.8883 10.5496 11.7146 11.9996 11.7146C13.4496 11.7146 14.6249 12.8883 14.6249 14.3364C14.6249 15.7845 13.4496 16.9582 11.9996 16.9582Z" fill="white"/>
<path d="M9.37517 6.67921H9.93995C10.5915 6.47929 11.2834 6.37058 12.0004 6.37058C12.7174 6.37058 13.4093 6.47853 14.0609 6.67921H14.6256C15.3503 6.67921 15.9379 6.09236 15.9379 5.36868C15.9379 4.645 15.3503 4.05815 14.6256 4.05815C14.3516 4.05815 14.0982 4.14253 13.8881 4.28544C14.0776 3.96161 14.1887 3.58609 14.1887 3.18472C14.1887 1.97834 13.2091 1 12.0012 1C10.7932 1 9.8136 1.97834 9.8136 3.18472C9.8136 3.58685 9.92397 3.96237 10.1143 4.28544C9.90418 4.14253 9.64995 4.05815 9.37669 4.05815C8.65207 4.05815 8.06445 4.645 8.06445 5.36868C8.06445 6.09236 8.65207 6.67921 9.37669 6.67921H9.37517Z" fill="white"/>
</g>
<defs>
<clipPath id="clip0_27899_78160">
<rect width="14" height="22" fill="white" transform="translate(5 1)"/>
</clipPath>
</defs>
</svg>
