<svg xmlns="http://www.w3.org/2000/svg" viewBox="0 0 116 32" fill="none">
<path d="M12.308 5.93848C5.51353 5.93848 0 11.3817 0 18.0895C0 20.8936 1.00246 23.4778 2.61753 25.5671C2.72892 25.732 2.896 25.897 3.00738 26.0069C3.17446 26.2269 3.39722 26.4468 3.62 26.6667C5.95907 29.1408 8.96645 31.0103 12.308 32C15.6495 31.0103 18.6569 29.1408 20.9959 26.6667C21.2187 26.4468 21.3858 26.2269 21.6086 26.0069C21.7199 25.842 21.887 25.677 21.9984 25.5671C23.6135 23.5327 24.616 20.9485 24.616 18.0895C24.616 11.3817 19.1024 5.93848 12.308 5.93848ZM12.308 22.7079C9.69044 22.7079 7.57414 20.6186 7.57414 18.0346C7.57414 15.4504 9.69044 13.3611 12.308 13.3611C14.9256 13.3611 16.9862 15.4504 16.9862 18.0346C16.9862 20.6186 14.9256 22.7079 12.308 22.7079Z" fill="#FF7E36"/>
<path d="M16.3178 5.66315C17.1531 5.49821 17.7657 4.78343 17.7657 3.90372C17.7657 2.91405 16.9304 2.14429 15.9836 2.14429C15.7051 2.14429 15.4267 2.19928 15.2039 2.30924C14.8698 0.989674 13.7002 0 12.3079 0C10.9156 0 9.7461 0.989674 9.46761 2.30924C.24483 2.19928 8.96637 2.14429 8.68791 2.14429C7.68546 2.14429 6.90576 2.96903 6.90576 3.90372C6.90576 4.78343 7.51838 5.49821 8.35376 5.66315C9.63468 5.2233 10.9713 5.00337 12.3636 5.00337C13.7559 5.00337 15.0368 5.2233 16.3178 5.66315Z" fill="#00B493"/>
<path d="M33.4155 18.2537H40.9339C41.8807 18.2537 42.6047 17.7039 42.6047 16.5492C42.6047 15.3947 41.8807 14.8448 40.9339 14.8448H34.3623C34.0281 14.8448 33.8053 14.6249 33.8053 14.35V11.4359C33.8053 11.106 34.0281 10.9411 34.3623 10.9411H40.9339C41.8807 10.9411 42.6047 10.3913 42.6047 9.23667C42.6047 8.08204 41.8807 7.53223 40.9339 7.53223H33.4155C30.8537 7.53223 29.6284 8.63186 29.6284 10.7761V15.0648C29.6284 17.1541 30.8537 18.2537 33.4155 18.2537Z" fill="#FF7E36"/>
<path d="M42.8274 19.6289H35.4203C32.0788 19.6289 29.9067 21.4433 29.9067 24.0824C29.9067 26.6665 32.0788 28.481 35.4203 28.481H42.8274C46.1689 28.481 48.3966 26.6665 48.3966 24.0824C48.3966 21.4433 46.1689 19.6289 42.8274 19.6289ZM42.8274 25.0721H35.4203C34.5849 25.0721 34.1394 24.6322 34.1394 24.0824C34.1394 23.4776 34.5849 23.0378 35.4203 23.0378H42.8274C43.6627 23.0378 44.1083 23.4776 44.1083 24.0824C44.1083 24.6322 43.6627 25.0721 42.8274 25.0721Z" fill="#FF7E36"/>
<path d="M49.1209 10.9958H47.9513V8.74156C47.9513 7.75187 47.116 7.03711 45.835 7.03711C44.6098 7.03711 43.7188 7.75187 43.7188 8.74156V17.3737C43.7188 18.3634 44.6098 19.0782 45.835 19.0782C47.0603 19.0782 47.9513 18.3634 47.9513 17.3737V15.0095H49.1209C50.0676 15.0095 50.8474 14.1848 50.8474 12.9752C50.8474 11.8756 50.0676 10.9958 49.1209 10.9958Z" fill="#FF7E36"/>
<path d="M70.1161 20.1788H52.9072C51.9048 20.1788 51.0693 19.519 51.0693 18.3094C51.0693 17.2097 51.9048 16.4949 52.9072 16.4949H70.1161C71.1186 16.4949 71.9539 17.2097 71.9539 18.3094C71.9539 19.519 71.1743 20.1788 70.1161 20.1788ZM66.6075 14.1858V11.9865C66.6075 11.6016 66.3847 11.3816 66.0506 11.3816H54.0767C53.0186 11.3816 52.1833 10.7218 52.1833 9.51226C52.1833 8.30266 53.0743 7.58789 54.0767 7.58789H66.9417C69.5035 7.58789 70.7844 8.90746 70.7844 11.2167V14.2407C70.7844 15.2304 69.949 15.9452 68.6681 15.9452C67.3872 15.9452 66.6075 15.1754 66.6075 14.1858ZM56.5272 22.543V24.0276C56.5272 24.3024 56.75 24.5224 57.0841 24.5224H69.3921C70.4503 24.5224 71.2856 25.1821 71.2856 26.3918C71.2856 27.6013 70.3946 28.2611 69.3921 28.2611H56.2487C53.6869 28.2611 52.3503 27.2165 52.3503 24.9072V22.543C52.3503 21.5533 53.1857 20.8385 54.4666 20.8385C55.6362 20.8385 56.5272 21.6083 56.5272 22.543Z" fill="#FF7E36"/>
<path d="M74.126 24.4671V10.4467C74.126 8.5223 75.1284 7.53263 77.1334 7.53263H82.6469C84.6518 7.53263 85.6543 8.5223 85.6543 10.4467V24.4671C85.6543 26.3915 84.6518 27.3812 82.6469 27.3812H77.1334C75.0728 27.3812 74.126 26.3915 74.126 24.4671ZM81.6444 23.1475V11.7663C81.6444 11.4914 81.4773 11.3264 81.2546 11.3264H78.5257C78.3029 11.3264 78.1358 11.4914 78.1358 11.7663V23.0925C78.1358 23.3675 78.3029 23.5324 78.5257 23.5324H81.2546C81.4773 23.5874 81.6444 23.3675 81.6444 23.1475ZM88.1604 26.7214V8.90717C88.1604 7.86252 89.0515 7.09277 90.2767 7.09277C91.502 7.09277 92.393 7.9175 92.393 8.90717V14.7352H93.5626C94.5094 14.7352 95.289 15.615 95.289 16.7696C95.289 17.9792 94.5094 18.859 93.5626 18.859H92.393V26.7763C92.393 27.821 91.5576 28.5907 90.2767 28.5907C89.0515 28.5357 88.1604 27.766 88.1604 26.7214Z" fill="#FF7E36"/>
<path d="M106.093 11.9312H106.929V8.74223C106.929 7.80754 107.708 7.20274 108.822 7.20274C109.936 7.20274 110.715 7.80754 110.715 8.74223V18.3641C110.715 19.2988 109.992 19.9036 108.822 19.9036C107.653 19.9036 106.929 19.2438 106.929 18.3091V15.5051H106.093C105.648 15.5051 105.202 15.2851 104.924 14.9002C103.754 17.4294 101.749 19.4637 98.9088 20.7283C98.0184 21.1132 97.0154 20.8933 96.5143 20.0135C96.013 19.1338 96.3471 18.0891 97.127 17.7043C98.4074 17.1545 99.4656 16.3847 100.302 15.45H98.2405C97.4607 15.45 96.737 15.0102 96.737 13.9655C96.737 13.0308 97.4054 12.481 98.2405 12.481H101.86C101.972 12.0962 102.084 11.7112 102.084 11.3264C102.139 10.9965 101.972 10.7766 101.638 10.7766H98.2968C97.3501 10.7766 96.6813 10.2267 96.6813 9.18209C96.6813 8.13743 97.3501 7.53263 98.2968 7.53263H102.307C104.98 7.53263 106.205 8.79721 105.815 11.6563C105.815 11.7663 105.815 11.8762 105.759 11.9861C105.927 11.9312 105.982 11.9312 106.093 11.9312ZM113.612 28.1509C111.05 27.601 107.987 26.2265 105.982 24.6321C104.144 26.4464 101.694 27.766 99.0757 28.2608C98.1852 28.4258 97.1823 28.0409 96.8484 26.9412C96.5699 25.8966 97.0707 25.0169 98.0184 24.742C100.858 24.0272 103.197 22.3778 104.367 20.2335C104.757 19.5737 105.703 19.1338 106.873 19.4637C108.042 19.8486 108.544 20.9483 108.154 21.718V21.773C109.825 23.0925 112.22 24.1372 114.615 24.687C115.505 24.9069 116.062 25.7867 115.783 26.8313C115.505 27.9309 114.503 28.3708 113.612 28.1509ZM111.663 18.9689V8.63226C111.663 7.69758 112.442 7.09277 113.612 7.09277C114.781 7.09277 115.561 7.69758 115.561 8.63226V18.9689C115.561 19.9036 114.781 20.5083 113.612 20.5083C112.442 20.5083 111.663 19.9036 111.663 18.9689Z" fill="#FF7E36"/>
</svg>
