<svg style="height: 36px;" viewBox="0 0 203 114" fill="none" xmlns="http://www.w3.org/2000/svg">
<path d="M29.2342 36.8955C13.0894 36.8955 0 49.6953 0 65.8549C0 88.1825 29.3182 100.03 29.2342 99.9983C29.1543 100.03 58.4685 88.1825 58.4685 65.8549C58.4685 49.7073 45.3791 36.8955 29.2342 36.8955ZM29.2342 77.5787C27.045 77.5771 24.9054 76.9263 23.0859 75.7086C21.2665 74.4909 19.8489 72.7609 19.0124 70.7374C18.1759 68.714 17.958 66.4878 18.3864 64.3405C18.8148 62.1932 19.8701 60.2212 21.4189 58.6738C22.9678 57.1263 24.9406 56.0729 27.088 55.6468C29.2354 55.2207 31.4609 55.441 33.4831 56.2798C35.5053 57.1187 37.2334 58.5384 38.449 60.3595C39.6645 62.1806 40.3128 64.3213 40.3121 66.5109C40.3147 67.9671 40.03 69.4094 39.4743 70.7553C38.9186 72.1012 38.1029 73.3242 37.0738 74.3542C36.0447 75.3842 34.8225 76.201 33.4773 76.7578C32.132 77.3145 30.6901 77.6003 29.2342 77.5987V77.5787Z" fill="#FF6F0F"/>
<path d="M35.8168 0C28.9941 0 24.2431 4.76791 23.4952 10.3998C14.401 7.88784 7.27441 14.7997 7.27441 22.3996C7.27441 28.2194 11.2736 32.9193 16.6046 34.4473C20.9037 35.6753 28.6462 34.7593 28.6462 34.7593C28.6062 32.8794 30.3379 30.8154 33.0093 28.9354C40.6078 23.5915 46.5507 21.0716 47.4665 13.7837C48.4263 6.15989 42.7674 0 35.8168 0Z" fill="#00A05B"/>
<path d="M116.493 46.9627C110.319 48.9026 99.6287 49.9346 89.5866 49.9346V37.7189H110.327V28.623H78.4648V59.5984C95.8894 59.5984 111.102 57.4985 117.525 55.5105L116.493 46.9627Z" fill="#FF6F0F"/>
<path d="M131.134 25H120.028V60.6113H131.134V49.4475H140.092V39.7317H131.134V25Z" fill="#FF6F0F"/>
<path d="M110.506 60.5264C98.7407 60.5264 90.1104 67.0102 90.1104 76.526C90.1104 86.0419 98.7487 92.5257 110.506 92.5257C122.264 92.5257 130.902 86.0379 130.902 76.526C130.902 67.0142 122.272 60.5264 110.506 60.5264ZM110.506 83.6179C105.203 83.6179 101.224 81.074 101.224 76.5101C101.224 71.9461 105.203 69.4062 110.506 69.4062C115.809 69.4062 119.788 71.9501 119.788 76.5101C119.788 81.07 115.813 83.6179 110.506 83.6179Z" fill="#FF6F0F"/>
<path d="M161.72 65.251H150.366V89.3425H195.493V79.8067H161.72V65.251Z" fill="#FF6F0F"/>
<path d="M194.086 27.9717H149.854V37.5075H182.936C182.936 39.8755 183.048 45.5073 181.964 51.9072H141.396V61.771H202.984V51.9232H192.01C193.482 43.8354 193.902 37.5315 194.086 27.9717Z" fill="#FF6F0F"/>
</svg>
