<svg width="22" height="24" viewBox="0 0 22 24" fill="none" xmlns="http://www.w3.org/2000/svg">
<path d="M15.8038 0C15.8578 0 15.9118 0 15.9681 0C16.0996 1.62191 15.4799 2.83541 14.7288 3.71091C13.9895 4.58171 12.9802 5.42905 11.3442 5.29995C11.2362 3.70152 11.8559 2.57956 12.607 1.70406C13.3017 0.887238 14.5786 0.161956 15.8038 0Z" fill="#212124"/>
<path d="M20.754 16.8832C20.754 16.8996 20.754 16.9137 20.754 16.9278C20.294 18.3197 19.6391 19.512 18.8387 20.6199C18.1088 21.6269 17.2121 22.9788 15.616 22.9788C14.2359 22.9788 13.3181 22.0916 11.9028 22.0658C10.4053 22.0423 9.58377 22.8075 8.21301 23C8.05575 23 7.90083 23 7.74592 23C6.74132 22.8544 5.9292 22.0587 5.34005 21.3405C3.59844 19.221 2.25115 16.4842 2 12.9822C2 12.6395 2 12.2968 2 11.9518C2.10562 9.44497 3.32381 7.40527 4.94338 6.41945C5.79775 5.89368 6.9737 5.44772 8.28108 5.64723C8.84206 5.73407 9.41477 5.92654 9.91707 6.11667C10.3935 6.29975 10.9874 6.62366 11.5507 6.60723C11.9333 6.59549 12.3112 6.39598 12.6961 6.2575C13.8228 5.85143 14.9283 5.38434 16.3859 5.60263C18.1369 5.86786 19.3786 6.64478 20.1461 7.84419C18.665 8.78776 17.4938 10.2078 17.6957 12.6324C17.8717 14.8365 19.1533 16.1251 20.754 16.8832Z" fill="#212124"/>
</svg>
