<svg viewBox="0 0 32 32" fill="none" xmlns="http://www.w3.org/2000/svg">
<g clip-path="url(#clip0_27877_77827)">
<path d="M16.1424 9.83118C11.093 9.83118 7 13.9281 7 18.9824C7 19.1953 7.00994 19.4053 7.02386 19.6123C7.02684 19.6521 7.02983 19.6919 7.03281 19.7327C7.13819 21.0353 7.51498 22.2623 8.1085 23.354C10.0968 27.1424 14.1958 29.4571 15.6324 30.1786C15.9555 30.3408 16.3313 30.3408 16.6534 30.1786C18.0889 29.4571 22.1879 27.1434 24.1762 23.355C24.7707 22.2623 25.1475 21.0343 25.2529 19.7297C25.2559 19.6919 25.2589 19.6531 25.2619 19.6153C25.2758 19.4063 25.2857 19.1953 25.2857 18.9824C25.2857 13.9281 21.1927 9.83118 16.1434 9.83118H16.1424ZM16.1424 22.3907C14.2485 22.3907 12.7135 20.8542 12.7135 18.9585C12.7135 17.0628 14.2485 15.5263 16.1424 15.5263C18.0362 15.5263 19.5712 17.0628 19.5712 18.9585C19.5712 20.8542 18.0362 22.3907 16.1424 22.3907Z" fill="#FF7E36"/>
<path d="M12.7144 8.9346H13.4521C14.3031 8.67288 15.2068 8.53058 16.1433 8.53058C17.0798 8.53058 17.9835 8.67189 18.8345 8.9346H19.5722C20.5186 8.9346 21.2861 8.16636 21.2861 7.219C21.2861 6.27164 20.5186 5.5034 19.5722 5.5034C19.2143 5.5034 18.8832 5.61386 18.6088 5.80094C18.8564 5.37702 19.0015 4.88543 19.0015 4.36C19.0015 2.78073 17.722 1.5 16.1443 1.5C14.5665 1.5 13.287 2.78073 13.287 4.36C13.287 4.88642 13.4312 5.37801 13.6797 5.80094C13.4053 5.61386 13.0733 5.5034 12.7164 5.5034C11.7699 5.5034 11.0024 6.27164 11.0024 7.219C11.0024 8.16636 11.7699 8.9346 12.7164 8.9346H12.7144Z" fill="#00B493"/>
</g>
<defs>
<clipPath id="clip0_27877_77827">
<rect width="18.2857" height="28.8" fill="white" transform="translate(7 1.5)"/>
</clipPath>
</defs>
</svg>
