<svg width="100" height="28" viewBox="0 0 100 28" fill="none" xmlns="http://www.w3.org/2000/svg">
<path d="M10.4881 5.12549C4.69831 5.12549 0 9.82379 0 15.6136C0 18.034 0.854237 20.2645 2.23051 22.0679C2.32542 22.2102 2.4678 22.3526 2.56271 22.4475C2.70509 22.6374 2.89492 22.8272 3.08475 23.017C5.07797 25.1526 7.64068 26.7662 10.4881 27.6204C13.3356 26.7662 15.8983 25.1526 17.8915 23.017C18.0814 22.8272 18.2237 22.6374 18.4136 22.4475C18.5085 22.3051 18.6508 22.1628 18.7458 22.0679C20.122 20.3119 20.9763 18.0814 20.9763 15.6136C20.9763 9.82379 16.278 5.12549 10.4881 5.12549ZM10.4881 19.6001C8.25763 19.6001 6.45424 17.7967 6.45424 15.5662C6.45424 13.3357 8.25763 11.5323 10.4881 11.5323C12.7186 11.5323 14.4746 13.3357 14.4746 15.5662C14.4746 17.7967 12.7186 19.6001 10.4881 19.6001Z" fill="#FF8A3D"/>
<path d="M13.9051 4.88814C14.617 4.74576 15.139 4.12881 15.139 3.36949C15.139 2.51525 14.4271 1.85085 13.6204 1.85085C13.3831 1.85085 13.1458 1.8983 12.956 1.99322C12.6712 0.854237 11.6746 0 10.4882 0C9.30172 0 8.30511 0.854237 8.06782 1.99322C7.87799 1.8983 7.6407 1.85085 7.40341 1.85085C6.54917 1.85085 5.88477 2.56271 5.88477 3.36949C5.88477 4.12881 6.4068 4.74576 7.11866 4.88814C8.21019 4.50847 9.34917 4.31864 10.5356 4.31864C11.7221 4.31864 12.8136 4.50847 13.9051 4.88814Z" fill="#56C271"/>
<path d="M41.1458 9.49148H36.4001L32.2712 15.0915V4.93555H28.095V23.5389H32.2712V18.4135L36.2102 23.5389H41.3831L35.7831 16.4678L41.1458 9.49148Z" fill="#FF8A3D"/>
<path d="M50.5899 10.3457C50.1628 10.061 49.6882 9.87115 49.1187 9.68132C48.4068 9.44404 47.6475 9.34912 46.8407 9.34912C45.8916 9.34912 44.9424 9.53895 44.0882 9.91861C43.2339 10.2983 42.4746 10.8203 41.8577 11.4373C41.2407 12.1017 40.7187 12.861 40.339 13.7152C39.9594 14.6169 39.7695 15.5661 39.7695 16.5627C39.7695 17.5593 39.9594 18.5084 40.339 19.4101C40.7187 20.2644 41.2407 21.0237 41.8577 21.6406C42.4746 22.2576 43.2339 22.7796 44.0882 23.1593C44.9424 23.539 45.8441 23.7288 46.8407 23.7288C47.6475 23.7288 48.4068 23.6339 49.1187 23.3966C49.6407 23.2542 50.1628 23.0169 50.5899 22.7322V23.539H54.7187V9.49149H50.5899V10.3457ZM45.8441 19.7423C45.4644 19.5525 45.0848 19.3152 44.8 19.0305C44.5153 18.6983 44.278 18.3661 44.0882 17.939C43.8983 17.5118 43.8509 17.0847 43.8509 16.6101C43.8509 16.1356 43.9458 15.7084 44.0882 15.2813C44.278 14.8542 44.5153 14.4745 44.8 14.1898C45.0848 13.9051 45.4644 13.6203 45.8441 13.4779C46.2238 13.2881 46.6983 13.1932 47.1729 13.1932C47.6475 13.1932 48.1221 13.2881 48.5017 13.4779C48.9289 13.6678 49.3085 13.9051 49.5933 14.1898C49.9255 14.4745 50.1628 14.8542 50.3526 15.2813C50.5424 15.7084 50.6373 16.1356 50.6373 16.6101C50.6373 17.0847 50.5424 17.5593 50.4 17.939C50.2102 18.3661 49.9729 18.6983 49.6882 19.0305C49.356 19.3627 49.0238 19.6 48.5967 19.7423C47.695 20.0745 46.6509 20.0745 45.8441 19.7423Z" fill="#FF8A3D"/>
<path d="M61.8373 9.91871C61.3627 10.2035 60.8881 10.5357 60.5085 10.9628V9.53905H56.3796V23.539H60.5559V17.0848C60.5559 15.9933 60.8407 15.0916 61.4101 14.4272C61.9796 13.8102 62.9288 13.478 64.2101 13.478H64.4474V9.30176H64.2101C63.3559 9.30176 62.5491 9.49159 61.8373 9.91871Z" fill="#FF8A3D"/>
<path d="M71.4237 9.91871C70.9491 10.2035 70.4745 10.5357 70.0949 10.9628V9.53905H65.9661V23.539H70.1423V17.0848C70.1423 15.9933 70.4271 15.0916 70.9966 14.4272C71.5661 13.8102 72.5152 13.478 73.7966 13.478H74.0339V9.30176H73.7966C72.9423 9.30176 72.1356 9.49159 71.4237 9.91871Z" fill="#FF8A3D"/>
<path d="M87.2271 11.3424C86.5627 10.678 85.7559 10.1559 84.8542 9.77628C83.9525 9.39662 82.9559 9.20679 81.8644 9.20679C80.8203 9.20679 79.7763 9.39662 78.8746 9.77628C77.9729 10.1559 77.1661 10.678 76.5017 11.3424C75.8373 12.0068 75.3152 12.7661 74.9356 13.6678C74.5559 14.5695 74.3661 15.5187 74.3661 16.5153C74.3661 17.5119 74.5559 18.5085 74.9356 19.3627C75.3152 20.2644 75.8373 21.0237 76.5017 21.6881C77.1661 22.3526 77.9729 22.8746 78.8746 23.2068C79.7763 23.5865 80.7729 23.7763 81.8644 23.7763C82.9085 23.7763 83.9525 23.5865 84.8542 23.2068C85.7559 22.8271 86.5627 22.3051 87.2271 21.6407C87.8915 20.9763 88.4135 20.217 88.7932 19.3153C89.1729 18.4136 89.3627 17.4644 89.3627 16.4678C89.3627 15.4712 89.1729 14.4746 88.7932 13.6203C88.461 12.8136 87.939 12.0068 87.2271 11.3424ZM80.5356 13.2881C80.9627 13.0983 81.3898 13.0509 81.8644 13.0509C82.339 13.0509 82.8135 13.1458 83.1932 13.2881C83.6203 13.478 83.9525 13.7153 84.2847 14C84.5695 14.3322 84.8068 14.6644 84.9966 15.0915C85.1864 15.5187 85.2339 15.9932 85.2339 16.5153C85.2339 17.0373 85.139 17.5119 84.9491 17.939C84.7593 18.3661 84.522 18.7458 84.1898 19.0305C83.8576 19.3627 83.5254 19.6 83.0983 19.7898C82.2441 20.1695 81.2 20.1695 80.3932 19.7898C79.9661 19.6 79.6339 19.3627 79.3491 19.0305C79.0644 18.6983 78.8271 18.3661 78.6373 17.939C78.4949 17.5119 78.4 17.0373 78.4 16.5153C78.4 15.9932 78.4949 15.5187 78.6373 15.0915C78.8271 14.6644 79.0644 14.2848 79.3491 14C79.7288 13.7153 80.1085 13.478 80.5356 13.2881Z" fill="#FF8A3D"/>
<path d="M99.2814 13.2407V9.49151H95.9593V6.0271H91.8305V9.49151H89.8848V13.2407H91.8305V18.6508C91.8305 20.2644 92.2576 21.4508 93.1593 22.3051C94.0136 23.1118 95.4373 23.539 97.2881 23.539H99.3288V19.9322H97.5729C97.0034 19.9322 96.6237 19.8373 96.3865 19.6C96.1492 19.4102 96.0068 19.0305 96.0068 18.461V13.2407H99.2814Z" fill="#FF8A3D"/>
</svg>
