<svg width="222" height="339" viewBox="0 0 222 339" fill="none" xmlns="http://www.w3.org/2000/svg">
<path d="M122.164 236.556V343.532H104.792C104.792 343.532 112.635 321.936 112.635 290.044C112.635 258.152 108.139 242.085 104.792 236.556H122.164Z" fill="#CEB28E"/>
<path d="M117.593 236.556V343.532H134.965C134.965 343.532 127.122 321.936 127.122 290.044C127.122 258.152 131.618 242.085 134.965 236.556H117.593Z" fill="#CEB28E"/>
<path d="M134.965 236.556H122.164H117.593H104.792C106.168 238.784 107.745 242.761 109.112 248.849L129.63 253.928C131.198 244.914 133.237 239.347 134.965 236.556Z" fill="#756451"/>
<path d="M135.909 143.906L126.783 143.812V143.675L119.889 143.743L112.987 143.675V143.812L103.861 143.906L80.0039 196.532L101.526 233.017H112.987H126.783H138.244L159.766 196.532L135.909 143.906Z" fill="#756451"/>
<path d="M135.909 143.907L126.783 143.812V143.675L119.889 143.743L112.987 143.675V143.812L103.861 143.907L100.985 150.268L141.892 157.11L135.909 143.907Z" fill="#595044"/>
<path d="M80.0039 196.532L101.526 233.018H112.987H126.783H138.244L159.766 196.532L159.654 196.3H80.1155L80.0039 196.532Z" fill="#595044"/>
<path d="M119.889 51.5247C110.205 51.5247 102.35 59.3798 102.35 69.0636C102.35 78.7473 110.205 86.6024 119.889 86.6024C129.572 86.6024 137.427 78.7473 137.427 69.0636C137.427 59.3798 129.572 51.5247 119.889 51.5247Z" fill="#EDDCC3"/>
<path d="M181.236 146.482H99.834V68.5996H161.164C163.002 68.5996 164.615 69.8187 165.122 71.5786L185.202 141.219C185.957 143.855 183.974 146.482 181.236 146.482Z" fill="#FF9955"/>
<path d="M58.5324 146.482H139.934V68.5996H78.6039C76.7667 68.5996 75.1528 69.8187 74.6463 71.5786L54.5662 141.219C53.8108 143.855 55.7939 146.482 58.5324 146.482Z" fill="#FF9955"/>
<g style="mix-blend-mode:overlay" opacity="0.2">
<path d="M119.889 125.277C156.278 125.277 185.778 97.3805 185.778 62.9682C185.778 28.5559 156.278 0.65918 119.889 0.65918C83.4995 0.65918 54 28.5559 54 62.9682C54 97.3805 83.4995 125.277 119.889 125.277Z" fill="url(#paint0_radial)"/>
</g>
<path d="M221.157 232.898H0.804688V244.784H221.157V232.898Z" fill="#CEB28E"/>
<defs>
<radialGradient id="paint0_radial" cx="0" cy="0" r="1" gradientUnits="userSpaceOnUse" gradientTransform="translate(119.897 62.9801) scale(65.8955 62.3082)">
<stop stop-color="white"/>
<stop offset="0.4404" stop-color="white" stop-opacity="0.9633"/>
<stop offset="1" stop-color="white" stop-opacity="0"/>
</radialGradient>
</defs>
</svg>
