<svg width="265" height="286" viewBox="0 0 265 286" fill="none" xmlns="http://www.w3.org/2000/svg">
<path d="M186.632 184.1H19.3563V7.98193H143.549C149.904 7.98193 155.344 12.5262 156.487 18.771L186.632 184.1Z" fill="#766451"/>
<path d="M157.213 219.6L146.407 281.709L166.224 285.157L177.03 223.047L157.213 219.6Z" fill="#595044"/>
<path d="M244.646 285.178L218.195 133.162H166.325V113.047H226.652C231.544 113.047 235.723 116.567 236.564 121.377L264.46 281.722L244.646 285.178Z" fill="#776450"/>
<path d="M244.976 185.709H19.3563V229.926H244.976V185.709Z" fill="#776450"/>
<path d="M172.406 176.118H5.12939V0H127.53C134.918 0 141.254 5.28479 142.58 12.5537L172.406 176.118Z" fill="#F4E5D0"/>
<path d="M225.4 213.989H19.3563V169.772H218.414C225.958 169.772 232.367 175.304 233.464 182.774L236.207 201.49C237.167 208.073 232.056 213.989 225.4 213.989Z" fill="#CEB28E"/>
<path d="M225.4 211.008H19.3563V213.989H225.4C232.038 213.989 237.14 208.11 236.216 201.545C235.503 206.803 231.005 211.008 225.4 211.008Z" fill="#AA8D6F"/>
<path d="M109.61 51.3027C107.223 51.3027 105.294 53.2319 105.294 55.6183C105.294 58.0047 107.223 59.934 109.61 59.934C111.996 59.934 113.925 58.0047 113.925 55.6183C113.925 53.2319 111.996 51.3027 109.61 51.3027Z" fill="#CEB28E"/>
<path d="M119.411 104.773C117.025 104.773 115.095 106.702 115.095 109.088C115.095 111.475 117.025 113.404 119.411 113.404C121.797 113.404 123.727 111.475 123.727 109.088C123.727 106.711 121.788 104.773 119.411 104.773Z" fill="#CEB28E"/>
<path d="M59.4405 51.3027C57.0541 51.3027 55.1248 53.2319 55.1248 55.6183C55.1248 58.0047 57.0541 59.934 59.4405 59.934C61.8269 59.934 63.7561 58.0047 63.7561 55.6183C63.7561 53.2319 61.8269 51.3027 59.4405 51.3027Z" fill="#CEB28E"/>
<path d="M12.6635 178.943C12.6635 178.943 49.9406 189.403 88.132 171.637C88.132 171.637 98.2445 175.578 108.631 167.797L61.4337 162.174L34.6622 165.658L10.2496 160.181L12.6635 178.943Z" fill="#AA8D6F"/>
<path d="M54.2746 164.936C54.4666 163.18 54.4209 161.059 54.4757 158.919C54.5306 157.017 54.6312 155.253 54.5855 153.625C54.5489 152.162 54.4026 150.261 54.3843 147.993C54.366 145.881 54.5489 141.209 54.2654 138.795C54.0369 136.381 53.7351 130.219 53.5614 127.265C53.4517 125.793 53.2689 124.092 53.0403 122.255C52.7843 120.417 52.5191 118.424 52.2357 116.376C52.0345 114.968 51.8973 113.175 51.5133 111.731C51.1476 110.277 50.9099 108.311 50.5533 106.693C49.9132 103.474 49.1909 100.375 48.5784 97.9336C47.5909 94.0569 46.2743 89.7961 45.6708 87.6291C45.4696 86.9068 45.0673 85.5993 44.6559 84.2553C44.2261 82.9112 43.7415 81.5397 43.4489 80.6528C43.0466 79.4185 42.178 76.9773 41.346 74.6274C33.5834 74.7554 27.0276 75.4869 21.5874 76.4835C21.7703 77.1875 21.9531 77.8733 22.1086 78.4676C22.5292 79.9123 22.7578 81.0186 23.0321 81.8506C23.5624 83.5147 24.2115 85.8553 24.3395 86.8245C24.4767 87.7937 24.8058 88.7721 25.0435 89.6133C25.2721 90.4545 25.7293 93.0145 26.0128 94.0477C26.2962 94.9895 26.6528 97.0284 27.0642 99.3051C27.2654 100.448 27.4848 101.646 27.6951 102.807C27.8871 103.968 28.0608 105.102 28.2254 106.08C28.5637 108.147 29.0483 110.78 29.4049 113.532C29.7889 116.275 30.2186 119.091 30.4746 121.523C30.8678 124.879 31.1147 127.101 31.2244 129.213C31.3615 131.316 31.4987 133.282 31.6816 136.134C31.8187 138.831 31.6999 139.444 31.8096 142.297C31.8736 143.33 32.1022 145.652 32.0382 147.252C31.9467 148.852 32.093 151.751 32.1022 153.543C32.157 155.655 32.0198 156.112 32.0198 157.584C32.0198 158.297 32.1113 159.285 32.1205 160.016C32.1113 161.681 31.9742 162.229 31.9559 162.778C31.8279 165.521 31.8461 167.368 31.5718 170.751C31.3981 172.671 31.2244 174.572 31.1604 175.35C39.0967 176.145 46.4937 176.191 53.2414 175.734C53.406 174.618 53.5523 173.494 53.7169 172.186C53.9546 169.937 53.982 167.468 54.2746 164.936Z" fill="#FF9E66"/>
<path d="M76.1271 168.675C76.1911 167.623 76.2551 166.517 76.3466 165.411C76.5111 163.445 76.7671 161.625 76.822 159.943C76.8494 158.425 76.8037 156.45 76.9408 154.11C76.9683 153.561 77.0323 152.857 77.0963 152.052C77.1329 151.257 77.1786 150.37 77.2243 149.474C77.3066 147.682 77.3614 145.844 77.2974 144.591C77.2426 143.339 77.1146 141.117 77.0872 138.822C77.0689 137.679 77.0414 136.509 77.0232 135.439C76.9683 134.369 76.9226 133.4 76.886 132.641C76.8037 131.114 76.6848 129.35 76.4745 127.439C76.2094 125.537 75.9259 123.47 75.6882 121.34C75.6516 120.974 75.6151 120.581 75.5693 120.179C75.5053 119.777 75.4505 119.365 75.3865 118.954C75.2585 118.122 75.1031 117.29 74.9202 116.531C74.7373 115.772 74.5727 114.894 74.4264 113.989C74.3533 113.532 74.271 113.075 74.1979 112.627C74.0973 112.179 73.9967 111.74 73.9053 111.319C73.5213 109.664 73.1372 108.037 72.7715 106.51C72.6801 106.126 72.5887 105.751 72.5064 105.376C72.3967 105.01 72.2961 104.654 72.1864 104.306C71.9761 103.611 71.7841 102.944 71.592 102.322C70.5131 98.3174 68.7119 94.0658 68.017 91.844C67.4775 90.381 65.8044 86.6505 65.0363 84.8859C64.6432 84.1178 63.994 82.8652 63.2808 81.4572C62.5493 80.0582 61.8179 78.4582 60.995 77.169C60.7115 76.6844 60.3732 76.0901 60.0349 75.4775C56.2679 75.066 52.0529 74.7734 47.3441 74.6729C45.6709 74.6363 44.0616 74.6363 42.4799 74.6455C42.8547 75.5415 43.4582 76.9313 43.7142 77.5896C44.016 78.3759 44.2354 79.1622 44.4731 79.8205C44.9302 81.1189 45.2503 82.1063 45.5611 82.847C46.1829 84.3282 46.9052 86.4311 47.0698 87.318C47.2435 88.2049 47.6367 89.0644 47.9018 89.8141C48.167 90.573 48.7339 92.8863 49.0539 93.8189C49.3373 94.6783 49.8036 96.507 50.3065 98.5734C50.7545 100.649 51.3031 102.935 51.6597 104.736C52.5283 108.485 53.5615 114.382 54.2381 118.817C54.7045 121.88 54.9147 123.928 55.0885 125.848C55.2896 127.768 55.381 129.578 55.6279 132.184C55.7925 134.653 55.7102 135.22 55.8199 137.825C55.8473 138.776 56.1856 140.898 56.1399 142.37C56.0759 143.842 56.213 146.493 56.3045 148.13C56.4233 150.059 56.2771 150.489 56.3136 151.833C56.3228 152.482 56.4234 153.387 56.4416 154.064C56.4691 155.591 56.3502 156.094 56.3502 156.597C56.3045 159.12 56.2954 160.812 56.0668 163.92C55.9296 165.868 55.6919 167.806 55.6645 168.337C55.5548 169.681 55.5365 170.723 55.2987 171.738C54.8781 173.63 55.0245 173.868 54.7959 175.203C54.7684 175.34 54.7501 175.487 54.7227 175.633C62.6956 175.011 69.7451 173.713 75.7248 172.195C75.7523 172.012 75.7705 171.829 75.8071 171.646C75.9351 170.732 76.0631 169.726 76.1271 168.675Z" fill="#FF9E66"/>
<path d="M30.0176 165.301C30.0907 163.226 30.2827 161.296 30.2553 159.523C30.237 157.922 30.1182 155.847 30.1639 153.369C30.237 151.065 30.4199 145.981 30.237 143.33C29.9627 140.687 29.8439 133.958 29.6427 130.73C29.5513 127.503 28.9204 123.306 28.5181 118.798C28.3352 117.253 28.1889 115.306 27.8781 113.696C27.7226 112.892 27.6038 111.959 27.4758 110.99C27.3295 110.03 27.1832 109.043 27.0551 108.146C26.7717 106.382 26.4883 104.635 26.2231 102.999C25.9123 101.362 25.6288 99.8352 25.3728 98.482C25.1625 97.4123 24.9613 96.306 24.7236 95.2179C24.4768 94.139 24.2391 93.0692 24.0105 92.0543C23.5716 90.0337 23.1876 88.2416 22.9224 87.0439C22.575 85.4346 21.5783 81.2379 21.048 79.2721C20.8743 78.6503 20.6366 77.7542 20.3623 76.7119C6.17191 79.5098 0.000244141 84.0997 0.000244141 84.0997L4.65414 170.12C13.386 172.698 21.6881 174.298 29.4873 175.167C29.5421 174.088 29.6153 172.991 29.7433 171.875C29.981 169.964 29.9261 167.642 30.0176 165.301Z" fill="#FF9E66"/>
<path d="M95.4744 163.966C95.5567 162.403 95.6024 160.364 95.8127 157.95C95.8859 156.825 96.087 155.024 96.2607 153.177C96.4162 151.33 96.4985 149.447 96.4711 148.148C96.4619 146.85 96.4253 144.555 96.4711 142.196C96.4985 139.828 96.4253 137.396 96.4436 135.823C96.4162 134.251 96.2516 132.431 96.0962 130.456C95.8859 128.481 95.6573 126.36 95.4196 124.156C95.2093 122.657 95.0264 120.746 94.679 119.192C94.3132 117.637 93.9475 115.562 93.6001 113.825C92.7955 110.423 91.9543 107.132 91.0765 104.599C89.8056 100.53 87.8855 96.178 86.9255 93.9928C86.3677 92.4842 84.4568 88.7354 83.4144 87.053C82.5367 85.517 80.3514 82.1248 78.2485 79.8024C78.0473 79.5647 77.8188 79.3087 77.5719 79.0436C73.4574 77.6904 68.0537 76.4103 61.0591 75.5874C61.6626 76.5109 62.6592 77.9007 62.9793 78.5316C63.4364 79.3545 64.4239 81.0002 64.817 81.7226C65.2193 82.4997 65.6034 83.2494 65.9325 83.9078C66.5817 85.1878 66.9566 86.2027 67.3589 86.9342C68.1269 88.4062 69.1693 90.4909 69.3796 91.4052C69.599 92.3196 70.0653 93.1882 70.3944 93.9471C70.7145 94.7151 71.4825 97.065 71.8756 98.0159C72.4974 99.7897 74.1614 105.541 74.9386 109.262C75.1763 110.231 75.4415 111.338 75.725 112.526C75.9444 113.724 76.1913 114.995 76.429 116.293C76.6667 117.592 76.9319 118.899 77.1513 120.188C77.3342 121.477 77.5079 122.721 77.6725 123.873C77.8919 125.464 78.0931 126.79 78.2211 127.969C78.3125 129.149 78.3857 130.182 78.4588 131.178C78.5685 133.181 78.7971 135.055 78.8611 137.771C78.9617 140.34 78.8428 140.916 78.9068 143.632C78.8977 144.619 79.1079 146.832 78.9891 148.359C78.8794 149.876 78.916 152.638 78.8611 154.338C78.8428 156.341 78.6874 156.78 78.6417 158.179C78.6143 158.855 78.6782 159.797 78.6599 160.501C78.5685 162.083 78.4222 162.595 78.3765 163.116C78.1296 165.713 78.0839 167.477 77.6542 170.677C77.6085 171.034 77.5536 171.391 77.4988 171.738C81.8875 170.549 85.6454 169.269 88.6901 168.081L88.1964 168.968C90.473 169.726 92.6766 170.156 94.7704 170.366C94.7978 170.12 94.8253 169.864 94.8527 169.617C95.063 167.569 95.3373 165.694 95.4744 163.966Z" fill="#FF9E66"/>
<path d="M113.02 163.372C112.051 152.309 106.83 146.192 104.233 143.796C106.675 123.535 102.46 108.649 99.552 101.271C104.764 93.2522 104.773 84.9684 104.279 80.6619C104.069 78.7875 102.624 77.3154 100.768 77.0046C90.6647 75.2674 82.9478 78.1658 79.647 79.7567C79.5739 79.7293 79.4916 79.7019 79.4185 79.6744C79.8573 80.1316 80.2505 80.5522 80.4608 80.8265C81.11 81.5579 82.3626 83.1031 82.8472 83.8163C83.3592 84.5661 83.7981 85.3249 84.2004 85.965C84.9867 87.2267 85.4896 88.2142 85.9559 88.9457C86.4131 89.6771 86.9251 90.564 87.3548 91.3961C87.7571 92.2373 88.0954 93.0053 88.2508 93.4625C88.5434 94.3859 89.092 95.2454 89.4852 96.0043C89.8967 96.7632 90.6738 99.2044 91.1218 100.164C91.3138 100.613 91.6156 101.298 91.9081 102.167C92.1824 103.035 92.4933 104.069 92.8316 105.157C93.5539 107.324 94.0751 109.792 94.5963 111.685C94.8888 112.672 95.1083 113.834 95.3643 115.059C95.6112 116.293 95.9312 117.592 96.1598 118.936C96.5987 121.624 97.0832 124.385 97.3392 126.781C98.1438 133.382 98.025 135.549 98.2445 141.154C98.2536 143.805 98.1256 144.4 98.0707 147.197C98.025 148.212 98.1896 150.507 98.0341 152.071C97.8696 153.634 97.7233 156.478 97.6958 158.233C97.6044 160.3 97.4307 160.739 97.3301 162.174C97.2753 162.869 97.3118 163.847 97.2478 164.561C97.1107 166.188 96.9552 166.709 96.9004 167.249C96.7815 168.419 96.6809 169.425 96.5529 170.458C102.624 170.687 107.635 169.05 110.533 167.788C112.279 167.048 113.185 165.246 113.02 163.372Z" fill="#FF9E66"/>
<path d="M97.2665 164.579C97.3305 163.856 97.2939 162.887 97.3488 162.192C97.4494 160.757 97.6231 160.309 97.7145 158.252C97.742 156.496 97.8883 153.652 98.0528 152.089C98.1991 150.525 98.0437 148.231 98.0894 147.216C98.1351 144.418 98.2723 143.823 98.2631 141.172C98.0437 135.567 98.1626 133.4 97.3579 126.799C97.1111 124.412 96.6174 121.642 96.1785 118.954C95.9499 117.61 95.6299 116.311 95.383 115.077C95.1179 113.852 94.8984 112.691 94.615 111.703C94.0938 109.811 93.5726 107.333 92.8503 105.175C92.512 104.087 92.192 103.054 91.9268 102.185C91.6343 101.316 91.3325 100.631 91.1405 100.183C90.6925 99.2226 89.9153 96.7813 89.5039 96.0225C89.1107 95.2544 88.5621 94.4041 88.2695 93.4807C88.1232 93.0144 87.785 92.2555 87.3735 91.4143C86.9438 90.5822 86.4317 89.6953 85.9746 88.9639C85.5083 88.2324 85.0054 87.2449 84.2191 85.9832C83.8168 85.3431 83.3871 84.5751 82.8659 83.8345C82.3813 83.1213 81.1286 81.5761 80.4795 80.8447C80.26 80.5795 79.8669 80.1498 79.4372 79.6926C78.852 79.4732 78.2302 79.2629 77.5811 79.0435C77.8279 79.3178 78.0565 79.5737 78.2576 79.8023C80.3606 82.1247 82.5459 85.5168 83.4236 87.0529C84.4751 88.7353 86.3769 92.484 86.9346 93.9927C87.8946 96.1779 89.8239 100.53 91.0857 104.599C91.9543 107.132 92.8046 110.432 93.6092 113.824C93.9567 115.562 94.3133 117.637 94.6881 119.192C95.0356 120.746 95.2184 122.657 95.4287 124.156C95.6665 126.36 95.895 128.481 96.1053 130.456C96.2608 132.431 96.4162 134.25 96.4528 135.823C96.4345 137.405 96.5076 139.837 96.4802 142.196C96.4345 144.564 96.471 146.859 96.4802 148.148C96.5076 149.447 96.4345 151.339 96.2699 153.177C96.0962 155.024 95.9042 156.816 95.8219 157.95C95.6116 160.364 95.575 162.393 95.4836 163.966C95.3464 165.703 95.0721 167.578 94.8619 169.598C94.8344 169.854 94.807 170.101 94.7795 170.348C95.3921 170.412 95.9956 170.449 96.5808 170.476C96.6997 169.443 96.8094 168.437 96.9282 167.267C96.974 166.727 97.1294 166.206 97.2665 164.579Z" fill="#FBFBFB"/>
<path d="M78.3581 163.098C78.4038 162.576 78.5501 162.064 78.6415 160.483C78.6598 159.779 78.5958 158.837 78.6232 158.16C78.678 156.761 78.8243 156.332 78.8426 154.32C78.8975 152.619 78.8609 149.858 78.9706 148.34C79.0804 146.823 78.8792 144.601 78.8883 143.613C78.8243 140.898 78.9432 140.322 78.8426 137.752C78.7786 135.037 78.55 133.163 78.4403 131.16C78.3672 130.164 78.2849 129.13 78.2026 127.951C78.0746 126.771 77.8826 125.446 77.654 123.855C77.4894 122.703 77.3157 121.45 77.1328 120.17C76.9134 118.89 76.6483 117.573 76.4105 116.275C76.1637 114.977 75.9259 113.706 75.7065 112.508C75.423 111.328 75.1579 110.222 74.9202 109.244C74.143 105.522 72.4789 99.7622 71.8571 97.9975C71.464 97.0466 70.7051 94.6968 70.3759 93.9288C70.0468 93.1607 69.5805 92.3013 69.3611 91.387C69.1416 90.4726 68.1084 88.388 67.3404 86.9159C66.9381 86.1844 66.5632 85.1695 65.914 83.8895C65.5849 83.2403 65.2009 82.4814 64.7986 81.7042C64.4054 80.9728 63.4179 79.3361 62.9608 78.5132C62.6499 77.8823 61.6442 76.4925 61.0407 75.5691C60.7024 75.5325 60.364 75.4868 60.0166 75.4502C60.3549 76.0628 60.6932 76.6571 60.9767 77.1417C61.7996 78.4401 62.531 80.0402 63.2625 81.4299C63.9848 82.838 64.6248 84.0906 65.018 84.8587C65.786 86.6233 67.4593 90.3537 67.9987 91.8167C68.6936 94.0385 70.4948 98.2901 71.5737 102.295C71.7566 102.917 71.9577 103.584 72.168 104.279C72.2686 104.626 72.3783 104.983 72.488 105.349C72.5795 105.714 72.6618 106.098 72.7532 106.482C73.1098 108.019 73.4938 109.646 73.887 111.292C73.9784 111.712 74.079 112.151 74.1796 112.599C74.2527 113.047 74.335 113.514 74.4082 113.962C74.5636 114.867 74.719 115.754 74.9019 116.503C75.0847 117.253 75.2402 118.094 75.3682 118.926C75.4322 119.338 75.4962 119.758 75.5511 120.152C75.5876 120.554 75.6334 120.947 75.6699 121.313C75.9077 123.452 76.1911 125.51 76.4562 127.411C76.6665 129.322 76.7945 131.087 76.8677 132.614C76.9043 133.373 76.9591 134.351 77.0048 135.412C77.0231 136.482 77.0414 137.643 77.0688 138.795C77.0963 141.09 77.2242 143.312 77.2791 144.564C77.3431 145.817 77.2883 147.655 77.206 149.447C77.1603 150.343 77.1237 151.23 77.078 152.025C77.0048 152.821 76.95 153.534 76.9226 154.082C76.7854 156.423 76.8311 158.398 76.8037 159.916C76.7488 161.598 76.4837 163.418 76.3282 165.383C76.2368 166.49 76.1728 167.596 76.1088 168.648C76.0356 169.699 75.9076 170.705 75.7613 171.61C75.7248 171.793 75.7065 171.976 75.679 172.159C76.2825 172.003 76.8768 171.848 77.462 171.692C77.5168 171.345 77.5625 170.988 77.6174 170.632C78.0746 167.459 78.1203 165.703 78.3581 163.098Z" fill="#FBFBFB"/>
<path d="M55.2897 171.72C55.5274 170.705 55.5457 169.663 55.6554 168.318C55.6829 167.779 55.9297 165.85 56.0577 163.902C56.2863 160.794 56.2955 159.093 56.3412 156.579C56.3412 156.076 56.46 155.573 56.4326 154.046C56.4143 153.369 56.3137 152.464 56.3046 151.815C56.2771 150.471 56.4143 150.041 56.2955 148.112C56.204 146.475 56.0668 143.824 56.1308 142.352C56.1766 140.88 55.8383 138.758 55.8108 137.807C55.7011 135.192 55.7834 134.635 55.6188 132.166C55.3719 129.56 55.2805 127.75 55.0794 125.83C54.8965 123.91 54.6954 121.862 54.2291 118.799C53.5525 114.364 52.5193 108.458 51.6507 104.718C51.2941 102.926 50.7364 100.631 50.2975 98.5554C49.7946 96.489 49.3191 94.6603 49.0448 93.8008C48.7339 92.8682 48.158 90.555 47.8928 89.7961C47.6368 89.0372 47.2345 88.1778 47.0607 87.3C46.8962 86.4131 46.1647 84.3101 45.5521 82.8289C45.2321 82.0883 44.9212 81.1009 44.4641 79.8025C44.2263 79.1442 44.0069 78.3579 43.7052 77.5715C43.4583 76.9132 42.8457 75.5235 42.4708 74.6274C42.096 74.6274 41.7119 74.6275 41.337 74.6366C42.1782 76.9773 43.0377 79.4185 43.44 80.662C43.7418 81.5489 44.2263 82.9204 44.6469 84.2644C45.0675 85.6085 45.4607 86.916 45.6618 87.6383C46.2653 89.8052 47.5819 94.066 48.5694 97.9428C49.182 100.384 49.9043 103.484 50.5443 106.702C50.9009 108.32 51.1295 110.295 51.5043 111.74C51.8884 113.185 52.0255 114.977 52.2267 116.385C52.5101 118.442 52.7844 120.426 53.0313 122.264C53.2599 124.111 53.4428 125.802 53.5525 127.274C53.7262 130.228 54.0279 136.39 54.2565 138.804C54.5491 141.218 54.3571 145.89 54.3753 148.002C54.4028 150.27 54.54 152.162 54.5765 153.634C54.6222 155.262 54.5217 157.027 54.4668 158.928C54.412 161.068 54.4485 163.189 54.2656 164.945C53.973 167.477 53.9456 169.955 53.6804 172.195C53.525 173.503 53.3696 174.627 53.205 175.743C53.7079 175.706 54.2017 175.67 54.6954 175.624C54.7228 175.478 54.7502 175.331 54.7685 175.194C55.0062 173.85 54.8599 173.612 55.2897 171.72Z" fill="#FBFBFB"/>
<path d="M31.9286 162.778C31.9469 162.229 32.084 161.68 32.0932 160.016C32.084 159.276 31.9926 158.288 31.9926 157.584C31.9926 156.112 32.1297 155.655 32.0749 153.543C32.0657 151.751 31.9286 148.852 32.0109 147.252C32.0749 145.652 31.8464 143.321 31.7824 142.297C31.6818 139.444 31.7915 138.831 31.6543 136.134C31.4623 133.281 31.3343 131.316 31.1972 129.213C31.0874 127.11 30.8406 124.888 30.4474 121.523C30.1914 119.091 29.7617 116.266 29.3777 113.532C29.0302 110.789 28.5364 108.156 28.1981 106.08C28.0427 105.093 27.8599 103.968 27.6679 102.807C27.4576 101.646 27.2473 100.448 27.037 99.305C26.6255 97.0283 26.2689 94.9985 25.9855 94.0476C25.7021 93.0144 25.2449 90.4544 25.0163 89.6132C24.7786 88.772 24.4494 87.8028 24.3123 86.8244C24.1934 85.8461 23.5442 83.5146 23.0048 81.8505C22.7305 81.0185 22.5019 79.9122 22.0813 78.4675C21.9259 77.8641 21.743 77.1874 21.5601 76.4834C21.1395 76.5565 20.7464 76.6388 20.335 76.7211C20.6093 77.7635 20.847 78.6686 21.0207 79.2812C21.551 81.247 22.5476 85.4438 22.8951 87.053C23.1511 88.2508 23.5442 90.0429 23.9831 92.0636C24.2117 93.0785 24.4494 94.139 24.6963 95.2271C24.934 96.3151 25.1352 97.4123 25.3455 98.4913C25.6015 99.8445 25.8849 101.371 26.1958 103.008C26.4609 104.645 26.7444 106.391 27.0278 108.156C27.165 109.052 27.3112 110.039 27.4484 110.999C27.5764 111.959 27.6953 112.901 27.8507 113.706C28.1616 115.306 28.317 117.262 28.4907 118.808C28.893 123.315 29.5239 127.512 29.6153 130.74C29.8256 133.958 29.9354 140.697 30.2097 143.339C30.3925 145.981 30.2097 151.074 30.1365 153.378C30.0817 155.856 30.2006 157.923 30.228 159.532C30.2554 161.306 30.0634 163.235 29.9902 165.31C29.8988 167.651 29.9537 169.973 29.716 171.884C29.588 173 29.5148 174.097 29.4599 175.176C30.0085 175.24 30.5571 175.295 31.1057 175.35C31.1788 174.572 31.3434 172.671 31.5172 170.751C31.8189 167.368 31.8006 165.521 31.9286 162.778Z" fill="#FBFBFB"/>
<path d="M92.9048 285.178L66.4534 133.162H14.5836V113.047H74.9109C79.8025 113.047 83.981 116.567 84.8222 121.377L112.718 281.722L92.9048 285.178Z" fill="#776450"/>
<path d="M83.2952 229.926H103.712L104.69 235.576L83.9077 233.464L83.2952 229.926Z" fill="#595044"/>
<path d="M234.982 229.926H255.399L256.377 235.576L235.595 233.464L234.982 229.926Z" fill="#595044"/>
</svg>
