<svg width="113" height="163" viewBox="0 0 113 163" fill="none" xmlns="http://www.w3.org/2000/svg">
<path d="M101.509 10.8181H10.8184V152.142H101.509V10.8181Z" fill="white"/>
<path d="M5.4091 5.40911H106.918L112.327 0H0L5.4091 5.40911Z" fill="#EDDCC3"/>
<path d="M5.4091 5.40911L0 0V162.96L5.4091 157.551V5.40911Z" fill="#EDDCC3"/>
<path d="M106.918 5.40911V157.551L112.327 162.96V0L106.918 5.40911Z" fill="#EDDCC3"/>
<path d="M106.918 157.551H5.4091L0 162.96H112.327L106.918 157.551Z" fill="#DDC4A8"/>
<path d="M10.8183 10.8183L5.40918 5.40918V157.551L10.8183 152.142V10.8183Z" fill="#EDDCC3"/>
<path d="M10.8183 152.142L5.40918 157.551H106.918L101.509 152.142H10.8183Z" fill="#EDDCC3"/>
<path d="M101.509 152.142L106.918 157.551V5.40918L101.509 10.8183V152.142Z" fill="#EDDCC3"/>
<path d="M5.40918 5.40918L10.8183 10.8183H101.509L106.918 5.40918H5.40918Z" fill="#DDC4A8"/>
<path d="M56.1593 88.4631C70.1897 88.4631 81.5637 77.0891 81.5637 63.0587C81.5637 49.0282 70.1897 37.6543 56.1593 37.6543C42.1288 37.6543 30.7549 49.0282 30.7549 63.0587C30.7549 77.0891 42.1288 88.4631 56.1593 88.4631Z" fill="#79CCBC"/>
<path d="M56.1593 122.869C70.1897 122.869 81.5637 111.495 81.5637 97.4645C81.5637 83.434 70.1897 72.0601 56.1593 72.0601C42.1288 72.0601 30.7549 83.434 30.7549 97.4645C30.7549 111.495 42.1288 122.869 56.1593 122.869Z" fill="#79CCBC"/>
</svg>
