<svg width="130" height="117" viewBox="0 0 130 117" fill="none" xmlns="http://www.w3.org/2000/svg">
<path d="M65.1102 74.08C77.9011 74.08 88.2702 63.7109 88.2702 50.92C88.2702 38.1291 77.9011 27.76 65.1102 27.76C52.3193 27.76 41.9502 38.1291 41.9502 50.92C41.9502 63.7109 52.3193 74.08 65.1102 74.08Z" fill="#EDDCC3"/>
<path d="M88.2595 50.9201C88.2595 44.7101 85.8095 39.0801 81.8295 34.9201L48.8694 34.8501L44.0594 41.2501C42.6994 44.1901 41.9395 47.4701 41.9395 50.9201C41.9395 51.8301 41.9994 52.7301 42.0994 53.6201L86.8694 58.8201C87.7694 56.3601 88.2595 53.7001 88.2595 50.9201Z" fill="#BF977B"/>
<path d="M129.36 51.7401C129.36 23.7501 100.59 1.07007 65.0998 1.07007C29.6098 1.07007 0.839844 23.7601 0.839844 51.7401" fill="#FF9955"/>
<path d="M65.11 1.34009C65.8611 1.34009 66.47 1.22816 66.47 1.09009C66.47 0.952017 65.8611 0.840088 65.11 0.840088C64.3589 0.840088 63.75 0.952017 63.75 1.09009C63.75 1.22816 64.3589 1.34009 65.11 1.34009Z" fill="#FF7E36"/>
<g style="mix-blend-mode:overlay" opacity="0.2">
<path d="M66.1 116.18C97.039 116.18 122.12 92.4645 122.12 63.21C122.12 33.9555 97.039 10.24 66.1 10.24C35.161 10.24 10.0801 33.9555 10.0801 63.21C10.0801 92.4645 35.161 116.18 66.1 116.18Z" fill="url(#paint0_radial)"/>
</g>
<defs>
<radialGradient id="paint0_radial" cx="0" cy="0" r="1" gradientUnits="userSpaceOnUse" gradientTransform="translate(66.1396 63.2254) scale(56.0254 52.9754)">
<stop stop-color="white"/>
<stop offset="0.455" stop-color="white" stop-opacity="0.9633"/>
<stop offset="1" stop-color="white" stop-opacity="0"/>
</radialGradient>
</defs>
</svg>
