<svg width="500" height="500" viewBox="0 0 500 500" fill="none" xmlns="http://www.w3.org/2000/svg">
<path d="M250 124.231C163.553 124.231 93.4043 192.271 93.4043 276.119C93.4043 311.17 106.159 343.472 126.707 369.589C128.125 371.65 130.25 373.712 131.667 375.087C133.793 377.836 136.627 380.586 139.462 383.334C169.222 414.261 207.485 437.629 250 450C292.515 437.629 330.778 414.261 360.538 383.334C363.372 380.586 365.498 377.836 368.332 375.087C369.749 373.025 371.875 370.963 373.292 369.589C393.841 344.16 406.596 311.857 406.596 276.119C406.596 192.271 336.447 124.231 250 124.231ZM250 333.85C216.697 333.85 189.771 307.733 189.771 275.432C189.771 243.13 216.697 217.014 250 217.014C283.304 217.014 309.521 243.13 309.521 275.432C309.521 307.733 283.304 333.85 250 333.85Z" fill="#FF7E36"/>
<path d="M301.016 120.79C311.644 118.728 319.439 109.793 319.439 98.7966C319.439 86.4256 308.811 76.8038 296.765 76.8038C293.221 76.8038 289.678 77.4911 286.845 78.8656C282.593 62.371 267.712 50 249.998 50C232.284 50 217.404 62.371 213.861 78.8656C211.026 77.4911 207.484 76.8038 203.941 76.8038C191.186 76.8038 181.266 87.113 181.266 98.7966C181.266 109.793 189.061 118.728 199.689 120.79C215.987 115.291 232.992 112.542 250.706 112.542C268.421 112.542 284.718 115.291 301.016 120.79Z" fill="#00B493"/>
</svg>
