<svg width="203" height="201" viewBox="0 0 203 201" fill="none" xmlns="http://www.w3.org/2000/svg">
<path d="M77.5198 88.3127C77.5198 88.3127 112.718 104.847 112.718 161.258L108.949 168.916C108.949 168.916 112.254 111.475 74.7383 95.0347L77.5198 88.3127Z" fill="#4BB3A0"/>
<path d="M79.8633 89.6777L76.6611 95.9361C79.5457 97.3612 82.1726 99.0353 84.5678 100.915L84.2931 92.8627C82.5332 91.4548 81.0137 90.4074 79.8633 89.6777Z" fill="#398476"/>
<path d="M97.7114 32.425C97.7114 32.425 117.654 58.1282 117.654 172.29H109.653C109.653 172.29 114.126 147.145 110.632 107.225C106.648 61.6823 100.75 47.0194 94.2002 37.1124" fill="#4BB3A0"/>
<path d="M100.064 36.5801L94.4062 37.4214C95.6425 39.3101 96.8529 41.3876 98.0291 43.8085L101.274 39.25C100.845 38.2369 100.433 37.3441 100.064 36.5801Z" fill="#398476"/>
<path d="M79.3395 74.5855C76.6096 68.7564 70.54 62.9273 59.2509 65.0391C47.9704 67.151 42.1413 77.1266 42.1413 77.1266C42.1413 77.1266 41.8923 72.9715 40.7763 69.2543C38.9992 63.3136 31.7278 57.1067 20.9366 61.5021C0.873778 69.6921 -3.53026 95.3265 2.75387 123.27C7.7846 145.634 14.8757 157.859 17.5113 161.842C18.0092 162.598 19.0737 162.692 19.6918 162.04C21.9411 159.679 26.2163 155.756 33.0928 149.6C36.1834 146.836 40.8106 143.471 46.0388 139.504C46.6741 139.015 46.8887 138.139 46.511 137.427C42.167 129.323 41.8408 118.703 41.8666 114.952C41.8751 114.102 42.3473 113.329 43.0942 112.926C44.3476 112.256 45.9186 112.857 46.3736 114.205C46.6226 114.943 46.9488 115.793 47.3523 116.703C50.6489 124.163 54.7439 128.189 56.6154 129.76C57.0704 130.138 57.7314 130.13 58.1864 129.743C63.5005 125.125 68.7115 119.974 73.0125 114.265C85.0485 98.2969 82.0695 80.4146 79.3395 74.5855Z" fill="#79CCBC"/>
<path d="M82.4041 7.80358C82.4041 7.80358 88.5766 4.86758 94.9123 2.2492C101.239 -0.377776 110.348 -0.532292 112.511 5.80335C114.675 12.1304 113.438 25.7202 102.166 35.9105C90.8945 46.1007 74.8408 43.7828 59.8688 42.8556C45.5321 41.9714 31.2039 43.6283 21.606 50.273C21.0995 50.625 20.4213 50.1957 20.5157 49.5862C21.1596 45.5685 24.2158 34.2879 38.7157 18.9639C54.0311 2.77285 75.4589 -7.78655 82.4041 7.80358Z" fill="#4BB3A0"/>
<path d="M40.6132 80.1228C40.6132 80.1228 20.4473 123.434 18.4642 150.708C18.4642 150.708 17.5971 110.908 40.6132 80.1228Z" fill="#4BB3A0"/>
<path d="M81.7867 9.03979C81.7867 9.03979 40.2617 30.1929 26.0537 45.0104C26.0537 45.0104 47.0523 18.3029 81.7867 9.03979Z" fill="#398476"/>
<path d="M128.488 118.265C128.488 118.265 127.613 118.798 126.325 119.862C117.817 126.876 113.894 138.363 116.744 149.016L117.457 151.738C117.457 151.738 117.028 132.508 134.172 125.09L128.488 118.265Z" fill="#398476"/>
<path d="M187.406 105.869C185.586 103.568 183.594 101.018 181.345 98.4085C180.856 97.8505 180.117 97.7474 179.379 97.8247C175.027 98.2797 168.142 100.254 162.295 105.294C161.66 105.843 160.707 105.817 160.046 105.294C159.419 104.796 159.179 103.946 159.479 103.199C160.561 100.486 163.583 93.9958 169.249 89.3343C169.962 88.7505 169.927 87.6516 169.172 87.1279C164.562 83.9086 159.11 81.213 152.526 79.6162C134.309 75.2207 126.908 88.3985 128.136 96.9061C129.14 103.851 132.154 106.169 132.154 106.169C132.154 106.169 123.122 106.246 120.882 114.042C118.924 120.849 121.345 135.195 140.644 140.904C159.943 146.613 202.086 130.095 202.086 130.095C202.086 130.095 194.506 114.823 187.406 105.869Z" fill="#4BB3A0"/>
<path d="M134.163 106.255C134.163 106.255 157.231 107.586 191.836 126.198C191.836 126.198 165.97 103.963 134.163 106.255Z" fill="#398476"/>
<path d="M142.928 205.642H82.5073L78.2148 160.52H147.22L142.928 205.642Z" fill="#EDDCC3"/>
<path d="M146.869 164.169L78.8076 166.693L79.7949 177.08L145.1 182.841L146.869 164.169Z" fill="#CEB28E"/>
<path d="M151.804 160.52H73.6387V173.432H151.804V160.52Z" fill="#EDDCC3"/>
</svg>
