<svg width="24" height="24" viewBox="0 0 24 24" fill="none" xmlns="http://www.w3.org/2000/svg">
<path fill-rule="evenodd" clip-rule="evenodd" d="M19.5654 11.4343C19.253 11.1218 18.7464 11.1218 18.434 11.4343L11.9997 17.8686L5.56539 11.4343C5.25297 11.1218 4.74644 11.1218 4.43402 11.4343C4.1216 11.7467 4.1216 12.2532 4.43402 12.5656L11.434 19.5656C11.7464 19.8781 12.253 19.8781 12.5654 19.5656L19.5654 12.5656C19.8778 12.2532 19.8778 11.7467 19.5654 11.4343Z" fill="white"/>
<path fill-rule="evenodd" clip-rule="evenodd" d="M4.19971 22C4.19971 21.5581 4.55788 21.2 4.99971 21.2H18.9997C19.4415 21.2 19.7997 21.5581 19.7997 22C19.7997 22.4418 19.4415 22.8 18.9997 22.8H4.99971C4.55788 22.8 4.19971 22.4418 4.19971 22Z" fill="white"/>
<path fill-rule="evenodd" clip-rule="evenodd" d="M11.9997 2.19995C12.4415 2.19995 12.7997 2.55812 12.7997 2.99995L12.7997 18C12.7997 18.4418 12.4415 18.7999 11.9997 18.7999C11.5579 18.7999 11.1997 18.4418 11.1997 18L11.1997 2.99995C11.1997 2.55812 11.5579 2.19995 11.9997 2.19995Z" fill="white"/>
</svg>
