<svg viewBox="0 0 159 32" fill="none" xmlns="http://www.w3.org/2000/svg">
  <path d="M12.1387 5.92676C5.43552 5.92676 0 11.3623 0 18.0655C0 20.8789 0.966053 23.4616 2.57285 25.5199C2.69903 25.6756 2.82127 25.8334 2.95336 25.9852C3.1446 26.2079 3.33781 26.4288 3.54482 26.6358C3.55074 26.6417 3.55665 26.6476 3.56257 26.6535C5.88109 29.1179 8.82065 30.9909 12.1407 32.0003C15.4628 30.9929 18.4003 29.1179 20.7189 26.6535C20.7248 26.6476 20.7307 26.6417 20.7366 26.6358C20.9436 26.4288 21.1368 26.2079 21.3281 25.9852C21.4582 25.8334 21.5824 25.6756 21.7086 25.5199C23.3154 23.4616 24.2814 20.8789 24.2814 18.0655C24.2775 11.3623 18.8439 5.92676 12.1387 5.92676ZM12.1387 22.7085C9.57575 22.7085 7.49775 20.6305 7.49775 18.0675C7.49775 15.5045 9.57575 13.4265 12.1387 13.4265C14.7017 13.4265 16.7797 15.5045 16.7797 18.0675C16.7797 20.6305 14.7017 22.7085 12.1387 22.7085Z" fill="#FF7E36"/>
  <path d="M16.0918 5.67014C16.8942 5.49467 17.4955 4.78295 17.4955 3.9273C17.4955 2.94153 16.697 2.14306 15.7113 2.14306C15.4353 2.14306 15.177 2.21009 14.9443 2.32247C14.692 0.999569 13.5347 0 12.1389 0C10.743 0 9.58769 0.999569 9.3373 2.32247C9.10466 2.21009 8.84639 2.14306 8.57037 2.14306C7.58461 2.14306 6.78613 2.94153 6.78613 3.9273C6.78613 4.78097 7.38745 5.49467 8.18987 5.67014C9.42996 5.24231 10.7568 4.99982 12.1428 4.99982C13.5288 4.99982 14.8517 5.24231 16.0918 5.67014Z" fill="#00B493"/>
  <path d="M32.9439 18.2457H40.3726C41.2953 18.2457 42.0228 17.6878 42.0228 16.5463C42.0228 15.4047 41.2953 14.8468 40.3726 14.8468H33.9158C33.5748 14.8468 33.3815 14.6516 33.3815 14.3362V11.4242C33.3815 11.1088 33.5748 10.9136 33.9158 10.9136H40.3726C41.2953 10.9136 42.0228 10.3556 42.0228 9.21411C42.0228 8.07259 41.2953 7.51465 40.3726 7.51465H32.9439C30.4203 7.51465 29.2295 8.63054 29.2295 10.744V15.0163C29.2295 17.1298 30.4203 18.2457 32.9439 18.2457Z" fill="#FF7E36"/>
  <path d="M42.2413 19.6064H34.9348C31.6325 19.6064 29.4717 21.4281 29.4717 24.0739C29.4717 26.6724 31.6325 28.4922 34.9348 28.4922H42.2413C45.5417 28.4922 47.7281 26.6705 47.7281 24.0739C47.7281 21.4262 45.5436 19.6064 42.2413 19.6064ZM42.2413 25.0676H34.9348C34.1344 25.0676 33.6967 24.6299 33.6967 24.072C33.6967 23.4884 34.1324 23.029 34.9348 23.029H42.2413C43.0418 23.029 43.5031 23.4904 43.5031 24.072C43.5031 24.6299 43.0418 25.0676 42.2413 25.0676Z" fill="#FF7E36"/>
  <path d="M48.4325 10.9869H47.2673V8.75513C47.2673 7.78316 46.4176 7.05566 45.2031 7.05566C43.9886 7.05566 43.1152 7.78316 43.1152 8.75513V17.3983C43.1152 18.3683 43.9886 19.0978 45.2031 19.0978C46.4156 19.0978 47.2673 18.3703 47.2673 17.3983V15.0424H48.4325C49.3788 15.0424 50.1319 14.2163 50.1319 13.0274C50.1319 11.8859 49.3788 10.9869 48.4325 10.9869Z" fill="#FF7E36"/>
  <path d="M69.1772 20.1384H52.2082C51.2126 20.1384 50.4121 19.4838 50.4121 18.293C50.4121 17.1771 51.2126 16.4713 52.2082 16.4713H69.1772C70.1728 16.4713 70.9733 17.1752 70.9733 18.293C70.9733 19.4838 70.1728 20.1384 69.1772 20.1384ZM65.6817 14.1666V11.9585C65.6817 11.5701 65.4628 11.3512 65.1237 11.3512H53.3497C52.3304 11.3512 51.457 10.6967 51.457 9.45856C51.457 8.26973 52.3304 7.5166 53.3497 7.5166H66.0227C68.5463 7.5166 69.8337 8.82767 69.8337 11.1344V14.1686C69.8337 15.1405 68.984 15.868 67.7695 15.868C66.555 15.868 65.6817 15.1386 65.6817 14.1666ZM55.7293 22.5417V23.9986C55.7293 24.2904 55.9482 24.4836 56.2873 24.4836H68.4004C69.4197 24.4836 70.295 25.1638 70.295 26.3763C70.295 27.5651 69.4197 28.269 68.4004 28.269H55.4119C52.912 28.269 51.5773 27.2004 51.5773 24.943V22.5397C51.5773 21.5677 52.427 20.8402 53.6415 20.8402C54.8559 20.8442 55.7293 21.5717 55.7293 22.5417Z" fill="#FF7E36"/>
  <path d="M73.0918 24.4367V10.429C73.0918 8.51068 74.0618 7.51505 76.053 7.51505H81.4669C83.4581 7.51505 84.4281 8.51068 84.4281 10.429V24.4367C84.4281 26.355 83.4581 27.3507 81.4669 27.3507H76.053C74.0618 27.3507 73.0918 26.355 73.0918 24.4367ZM80.5205 23.102V11.7657C80.5205 11.4995 80.3747 11.328 80.1322 11.328H77.4134C77.1709 11.328 77.025 11.4976 77.025 11.7657V23.102C77.025 23.3682 77.1709 23.5397 77.4134 23.5397H80.1322C80.3747 23.5377 80.5205 23.3682 80.5205 23.102ZM86.9773 26.6942V8.87541C86.9773 7.85613 87.8507 7.05371 89.0652 7.05371C90.2777 7.05371 91.1294 7.85415 91.1294 8.87541V14.7013H92.2946C93.2409 14.7013 93.994 15.6003 93.994 16.7399C93.994 17.9543 93.2409 18.8041 92.2946 18.8041H91.1294V26.6942C91.1294 27.7134 90.2796 28.5159 89.0652 28.5159C87.8507 28.5159 86.9773 27.7134 86.9773 26.6942Z" fill="#FF7E36"/>
  <path d="M104.629 11.9096H105.478V8.70584C105.478 7.78316 106.231 7.15227 107.371 7.15227C108.51 7.15227 109.216 7.78316 109.216 8.70584V18.2954C109.216 19.2181 108.512 19.849 107.371 19.849C106.229 19.849 105.478 19.2181 105.478 18.2954V15.4781H104.629C104.167 15.4781 103.755 15.2592 103.487 14.8472C102.345 17.3727 100.333 19.4113 97.5389 20.6494C96.6399 21.0378 95.6699 20.7953 95.1612 19.9456C94.6506 19.0958 94.9917 18.0036 95.7684 17.6645C97.0302 17.1066 98.0751 16.3534 98.8756 15.4071H96.837C96.0602 15.4071 95.38 14.9458 95.38 13.9265C95.38 12.9801 96.0602 12.4458 96.837 12.4458H100.405C100.502 12.0811 100.601 11.6927 100.648 11.2807C100.697 10.9652 100.526 10.7464 100.236 10.7464H96.9592C96.0366 10.7464 95.382 10.2121 95.382 9.14352C95.382 8.12424 96.0366 7.517 96.9592 7.517H100.94C103.586 7.517 104.8 8.77879 104.412 11.6198C104.388 11.7164 104.388 11.8386 104.364 11.9352C104.459 11.9096 104.53 11.9096 104.629 11.9096ZM112.057 28.1274C109.534 27.5932 106.523 26.2091 104.556 24.6319C102.734 26.428 100.307 27.739 97.7577 28.2497C96.8824 28.4192 95.8631 28.0072 95.5476 26.9386C95.2558 25.9193 95.7665 24.9966 96.6891 24.7541C99.4808 24.0266 101.811 22.4001 102.976 20.2393C103.341 19.5848 104.311 19.1471 105.429 19.4862C106.594 19.8509 107.055 20.9432 106.716 21.7199L106.693 21.7692C108.319 23.104 110.723 24.1489 113.077 24.6575C113.976 24.8527 114.51 25.7734 114.218 26.8183C113.926 27.883 112.954 28.3207 112.057 28.1274ZM110.139 18.9499V8.60923C110.139 7.68656 110.916 7.05566 112.081 7.05566C113.246 7.05566 113.999 7.68656 113.999 8.60923V18.9519C113.999 19.8746 113.246 20.5055 112.081 20.5055C110.916 20.5055 110.139 19.8726 110.139 18.9499Z" fill="#FF7E36"/>
  <path d="M130.579 14.2721H127.791V22.6491H125.756V14.2721H122.984V12.3262H130.579V14.2721Z" fill="#FF7E36"/>
  <path d="M133.97 21.1289C134.707 21.1289 135.297 20.8193 135.622 20.3915L137.156 21.2767C136.462 22.2803 135.358 22.854 133.94 22.854C131.462 22.854 129.898 21.1585 129.898 18.9602C129.898 16.7619 131.476 15.0664 133.792 15.0664C135.975 15.0664 137.522 16.7915 137.522 18.9602C137.522 19.2401 137.493 19.4905 137.449 19.7409H131.89C132.156 20.7168 132.966 21.1289 133.97 21.1289ZM135.622 18.2682C135.385 17.2055 134.589 16.7797 133.792 16.7797C132.775 16.7797 132.081 17.3258 131.86 18.2682H135.622Z" fill="#FF7E36"/>
  <path d="M146.297 15.2754V22.6489H144.395V21.7795C143.864 22.4439 143.068 22.8559 141.991 22.8559C140.03 22.8559 138.407 21.1604 138.407 18.9621C138.407 16.7639 140.03 15.0684 141.991 15.0684C143.068 15.0684 143.864 15.4804 144.395 16.1448V15.2754H146.297ZM144.395 18.9621C144.395 17.724 143.525 16.8822 142.344 16.8822C141.179 16.8822 140.31 17.722 140.31 18.9621C140.31 20.2022 141.179 21.0421 142.344 21.0421C143.525 21.0401 144.395 20.2003 144.395 18.9621Z" fill="#FF7E36"/>
  <path d="M158.964 18.1065V22.6489H157.062V18.2386C157.062 17.3692 156.62 16.8368 155.824 16.8368C154.984 16.8368 154.452 17.3968 154.452 18.5028V22.647H152.549V18.2386C152.549 17.3692 152.107 16.8368 151.311 16.8368C150.501 16.8368 149.925 17.3968 149.925 18.5028V22.647H148.022V15.2734H149.925V16.0541C150.337 15.4351 151.031 15.0664 151.975 15.0664C152.89 15.0664 153.568 15.4489 153.98 16.1291C154.438 15.4647 155.175 15.0664 156.177 15.0664C157.858 15.0684 158.964 16.2631 158.964 18.1065Z" fill="#FF7E36"/>
</svg>
