<svg viewBox="0 0 149 182" fill="none" xmlns="http://www.w3.org/2000/svg">
<path d="M24.2853 88.0325C24.2853 88.0325 7.13529 78.4425 7.78529 62.8125C8.43529 47.1825 19.5953 35.1625 22.8553 32.1125C26.1153 29.0625 36.3153 21.1025 45.7453 19.0825C45.7453 19.0825 52.0353 7.52248 65.2953 4.04248C78.5553 0.562475 87.7853 2.01247 87.2353 10.3525C87.2353 10.3525 113.445 4.29245 122.245 16.8025C131.055 29.3125 107.845 35.0225 104.325 34.4125C100.805 33.8125 99.3153 34.6925 99.3153 34.6925C99.3153 34.6925 113.085 44.3225 110.755 59.6925C108.425 75.0625 98.7053 81.0925 98.7053 81.0925C98.7053 81.0925 144.165 73.8025 146.415 93.4925C148.665 113.182 118.925 108.432 118.925 108.432L104.315 113.712C104.315 113.712 105.055 131.202 97.5553 139.262C97.5553 139.262 109.585 151.252 111.615 155.962C113.645 160.662 115.985 168.212 113.585 172.142C111.185 176.072 103.845 179.032 98.5153 171.362L70.2953 149.272L68.1953 150.342C68.1953 150.342 68.1153 165.792 59.5853 167.802C51.0553 169.812 43.5453 167.182 41.4253 162.312C39.3053 157.432 42.4353 153.312 43.1853 150.692C43.9353 148.072 42.7953 131.292 50.1153 128.932L45.7753 122.312C45.7753 122.312 40.1653 129.792 27.9853 127.932C15.8053 126.072 -0.434676 122.032 2.31532 104.442C4.67532 89.2025 24.2853 88.0325 24.2853 88.0325Z" fill="white"/>
<path d="M26.3653 45.1725C26.3653 45.1725 10.7953 60.9525 24.1053 77.6225C37.4153 94.2925 73.8353 87.4925 79.1253 75.7725C84.4153 64.0525 82.9153 56.2525 75.6653 48.0925C75.6653 48.0925 59.3153 47.7425 53.2353 39.6525C53.2353 39.6525 53.5953 46.4425 49.5653 49.8125C45.5353 53.1825 41.2852 56.6825 39.2852 52.4325C37.2852 48.1825 37.5653 44.7125 37.5653 44.7125C37.5653 44.7125 32.7453 47.7825 26.3653 45.1725Z" fill="#FCEBE2"/>
<path d="M38.2353 45.1125C38.2353 45.1125 15.4553 45.6825 17.2553 38.3925C19.0553 31.1025 42.7953 35.2925 42.7953 35.2925C42.7953 35.2925 46.7453 33.2925 51.0553 33.6725C55.3653 34.0525 56.4353 32.1125 61.9953 33.0825C67.5553 34.0525 73.8053 36.2825 78.1153 41.5725C82.4253 46.8625 79.8753 47.5225 78.3453 47.7625C76.8053 48.0025 63.0553 49.2125 53.7753 40.2825C53.7753 40.2825 51.8053 52.4525 43.5853 54.4925C35.3553 56.5525 38.2353 45.1125 38.2353 45.1125Z" fill="#D7E8D2"/>
<path d="M69.2267 73.1283C70.9304 72.7253 72.0085 71.1177 71.6347 69.5377C71.2609 67.9576 69.5768 67.0035 67.8732 67.4065C66.1695 67.8095 65.0915 69.4171 65.4652 70.9971C65.839 72.5772 67.5231 73.5314 69.2267 73.1283Z" fill="#EACDC4"/>
<path d="M28.9189 70.4779C29.371 68.9183 28.3742 67.2589 26.6926 66.7715C25.011 66.2841 23.2814 67.1533 22.8294 68.7129C22.3773 70.2725 23.374 71.9319 25.0556 72.4193C26.7372 72.9067 28.4669 72.0375 28.9189 70.4779Z" fill="#EACDC4"/>
<path d="M49.7206 66.0091C49.8953 64.1728 48.0134 62.4916 45.5173 62.2542C43.0212 62.0167 40.8561 63.3129 40.6814 65.1492C40.5067 66.9856 42.3886 68.6667 44.8847 68.9042C47.3808 69.1416 49.5459 67.8455 49.7206 66.0091Z" fill="#212124"/>
<path d="M32.7953 66.6624C34.8222 66.6624 36.4653 63.5418 36.4653 59.6924C36.4653 55.843 34.8222 52.7224 32.7953 52.7224C30.7684 52.7224 29.1253 55.843 29.1253 59.6924C29.1253 63.5418 30.7684 66.6624 32.7953 66.6624Z" fill="white"/>
<path d="M59.5753 67.3424C61.5415 67.3424 63.1353 64.1547 63.1353 60.2224C63.1353 56.2901 61.5415 53.1024 59.5753 53.1024C57.6092 53.1024 56.0153 56.2901 56.0153 60.2224C56.0153 64.1547 57.6092 67.3424 59.5753 67.3424Z" fill="white"/>
<path d="M45.0353 78.2925C47.8298 78.2925 50.0953 76.027 50.0953 73.2325C50.0953 70.4379 47.8298 68.1725 45.0353 68.1725C42.2407 68.1725 39.9753 70.4379 39.9753 73.2325C39.9753 76.027 42.2407 78.2925 45.0353 78.2925Z" fill="#F6BA9D"/>
<path d="M33.0246 66.8965C34.8844 66.8241 36.2667 63.5489 36.1123 59.5811C35.9578 55.6134 34.325 52.4556 32.4653 52.528C30.6055 52.6004 29.2232 55.8756 29.3777 59.8433C29.5321 63.8111 31.1649 66.9689 33.0246 66.8965Z" stroke="#212124" stroke-width="3" stroke-miterlimit="10" stroke-linecap="round" stroke-linejoin="round"/>
<path d="M62.9061 60.393C63.0983 56.4268 61.7471 53.1386 59.8881 53.0485C58.0291 52.9584 56.3664 56.1006 56.1742 60.0668C55.982 64.033 57.3332 67.3212 59.1921 67.4113C61.0511 67.5014 62.7139 64.3592 62.9061 60.393Z" stroke="#212124" stroke-width="3" stroke-miterlimit="10" stroke-linecap="round" stroke-linejoin="round"/>
<path d="M38.2453 34.8125C22.8253 34.4625 17.7753 36.1825 17.2453 38.3925C16.0753 43.2525 31.8253 48.3225 37.5753 44.7025" stroke="#212124" stroke-width="3" stroke-miterlimit="10" stroke-linecap="round" stroke-linejoin="round"/>
<path d="M53.2453 39.6524C53.3253 49.0424 44.5253 55.5824 41.1953 54.8424C37.1553 53.9424 34.8253 31.8224 50.7453 33.4924" stroke="#212124" stroke-width="3" stroke-miterlimit="10" stroke-linecap="round" stroke-linejoin="round"/>
<path d="M55.7453 33.3925C70.4953 30.9025 81.7853 44.4525 79.9953 46.9825C78.4953 49.1025 61.1653 49.0625 53.2453 39.6525" stroke="#212124" stroke-width="3" stroke-miterlimit="10" stroke-linecap="round" stroke-linejoin="round"/>
<path d="M26.6653 45.9424C13.2453 57.1524 15.5353 82.6224 42.4653 86.6724C76.4253 91.7824 92.5053 68.0124 76.9753 49.1024" stroke="#212124" stroke-width="3" stroke-miterlimit="10" stroke-linecap="round" stroke-linejoin="round"/>
<path d="M47.5153 69.0825C46.0253 67.9625 42.6253 67.3925 40.9553 70.1125C39.0553 73.2125 40.4453 75.8125 42.0553 77.1225C44.3753 79.0225 47.8153 78.7025 49.0753 75.8525C50.3353 73.0025 49.0053 70.2025 47.5153 69.0825Z" stroke="#212124" stroke-width="3" stroke-miterlimit="10" stroke-linecap="round" stroke-linejoin="round"/>
<path d="M21.9253 33.0924C26.8453 27.7024 35.0153 21.3224 48.0953 19.0824" stroke="#212124" stroke-width="3" stroke-miterlimit="10" stroke-linecap="round" stroke-linejoin="round"/>
<path d="M25.8553 88.3524C9.0053 82.0724 1.20531 60.7324 14.4353 41.5824" stroke="#212124" stroke-width="3" stroke-miterlimit="10" stroke-linecap="round" stroke-linejoin="round"/>
<path d="M96.4653 32.1124C120.265 49.8224 109.365 75.9424 99.1753 80.5324" stroke="#212124" stroke-width="3" stroke-miterlimit="10" stroke-linecap="round" stroke-linejoin="round"/>
<path d="M60.2853 19.1624C69.4053 18.5524 76.5353 21.4324 81.2853 24.7824" stroke="#212124" stroke-width="3" stroke-miterlimit="10" stroke-linecap="round" stroke-linejoin="round"/>
<path d="M45.0353 19.0725C59.4653 -0.847515 88.6153 -2.75753 87.2253 10.3325" stroke="#212124" stroke-width="3" stroke-miterlimit="10" stroke-linecap="round" stroke-linejoin="round"/>
<path d="M69.4153 19.4324C93.6253 2.01243 118.675 9.86244 123.275 18.2824C128.055 27.0324 115.266 34.5 100.016 34.5" stroke="#212124" stroke-width="3" stroke-miterlimit="10" stroke-linecap="round" stroke-linejoin="round"/>
<path d="M31.0353 89.6124C34.4153 90.9924 40.0353 93.8624 51.7853 94.3624" stroke="#212124" stroke-width="3" stroke-miterlimit="10" stroke-linecap="round" stroke-linejoin="round"/>
<path d="M59.5753 93.9424C59.5753 93.9424 60.9153 93.8624 62.1653 93.4824" stroke="#212124" stroke-width="3" stroke-miterlimit="10" stroke-linecap="round" stroke-linejoin="round"/>
<path d="M85.9853 84.3425C91.3153 82.6425 102.075 79.2425 117.595 79.7325C134.265 80.2525 146.545 83.6625 146.545 95.4425C146.545 106.742 135.655 108.332 131.945 108.702C128.235 109.062 119.985 108.212 117.825 108.642C115.165 109.172 102.925 113.742 102.925 113.742" stroke="#212124" stroke-width="3" stroke-miterlimit="10" stroke-linecap="round" stroke-linejoin="round"/>
<path d="M104.305 113.702C104.405 117.992 104.005 130.272 97.0153 139.252C92.7253 144.752 87.1753 146.302 82.0753 147.432C74.8853 149.022 68.2553 149.442 68.2553 149.442C68.2553 149.442 67.9053 154.242 66.6353 159.512C65.5753 163.882 61.7853 170.012 50.9653 168.432C42.5553 167.192 40.7353 161.792 40.9553 157.622C41.2353 152.222 43.3253 152.062 43.3253 149.902C43.3253 147.742 43.0953 136.782 47.0853 131.372C51.4853 125.412 67.9453 125.662 67.9453 125.662" stroke="#212124" stroke-width="3" stroke-miterlimit="10" stroke-linecap="round" stroke-linejoin="round"/>
<path d="M70.2853 149.262C70.2853 149.262 71.2653 150.102 75.6753 153.752C80.6153 157.842 83.9853 160.142 86.9653 162.402C89.0553 163.992 96.5953 169.812 97.7553 170.662C98.9153 171.512 100.535 174.122 104.005 175.752C107.785 177.532 111.875 175.672 113.575 172.122C115.475 168.152 114.885 159.232 109.565 153.052C104.235 146.872 97.0253 139.242 97.0253 139.242" stroke="#212124" stroke-width="3" stroke-miterlimit="10" stroke-linecap="round" stroke-linejoin="round"/>
<path d="M25.3753 98.3025C27.8153 98.6625 33.4253 100.252 37.7953 101.892C43.7653 104.122 49.0253 110.582 47.0953 118.612C45.4353 125.522 37.7853 129.562 27.9753 127.922C18.6853 126.372 0.115275 124.292 2.15527 105.452C3.77527 90.4625 24.2853 88.0325 24.2853 88.0325" stroke="#212124" stroke-width="3" stroke-miterlimit="10" stroke-linecap="round" stroke-linejoin="round"/>
<path d="M50.1053 127.742L45.7553 122.302" stroke="#212124" stroke-width="3" stroke-miterlimit="10" stroke-linecap="round" stroke-linejoin="round"/>
<path d="M95.2353 58.2424C95.1153 59.4324 94.1753 64.9924 98.0453 65.5524C101.915 66.1124 102.355 60.3024 102.355 60.3024" stroke="#212124" stroke-width="3" stroke-miterlimit="10" stroke-linecap="round" stroke-linejoin="round"/>
<path d="M69.6053 180.323H107.265" stroke="#212124" stroke-width="3" stroke-miterlimit="10" stroke-linecap="round" stroke-linejoin="round"/>
</svg>
