<svg viewBox="0 0 228 203" fill="none" xmlns="http://www.w3.org/2000/svg">
<path d="M225.66 107.258C225.66 159.599 183.229 202.03 130.888 202.03C78.5469 202.03 36.1159 159.599 36.1159 107.258C36.1159 54.9164 78.5469 12.4855 130.888 12.4855C183.229 12.4855 225.66 54.9164 225.66 107.258Z" fill="#F4F1EE"/>
<mask id="mask0" mask-type="alpha" maskUnits="userSpaceOnUse" x="0" y="0" width="228" height="203">
<path d="M225.661 107.258C225.661 159.599 183.23 202.03 130.888 202.03C110.242 202.03 96.0478 195.376 77.5782 188.015C54.0471 173.03 43.5471 151.03 22.3138 122.9C8.54709 107.258 0.761624 93.964 0.04698 82.5298C-2.47888 42.1166 97.5471 19.5298 130.888 1.02975C183.23 1.02975 239.547 -17.9702 225.661 107.258Z" fill="#C4C4C4"/>
</mask>
<g mask="url(#mask0)">
<path d="M170.474 141.519C170.474 141.519 195.423 138.177 205.837 115.512C218.033 89.06 201.382 66.9516 192.193 60.269C192.193 60.269 202.106 59.7678 213.188 47.2378C227.611 30.921 214.636 13.7689 196.871 15.7737C185.176 17.1102 178.716 23.2359 178.716 23.2359C178.716 23.2359 185.956 6.1952 167.913 2.01855C155.661 -0.821579 143.41 7.42035 135.223 18.9479C128.485 28.415 126.982 38.6617 126.982 38.6617C126.982 38.6617 96.7425 39.7755 81.1497 55.3683C65.5569 70.9612 60.6563 100.031 72.2952 116.236C83.9341 132.442 96.5198 137.175 115.732 141.018C132.606 144.359 170.474 141.519 170.474 141.519Z" fill="white"/>
<path d="M30.5846 61.3269C30.5846 61.3269 23.7905 70.0143 25.4055 88.5587C26.4079 99.6964 28.0229 109.72 36.9331 122.417C42.8361 130.882 58.2062 142.02 72.0727 151.821L93.9583 116.904L67.2834 68.7335L36.0421 58.8766L30.5846 61.3269Z" fill="white"/>
<path d="M90.7839 62.8306C82.3192 68.845 75.8037 76.0845 73.7989 92.5684C71.7941 109.052 84.5468 123.754 103.203 128.766C121.858 133.778 141.294 129.156 150.928 123.253C165.407 114.287 173.37 95.1857 163.569 76.8084C153.768 58.4312 133.107 51.3587 133.107 51.3587C133.107 51.3587 105.653 52.3054 90.7839 62.8306Z" fill="#F9E3D6"/>
<path d="M84.4913 87.6677C86.3366 87.6677 87.8326 84.5511 87.8326 80.7066C87.8326 76.8621 86.3366 73.7455 84.4913 73.7455C82.6459 73.7455 81.1499 76.8621 81.1499 80.7066C81.1499 84.5511 82.6459 87.6677 84.4913 87.6677Z" fill="#6DC6B7"/>
<path d="M84.4914 87.6121L10.147 97.5247V63.8887L84.4914 73.7456V87.6121Z" fill="#6DC6B7"/>
<path d="M10.1468 97.5247C14.6064 97.5247 18.2216 89.995 18.2216 80.7067C18.2216 71.4183 14.6064 63.8887 10.1468 63.8887C5.68714 63.8887 2.0719 71.4183 2.0719 80.7067C2.0719 89.995 5.68714 97.5247 10.1468 97.5247Z" fill="#2E3135"/>
<path d="M14.2677 94.5175C10.5923 94.5175 7.64077 88.336 7.64077 80.7067C7.64077 73.0773 10.5923 66.8959 14.2677 66.8959C14.4348 66.8959 14.6019 66.8959 14.7689 66.9516C13.4324 65.0024 11.8731 63.8887 10.1468 63.8887C5.69167 63.8887 2.0719 71.4066 2.0719 80.7067C2.0719 90.0067 5.69167 97.5247 10.1468 97.5247C11.8731 97.5247 13.4881 96.4109 14.7689 94.4618C14.6019 94.4618 14.4348 94.5175 14.2677 94.5175Z" fill="#04887C"/>
<path d="M135.558 93.4594C135.224 93.4594 134.889 93.348 134.611 93.1252C130.267 89.5055 123.25 89.2827 123.195 89.2827C122.527 89.2827 121.97 88.7815 121.803 88.169C121.636 87.5007 121.914 86.8324 122.527 86.4983C128.875 82.9342 136.282 83.7695 136.56 83.8252C137.395 83.9366 137.952 84.6606 137.841 85.4959C137.73 86.3312 137.006 86.8881 136.17 86.7767C136.115 86.7767 132.829 86.3869 128.986 87.2222C131.437 87.8905 134.165 88.9486 136.449 90.842C137.061 91.3432 137.173 92.2899 136.671 92.9025C136.449 93.2923 136.003 93.4594 135.558 93.4594Z" fill="#43474E"/>
<path d="M99.4282 81.9287C99.8979 76.598 98.7141 72.1387 96.7841 71.9687C94.854 71.7986 92.9085 75.9821 92.4388 81.3127C91.969 86.6434 93.1528 91.1027 95.0829 91.2728C97.013 91.4428 98.9584 87.2594 99.4282 81.9287Z" fill="#43474E"/>
<path d="M114.274 93.0634C114.523 90.5846 111.996 88.3009 108.629 87.9626C105.263 87.6243 102.332 89.3595 102.083 91.8382C101.834 94.317 104.361 96.6007 107.727 96.9391C111.094 97.2774 114.024 95.5422 114.274 93.0634Z" fill="#43474E"/>
<path d="M175.821 133.054C175.821 133.054 192.806 151.821 198.152 174.486C203.498 197.152 198.876 220.541 193.53 228.337C188.239 236.134 180.443 237.916 173.315 235.8C166.186 233.684 162.344 226.221 165.852 219.149C169.416 212.076 163.012 193.977 162.678 181.559" fill="white"/>
<path d="M142.463 282.634C142.463 282.634 128.652 291.099 121.19 283.636C113.728 276.174 119.408 272.721 118.35 265.259C117.292 257.797 114.452 234.742 107.379 218.091C100.307 201.44 103.035 207.9 95.7402 190.024C90.2271 176.603 80.9827 159.172 68.0073 148.034C56.9809 138.567 83.9899 124.2 83.9899 124.2L142.129 139.068L173.649 130.214L183.561 174.486L172.201 223.715L169.695 235.41L142.463 282.634Z" fill="white"/>
<path d="M175.375 237.805C174.93 237.805 169.695 237.749 165.017 234.63C159.671 231.066 159.671 222.769 162.734 217.088C165.128 212.689 163.792 206.229 162.567 200.549C162.4 199.881 162.288 199.157 162.121 198.488C160.84 192.195 160.618 179.721 160.618 179.721C160.618 179.721 163.792 191.75 165.017 197.931C165.128 198.6 165.296 199.268 165.407 199.936C166.688 206.118 168.136 213.079 165.24 218.481C162.79 223.047 162.734 229.618 166.576 232.124C170.53 234.797 175.208 234.797 175.264 234.797C176.099 234.797 176.712 235.466 176.767 236.245C176.879 237.136 176.211 237.805 175.375 237.805Z" fill="#CECDCC"/>
<path d="M115.176 109.108C118.774 109.108 121.691 107.014 121.691 104.43C121.691 101.847 118.774 99.7522 115.176 99.7522C111.577 99.7522 108.66 101.847 108.66 104.43C108.66 107.014 111.577 109.108 115.176 109.108Z" fill="#BC725B"/>
<path d="M102.98 61.2155C100.975 65.9491 84.9924 73.1329 76.0265 66.2832C66.6151 59.0437 75.8038 36.2113 108.215 42.7269" fill="#00B493"/>
<path d="M45.5646 67.0629C45.5646 67.0629 50.3538 77.8666 62.1041 78.869C76.1377 80.0941 84.3239 75.4163 86.273 66.2833C88.2221 56.9276 82.876 41.7246 60.8233 43.1168C38.7706 44.4533 30.5843 61.3827 30.5843 61.3827L35.5963 61.8839" fill="white"/>
<path d="M112.725 32.8699C100.864 36.267 96.0745 61.5496 109.328 74.4137C122.582 87.2778 135.391 73.0772 135.112 62.2179C134.611 40.8891 124.643 29.4729 112.725 32.8699Z" fill="#00B493"/>
<path d="M160.415 74.8663C165.955 68.9309 164.177 58.2664 156.443 51.0466C148.709 43.8267 137.948 42.7855 132.407 48.7209C126.866 54.6563 128.644 65.3208 136.378 72.5406C144.112 79.7605 154.874 80.8017 160.415 74.8663Z" fill="#00B493"/>
<path d="M133.553 69.4576C133.553 69.4576 135.836 64.1115 133.275 49.0755C133.275 49.0755 139.568 60.6588 136.171 72.3534C136.226 72.3534 134.556 70.7384 133.553 69.4576Z" fill="#058571"/>
<path d="M102.367 62.1623C102.367 62.1623 100.864 54.8114 101.977 47.5719C101.977 47.5719 98.1905 55.4797 99.9725 64.3899C100.028 64.3899 101.922 62.9977 102.367 62.1623Z" fill="#058571"/>
<path d="M180.387 138.734C168.024 142.465 149.257 145.083 133.163 145.807C133.163 145.807 163.068 147.199 183.784 143.523L180.387 138.734Z" fill="#CECDCC"/>
<path d="M178.772 23.1802C172.312 29.7515 166.131 39.5527 162.678 49.2426C162.678 49.2426 161.342 42.894 166.521 34.4294C168.915 30.4755 173.036 25.7419 178.772 23.1802Z" fill="#CECDCC"/>
</g>
</svg>
