<svg viewBox="0 0 24 24" fill="none" xmlns="http://www.w3.org/2000/svg">
<path d="M12.7071 2.29289C12.3166 1.90237 11.6834 1.90237 11.2929 2.29289L7.29289 6.29289C6.90237 6.68342 6.90237 7.31658 7.29289 7.70711C7.68342 8.09763 8.31658 8.09763 8.70711 7.70711L11 5.41421V14C11 14.5523 11.4477 15 12 15C12.5523 15 13 14.5523 13 14V5.41421L15.2929 7.70711C15.6834 8.09763 16.3166 8.09763 16.7071 7.70711C17.0976 7.31658 17.0976 6.68342 16.7071 6.29289L12.7071 2.29289Z" fill="#4D5159"/>
<path d="M5 9C3.89543 9 3 9.89543 3 11V20C3 21.1046 3.89543 22 5 22H19C20.1046 22 21 21.1046 21 20V11C21 9.89543 20.1046 9 19 9H16C15.4477 9 15 9.44772 15 10C15 10.5523 15.4477 11 16 11H19V20H5V11H8C8.55228 11 9 10.5523 9 10C9 9.44772 8.55228 9 8 9H5Z" fill="#4D5159"/>
</svg>
