<svg viewBox="0 0 20 20" fill="none" xmlns="http://www.w3.org/2000/svg">
<path d="M9.05138 0.856451C11.049 -0.643017 13.8023 -0.122578 15.2011 2.01888C16.5998 4.16035 16.1143 7.11191 14.1167 8.61137L13.1303 9.35184C12.767 9.62447 12.2664 9.52984 12.0121 9.14048C11.7578 8.75113 11.8461 8.21448 12.2093 7.94185L13.1957 7.20139C14.467 6.24718 14.7759 4.36892 13.8858 3.00617C12.9957 1.64342 11.2436 1.31223 9.97235 2.26644L7.34178 4.241C6.07057 5.19521 5.76162 7.07347 6.65174 8.43622C7.01804 8.99702 7.53032 9.38313 8.09499 9.57685C8.48955 9.71221 8.82835 10.0493 8.85751 10.4923C8.8912 11.0044 8.50686 11.4455 8.03839 11.3392C6.98199 11.0996 6.00466 10.4465 5.33646 9.42351C3.9377 7.28204 4.42318 4.33049 6.42081 2.83102L9.05138 0.856451Z" fill="#4D5159"/>
<path d="M6.94862 17.1435C4.95099 18.643 2.19768 18.1226 0.798926 15.9811C-0.599829 13.8397 -0.114345 10.8881 1.88328 9.38863L2.86975 8.64817C3.23295 8.37553 3.73355 8.47016 3.98787 8.85952C4.24219 9.24887 4.15392 9.78552 3.79072 10.0582L2.80425 10.7986C1.53304 11.7528 1.22409 13.6311 2.11421 14.9938C3.00432 16.3566 4.75643 16.6878 6.02765 15.7336L8.65822 13.759C9.92943 12.8048 10.2384 10.9265 9.34826 9.56378C8.98196 9.00298 8.46968 8.61687 7.90501 8.42315C7.51045 8.28779 7.17165 7.95067 7.1425 7.50768C7.1088 6.99562 7.49314 6.55449 7.96161 6.66077C9.01801 6.90042 9.99534 7.55349 10.6635 8.5765C12.0623 10.718 11.5768 13.6695 9.57919 15.169L6.94862 17.1435Z" fill="#4D5159"/>
</svg>
