<svg viewBox="0 0 44 44" fill="none" xmlns="http://www.w3.org/2000/svg">
<path fill-rule="evenodd" clip-rule="evenodd" d="M22 44C9.84974 44 0 34.1503 0 22C0 9.84974 9.84974 0 22 0C34.1503 0 44 9.84974 44 22C44 34.1503 34.1503 44 22 44Z" fill="white" fill-opacity="0.4"/>
<path fill-rule="evenodd" clip-rule="evenodd" d="M25.1106 14.444C24.7015 14.0349 24.0382 14.0349 23.6291 14.444L17.0815 20.9917C16.6723 21.4008 16.6723 22.0641 17.0815 22.4732L23.6291 29.0208C24.0382 29.43 24.7015 29.43 25.1106 29.0208C25.5198 28.6117 25.5198 27.9484 25.1106 27.5393L19.3038 21.7324L25.1106 15.9256C25.5198 15.5165 25.5198 14.8532 25.1106 14.444Z" fill="black"/>
</svg>
