<svg width="44" height="44" viewBox="0 0 44 44" fill="none" xmlns="http://www.w3.org/2000/svg">
<path fill-rule="evenodd" clip-rule="evenodd" d="M22 44C34.1503 44 44 34.1503 44 22C44 9.84974 34.1503 0 22 0C9.84974 0 0 9.84974 0 22C0 34.1503 9.84974 44 22 44Z" fill="white" fill-opacity="0.4"/>
<path fill-rule="evenodd" clip-rule="evenodd" d="M18.8894 14.444C19.2985 14.0349 19.9618 14.0349 20.3709 14.444L26.9185 20.9917C27.3277 21.4008 27.3277 22.0641 26.9185 22.4732L20.3709 29.0208C19.9618 29.43 19.2985 29.43 18.8894 29.0208C18.4802 28.6117 18.4802 27.9484 18.8894 27.5393L24.6962 21.7324L18.8894 15.9256C18.4802 15.5165 18.4802 14.8532 18.8894 14.444Z" fill="black"/>
</svg>
