<svg viewBox="0 0 18 18" fill="none" xmlns="http://www.w3.org/2000/svg">
  <path d="M13.6555 4.63519C13.6225 4.57586 13.5807 4.52007 13.5303 4.46967C13.3801 4.31942 13.1819 4.24624 12.985 4.25015L6.00012 4.25012C5.58591 4.25012 5.25012 4.58591 5.25012 5.00012C5.25012 5.41433 5.5859 5.75012 6.00012 5.75012L11.1892 5.75014L4.46967 12.4697C4.17678 12.7626 4.17678 13.2374 4.46967 13.5303C4.76256 13.8232 5.23744 13.8232 5.53033 13.5303L12.2501 6.81051V12.0001C12.2501 12.4143 12.5859 12.7501 13.0001 12.7501C13.4144 12.7501 13.7501 12.4143 13.7501 12.0001V5.00015C13.7501 4.86766 13.7158 4.7432 13.6555 4.63519Z" fill="#212124"/>
</svg>

