<svg viewBox="0 0 24 24" fill="none" xmlns="http://www.w3.org/2000/svg">
<path fill-rule="evenodd" clip-rule="evenodd" d="M10.5 2C5.80558 2 2 5.80558 2 10.5C2 15.1944 5.80558 19 10.5 19C12.4869 19 14.3145 18.3183 15.7618 17.176L20.2929 21.7071C20.6834 22.0976 21.3166 22.0976 21.7071 21.7071C22.0976 21.3166 22.0976 20.6834 21.7071 20.2929L17.176 15.7618C18.3183 14.3145 19 12.4869 19 10.5C19 5.80558 15.1944 2 10.5 2ZM4 10.5C4 6.91015 6.91015 4 10.5 4C14.0899 4 17 6.91015 17 10.5C17 14.0899 14.0899 17 10.5 17C6.91015 17 4 14.0899 4 10.5Z" fill="#868B94"/>
</svg>
