<svg width="30" height="22" viewBox="0 0 30 22" fill="none" xmlns="http://www.w3.org/2000/svg">
<path d="M8.09771 9.35526C9.56228 9.56169 10.8997 10.2997 11.8553 11.4286C12.8109 12.5574 13.3179 13.9984 13.2797 15.4769C13.2893 16.3364 13.1253 17.1891 12.7974 17.9837C12.4696 18.7782 11.9847 19.4984 11.3717 20.1011C10.7588 20.7037 10.0305 21.1763 9.23043 21.4906C8.43039 21.8049 7.57507 21.9544 6.71584 21.9302C3.0539 21.9302 0 19.3876 0 14.7031C0.188004 11.9474 1.14555 9.29983 2.76373 7.0614L7.43444 0H14.1503L8.09771 9.35526Z" fill="currentColor"/>
<path d="M24.0165 9.35526C25.481 9.56169 26.8185 10.2997 27.7741 11.4286C28.7297 12.5574 29.2367 13.9984 29.1985 15.4769C29.2065 16.3419 29.039 17.1995 28.7063 17.998C28.3735 18.7964 27.8822 19.5191 27.2622 20.1223C26.6422 20.7255 25.9064 21.1967 25.0991 21.5075C24.2918 21.8182 23.4299 21.962 22.5655 21.9302C18.9173 21.9302 15.8496 19.3876 15.8496 14.7031C16.0376 11.9474 16.9952 9.29983 18.6133 7.0614L23.2841 0H29.9999L24.0165 9.35526Z" fill="currentColor"/>
</svg>
