<svg viewBox="0 0 30 22" fill="none" xmlns="http://www.w3.org/2000/svg">
<path d="M21.9023 12.5793C20.4377 12.3729 19.1003 11.6349 18.1447 10.506C17.1891 9.37712 16.6821 7.93621 16.7203 6.45766C16.7107 5.59814 16.8747 4.74551 17.2026 3.95092C17.5304 3.15633 18.0153 2.43613 18.6283 1.8335C19.2412 1.23088 19.9695 0.758282 20.7696 0.443964C21.5696 0.129646 22.4249 -0.0198696 23.2842 0.00437155C26.9461 0.00437155 30 2.54698 30 7.2315C29.812 9.98717 28.8545 12.6347 27.2363 14.8732L22.5656 21.9346H15.8497L21.9023 12.5793Z" fill="currentColor"/>
<path d="M5.98352 12.5793C4.51895 12.3729 3.1815 11.6349 2.2259 10.506C1.27029 9.37712 0.763301 7.93621 0.801525 6.45766C0.793467 5.59268 0.960957 4.73502 1.29375 3.93658C1.62654 3.13814 2.11777 2.41546 2.73777 1.81225C3.35777 1.20905 4.09363 0.737845 4.9009 0.427097C5.70818 0.11635 6.57011 -0.027425 7.43455 0.00437344C11.0827 0.00437344 14.1504 2.54698 14.1504 7.2315C13.9624 9.98718 13.0048 12.6347 11.3867 14.8732L6.71595 21.9346H0.000103827L5.98352 12.5793Z" fill="currentColor"/>
</svg>
