<svg width="24" height="24" viewBox="0 0 24 24" fill="none" xmlns="http://www.w3.org/2000/svg">
<path d="M20.0702 8.02139V8.53476C20.0702 13.8396 15.9474 20 8.31579 20C5.94737 20 3.84211 19.3155 2 18.2032C2.35088 18.2032 2.61404 18.2888 2.96491 18.2888C4.89474 18.2888 6.64912 17.6043 8.14035 16.5775C6.29825 16.5775 4.80702 15.3797 4.2807 13.754C4.54386 13.8396 4.80702 13.8396 5.07018 13.8396C5.42105 13.8396 5.77193 13.754 6.12281 13.6684C4.19298 13.3262 2.78947 11.7005 2.78947 9.73262V9.64706C3.31579 9.9893 4.01754 10.1604 4.63158 10.1604C3.49123 9.47594 2.78947 8.19251 2.78947 6.82353C2.78947 6.05348 2.96491 5.36898 3.31579 4.77005C5.33333 7.25134 8.40351 8.79144 11.8246 8.96257C11.7368 8.70588 11.7368 8.36364 11.7368 8.02139C11.7368 5.79679 13.5789 4 15.8596 4C17.0877 4 18.1404 4.51337 18.8421 5.28342C19.807 5.1123 20.6842 4.77005 21.4737 4.34225C21.1228 5.28342 20.5088 6.05348 19.6316 6.56684C20.5088 6.48128 21.2982 6.2246 22 5.96791C21.6491 6.73797 20.9474 7.42246 20.0702 8.02139Z" fill="#4D5159"/>
</svg>
