<svg width="500" height="500" viewBox="0 0 500 500" fill="none" xmlns="http://www.w3.org/2000/svg">
  <path d="M250.2 184.475C169.462 184.475 104 248.55 104 329.287C104 440.925 250.612 500.162 250.2 499.999C249.787 500.162 396.4 440.925 396.4 329.287C396.4 248.55 330.937 184.475 250.2 184.475ZM250.2 387.9C219.637 387.9 194.85 363.125 194.85 332.55C194.85 301.987 219.625 277.2 250.2 277.2C280.775 277.2 305.55 301.975 305.55 332.55C305.55 363.125 280.762 387.9 250.2 387.9Z" fill="#FF6F0F"/>
  <path d="M283.114 0C248.989 0 225.239 23.8375 221.501 51.9125C176.001 39.35 140.364 73.8125 140.364 111.962C140.364 141.062 160.301 164.575 187.014 172.2C208.526 178.337 247.239 173.775 247.239 173.775C247.039 164.362 255.701 154.05 269.064 144.65C307.039 117.925 336.776 105.337 341.376 68.8875C346.176 30.8 317.876 0 283.114 0Z" fill="#00A05B"/>
</svg>
