<svg viewBox="0 0 109 40" fill="none" xmlns="http://www.w3.org/2000/svg">
<g clip-path="url(#clip0_1043_201)">
<path d="M99.3223 0H9.53468C9.16798 0 8.80568 0 8.43995 0.002C8.1338 0.004 7.83009 0.00981 7.521 0.0147C6.84951 0.0226018 6.17961 0.0816763 5.5171 0.19141C4.85552 0.303533 4.21467 0.514916 3.61622 0.81841C3.0185 1.12447 2.47235 1.52217 1.99757 1.99707C1.5203 2.47064 1.12246 3.01802 0.81935 3.61816C0.5154 4.21711 0.304641 4.85894 0.19435 5.52148C0.0830109 6.18319 0.0230984 6.85252 0.01515 7.52348C0.00587 7.83008 0.00489 8.1377 0 8.44434V31.5586C0.00489 31.8691 0.00587 32.1699 0.01515 32.4805C0.0231008 33.1514 0.0830134 33.8207 0.19435 34.4824C0.304336 35.1453 0.515108 35.7875 0.81935 36.3867C1.12233 36.9849 1.52022 37.5301 1.99757 38.001C2.47054 38.478 3.01705 38.876 3.61622 39.1797C4.21467 39.484 4.85545 39.6966 5.5171 39.8105C6.17972 39.9194 6.84956 39.9785 7.521 39.9873C7.83009 39.9941 8.1338 39.998 8.43995 39.998C8.80567 40 9.168 40 9.53468 40H99.3223C99.6817 40 100.047 40 100.406 39.998C100.711 39.998 101.023 39.9941 101.328 39.9873C101.998 39.9789 102.667 39.9198 103.328 39.8105C103.992 39.6958 104.635 39.4833 105.236 39.1797C105.835 38.8758 106.381 38.4778 106.854 38.001C107.33 37.5282 107.728 36.9835 108.035 36.3867C108.337 35.7871 108.546 35.1449 108.654 34.4824C108.766 33.8206 108.828 33.1515 108.84 32.4805C108.844 32.1699 108.844 31.8691 108.844 31.5586C108.852 31.1953 108.852 30.834 108.852 30.4648V9.53613C108.852 9.16992 108.852 8.80664 108.844 8.44434C108.844 8.1377 108.844 7.83008 108.84 7.52344C108.828 6.85242 108.766 6.18324 108.654 5.52144C108.546 4.85928 108.337 4.2175 108.035 3.61812C107.418 2.4152 106.439 1.43603 105.236 0.81832C104.635 0.515567 103.992 0.30424 103.328 0.19132C102.667 0.0811028 101.998 0.0220078 101.328 0.01456C101.023 0.00968 100.711 0.00382 100.406 0.00187C100.047 0 99.6817 0 99.3223 0Z" fill="#A6A6A6"/>
<path d="M8.44487 39.125C8.14019 39.125 7.84287 39.1211 7.54058 39.1143C6.91436 39.1061 6.2896 39.0516 5.67144 38.9512C5.09503 38.8519 4.53664 38.6673 4.0147 38.4033C3.49754 38.1415 3.02585 37.7983 2.6177 37.3867C2.20364 36.98 1.85891 36.5082 1.59719 35.9902C1.33258 35.4688 1.14945 34.9099 1.05419 34.333C0.951311 33.7131 0.895651 33.0863 0.887687 32.458C0.881347 32.2471 0.873047 31.5449 0.873047 31.5449V8.44434C0.873047 8.44434 0.881887 7.75293 0.887737 7.5498C0.895363 6.92248 0.950699 6.29665 1.05327 5.67773C1.14871 5.09925 1.33197 4.53875 1.59673 4.01563C1.85749 3.49794 2.2003 3.02586 2.61187 2.61768C3.02297 2.20562 3.49617 1.8606 4.01421 1.59521C4.53495 1.33209 5.09228 1.14873 5.66753 1.05127C6.28772 0.949836 6.91465 0.894996 7.54304 0.88721L8.44536 0.875H100.401L101.314 0.8877C101.937 0.895099 102.558 0.94945 103.173 1.05029C103.754 1.14898 104.317 1.33362 104.844 1.59814C105.882 2.13299 106.726 2.97916 107.259 4.01807C107.519 4.53758 107.7 5.09351 107.794 5.667C107.898 6.291 107.956 6.92175 107.968 7.55421C107.971 7.83741 107.971 8.14161 107.971 8.44435C107.979 8.81935 107.979 9.17628 107.979 9.53614V30.4648C107.979 30.8281 107.979 31.1826 107.971 31.54C107.971 31.8652 107.971 32.1631 107.967 32.4697C107.955 33.0909 107.898 33.7104 107.796 34.3232C107.703 34.9043 107.52 35.4675 107.256 35.9932C106.992 36.5056 106.65 36.9733 106.24 37.3789C105.832 37.7927 105.359 38.1379 104.841 38.4014C104.316 38.6674 103.753 38.8527 103.173 38.9512C102.555 39.0522 101.93 39.1067 101.304 39.1143C101.011 39.1211 100.704 39.125 100.406 39.125L99.3223 39.127L8.44487 39.125Z" fill="black"/>
<path d="M41.1674 16.5546H37.1158L36.1428 19.4276H34.4268L38.2643 8.79834H40.0473L43.8849 19.4276H42.1395L41.1674 16.5546ZM37.5354 15.2289H40.747L39.1638 10.5662H39.1195L37.5354 15.2289Z" fill="white"/>
<path d="M52.1729 15.5532C52.1729 17.9614 50.884 19.5087 48.9388 19.5087C48.4461 19.5345 47.9561 19.421 47.5248 19.1812C47.0936 18.9414 46.7386 18.585 46.5005 18.1529H46.4638V21.9913H44.873V11.678H46.4128V12.967H46.442C46.6911 12.5369 47.0521 12.1824 47.4866 11.9412C47.9211 11.6999 48.4129 11.581 48.9096 11.597C50.8764 11.597 52.1729 13.1517 52.1729 15.5532ZM50.5379 15.5532C50.5379 13.9842 49.7271 12.9528 48.49 12.9528C47.2746 12.9528 46.4571 14.006 46.4571 15.5532C46.4571 17.1147 47.2746 18.1604 48.49 18.1604C49.7271 18.1604 50.5379 17.1364 50.5379 15.5532H50.5379Z" fill="white"/>
<path d="M60.7026 15.5532C60.7026 17.9614 59.4132 19.5087 57.4681 19.5087C56.9754 19.5345 56.4854 19.421 56.0541 19.1812C55.6229 18.9414 55.2679 18.585 55.0298 18.1529H54.993V21.9913H53.4023V11.678H54.9421V12.967H54.9713C55.2204 12.5369 55.5814 12.1824 56.0159 11.9412C56.4504 11.6999 56.9422 11.581 57.4389 11.597C59.4057 11.597 60.7026 13.1517 60.7026 15.5532ZM59.0672 15.5532C59.0672 13.9842 58.2564 12.9528 57.0192 12.9528C55.8039 12.9528 54.9864 14.006 54.9864 15.5532C54.9864 17.1147 55.8039 18.1604 57.0192 18.1604C58.2564 18.1604 59.0672 17.1364 59.0672 15.5532H59.0672Z" fill="white"/>
<path d="M66.339 16.466C66.4569 17.5201 67.4808 18.2122 68.8801 18.2122C70.2209 18.2122 71.1855 17.5201 71.1855 16.5697C71.1855 15.7447 70.6037 15.2507 69.2262 14.9121L67.8486 14.5802C65.8968 14.1088 64.9907 13.196 64.9907 11.7148C64.9907 9.8808 66.589 8.62115 68.8576 8.62115C71.1044 8.62115 72.6442 9.88085 72.696 11.7148H71.0902C70.9941 10.654 70.1172 10.0138 68.8358 10.0138C67.5544 10.0138 66.6776 10.6616 66.6776 11.6045C66.6776 12.356 67.2376 12.7982 68.6076 13.1367L69.7787 13.4242C71.9596 13.94 72.8648 14.816 72.8648 16.3708C72.8648 18.3594 71.2817 19.6048 68.7623 19.6048C66.4051 19.6048 64.8135 18.3886 64.7107 16.4661L66.339 16.466Z" fill="white"/>
<path d="M76.2997 9.84406V11.6781H77.7734V12.9378H76.2997V17.21C76.2997 17.8737 76.5948 18.183 77.2426 18.183C77.4176 18.18 77.5922 18.1677 77.7659 18.1462V19.3984C77.4746 19.4528 77.1786 19.4775 76.8823 19.4719C75.3133 19.4719 74.7015 18.8826 74.7015 17.3797V12.9377H73.5747V11.678H74.7015V9.84399L76.2997 9.84406Z" fill="white"/>
<path d="M78.626 15.5532C78.626 13.1149 80.062 11.5827 82.3014 11.5827C84.5483 11.5827 85.9777 13.1149 85.9777 15.5532C85.9777 17.9982 84.5558 19.5237 82.3014 19.5237C80.0478 19.5237 78.626 17.9982 78.626 15.5532ZM84.3569 15.5532C84.3569 13.8806 83.5904 12.8934 82.3014 12.8934C81.0125 12.8934 80.2459 13.8881 80.2459 15.5532C80.2459 17.2325 81.0125 18.2122 82.3014 18.2122C83.5904 18.2122 84.3569 17.2325 84.3569 15.5532Z" fill="white"/>
<path d="M87.2891 11.678H88.8062V12.997H88.843C88.9456 12.585 89.1869 12.221 89.5264 11.966C89.8658 11.711 90.2827 11.5807 90.707 11.5969C90.8903 11.5962 91.0731 11.6161 91.252 11.6562V13.1441C91.0205 13.0734 90.7791 13.0409 90.5373 13.048C90.3062 13.0386 90.0758 13.0793 89.8619 13.1674C89.6481 13.2555 89.4558 13.3888 89.2983 13.5582C89.1409 13.7276 89.0219 13.929 88.9496 14.1487C88.8774 14.3684 88.8535 14.6012 88.8797 14.831V19.4276H87.2891V11.678Z" fill="white"/>
<path d="M98.5863 17.1514C98.4115 17.8838 97.9769 18.5278 97.3632 18.9641C96.7496 19.4003 95.9985 19.5992 95.2494 19.5237C92.995 19.5237 91.5957 18.0132 91.5957 15.59C91.5957 13.1592 93.0025 11.5827 95.1825 11.5827C97.3266 11.5827 98.6749 13.0555 98.6749 15.4052V15.9502H93.2015V16.0464C93.1762 16.3316 93.2119 16.6189 93.3062 16.8892C93.4005 17.1596 93.5513 17.4068 93.7485 17.6144C93.9456 17.822 94.1847 17.9853 94.4498 18.0934C94.715 18.2015 95.0001 18.252 95.2862 18.2414C95.6621 18.2767 96.0393 18.1896 96.3618 17.9932C96.6842 17.7968 96.9347 17.5016 97.0758 17.1514L98.5863 17.1514ZM93.209 14.8385H97.0834C97.0976 14.5821 97.0588 14.3254 96.9692 14.0847C96.8796 13.844 96.7412 13.6244 96.5627 13.4398C96.3842 13.2551 96.1695 13.1093 95.932 13.0115C95.6945 12.9137 95.4393 12.8661 95.1825 12.8716C94.9235 12.8701 94.6667 12.9199 94.427 13.0181C94.1873 13.1163 93.9694 13.261 93.786 13.4439C93.6025 13.6267 93.457 13.8441 93.358 14.0835C93.259 14.3229 93.2083 14.5795 93.209 14.8385Z" fill="white"/>
<path d="M36.4365 30.8115L36.5024 29.9922C36.8096 30.0913 37.1303 30.1424 37.4531 30.1435C37.7451 30.1435 37.8579 30.1152 37.9995 29.917C38.3438 29.1963 38.493 28.3979 38.4321 27.6016C38.4321 26.7539 38.1689 26.5088 37.5005 26.5088C37.3496 26.5088 37.1802 26.5186 36.9917 26.5283C36.632 27.9904 36.0341 29.3833 35.2222 30.6513L34.4404 30.2275C35.2031 29.1316 35.7612 27.9068 36.0879 26.6123C35.5721 26.668 35.0599 26.7531 34.5537 26.8671L34.3843 26.038C34.9585 25.9345 35.6455 25.8408 36.2856 25.7841C36.4172 25.159 36.5147 24.5272 36.5776 23.8915L37.5005 23.9951C37.4155 24.5693 37.312 25.1445 37.1802 25.7089H37.5474C38.7432 25.7089 39.3174 26.3017 39.3174 27.5634C39.3693 28.5262 39.1817 29.4868 38.7715 30.3593C38.6634 30.5599 38.4985 30.724 38.2975 30.8312C38.0965 30.9384 37.8683 30.9839 37.6416 30.9619C37.2354 30.9592 36.8309 30.9087 36.4365 30.8115ZM39.4678 25.7373L40.1553 25.2754C41.1085 26.1948 41.6828 27.4379 41.7651 28.7598L40.8613 28.9004C40.8547 28.3064 40.7278 27.7199 40.4883 27.1762C40.2488 26.6326 39.9016 26.1431 39.4678 25.7373Z" fill="white"/>
<path d="M44.8867 30.9434L44.6987 30.0957C44.9341 30.1153 45.2446 30.124 45.4331 30.124C47.2969 30.124 48.0029 29.5977 48.0029 28.8155C48.0029 28.1944 47.5981 27.8369 46.6943 27.8369C45.7089 27.9273 44.791 28.3763 44.1148 29.0987L43.3897 28.7783C43.2523 27.5451 43.5343 26.3015 44.19 25.248L45.0279 25.5205C44.5058 26.2255 44.2522 27.0935 44.3126 27.9687C45.0676 27.4363 45.9598 27.1322 46.8829 27.0927C48.1446 27.0927 48.9259 27.7421 48.9259 28.7968C48.9259 30.1337 47.8712 30.9531 45.3389 30.9531C45.2163 30.9532 45.0376 30.9434 44.8867 30.9434ZM44.0112 24.6924L44.2466 23.8633C45.4991 24.0549 46.7358 24.3382 47.9468 24.7109L47.7207 25.5303C46.5119 25.1401 45.2704 24.8597 44.0112 24.6924V24.6924Z" fill="white"/>
<path d="M51.6523 30.294C52.6232 29.9744 53.4953 29.41 54.1846 28.6553C53.6386 28.2027 53.0489 27.8056 52.4243 27.4697L52.9419 26.8203C53.5717 27.1406 54.1704 27.5185 54.7305 27.9492C55.1803 27.2932 55.4941 26.5537 55.6533 25.7744H53.2524C52.7008 26.6681 52.0077 27.4662 51.2002 28.1377L50.5127 27.5449C51.6749 26.5862 52.5754 25.3489 53.1304 23.9483L54.0342 24.1651C53.9307 24.4287 53.8272 24.7012 53.7046 24.9561H56.0396L56.7081 25.2666C56.5459 26.5444 56.0411 27.7546 55.2472 28.7689C54.4532 29.7833 53.3998 30.564 52.1983 31.0283L51.6523 30.294ZM55.625 23.7227L56.1523 23.4678C56.42 23.8262 56.6444 24.2149 56.8208 24.626L56.2275 24.8994C56.0782 24.4828 55.8757 24.0873 55.625 23.7227ZM56.8017 23.6279L57.3384 23.374C57.6096 23.7436 57.8402 24.1414 58.0259 24.5605L57.4326 24.8145C57.2749 24.3932 57.0628 23.9943 56.8018 23.6279H56.8017Z" fill="white"/>
<path d="M60.9214 30.9902L60.4414 30.2275C61.4116 30.0727 62.2891 29.5613 62.9021 28.7935C63.5151 28.0256 63.8193 27.0566 63.7554 26.0762H59.8013V27.9687H58.8501V25.2754H61.2134V23.8916H62.164V25.2754H63.9248L64.791 25.5205C64.6777 28.1943 63.7837 30.2373 60.9214 30.9902Z" fill="white"/>
<path d="M66.6226 25.3418L67.1499 24.5693C67.9735 24.9458 68.7505 25.4167 69.4653 25.9727L68.8628 26.7822C68.1768 26.2135 67.4246 25.7299 66.6226 25.3418ZM66.8013 29.9834C67.9532 29.8101 69.0471 29.3642 69.992 28.6829C70.9369 28.0016 71.7055 27.1046 72.2339 26.0664L72.855 26.7637C72.2813 27.8357 71.4697 28.7621 70.4824 29.4719C69.4952 30.1817 68.3586 30.6559 67.1597 30.8584L66.8013 29.9834Z" fill="white"/>
<path d="M80.5708 30.4356H74.6489V24.833H80.5708L80.5708 30.4356ZM75.5815 25.6992V29.5693H79.6294V25.6992H75.5815Z" fill="white"/>
<path d="M89.0493 27.9209H82.3931V26.9609H89.0493V27.9209Z" fill="white"/>
<path d="M91.314 23.9199H92.2456V26.3301C93.4847 26.8458 94.6864 27.4468 95.8423 28.1289L95.315 28.957C94.3355 28.3301 93.3094 27.7793 92.2456 27.3095V30.9433H91.314V23.9199ZM93.5259 24.4287L94.0815 24.165C94.3537 24.5642 94.5782 24.9939 94.7505 25.4453L94.1382 25.7187C93.9908 25.264 93.785 24.8304 93.5259 24.4287H93.5259ZM94.5991 24.0234L95.1645 23.7598C95.4503 24.1567 95.6874 24.5865 95.8706 25.04L95.2583 25.3134C95.0903 24.8589 94.8691 24.4259 94.5991 24.0234H94.5991Z" fill="white"/>
<path d="M24.769 20.3007C24.7797 19.466 25.0014 18.6477 25.4135 17.9217C25.8255 17.1957 26.4145 16.5858 27.1256 16.1486C26.6738 15.5035 26.0779 14.9725 25.385 14.598C24.6922 14.2234 23.9216 14.0156 23.1344 13.991C21.4552 13.8147 19.8272 14.9958 18.9715 14.9958C18.0992 14.9958 16.7817 14.0085 15.363 14.0376C14.4453 14.0673 13.551 14.3341 12.7671 14.8122C11.9832 15.2903 11.3365 15.9632 10.8901 16.7655C8.95607 20.1139 10.3987 25.035 12.2513 27.7416C13.1782 29.0669 14.2615 30.5474 15.6789 30.4949C17.066 30.4374 17.584 29.6104 19.2583 29.6104C20.9171 29.6104 21.4031 30.4949 22.8493 30.4615C24.3377 30.4374 25.2754 29.1303 26.1698 27.7924C26.8358 26.848 27.3483 25.8043 27.6882 24.6999C26.8235 24.3341 26.0856 23.722 25.5665 22.9397C25.0474 22.1574 24.77 21.2396 24.769 20.3007Z" fill="white"/>
<path d="M22.0373 12.2109C22.8489 11.2367 23.2487 9.98451 23.1518 8.72028C21.912 8.8505 20.7668 9.44306 19.9443 10.3799C19.5421 10.8376 19.2341 11.37 19.0379 11.9468C18.8416 12.5235 18.761 13.1333 18.8006 13.7413C19.4207 13.7477 20.0342 13.6132 20.5949 13.3482C21.1555 13.0831 21.6487 12.6942 22.0373 12.2109Z" fill="white"/>
</g>
<defs>
<clipPath id="clip0_1043_201">
<rect width="108.852" height="40" fill="white"/>
</clipPath>
</defs>
</svg>
