<svg viewBox="0 0 135 40" fill="none" xmlns="http://www.w3.org/2000/svg">
<path d="M130 0H5C2.23858 0 0 2.23858 0 5V35C0 37.7614 2.23858 40 5 40H130C132.761 40 135 37.7614 135 35V5C135 2.23858 132.761 0 130 0Z" fill="black"/>
<path d="M130 0.8C131.114 0.8 132.182 1.2425 132.97 2.03015C133.758 2.8178 134.2 3.88609 134.2 5V35C134.2 36.1139 133.758 37.1822 132.97 37.9698C132.182 38.7575 131.114 39.2 130 39.2H5C3.88609 39.2 2.8178 38.7575 2.03015 37.9698C1.2425 37.1822 0.8 36.1139 0.8 35V5C0.8 3.88609 1.2425 2.8178 2.03015 2.03015C2.8178 1.2425 3.88609 0.8 5 0.8H130ZM130 0H5C3.67392 0 2.40215 0.526784 1.46447 1.46447C0.526784 2.40215 0 3.67392 0 5V35C0 36.3261 0.526784 37.5979 1.46447 38.5355C2.40215 39.4732 3.67392 40 5 40H130C131.326 40 132.598 39.4732 133.536 38.5355C134.473 37.5979 135 36.3261 135 35V5C135 3.67392 134.473 2.40215 133.536 1.46447C132.598 0.526784 131.326 0 130 0Z" fill="#A6A6A6"/>
<path d="M64.72 12.79C63.9846 12.792 63.2664 13.0119 62.656 13.4218C62.0455 13.8318 61.5703 14.4135 61.2903 15.0934C61.0102 15.7733 60.938 16.5209 61.0827 17.2419C61.2273 17.9628 61.5824 18.6247 62.103 19.144C62.6237 19.6632 63.2865 20.0165 64.0079 20.1593C64.7292 20.302 65.4767 20.2277 66.1558 19.9459C66.835 19.664 67.4154 19.1872 67.8237 18.5757C68.232 17.9642 68.4499 17.2454 68.4499 16.51C68.4581 16.0184 68.3671 15.5302 68.1824 15.0745C67.9977 14.6189 67.7231 14.2051 67.375 13.8579C67.0269 13.5107 66.6123 13.2372 66.1562 13.0537C65.7 12.8702 65.2115 12.7806 64.72 12.79V12.79ZM64.72 18.79C64.2671 18.8222 63.8151 18.7172 63.4227 18.4887C63.0304 18.2603 62.716 17.919 62.5204 17.5093C62.3248 17.0996 62.2572 16.6405 62.3263 16.1918C62.3954 15.743 62.598 15.3256 62.9078 14.9937C63.2175 14.6618 63.6201 14.4309 64.063 14.331C64.5058 14.2312 64.9685 14.267 65.3907 14.4339C65.8129 14.6008 66.1751 14.891 66.43 15.2667C66.6849 15.6423 66.8208 16.086 66.82 16.54C66.8293 16.824 66.7822 17.1071 66.6815 17.3728C66.5807 17.6385 66.4283 17.8816 66.233 18.0881C66.0377 18.2945 65.8035 18.4602 65.5438 18.5755C65.284 18.6909 65.004 18.7536 64.72 18.76V18.79ZM56.58 12.79C55.8446 12.792 55.1264 13.0119 54.516 13.4218C53.9055 13.8318 53.4303 14.4135 53.1503 15.0934C52.8702 15.7733 52.798 16.5209 52.9427 17.2419C53.0873 17.9628 53.4424 18.6247 53.963 19.144C54.4837 19.6632 55.1466 20.0165 55.8679 20.1593C56.5892 20.302 57.3367 20.2277 58.0158 19.9459C58.695 19.664 59.2754 19.1872 59.6837 18.5757C60.092 17.9642 60.3099 17.2454 60.3099 16.51C60.3181 16.0184 60.2271 15.5302 60.0424 15.0745C59.8577 14.6189 59.5831 14.2051 59.235 13.8579C58.8869 13.5107 58.4723 13.2372 58.0162 13.0537C57.56 12.8702 57.0715 12.7806 56.58 12.79ZM56.58 18.79C56.1271 18.8222 55.6751 18.7172 55.2827 18.4887C54.8904 18.2603 54.576 17.919 54.3804 17.5093C54.1848 17.0996 54.1172 16.6405 54.1863 16.1918C54.2554 15.743 54.458 15.3256 54.7678 14.9937C55.0775 14.6618 55.4801 14.4309 55.923 14.331C56.3658 14.2312 56.8285 14.267 57.2507 14.4339C57.6729 14.6008 58.0351 14.891 58.29 15.2667C58.5449 15.6423 58.6808 16.086 58.68 16.54C58.6893 16.824 58.6422 17.1071 58.5415 17.3728C58.4407 17.6385 58.2883 17.8816 58.093 18.0881C57.8977 18.2945 57.6635 18.4602 57.4038 18.5755C57.144 18.6909 56.864 18.7536 56.58 18.76V18.79ZM46.9 13.93V15.51H50.6699C50.6186 16.255 50.3153 16.9603 49.81 17.51C49.4321 17.8942 48.9779 18.1951 48.4767 18.3931C47.9755 18.5912 47.4384 18.6821 46.9 18.66C45.8228 18.6074 44.8071 18.1425 44.0634 17.3615C43.3197 16.5806 42.9048 15.5435 42.9048 14.465C42.9048 13.3866 43.3197 12.3495 44.0634 11.5685C44.8071 10.7876 45.8228 10.3226 46.9 10.27C47.9589 10.2559 48.9802 10.6623 49.74 11.4L50.8499 10.29C50.3244 9.76968 49.6992 9.36067 49.012 9.08747C48.3247 8.81427 47.5893 8.6825 46.8499 8.70003C46.0916 8.70003 45.3406 8.84941 44.64 9.13963C43.9393 9.42985 43.3027 9.85523 42.7664 10.3915C42.2301 10.9277 41.8048 11.5644 41.5145 12.265C41.2243 12.9657 41.075 13.7166 41.075 14.475C41.075 15.2334 41.2243 15.9844 41.5145 16.685C41.8048 17.3857 42.2301 18.0223 42.7664 18.5586C43.3027 19.0948 43.9393 19.5202 44.64 19.8104C45.3406 20.1007 46.0916 20.25 46.8499 20.25C47.5932 20.2769 48.3337 20.1465 49.023 19.8674C49.7123 19.5882 50.3349 19.1665 50.8499 18.63C51.7715 17.6265 52.2634 16.3019 52.22 14.94C52.226 14.6049 52.1992 14.27 52.1399 13.94L46.9 13.93ZM86.5 15.16C86.2768 14.4866 85.852 13.8981 85.2832 13.4742C84.7144 13.0503 84.029 12.8114 83.32 12.79C82.8416 12.792 82.3687 12.8913 81.9299 13.0816C81.4911 13.272 81.0956 13.5495 80.7673 13.8974C80.4391 14.2453 80.1849 14.6563 80.0204 15.1054C79.8558 15.5545 79.7842 16.0324 79.8099 16.51C79.7992 16.999 79.887 17.4851 80.0682 17.9393C80.2495 18.3935 80.5204 18.8066 80.8648 19.1538C81.2092 19.501 81.6201 19.7753 82.0728 19.9602C82.5256 20.1451 83.0109 20.2369 83.5 20.23C84.1129 20.2333 84.7171 20.0842 85.2582 19.7962C85.7993 19.5082 86.2603 19.0903 86.5999 18.58L85.33 17.74C85.137 18.0503 84.867 18.3054 84.5464 18.4806C84.2258 18.6558 83.8653 18.7452 83.5 18.74C83.1212 18.7539 82.7471 18.6535 82.4261 18.452C82.1051 18.2505 81.8521 17.9571 81.6999 17.61L86.6999 15.55L86.5 15.16ZM81.43 16.4C81.4067 16.1284 81.4392 15.8549 81.5255 15.5964C81.6117 15.3378 81.7499 15.0996 81.9316 14.8963C82.1133 14.6931 82.3346 14.5292 82.582 14.4146C82.8293 14.3 83.0975 14.2372 83.37 14.23C83.6521 14.2117 83.9335 14.2768 84.1789 14.4173C84.4243 14.5578 84.6229 14.7674 84.75 15.02L81.43 16.4ZM77.43 20.01H79V9.07003H77.3899L77.43 20.01ZM74.75 13.63H74.69C74.4366 13.355 74.1266 13.1384 73.7812 12.9951C73.4359 12.8517 73.0636 12.7852 72.69 12.8C71.7033 12.8 70.7571 13.192 70.0595 13.8896C69.3619 14.5872 68.97 15.5334 68.97 16.52C68.97 17.5066 69.3619 18.4528 70.0595 19.1505C70.7571 19.8481 71.7033 20.24 72.69 20.24C73.0647 20.2571 73.4386 20.1905 73.7845 20.0453C74.1305 19.9 74.4397 19.6796 74.69 19.4H74.75V19.94C74.75 21.36 73.99 22.12 72.75 22.12C72.3427 22.1096 71.9476 21.9786 71.6147 21.7437C71.2819 21.5087 71.0262 21.1803 70.8799 20.8L69.4599 21.39C69.7275 22.0443 70.1848 22.6035 70.7729 22.9956C71.3611 23.3877 72.0531 23.5947 72.76 23.59C74.68 23.59 76.29 22.46 76.29 19.72V13H74.72L74.75 13.63ZM72.8799 18.77C72.3078 18.7319 71.7716 18.4778 71.3799 18.0591C70.9881 17.6404 70.7702 17.0884 70.7702 16.515C70.7702 15.9417 70.9881 15.3897 71.3799 14.971C71.7716 14.5523 72.3078 14.2982 72.8799 14.26C73.1621 14.2725 73.4389 14.3418 73.6936 14.4638C73.9484 14.5857 74.176 14.7578 74.3627 14.9697C74.5494 15.1816 74.6915 15.4291 74.7803 15.6972C74.8692 15.9653 74.9031 16.2485 74.8799 16.53C74.9004 16.8122 74.8631 17.0956 74.7702 17.3628C74.6774 17.63 74.531 17.8755 74.3401 18.0843C74.1491 18.293 73.9176 18.4606 73.6597 18.5768C73.4017 18.693 73.1228 18.7553 72.8399 18.76L72.8799 18.77ZM94.19 9.08003H90.2799V20H91.91V15.86H94.19C94.6513 15.8851 95.1129 15.8158 95.5466 15.6565C95.9803 15.4972 96.3769 15.2512 96.7124 14.9335C97.0478 14.6158 97.315 14.233 97.4975 13.8086C97.6801 13.3842 97.7743 12.927 97.7743 12.465C97.7743 12.003 97.6801 11.5458 97.4975 11.1214C97.315 10.697 97.0478 10.3143 96.7124 9.99656C96.3769 9.67884 95.9803 9.43283 95.5466 9.27353C95.1129 9.11423 94.6513 9.04498 94.19 9.07003V9.08003ZM94.19 14.35H91.87V10.59H94.19C94.6872 10.59 95.1641 10.7876 95.5158 11.1392C95.8674 11.4908 96.065 11.9678 96.065 12.465C96.065 12.9623 95.8674 13.4392 95.5158 13.7909C95.1641 14.1425 94.6872 14.34 94.19 14.34V14.35ZM104.27 12.78C103.675 12.7447 103.083 12.884 102.566 13.1806C102.049 13.4773 101.63 13.9185 101.36 14.45L102.81 15.05C102.954 14.7867 103.172 14.5709 103.436 14.4289C103.701 14.2869 104.001 14.2248 104.3 14.25C104.71 14.2137 105.119 14.3401 105.437 14.602C105.755 14.8639 105.957 15.2403 106 15.65V15.76C105.476 15.4826 104.893 15.3384 104.3 15.34C102.74 15.34 101.15 16.2 101.15 17.8C101.165 18.1374 101.248 18.4682 101.393 18.7729C101.539 19.0777 101.744 19.3501 101.997 19.5739C102.249 19.7978 102.545 19.9686 102.865 20.0761C103.185 20.1837 103.523 20.2258 103.86 20.2C104.28 20.2362 104.701 20.1565 105.078 19.9695C105.456 19.7826 105.774 19.4957 106 19.14V20H107.57V15.79C107.59 13.85 106.15 12.77 104.28 12.77L104.27 12.78ZM104.07 18.78C103.54 18.78 102.79 18.51 102.79 17.85C102.79 17.01 103.72 16.68 104.52 16.68C105.033 16.6542 105.544 16.7646 106 17C105.943 17.4744 105.718 17.9126 105.366 18.2354C105.014 18.5582 104.557 18.7443 104.08 18.76L104.07 18.78ZM113.33 13L111.46 17.74H111.4L109.46 13H107.7L110.61 19.62L109 23.31H110.7L115.14 13H113.33ZM98.6399 20H100.27V9.07003H98.6399V20Z" fill="white"/>
<path d="M10.4399 7.53997C10.114 7.93108 9.94945 8.43177 9.9799 8.93997V31.06C9.94945 31.5682 10.114 32.0689 10.4399 32.46L10.5099 32.53L22.8999 20.15V19.86L10.5099 7.46997L10.4399 7.53997Z" fill="url(#paint0_linear_1043_106)"/>
<path d="M26.9999 24.28L22.8999 20.15V19.86L26.9999 15.72L27.0899 15.77L31.9999 18.56C33.3999 19.35 33.3999 20.65 31.9999 21.45L27.1099 24.23L26.9999 24.28Z" fill="url(#paint1_linear_1043_106)"/>
<path d="M27.1199 24.22L22.8999 20L10.4399 32.46C10.7253 32.7109 11.0893 32.8541 11.4691 32.8651C11.8489 32.876 12.2206 32.754 12.5199 32.52L27.1299 24.22" fill="url(#paint2_linear_1043_106)"/>
<path d="M27.1199 15.78L12.5099 7.48005C12.2106 7.24606 11.8389 7.124 11.4591 7.13496C11.0793 7.14591 10.7153 7.2892 10.4299 7.54005L22.8999 20L27.1199 15.78Z" fill="url(#paint3_linear_1043_106)"/>
<path opacity="0.2" d="M26.9999 24.13L12.5099 32.38C12.2212 32.5959 11.8704 32.7125 11.5099 32.7125C11.1495 32.7125 10.7987 32.5959 10.5099 32.38L10.4399 32.45L10.5099 32.52C10.798 32.7374 11.1491 32.855 11.5099 32.855C11.8708 32.855 12.2219 32.7374 12.5099 32.52L27.1199 24.22L26.9999 24.13Z" fill="black"/>
<path opacity="0.12" d="M10.4399 32.32C10.114 31.9289 9.94945 31.4282 9.9799 30.92V31.07C9.94945 31.5782 10.114 32.0789 10.4399 32.47L10.5099 32.4L10.4399 32.32ZM31.9999 21.3L26.9999 24.13L27.0899 24.22L31.9999 21.44C32.2785 21.3091 32.5177 21.1071 32.6932 20.8543C32.8688 20.6014 32.9746 20.3068 32.9999 20C32.9437 20.2787 32.8243 20.5408 32.6509 20.7662C32.4776 20.9915 32.2549 21.1742 31.9999 21.3Z" fill="black"/>
<path opacity="0.25" d="M12.51 7.62006L32 18.7001C32.2549 18.8259 32.4776 19.0085 32.651 19.2339C32.8244 19.4592 32.9437 19.7214 33 20.0001C32.9747 19.6933 32.8689 19.3986 32.6933 19.1458C32.5177 18.893 32.2786 18.6909 32 18.5601L12.51 7.48006C11.11 6.69006 9.96997 7.35006 9.96997 8.95006V9.10006C9.99997 7.49006 11.12 6.83006 12.51 7.62006V7.62006Z" fill="white"/>
<path d="M41.8 27L45.71 26.64C46.71 26.56 47.52 26.51 48.11 26.49V27.21C47.5232 27.1866 46.9356 27.2336 46.36 27.35C45.7858 27.5705 45.2895 27.9559 44.9337 28.4576C44.5778 28.9594 44.3783 29.5551 44.36 30.17C44.36 31.91 45.98 32.46 47.43 32.51L47.17 33.27C45.52 33.2 43.64 32.27 43.64 30.33C43.6454 29.7313 43.8001 29.1435 44.0899 28.6197C44.3798 28.0958 44.7957 27.6526 45.3 27.33C44.52 27.42 42.09 27.65 41.12 27.85L41 27.07C41.35 27.06 41.63 27 41.8 27V27ZM47.59 29.55L47.13 29.77C46.921 29.3258 46.6733 28.9009 46.39 28.5L46.85 28.3C47.1258 28.7091 47.3731 29.1368 47.59 29.58V29.55ZM48.59 29.16L48.12 29.38C47.9022 28.9406 47.6444 28.5222 47.35 28.13L47.8 27.92C48.0968 28.3277 48.3706 28.7517 48.62 29.19L48.59 29.16ZM57.56 30.76H53.86V32.76C53.86 33.24 53.72 33.44 53.38 33.54C52.7714 33.6618 52.1493 33.7022 51.53 33.66C51.4582 33.4267 51.3609 33.202 51.24 32.99H52.91C53.12 32.99 53.19 32.93 53.19 32.74V30.74H49.49V30.1H53.19V28.64H50.09V28H53.19V26.61C52.19 26.72 51.19 26.78 50.25 26.83C50.2137 26.628 50.1567 26.4303 50.08 26.24C52.1307 26.1962 54.1714 25.9415 56.17 25.48L56.67 26.01C55.75 26.2657 54.81 26.443 53.86 26.54V28H57.05V28.64H53.86V30.1H57.55L57.56 30.76ZM60.3 26.25C60.25 26.4 60.16 26.69 60.13 26.85C59.8916 27.9726 59.7477 29.1133 59.7 30.26C59.6965 30.6677 59.7199 31.0753 59.77 31.48C59.92 31.07 60.12 30.55 60.27 30.2L60.66 30.49C60.4142 31.1448 60.2038 31.8125 60.03 32.49C60.018 32.623 60.018 32.7569 60.03 32.89V33.2H59.38C59.1343 32.2833 59.0066 31.339 59 30.39C59.0468 29.1919 59.1805 27.9987 59.4 26.82C59.4326 26.6114 59.4527 26.401 59.46 26.19L60.3 26.25ZM62.3 30.57C62.2258 30.8372 62.1855 31.1127 62.18 31.39C62.18 31.8 62.45 32.19 63.67 32.19C64.4248 32.2145 65.18 32.1508 65.92 32V32.76C65.1873 32.8898 64.444 32.95 63.7 32.94C62.21 32.94 61.54 32.44 61.54 31.61C61.5505 31.2561 61.5974 30.9043 61.68 30.56L62.3 30.57ZM62 26.93C63.2158 27.0737 64.4442 27.0737 65.66 26.93V27.67C64.442 27.7688 63.218 27.7688 62 27.67V26.93ZM71.67 26C71.5806 27.4117 71.8813 28.8209 72.5391 30.0732C73.197 31.3254 74.1868 32.3726 75.4 33.1C75.1978 33.2639 75.0165 33.452 74.86 33.66C73.9563 33.113 73.1736 32.3875 72.5598 31.5278C71.946 30.6681 71.5139 29.6923 71.29 28.66C71.0514 29.6892 70.6113 30.6609 69.9951 31.5191C69.379 32.3773 68.5989 33.1049 67.7 33.66C67.5167 33.4653 67.3158 33.2879 67.1 33.13C69.1 32.13 70.2 30.28 70.75 27.76L71.15 27.82C71.09 27.41 71.05 27.01 71.03 26.67H68.8V26H71.67ZM84.17 32.28C83.962 32.5099 83.7093 32.6951 83.4273 32.824C83.1453 32.953 82.84 33.0231 82.53 33.03C81.94 33.03 81.53 32.63 81.53 31.9C81.53 30.9 81.86 29.44 81.86 28.58C81.8746 28.4825 81.8664 28.383 81.8362 28.2892C81.806 28.1953 81.7545 28.1098 81.6858 28.0391C81.6171 27.9685 81.533 27.9146 81.4401 27.8818C81.3471 27.849 81.2478 27.8381 81.15 27.85C80.1098 28.1161 79.1879 28.7214 78.53 29.57V33.26H77.75V32.73V30.44V30.1C77.32 30.76 76.75 31.61 76.3 32.21L76 31.62C76.5 31 77.52 29.62 78 28.91L78.05 28.05L76.31 28.28L76.24 27.53C76.4331 27.5438 76.6269 27.5438 76.82 27.53C77.11 27.53 77.63 27.46 78.09 27.39V26.55C78.1127 26.3272 78.1127 26.1027 78.09 25.88H78.95C78.95 26.1 78.83 26.6 78.77 27.22L79.03 27.54L78.63 28.16V28.66C79.3585 27.8857 80.3147 27.3638 81.36 27.17C81.5254 27.1486 81.6934 27.1644 81.8519 27.2163C82.0103 27.2681 82.1552 27.3547 82.276 27.4697C82.3967 27.5847 82.4903 27.7252 82.5498 27.8809C82.6093 28.0367 82.6333 28.2038 82.62 28.37C82.62 29.26 82.29 30.8 82.29 31.7C82.29 32.01 82.43 32.24 82.75 32.24C83.011 32.2107 83.2637 32.1302 83.4936 32.0033C83.7235 31.8763 83.9262 31.7053 84.09 31.5L84.17 32.28ZM89.19 28.47C89.19 29.05 89.19 29.92 89.28 30.69C90.3062 30.9812 91.2532 31.5008 92.05 32.21L91.62 32.88C90.9685 32.2247 90.1795 31.7226 89.31 31.41V32C89.31 32.73 88.86 33.36 87.67 33.36C86.48 33.36 85.55 33 85.55 32C85.55 31.2 86.25 30.53 87.79 30.53C88.0442 30.5285 88.2982 30.5452 88.55 30.58C88.55 29.86 88.48 29.04 88.48 28.51V26.88C88.4728 26.5852 88.4461 26.2912 88.4 26H89.26C89.2199 26.2917 89.1965 26.5856 89.19 26.88V27.79C89.9 27.79 91.03 27.73 91.83 27.62V28.3C91.04 28.37 89.89 28.43 89.17 28.44L89.19 28.47ZM88.58 31.22C88.2942 31.1583 88.0024 31.1281 87.71 31.13C86.79 31.13 86.27 31.44 86.27 31.93C86.27 32.42 86.77 32.7 87.62 32.7C88.28 32.7 88.62 32.39 88.62 31.78C88.59 31.63 88.58 31.44 88.58 31.21V31.22ZM97.41 28.7C96.5816 28.7311 95.7625 28.8862 94.98 29.16C94.71 29.23 94.45 29.34 94.23 29.42L94 28.59C94.24 28.59 94.55 28.51 94.81 28.46C95.6774 28.2159 96.5699 28.0716 97.47 28.03C97.7497 28.0004 98.0326 28.0302 98.3 28.1174C98.5674 28.2046 98.8135 28.3473 99.022 28.536C99.2306 28.7248 99.397 28.9554 99.5104 29.2128C99.6238 29.4702 99.6816 29.7487 99.68 30.03C99.68 31.97 97.96 33.03 95.68 33.41L95.26 32.73C97.42 32.46 98.95 31.61 98.95 30.01C98.9479 29.8184 98.9046 29.6294 98.8233 29.456C98.7419 29.2825 98.6243 29.1284 98.4783 29.0043C98.3324 28.8801 98.1615 28.7887 97.9772 28.7362C97.7929 28.6837 97.5995 28.6714 97.41 28.7V28.7ZM99 26.38L98.89 27.07C97.89 27.01 96.1 26.83 95.09 26.65L95.21 25.97C96.4603 26.2078 97.7277 26.3449 99 26.38V26.38Z" fill="white" stroke="white" stroke-width="0.2" stroke-miterlimit="10"/>
<defs>
<linearGradient id="paint0_linear_1043_106" x1="21.7999" y1="8.70997" x2="5.0199" y2="25.49" gradientUnits="userSpaceOnUse">
<stop stop-color="#00A0FF"/>
<stop offset="0.01" stop-color="#00A1FF"/>
<stop offset="0.26" stop-color="#00BEFF"/>
<stop offset="0.51" stop-color="#00D2FF"/>
<stop offset="0.76" stop-color="#00DFFF"/>
<stop offset="1" stop-color="#00E3FF"/>
</linearGradient>
<linearGradient id="paint1_linear_1043_106" x1="33.8299" y1="20" x2="9.6399" y2="20" gradientUnits="userSpaceOnUse">
<stop stop-color="#FFE000"/>
<stop offset="0.41" stop-color="#FFBD00"/>
<stop offset="0.78" stop-color="#FFA500"/>
<stop offset="1" stop-color="#FF9C00"/>
</linearGradient>
<linearGradient id="paint2_linear_1043_106" x1="24.8299" y1="22.3" x2="2.06994" y2="45.05" gradientUnits="userSpaceOnUse">
<stop stop-color="#FF3A44"/>
<stop offset="1" stop-color="#C31162"/>
</linearGradient>
<linearGradient id="paint3_linear_1043_106" x1="7.29993" y1="0.180048" x2="17.4599" y2="10.34" gradientUnits="userSpaceOnUse">
<stop stop-color="#32A071"/>
<stop offset="0.07" stop-color="#2DA771"/>
<stop offset="0.48" stop-color="#15CF74"/>
<stop offset="0.8" stop-color="#06E775"/>
<stop offset="1" stop-color="#00F076"/>
</linearGradient>
</defs>
</svg>
