<svg width="current" height="current" viewBox="0 0 27 27" fill="none" xmlns="http://www.w3.org/2000/svg">
  <path d="M13.5 0.604492C6.04575 0.604492 0 6.80193 0 14.4458C0 20.5613 3.86775 25.7495 9.23287 27.58C9.90675 27.708 10.125 27.279 10.125 26.9145V24.3377C6.36975 25.1751 5.58788 22.7044 5.58788 22.7044C4.97363 21.1046 4.08825 20.679 4.08825 20.679C2.86313 19.8197 4.18163 19.8381 4.18163 19.8381C5.53725 19.935 6.2505 21.2649 6.2505 21.2649C7.45425 23.3803 9.40838 22.769 10.179 22.4149C10.2994 21.521 10.6493 20.9097 11.0363 20.5648C8.03813 20.213 4.88587 19.0261 4.88587 13.7237C4.88587 12.2116 5.4135 10.9774 6.27637 10.0085C6.13687 9.659 5.6745 8.25065 6.408 6.34517C6.408 6.34517 7.542 5.97376 10.1216 7.7639C11.1982 7.45708 12.3525 7.30367 13.5 7.29791C14.6475 7.30367 15.8029 7.45708 16.8817 7.7639C19.4591 5.97376 20.5909 6.34517 20.5909 6.34517C21.3255 8.2518 20.8631 9.66015 20.7236 10.0085C21.5899 10.9774 22.113 12.2127 22.113 13.7237C22.113 19.0399 18.9551 20.2107 15.9491 20.5532C16.4329 20.9823 16.875 21.8243 16.875 23.1162V26.9145C16.875 27.2824 17.091 27.715 17.7761 27.5788C23.1367 25.746 27 20.559 27 14.4458C27 6.80193 20.9554 0.604492 13.5 0.604492Z" fill="currentColor"/>
</svg>
