<svg width="27" height="27" viewBox="0 0 27 27" fill="none" xmlns="http://www.w3.org/2000/svg">
  <path d="M13.5 3.44688C17.1046 3.44688 17.5316 3.46009 18.9551 3.52264C20.2713 3.58048 20.9862 3.79226 21.4619 3.97025C22.092 4.20607 22.5418 4.48783 23.0142 4.94272C23.4865 5.3976 23.7791 5.83071 24.024 6.43746C24.2089 6.8956 24.4288 7.58394 24.4888 8.85138C24.5538 10.2222 24.5675 10.6334 24.5675 14.1045C24.5675 17.5757 24.5538 17.9868 24.4888 19.3576C24.4288 20.6251 24.2089 21.3134 24.024 21.7716C23.7791 22.3783 23.4865 22.8114 23.0142 23.2663C22.5418 23.7212 22.092 24.003 21.4619 24.2387C20.9862 24.4168 20.2713 24.6286 18.9551 24.6864C17.5318 24.7489 17.1049 24.7622 13.5 24.7622C9.89509 24.7622 9.46815 24.7489 8.04484 24.6864C6.7286 24.6286 6.01379 24.4168 5.53809 24.2387C4.90794 24.003 4.45817 23.7212 3.98579 23.2663C3.51341 22.8114 3.22082 22.3783 2.97597 21.7716C2.79109 21.3134 2.57117 20.6251 2.5111 19.3577C2.44615 17.9868 2.43243 17.5757 2.43243 14.1045C2.43243 10.6334 2.44615 10.2222 2.5111 8.85143C2.57117 7.58394 2.79109 6.8956 2.97597 6.43746C3.22082 5.83071 3.51341 5.3976 3.98579 4.94272C4.45817 4.48783 4.90794 4.20607 5.53809 3.97025C6.01379 3.79226 6.7286 3.58048 8.04479 3.52264C9.46836 3.46009 9.8953 3.44688 13.5 3.44688ZM13.5 1.10449C9.83357 1.10449 9.37389 1.11946 7.93397 1.18272C6.497 1.24589 5.51569 1.46561 4.65693 1.787C3.76919 2.11923 3.01633 2.56374 2.26582 3.28645C1.51532 4.00915 1.05371 4.73413 0.708706 5.589C0.374958 6.41595 0.146778 7.36091 0.0811863 8.74466C0.015487 10.1312 0 10.5739 0 14.1045C0 17.6351 0.015487 18.0778 0.0811863 19.4644C0.146778 20.8481 0.374958 21.7931 0.708706 22.62C1.05371 23.4748 1.51532 24.1999 2.26582 24.9226C3.01633 25.6453 3.76919 26.0898 4.65693 26.422C5.51569 26.7434 6.497 26.9632 7.93397 27.0263C9.37389 27.0896 9.83357 27.1045 13.5 27.1045C17.1664 27.1045 17.6261 27.0896 19.066 27.0263C20.503 26.9632 21.4843 26.7434 22.343 26.422C23.2308 26.0898 23.9836 25.6453 24.7341 24.9226C25.4846 24.1999 25.9462 23.4749 26.2912 22.62C26.625 21.7931 26.8532 20.8481 26.9188 19.4644C26.9845 18.0778 27 17.6351 27 14.1045C27 10.5739 26.9845 10.1312 26.9188 8.74466C26.8532 7.36091 26.625 6.41595 26.2912 5.589C25.9462 4.73413 25.4846 4.00915 24.7341 3.28645C23.9836 2.56374 23.2308 2.11923 22.343 1.787C21.4843 1.46561 20.503 1.24589 19.066 1.18272C17.6261 1.11946 17.1664 1.10449 13.5 1.10449ZM13.5 7.42882C9.6713 7.42882 6.56752 10.4176 6.56752 14.1045C6.56752 17.7914 9.6713 20.7802 13.5 20.7802C17.3286 20.7802 20.4324 17.7914 20.4324 14.1045C20.4324 10.4176 17.3286 7.42882 13.5 7.42882ZM13.5 18.4379C11.0147 18.4379 8.99995 16.4977 8.99995 14.1045C8.99995 11.7113 11.0147 9.77116 13.5 9.77116C15.9852 9.77116 18 11.7113 18 14.1045C18 16.4977 15.9852 18.4379 13.5 18.4379ZM22.3263 7.16507C22.3263 8.02665 21.601 8.7251 20.7063 8.7251C19.8116 8.7251 19.0863 8.02665 19.0863 7.16507C19.0863 6.3035 19.8116 5.6051 20.7063 5.6051C21.601 5.6051 22.3263 6.3035 22.3263 7.16507Z" fill="#212124"/>
</svg>
