<svg width="27" height="27" viewBox="0 0 27 27" fill="none" xmlns="http://www.w3.org/2000/svg">
<path d="M27 11.9557C27 5.91542 20.9445 1 13.5 1C6.05547 1 0 5.91542 0 11.9557C0 17.3717 4.80292 21.9079 11.2907 22.7649C11.7305 22.8596 12.3283 23.0543 12.48 23.4309C12.6153 23.7722 12.5685 24.3068 12.523 24.6506C12.523 24.6506 12.365 25.6036 12.3309 25.8071C12.2715 26.1484 12.0591 27.1418 13.5 26.5352C14.9409 25.9285 21.2744 21.9572 24.1069 18.6988C26.0634 16.5463 27 14.3736 27 11.9557Z" fill="#212124"/>
<path d="M22.5094 15.4441C22.5765 15.4441 22.6408 15.4175 22.6882 15.3701C22.7356 15.3227 22.7622 15.2584 22.7622 15.1913V14.2345C22.7622 14.1675 22.7356 14.1032 22.6882 14.0558C22.6408 14.0084 22.5765 13.9817 22.5094 13.9817H19.9323V12.987H22.5094C22.5765 12.987 22.6408 12.9604 22.6882 12.913C22.7356 12.8656 22.7622 12.8013 22.7622 12.7342V11.7762C22.7622 11.7091 22.7356 11.6448 22.6882 11.5974C22.6408 11.55 22.5765 11.5234 22.5094 11.5234H19.9323V10.5287H22.5094C22.5765 10.5287 22.6408 10.5021 22.6882 10.4547C22.7356 10.4072 22.7622 10.3429 22.7622 10.2759V9.31785C22.7622 9.25081 22.7356 9.18651 22.6882 9.1391C22.6408 9.0917 22.5765 9.06506 22.5094 9.06506H18.7176C18.6506 9.06506 18.5863 9.0917 18.5389 9.1391C18.4915 9.18651 18.4648 9.25081 18.4648 9.31785V15.1812C18.4648 15.2483 18.4915 15.3125 18.5389 15.36C18.5863 15.4074 18.6506 15.434 18.7176 15.434H22.5094V15.4441Z" fill="white"/>
<path d="M8.47943 15.4443C8.54647 15.4443 8.61077 15.4177 8.65817 15.3703C8.70558 15.3229 8.73221 15.2586 8.73221 15.1915V14.2347C8.73221 14.1677 8.70558 14.1034 8.65817 14.056C8.61077 14.0086 8.54647 13.9819 8.47943 13.9819H5.90101V9.3054C5.90101 9.23836 5.87438 9.17406 5.82697 9.12665C5.77957 9.07925 5.71527 9.05261 5.64823 9.05261H4.68638C4.61934 9.05261 4.55504 9.07925 4.50763 9.12665C4.46023 9.17406 4.43359 9.23836 4.43359 9.3054V15.1814C4.43359 15.2484 4.46023 15.3127 4.50763 15.3602C4.55504 15.4076 4.61934 15.4342 4.68638 15.4342H8.47816L8.47943 15.4443Z" fill="white"/>
<path d="M10.7625 9.03613H9.80569C9.66329 9.03613 9.54785 9.15157 9.54785 9.29397V15.1851C9.54785 15.3275 9.66329 15.443 9.80569 15.443H10.7625C10.9049 15.443 11.0203 15.3275 11.0203 15.1851V9.29397C11.0203 9.15157 10.9049 9.03613 10.7625 9.03613Z" fill="white"/>
<path d="M17.2817 9.03614H16.3249C16.2578 9.03614 16.1935 9.06277 16.1461 9.11018C16.0987 9.15758 16.0721 9.22188 16.0721 9.28892V12.7887L13.3761 9.14863C13.37 9.139 13.3628 9.13009 13.3546 9.12208V9.12208L13.3395 9.10692L13.3256 9.09554H13.318L13.3054 9.08543H13.2965L13.2826 9.07785H13.275H13.2599H13.251H13.2358H13.2257H13.2106H13.2005H13.1865H12.2108C12.1438 9.07785 12.0795 9.10448 12.032 9.15188C11.9846 9.19929 11.958 9.26359 11.958 9.33063V15.2231C11.958 15.2901 11.9846 15.3544 12.032 15.4018C12.0795 15.4492 12.1438 15.4758 12.2108 15.4758H13.1689C13.2359 15.4758 13.3002 15.4492 13.3476 15.4018C13.395 15.3544 13.4216 15.2901 13.4216 15.2231V11.6879L16.1201 15.333C16.1383 15.3585 16.161 15.3803 16.1871 15.3975L16.2035 15.4076H16.2111L16.2238 15.4139H16.2364H16.244H16.263C16.2853 15.4195 16.3082 15.4225 16.3312 15.4228H17.2829C17.35 15.4228 17.4143 15.3961 17.4617 15.3487C17.5091 15.3013 17.5357 15.237 17.5357 15.17V9.29398C17.5364 9.26025 17.5303 9.22673 17.5178 9.19539C17.5054 9.16405 17.4867 9.13553 17.4631 9.1115C17.4394 9.08747 17.4111 9.06843 17.38 9.05548C17.3488 9.04254 17.3154 9.03596 17.2817 9.03614V9.03614Z" fill="white"/>
</svg>
