<svg width="27" height="27" viewBox="0 0 27 27" fill="none" xmlns="http://www.w3.org/2000/svg">
  <path d="M13.5 27C20.9558 27 27 20.9558 27 13.5C27 6.04416 20.9558 0 13.5 0C6.04416 0 0 6.04416 0 13.5C0 20.9558 6.04416 27 13.5 27Z" fill="#212124"/>
  <path d="M22.5027 12.7137C22.5027 8.68137 18.4603 5.40002 13.4906 5.40002C8.52092 5.40002 4.47852 8.68137 4.47852 12.7137C4.47852 16.3291 7.68476 19.3573 12.0157 19.9294C12.3094 19.9927 12.7084 20.1226 12.8097 20.3741C12.9 20.6019 12.8688 20.9588 12.8384 21.1883C12.8384 21.1883 12.7329 21.8245 12.7101 21.9603C12.6705 22.1881 12.5287 22.8513 13.4906 22.4463C14.4525 22.0413 18.6805 19.3903 20.5713 17.2151C21.8775 15.7782 22.5027 14.3277 22.5027 12.7137Z" fill="white"/>
  <path d="M19.5047 15.0423C19.5494 15.0423 19.5924 15.0246 19.624 14.9929C19.6557 14.9613 19.6734 14.9183 19.6734 14.8736V14.2349C19.6734 14.1901 19.6557 14.1472 19.624 14.1155C19.5924 14.0839 19.5494 14.0661 19.5047 14.0661H17.7843V13.4021H19.5047C19.5494 13.4021 19.5924 13.3843 19.624 13.3527C19.6557 13.321 19.6734 13.2781 19.6734 13.2333V12.5938C19.6734 12.549 19.6557 12.5061 19.624 12.4745C19.5924 12.4428 19.5494 12.425 19.5047 12.425H17.7843V11.761H19.5047C19.5494 11.761 19.5924 11.7432 19.624 11.7116C19.6557 11.6799 19.6734 11.637 19.6734 11.5922V10.9527C19.6734 10.9079 19.6557 10.865 19.624 10.8334C19.5924 10.8017 19.5494 10.7839 19.5047 10.7839H16.9734C16.9287 10.7839 16.8858 10.8017 16.8541 10.8334C16.8225 10.865 16.8047 10.9079 16.8047 10.9527V14.8668C16.8047 14.9116 16.8225 14.9545 16.8541 14.9862C16.8858 15.0178 16.9287 15.0356 16.9734 15.0356H19.5047V15.0423Z" fill="#212124"/>
  <path d="M10.1393 15.0424C10.1841 15.0424 10.227 15.0246 10.2586 14.9929C10.2903 14.9613 10.3081 14.9184 10.3081 14.8736V14.2349C10.3081 14.1901 10.2903 14.1472 10.2586 14.1156C10.227 14.0839 10.1841 14.0661 10.1393 14.0661H8.41807V10.9443C8.41807 10.8995 8.40029 10.8566 8.36864 10.8249C8.337 10.7933 8.29408 10.7755 8.24932 10.7755H7.60723C7.56247 10.7755 7.51955 10.7933 7.4879 10.8249C7.45626 10.8566 7.43848 10.8995 7.43848 10.9443V14.8669C7.43848 14.9116 7.45626 14.9545 7.4879 14.9862C7.51955 15.0178 7.56247 15.0356 7.60723 15.0356H10.1385L10.1393 15.0424Z" fill="#212124"/>
  <path d="M11.6634 10.7646H11.0247C10.9296 10.7646 10.8525 10.8417 10.8525 10.9368V14.8695C10.8525 14.9646 10.9296 15.0416 11.0247 15.0416H11.6634C11.7584 15.0416 11.8355 14.9646 11.8355 14.8695V10.9368C11.8355 10.8417 11.7584 10.7646 11.6634 10.7646Z" fill="#212124"/>
  <path d="M16.0148 10.7645H15.3761C15.3313 10.7645 15.2884 10.7823 15.2568 10.814C15.2251 10.8456 15.2073 10.8885 15.2073 10.9333V13.2696L13.4076 10.8396C13.4035 10.8332 13.3987 10.8273 13.3933 10.8219V10.8219L13.3832 10.8118L13.3739 10.8042H13.3688L13.3604 10.7974H13.3545L13.3452 10.7924H13.3401H13.33H13.3241H13.314H13.3072H13.2971H13.2903H13.2811H12.6297C12.5849 10.7924 12.542 10.8102 12.5104 10.8418C12.4787 10.8734 12.4609 10.9164 12.4609 10.9611V14.8947C12.4609 14.9394 12.4787 14.9824 12.5104 15.014C12.542 15.0457 12.5849 15.0634 12.6297 15.0634H13.2693C13.314 15.0634 13.3569 15.0457 13.3886 15.014C13.4202 14.9824 13.438 14.9394 13.438 14.8947V12.5347L15.2394 14.9681C15.2515 14.9851 15.2667 14.9997 15.2841 15.0111L15.2951 15.0179H15.3002L15.3086 15.0221H15.317H15.3221H15.3348C15.3497 15.0258 15.365 15.0278 15.3803 15.028H16.0157C16.0604 15.028 16.1033 15.0102 16.135 14.9786C16.1666 14.9469 16.1844 14.904 16.1844 14.8592V10.9367C16.1849 10.9141 16.1808 10.8918 16.1725 10.8708C16.1641 10.8499 16.1517 10.8309 16.1359 10.8148C16.1201 10.7988 16.1012 10.7861 16.0804 10.7774C16.0596 10.7688 16.0373 10.7644 16.0148 10.7645V10.7645Z" fill="#212124"/>
</svg>
