<svg viewBox="0 0 27 27" fill="none" xmlns="http://www.w3.org/2000/svg">
  <path d="M15.1015 14.0001C15.1015 17.8661 11.9447 21 8.05086 21C4.15701 21 1 17.8661 1 14.0001C1 10.1342 4.15677 7 8.05086 7C11.945 7 15.1015 10.1342 15.1015 14.0001Z" fill="currentColor"/>
  <path d="M22.8362 14.0001C22.8362 17.6391 21.2579 20.5902 19.3108 20.5902C17.3638 20.5902 15.7854 17.6391 15.7854 14.0001C15.7854 10.3612 17.3635 7.41005 19.3106 7.41005C21.2576 7.41005 22.8362 10.3602 22.8362 14.0001Z" fill="currentColor"/>
  <path d="M26 14.0001C26 17.2597 25.445 19.9038 24.7601 19.9038C24.0752 19.9038 23.5204 17.2604 23.5204 14.0001C23.5204 10.7398 24.0755 8.09645 24.7601 8.09645C25.4447 8.09645 26 10.7396 26 14.0001Z" fill="currentColor"/>
</svg>
