<svg width="27" height="27" viewBox="0 0 27 27" fill="none" xmlns="http://www.w3.org/2000/svg">
  <rect y="0.604492" width="27" height="27" fill="#212124"/>
  <path d="M14.7171 13.9991C14.7171 16.9784 12.318 19.3936 9.35866 19.3936C6.39933 19.3936 4 16.9784 4 13.9991C4 11.0199 6.39914 8.60449 9.35866 8.60449C12.3182 8.60449 14.7171 11.0199 14.7171 13.9991Z" fill="white"/>
  <path d="M20.5956 13.9991C20.5956 16.8035 19.396 19.0778 17.9162 19.0778C16.4365 19.0778 15.2369 16.8035 15.2369 13.9991C15.2369 11.1948 16.4363 8.9205 17.916 8.9205C19.3958 8.9205 20.5956 11.1941 20.5956 13.9991Z" fill="white"/>
  <path d="M23 13.9991C23 16.5112 22.5782 18.5488 22.0577 18.5488C21.5372 18.5488 21.1155 16.5117 21.1155 13.9991C21.1155 11.4866 21.5374 9.44947 22.0577 9.44947C22.578 9.44947 23 11.4864 23 13.9991Z" fill="white"/>
</svg>

