<svg width="current" height="current" viewBox="0 0 28 28" fill="none" xmlns="http://www.w3.org/2000/svg">
  <path d="M27.623 5.99333C26.6297 6.43909 25.562 6.73929 24.4415 6.87461C25.5857 6.18209 26.4643 5.08476 26.8772 3.77707C25.8073 4.41841 24.6215 4.88463 23.3593 5.13593C22.3502 4.0477 20.909 3.3677 19.316 3.3677C15.7397 3.3677 13.1117 6.74042 13.9194 10.2416C9.31705 10.0085 5.23555 7.77976 2.50292 4.39225C1.05167 6.90872 1.7503 10.2007 4.2163 11.8677C3.30955 11.8382 2.45455 11.5869 1.70867 11.1673C1.64792 13.7611 3.4873 16.1877 6.1513 16.7278C5.37167 16.9416 4.5178 16.9916 3.6493 16.8233C4.35355 19.0476 6.3988 20.6657 8.8243 20.7112C6.49555 22.5568 3.56155 23.3812 0.623047 23.0309C3.07442 24.6195 5.98705 25.5463 9.11455 25.5463C19.3993 25.5463 25.2099 16.7665 24.8589 8.89187C25.9412 8.10157 26.8805 7.11568 27.623 5.99333Z" fill="currentColor"/>
</svg>
