<svg width="current" height="current" viewBox="0 0 24 24" fill="none" xmlns="http://www.w3.org/2000/svg">
<g clip-path="url(#clip0)">
<path d="M23.5057 5.73112C23.2289 4.66332 22.4184 3.82139 21.3904 3.5339C19.5123 3 11.9999 3 11.9999 3C11.9999 3 4.48763 3 2.60954 3.51337C1.60131 3.80086 0.771002 4.66332 0.494232 5.73112C0 7.68193 0 11.7273 0 11.7273C0 11.7273 0 15.7932 0.494232 17.7234C0.771002 18.7912 1.58154 19.6332 2.60954 19.9206C4.50739 20.4545 11.9999 20.4545 11.9999 20.4545C11.9999 20.4545 19.5123 20.4545 21.3904 19.9412C22.4184 19.6537 23.2289 18.8118 23.5057 17.744C23.9999 15.7932 23.9999 11.7478 23.9999 11.7478C23.9999 11.7478 24.0197 7.68193 23.5057 5.73112Z" fill="currentColor"/>
<path d="M15.8549 11.7276L9.60785 7.99023V15.4649L15.8549 11.7276Z" fill="white"/>
</g>
<defs>
<clipPath id="clip0">
<rect width="24" height="17.4545" fill="currentColor" transform="translate(0 3)"/>
</clipPath>
</defs>
</svg>
