<svg  viewBox="0 0 31 31" fill="none" xmlns="http://www.w3.org/2000/svg">
<path d="M9.38772 19.908V10.668C9.38772 9.97202 8.88372 9.63602 8.21172 9.63602C7.51572 9.63602 7.01172 9.97202 7.01172 10.668V19.908C7.01172 20.58 7.51572 20.916 8.21172 20.916C8.88372 20.916 9.38772 20.58 9.38772 19.908ZM13.5157 10.428V20.124C13.5157 22.932 11.6917 24.732 8.21172 24.732C4.70772 24.732 2.90771 22.932 2.90771 20.124V10.428C2.90771 7.62002 4.70772 5.79602 8.21172 5.79602C11.6917 5.79602 13.5157 7.62002 13.5157 10.428Z" fill="#FF7E36"/>
<path d="M16.0608 6.03602H17.7168C19.5648 6.03602 20.4048 6.87602 20.4048 8.67602V23.076C20.4048 24.036 19.5648 24.756 18.3648 24.756C17.1648 24.756 16.3008 24.036 16.3008 23.076V10.236C16.3008 10.02 16.1808 9.87602 15.9408 9.87602H15.8208C15.0048 9.87602 14.5008 9.13202 14.5008 7.93202C14.5008 6.80402 15.1248 6.03602 16.0608 6.03602Z" fill="#FF7E36"/>
<path d="M25.9166 25.548C24.4526 25.548 23.3966 24.54 23.3966 23.052C23.3966 21.612 24.4526 20.556 25.9166 20.556C27.3566 20.556 28.4366 21.612 28.4366 23.052C28.4366 24.54 27.3566 25.548 25.9166 25.548Z" fill="#FF7E36"/>
</svg>
