<svg  viewBox="0 0 31 31" fill="none" xmlns="http://www.w3.org/2000/svg">
<path d="M7.58303 19.908V10.668C7.58303 9.97202 7.07903 9.63602 6.40703 9.63602C5.71103 9.63602 5.20703 9.97202 5.20703 10.668V19.908C5.20703 20.58 5.71103 20.916 6.40703 20.916C7.07903 20.916 7.58303 20.58 7.58303 19.908ZM11.711 10.428V20.124C11.711 22.932 9.88703 24.732 6.40703 24.732C2.90303 24.732 1.10303 22.932 1.10303 20.124V10.428C1.10303 7.62002 2.90303 5.79602 6.40703 5.79602C9.88703 5.79602 11.711 7.62002 11.711 10.428Z" fill="#FF7E36"/>
<path d="M19.5362 19.908V16.74C19.5362 16.068 19.2482 15.732 18.5762 15.732C17.6642 15.732 17.1602 16.188 17.1602 16.98V19.908C17.1602 20.58 17.4482 20.916 18.3602 20.916C19.2482 20.916 19.5362 20.58 19.5362 19.908ZM19.3202 10.068C19.1522 9.75602 18.7682 9.63602 18.3602 9.63602C17.5682 9.63602 17.1602 9.97202 17.1602 10.668V12.468C17.6402 12.132 18.6962 11.892 19.4882 11.892C22.0802 11.892 23.6642 13.26 23.6642 15.852V20.124C23.6642 22.932 21.8402 24.732 18.3602 24.732C14.8562 24.732 13.0562 22.932 13.0562 20.124V10.428C13.0562 7.38002 14.8562 5.79602 18.3602 5.79602C20.9042 5.79602 22.6562 6.82802 23.2802 8.74802C23.5922 9.68402 22.9922 10.668 21.8162 10.98C20.6882 11.268 19.7042 10.812 19.3202 10.068Z" fill="#FF7E36"/>
<path d="M27.7213 25.548C26.2573 25.548 25.2013 24.54 25.2013 23.052C25.2013 21.612 26.2573 20.556 27.7213 20.556C29.1613 20.556 30.2413 21.612 30.2413 23.052C30.2413 24.54 29.1613 25.548 27.7213 25.548Z" fill="#FF7E36"/>
</svg>
