<svg  viewBox="0 0 31 31" fill="none" xmlns="http://www.w3.org/2000/svg">
<path d="M7.64162 19.908V10.668C7.64162 9.97202 7.13762 9.63602 6.46562 9.63602C5.76962 9.63602 5.26562 9.97202 5.26562 10.668V19.908C5.26562 20.58 5.76962 20.916 6.46562 20.916C7.13762 20.916 7.64162 20.58 7.64162 19.908ZM11.7696 10.428V20.124C11.7696 22.932 9.94562 24.732 6.46562 24.732C2.96162 24.732 1.16162 22.932 1.16162 20.124V10.428C1.16162 7.62002 2.96162 5.79602 6.46562 5.79602C9.94562 5.79602 11.7696 7.62002 11.7696 10.428Z" fill="#FF7E36"/>
<path d="M13.5707 14.028V8.67602C13.5707 6.87602 14.4107 6.03602 16.2587 6.03602H21.8267C22.7627 6.03602 23.5067 6.80402 23.5067 7.93202C23.5067 9.13202 22.7627 9.87602 21.8267 9.87602H18.0347C17.7947 9.87602 17.6747 10.02 17.6747 10.236V12.012C18.1547 11.652 18.8507 11.436 19.5707 11.436C22.2347 11.436 23.6027 12.924 23.6027 15.468V19.788C23.6027 22.716 21.8987 24.732 18.4187 24.732C15.4667 24.732 13.5227 23.268 13.0187 20.772C12.8267 19.788 13.5707 18.828 14.6987 18.636C15.8987 18.444 16.7627 19.02 17.0267 19.836C17.2667 20.556 17.6747 20.916 18.4187 20.916C19.2107 20.916 19.4987 20.58 19.4987 19.788V16.164C19.4987 15.516 19.2107 15.276 18.6827 15.276C18.3227 15.276 18.0107 15.42 17.7467 15.636C16.8587 16.356 15.8267 16.5 15.0107 16.188C14.1707 15.9 13.5707 15.132 13.5707 14.028Z" fill="#FF7E36"/>
<path d="M27.6627 25.548C26.1987 25.548 25.1427 24.54 25.1427 23.052C25.1427 21.612 26.1987 20.556 27.6627 20.556C29.1027 20.556 30.1827 21.612 30.1827 23.052C30.1827 24.54 29.1027 25.548 27.6627 25.548Z" fill="#FF7E36"/>
</svg>
