<svg  viewBox="0 0 31 31" fill="none" xmlns="http://www.w3.org/2000/svg">
<path d="M7.24318 19.8412V10.6012C7.24318 9.90517 6.73918 9.56917 6.06718 9.56917C5.37118 9.56917 4.86718 9.90517 4.86718 10.6012V19.8412C4.86718 20.5132 5.37118 20.8492 6.06718 20.8492C6.73918 20.8492 7.24318 20.5132 7.24318 19.8412ZM11.3712 10.3612V20.0572C11.3712 22.8652 9.54718 24.6652 6.06718 24.6652C2.56318 24.6652 0.763184 22.8652 0.763184 20.0572V10.3612C0.763184 7.55317 2.56318 5.72917 6.06718 5.72917C9.54718 5.72917 11.3712 7.55317 11.3712 10.3612Z" fill="#FF7E36"/>
<path d="M12.5003 17.2972L16.3883 6.76117C16.7003 5.89717 17.6843 5.41717 18.8123 5.65717C19.9163 5.89717 20.6843 6.95317 20.3723 7.84117L17.0363 17.4652H18.8123V14.1532C18.8123 13.1932 19.6763 12.4732 20.8763 12.4732C22.0763 12.4732 22.9163 13.1932 22.9163 14.1532V17.4652H23.2763C24.0923 17.4652 24.6683 18.2572 24.6683 19.3852C24.6683 20.5852 24.0923 21.3052 23.2763 21.3052H22.9163V23.0092C22.9163 23.9692 22.0763 24.6892 20.8763 24.6892C19.6763 24.6892 18.8123 23.9692 18.8123 23.0092V21.3052H15.2603C13.8683 21.3052 12.9803 20.8252 12.5243 20.0812C12.0923 19.3612 12.1163 18.3532 12.5003 17.2972Z" fill="#FF7E36"/>
<path d="M28.0611 25.4812C26.5971 25.4812 25.5411 24.4732 25.5411 22.9852C25.5411 21.5452 26.5971 20.4892 28.0611 20.4892C29.5011 20.4892 30.5811 21.5452 30.5811 22.9852C30.5811 24.4732 29.5011 25.4812 28.0611 25.4812Z" fill="#FF7E36"/>
</svg>
