<svg  viewBox="0 0 31 31" fill="none" xmlns="http://www.w3.org/2000/svg">
<path d="M8.21584 19.908V10.668C8.21584 9.97202 7.71184 9.63602 7.03984 9.63602C6.34384 9.63602 5.83984 9.97202 5.83984 10.668V19.908C5.83984 20.58 6.34384 20.916 7.03984 20.916C7.71184 20.916 8.21584 20.58 8.21584 19.908ZM12.3438 10.428V20.124C12.3438 22.932 10.5198 24.732 7.03984 24.732C3.53584 24.732 1.73584 22.932 1.73584 20.124V10.428C1.73584 7.62002 3.53584 5.79602 7.03984 5.79602C10.5198 5.79602 12.3438 7.62002 12.3438 10.428Z" fill="#FF7E36"/>
<path d="M23.145 10.452L18.297 23.652C17.937 24.588 16.737 24.996 15.633 24.708C14.529 24.42 13.929 23.316 14.289 22.404L19.065 9.87602H14.697C13.761 9.87602 13.017 9.13202 13.017 7.93202C13.017 6.80402 13.761 6.03602 14.697 6.03602H20.577C21.801 6.03602 22.713 6.42002 23.169 7.16402C23.649 7.90802 23.673 9.01202 23.145 10.452Z" fill="#FF7E36"/>
<path d="M27.0885 25.548C25.6245 25.548 24.5685 24.54 24.5685 23.052C24.5685 21.612 25.6245 20.556 27.0885 20.556C28.5285 20.556 29.6085 21.612 29.6085 23.052C29.6085 24.54 28.5285 25.548 27.0885 25.548Z" fill="#FF7E36"/>
</svg>
