<svg  viewBox="0 0 31 31" fill="none" xmlns="http://www.w3.org/2000/svg">
<path d="M7.36037 19.908V10.668C7.36037 9.97202 6.85637 9.63602 6.18437 9.63602C5.48837 9.63602 4.98437 9.97202 4.98437 10.668V19.908C4.98437 20.58 5.48837 20.916 6.18437 20.916C6.85637 20.916 7.36037 20.58 7.36037 19.908ZM11.4884 10.428V20.124C11.4884 22.932 9.66437 24.732 6.18437 24.732C2.68037 24.732 0.880371 22.932 0.880371 20.124V10.428C0.880371 7.62002 2.68037 5.79602 6.18437 5.79602C9.66437 5.79602 11.4884 7.62002 11.4884 10.428Z" fill="#FF7E36"/>
<path d="M17.3935 13.02H18.5695C19.2655 13.02 19.5535 12.804 19.5535 12.132V10.668C19.5535 9.97202 19.1455 9.63602 18.3535 9.63602C17.6575 9.63602 17.2735 9.92402 17.1535 10.428C16.9855 11.1 16.3855 11.58 15.1135 11.58C13.8175 11.58 13.0495 10.908 13.0495 10.068V9.87602C13.0495 7.16402 15.1855 5.79602 18.3535 5.79602C21.5215 5.79602 23.6575 7.16402 23.6575 9.87602V12.228C23.6575 13.476 22.9615 14.364 22.0735 14.844C23.2975 15.252 23.8735 16.404 23.8735 17.652V20.46C23.8735 23.148 22.0735 24.732 18.3535 24.732C14.6335 24.732 12.8335 23.148 12.8335 20.46V20.028C12.8335 19.164 13.6975 18.468 14.8255 18.468C16.0255 18.468 16.9375 19.068 16.9375 19.788V19.908C16.9375 20.7 17.4415 20.916 18.3535 20.916C19.2655 20.916 19.7695 20.7 19.7695 19.908V17.988C19.7695 17.196 19.3615 16.86 18.5695 16.86H17.3935C16.5295 16.86 15.9535 16.14 15.9535 14.94C15.9535 13.812 16.5295 13.02 17.3935 13.02Z" fill="#FF7E36"/>
<path d="M27.9439 25.548C26.4799 25.548 25.4239 24.54 25.4239 23.052C25.4239 21.612 26.4799 20.556 27.9439 20.556C29.3839 20.556 30.4639 21.612 30.4639 23.052C30.4639 24.54 29.3839 25.548 27.9439 25.548Z" fill="#FF7E36"/>
</svg>
