<svg  viewBox="0 0 31 31" fill="none" xmlns="http://www.w3.org/2000/svg">
<path d="M7.24318 19.908V10.668C7.24318 9.97202 6.73918 9.63602 6.06718 9.63602C5.37118 9.63602 4.86718 9.97202 4.86718 10.668V19.908C4.86718 20.58 5.37118 20.916 6.06718 20.916C6.73918 20.916 7.24318 20.58 7.24318 19.908ZM11.3712 10.428V20.124C11.3712 22.932 9.54718 24.732 6.06718 24.732C2.56318 24.732 0.763184 22.932 0.763184 20.124V10.428C0.763184 7.62002 2.56318 5.79602 6.06718 5.79602C9.54718 5.79602 11.3712 7.62002 11.3712 10.428Z" fill="#FF7E36"/>
<path d="M18.3563 13.02C19.1483 13.02 19.5563 12.684 19.5563 11.892V10.668C19.5563 9.97202 19.0283 9.63602 18.3563 9.63602C17.6843 9.63602 17.1563 9.97202 17.1563 10.668V11.892C17.1563 12.684 17.5643 13.02 18.3563 13.02ZM18.3563 24.732C14.7323 24.732 12.7163 23.052 12.7163 20.124V18.324C12.7163 16.644 13.3883 15.324 14.6363 14.844C13.6763 14.316 13.0523 13.26 13.0523 12.012V10.308C13.0523 7.62002 14.9723 5.79602 18.3563 5.79602C21.7403 5.79602 23.6603 7.62002 23.6603 10.308V12.012C23.6603 13.26 22.9643 14.34 22.0763 14.844C23.3243 15.396 23.9963 16.644 23.9963 18.324V20.124C23.9963 23.052 21.9563 24.732 18.3563 24.732ZM18.3563 20.916C19.4843 20.916 19.8923 20.46 19.8923 19.572V18.444C19.8923 17.436 19.4843 16.86 18.3563 16.86C17.2283 16.86 16.8203 17.436 16.8203 18.444V19.572C16.8203 20.46 17.2283 20.916 18.3563 20.916Z" fill="#FF7E36"/>
<path d="M28.0611 25.548C26.5971 25.548 25.5411 24.54 25.5411 23.052C25.5411 21.612 26.5971 20.556 28.0611 20.556C29.5011 20.556 30.5811 21.612 30.5811 23.052C30.5811 24.54 29.5011 25.548 28.0611 25.548Z" fill="#FF7E36"/>
</svg>
