<svg  viewBox="0 0 31 31" fill="none" xmlns="http://www.w3.org/2000/svg">
<path d="M5.73236 6.15601H7.38836C9.23636 6.15601 10.0764 6.99601 10.0764 8.796V23.196C10.0764 24.156 9.23636 24.876 8.03636 24.876C6.83636 24.876 5.97236 24.156 5.97236 23.196V10.356C5.97236 10.14 5.85236 9.99601 5.61236 9.99601H5.49236C4.67636 9.99601 4.17236 9.25201 4.17236 8.05201C4.17236 6.92401 4.79636 6.15601 5.73236 6.15601Z" fill="#FF7E36"/>
<path d="M14.0761 6.15601H15.7321C17.5801 6.15601 18.4201 6.99601 18.4201 8.796V23.196C18.4201 24.156 17.5801 24.876 16.3801 24.876C15.1801 24.876 14.3161 24.156 14.3161 23.196V10.356C14.3161 10.14 14.1961 9.99601 13.9561 9.99601H13.8361C13.0201 9.99601 12.5161 9.25201 12.5161 8.05201C12.5161 6.92401 13.1401 6.15601 14.0761 6.15601Z" fill="#FF7E36"/>
<path d="M23.9319 25.668C22.4679 25.668 21.4119 24.66 21.4119 23.172C21.4119 21.732 22.4679 20.676 23.9319 20.676C25.3719 20.676 26.4519 21.732 26.4519 23.172C26.4519 24.66 25.3719 25.668 23.9319 25.668Z" fill="#FF7E36"/>
</svg>
