<svg  viewBox="0 0 31 31" fill="none" xmlns="http://www.w3.org/2000/svg">
<path d="M7.47756 19.908V10.668C7.47756 9.97202 6.97356 9.63602 6.30156 9.63602C5.60556 9.63602 5.10156 9.97202 5.10156 10.668V19.908C5.10156 20.58 5.60556 20.916 6.30156 20.916C6.97356 20.916 7.47756 20.58 7.47756 19.908ZM11.6056 10.428V20.124C11.6056 22.932 9.78156 24.732 6.30156 24.732C2.79756 24.732 0.997559 22.932 0.997559 20.124V10.428C0.997559 7.62002 2.79756 5.79602 6.30156 5.79602C9.78156 5.79602 11.6056 7.62002 11.6056 10.428Z" fill="#FF7E36"/>
<path d="M18.2547 14.724C19.0467 14.724 19.4307 14.268 19.4307 13.356V10.668C19.4307 9.97202 19.0467 9.63602 18.2547 9.63602C17.4627 9.63602 17.0547 9.97202 17.0547 10.668V13.356C17.0547 14.268 17.4627 14.724 18.2547 14.724ZM18.2547 24.732C15.7827 24.732 13.8867 23.652 13.2387 21.804C12.9027 20.868 13.4547 19.836 14.6307 19.524C15.7347 19.236 16.6947 19.716 17.1747 20.436C17.3907 20.772 17.7987 20.916 18.2547 20.916C19.0467 20.916 19.4307 20.46 19.4307 19.692V17.868C19.0707 18.3 18.2787 18.564 17.5587 18.564C14.5347 18.564 12.9507 16.86 12.9507 13.932V10.428C12.9507 7.38002 14.7507 5.79602 18.2547 5.79602C21.7347 5.79602 23.5587 7.38002 23.5587 10.428V19.908C23.5587 22.932 21.5187 24.732 18.2547 24.732Z" fill="#FF7E36"/>
<path d="M27.8267 25.548C26.3627 25.548 25.3067 24.54 25.3067 23.052C25.3067 21.612 26.3627 20.556 27.8267 20.556C29.2667 20.556 30.3467 21.612 30.3467 23.052C30.3467 24.54 29.2667 25.548 27.8267 25.548Z" fill="#FF7E36"/>
</svg>
