<svg viewBox="0 0 31 31" fill="none" xmlns="http://www.w3.org/2000/svg">
<path d="M7.47725 19.8162V10.7764C7.47725 10.0955 6.97324 9.76675 6.30122 9.76675C5.6052 9.76675 5.10118 10.0955 5.10118 10.7764V19.8162C5.10118 20.4736 5.6052 20.8024 6.30122 20.8024C6.97324 20.8024 7.47725 20.4736 7.47725 19.8162ZM11.6054 10.5416V20.0275C11.6054 22.7747 9.78131 24.5357 6.30122 24.5357C2.79712 24.5357 0.99707 22.7747 0.99707 20.0275V10.5416C0.99707 7.79443 2.79712 6.00995 6.30122 6.00995C9.78131 6.00995 11.6054 7.79443 11.6054 10.5416Z" fill="#FF7E36"/>
<path d="M13.0705 10.0955C13.5745 7.51267 15.4226 6.00995 18.3507 6.00995C21.5188 6.00995 23.6548 7.74747 23.6548 11.3164C23.6548 13.4062 23.0548 15.0967 21.5908 16.1298L17.7027 18.9005C17.3666 19.1587 17.1506 19.5109 17.1506 19.8866V20.3328C17.1506 20.4971 17.2706 20.591 17.4867 20.591H22.2148C23.1508 20.591 23.8948 21.3424 23.8948 22.4459C23.8948 23.6199 23.1508 24.3244 22.2148 24.3244H15.6146C13.8866 24.3244 13.0465 23.573 13.0465 21.9764V19.5579C13.0465 17.9378 13.4545 16.9516 14.6546 16.0359L18.8547 12.9131C19.3347 12.4904 19.5507 11.9739 19.5507 11.3164C19.5507 10.3303 19.1427 9.76675 18.3507 9.76675C17.7507 9.76675 17.2946 10.1424 17.1266 10.7999C16.9106 11.6451 15.9746 12.2087 14.7026 11.9974C13.5265 11.8095 12.8785 11.0582 13.0705 10.0955Z" fill="#FF7E36"/>
<path d="M27.827 25.334C26.363 25.334 25.3069 24.3478 25.3069 22.8921C25.3069 21.4833 26.363 20.4501 27.827 20.4501C29.267 20.4501 30.3471 21.4833 30.3471 22.8921C30.3471 24.3478 29.267 25.334 27.827 25.334Z" fill="#FF7E36"/>
</svg>
