<svg  viewBox="0 0 31 31" fill="none" xmlns="http://www.w3.org/2000/svg">
<path d="M3.82221 6.03602H5.47821C7.32621 6.03602 8.16621 6.87602 8.16621 8.67602V23.076C8.16621 24.036 7.32621 24.756 6.12621 24.756C4.92621 24.756 4.06221 24.036 4.06221 23.076V10.236C4.06221 10.02 3.94221 9.87602 3.70221 9.87602H3.58221C2.76621 9.87602 2.26221 9.13202 2.26221 7.93202C2.26221 6.80402 2.88621 6.03602 3.82221 6.03602Z" fill="#FF7E36"/>
<path d="M11.086 9.97202C11.59 7.33202 13.438 5.79602 16.366 5.79602C19.534 5.79602 21.67 7.57202 21.67 11.22C21.67 13.356 21.07 15.084 19.606 16.14L15.718 18.972C15.382 19.236 15.166 19.596 15.166 19.98V20.436C15.166 20.604 15.286 20.7 15.502 20.7H20.23C21.166 20.7 21.91 21.468 21.91 22.596C21.91 23.796 21.166 24.516 20.23 24.516H13.63C11.902 24.516 11.062 23.748 11.062 22.116V19.644C11.062 17.988 11.47 16.98 12.67 16.044L16.87 12.852C17.35 12.42 17.566 11.892 17.566 11.22C17.566 10.212 17.158 9.63602 16.366 9.63602C15.766 9.63602 15.31 10.02 15.142 10.692C14.926 11.556 13.99 12.132 12.718 11.916C11.542 11.724 10.894 10.956 11.086 9.97202Z" fill="#FF7E36"/>
<path d="M25.842 25.548C24.378 25.548 23.322 24.54 23.322 23.052C23.322 21.612 24.378 20.556 25.842 20.556C27.282 20.556 28.362 21.612 28.362 23.052C28.362 24.54 27.282 25.548 25.842 25.548Z" fill="#FF7E36"/>
</svg>
