<svg  viewBox="0 0 31 31" fill="none" xmlns="http://www.w3.org/2000/svg">
<path d="M3.92768 6.03602H5.58368C7.43168 6.03602 8.27168 6.87602 8.27168 8.67602V23.076C8.27168 24.036 7.43168 24.756 6.23168 24.756C5.03168 24.756 4.16768 24.036 4.16768 23.076V10.236C4.16768 10.02 4.04768 9.87602 3.80768 9.87602H3.68768C2.87168 9.87602 2.36768 9.13202 2.36768 7.93202C2.36768 6.80402 2.99168 6.03602 3.92768 6.03602Z" fill="#FF7E36"/>
<path d="M17.5514 19.908V10.668C17.5514 9.97202 17.0474 9.63602 16.3754 9.63602C15.6794 9.63602 15.1754 9.97202 15.1754 10.668V19.908C15.1754 20.58 15.6794 20.916 16.3754 20.916C17.0474 20.916 17.5514 20.58 17.5514 19.908ZM21.6794 10.428V20.124C21.6794 22.932 19.8554 24.732 16.3754 24.732C12.8714 24.732 11.0714 22.932 11.0714 20.124V10.428C11.0714 7.62002 12.8714 5.79602 16.3754 5.79602C19.8554 5.79602 21.6794 7.62002 21.6794 10.428Z" fill="#FF7E36"/>
<path d="M25.7366 25.548C24.2726 25.548 23.2166 24.54 23.2166 23.052C23.2166 21.612 24.2726 20.556 25.7366 20.556C27.1766 20.556 28.2565 21.612 28.2565 23.052C28.2565 24.54 27.1766 25.548 25.7366 25.548Z" fill="#FF7E36"/>
</svg>
