<svg viewBox="0 0 34 34" fill="none" xmlns="http://www.w3.org/2000/svg">
  <circle cx="17" cy="17" r="15.5" stroke="currentColor"/>
  <path fill-rule="evenodd" clip-rule="evenodd" d="M16.8845 11.0346C17.1969 10.7222 17.7035 10.7222 18.0159 11.0346L23.4157 16.4344C23.5657 16.5844 23.65 16.7879 23.65 17.0001C23.65 17.2123 23.5657 17.4158 23.4157 17.5658L18.0159 22.9656C17.7035 23.278 17.1969 23.278 16.8845 22.9656C16.5721 22.6532 16.5721 22.1466 16.8845 21.8342L20.9186 17.8001H10.7004C10.2586 17.8001 9.90039 17.4419 9.90039 17.0001C9.90039 16.5583 10.2586 16.2001 10.7004 16.2001H20.9186L16.8845 12.166C16.5721 11.8536 16.5721 11.347 16.8845 11.0346Z" fill="currentColor"/>
</svg>
