<svg width="186" height="32" viewBox="0 0 186 32" fill="none" xmlns="http://www.w3.org/2000/svg">
<g clip-path="url(#clip0)">
<path d="M12.1421 5.93469C5.44027 5.93469 0 11.3568 0 18.0604C0 20.8799 0.965845 23.4627 2.56245 25.5133C2.68071 25.671 2.81869 25.8287 2.93696 25.9865C3.13407 26.2033 3.31147 26.4202 3.52829 26.6371L3.548 26.6568C5.87392 29.1214 8.81088 30.9945 12.1223 32C15.4338 30.9945 18.3708 29.1214 20.6967 26.6568L20.7164 26.6371C20.9135 26.4202 21.1106 26.2033 21.3077 25.9865C21.4457 25.8287 21.564 25.671 21.6822 25.5133C23.2788 23.4627 24.2447 20.8799 24.2447 18.0604C24.2644 11.3568 18.8438 5.93469 12.1421 5.93469ZM12.1421 22.7135C9.57961 22.7135 7.50994 20.6433 7.50994 18.0801C7.50994 15.5169 9.57961 13.4467 12.1421 13.4467C14.7045 13.4467 16.7742 15.5169 16.7742 18.0801C16.7742 20.6433 14.7045 22.7135 12.1421 22.7135Z" fill="#FF7E36"/>
<path d="M16.0842 5.67837C16.8923 5.50092 17.4837 4.79113 17.4837 3.94331C17.4837 2.95749 16.6755 2.14911 15.6899 2.14911C15.414 2.14911 15.1577 2.20826 14.9212 2.32656C14.6847 1.00555 13.5217 0 12.1419 0C10.7622 0 9.5795 1.00555 9.34297 2.32656C9.10643 2.20826 8.85019 2.14911 8.57423 2.14911C7.58867 2.14911 6.78052 2.95749 6.78052 3.94331C6.78052 4.79113 7.39156 5.50092 8.18001 5.67837C9.42181 5.24461 10.7425 5.00801 12.1222 5.00801C13.502 5.00801 14.8424 5.24461 16.0842 5.67837Z" fill="#00B493"/>
<path d="M32.9373 18.2378H40.3684C41.2948 18.2378 42.0241 17.6858 42.0241 16.5422C42.0241 15.3987 41.2948 14.8466 40.3684 14.8466H33.9031C33.568 14.8466 33.3709 14.6494 33.3709 14.334V11.4356C33.3709 11.1202 33.568 10.923 33.9031 10.923H40.3684C41.2948 10.923 42.0241 10.3709 42.0241 9.22736C42.0241 8.0838 41.2948 7.53174 40.3684 7.53174H32.9373C30.4142 7.53174 29.2316 8.65558 29.2316 10.7653V15.0438C29.2316 17.1337 30.4142 18.2378 32.9373 18.2378Z" fill="#FF7E36"/>
<path d="M42.241 19.5983H34.9281C31.6364 19.5983 29.4681 21.4122 29.4681 24.0739C29.4681 26.6765 31.6364 28.4904 34.9281 28.4904H42.241C45.5327 28.4904 47.7206 26.6765 47.7206 24.0739C47.7206 21.4319 45.5327 19.5983 42.241 19.5983ZM42.241 25.0795H34.9281C34.12 25.0795 33.6863 24.6457 33.6863 24.0936C33.6863 23.5021 34.12 23.0487 34.9281 23.0487H42.241C43.0491 23.0487 43.5025 23.5021 43.5025 24.0936C43.5025 24.626 43.0294 25.0795 42.241 25.0795Z" fill="#FF7E36"/>
<path d="M48.4302 10.9821H47.2672V8.75416C47.2672 7.78805 46.4196 7.05853 45.1975 7.05853C43.9754 7.05853 43.1082 7.78805 43.1082 8.75416V17.39C43.1082 18.3561 43.9754 19.0856 45.1975 19.0856C46.4196 19.0856 47.2672 18.3561 47.2672 17.39V15.0437H48.4302C49.3763 15.0437 50.1253 14.2156 50.1253 13.0327C50.1253 11.8891 49.3763 10.9821 48.4302 10.9821Z" fill="#FF7E36"/>
<path d="M69.1662 20.1503H52.195C51.2094 20.1503 50.4012 19.4997 50.4012 18.297C50.4012 17.1731 51.2094 16.4831 52.195 16.4831H69.1662C70.1518 16.4831 70.96 17.1929 70.96 18.297C70.96 19.48 70.1518 20.1503 69.1662 20.1503ZM65.6774 14.1762V11.968C65.6774 11.5736 65.4605 11.3568 65.1255 11.3568H53.3579C52.3329 11.3568 51.4656 10.7061 51.4656 9.46396C51.4656 8.28097 52.3329 7.51202 53.3579 7.51202H66.0322C68.5552 7.51202 69.8364 8.81332 69.8364 11.1202V14.1565C69.8364 15.1226 68.9888 15.8521 67.7667 15.8521C66.5447 15.8521 65.6774 15.1423 65.6774 14.1762ZM55.7233 22.5361V23.9951C55.7233 24.2908 55.9401 24.488 56.2752 24.488H68.3778C69.4028 24.488 70.2701 25.1584 70.2701 26.3808C70.2701 27.5638 69.4028 28.2736 68.3778 28.2736H55.3882C52.8848 28.2736 51.5445 27.2089 51.5445 24.9415V22.5361C51.5445 21.5699 52.3921 20.8404 53.6142 20.8404C54.8362 20.8404 55.7233 21.5699 55.7233 22.5361Z" fill="#FF7E36"/>
<path d="M73.0691 24.4288V10.4301C73.0691 8.51756 74.0349 7.51201 76.0258 7.51201H81.4463C83.4372 7.51201 84.403 8.49784 84.403 10.4301V24.4288C84.403 26.3413 83.4372 27.3469 81.4463 27.3469H76.0258C74.0546 27.3469 73.0691 26.3611 73.0691 24.4288ZM80.5002 23.1078V11.7708C80.5002 11.4948 80.3622 11.337 80.106 11.337H77.3858C77.1493 11.337 76.9916 11.5145 76.9916 11.7708V23.1078C76.9916 23.3839 77.1296 23.5416 77.3858 23.5416H80.106C80.3622 23.5416 80.5002 23.3641 80.5002 23.1078ZM86.9654 26.6962V8.87246C86.9654 7.8472 87.8327 7.05853 89.0548 7.05853C90.2769 7.05853 91.1245 7.86691 91.1245 8.87246V14.7086H92.2875C93.2336 14.7086 93.9826 15.6155 93.9826 16.7394C93.9826 17.9618 93.2336 18.8096 92.2875 18.8096H91.1245V26.6962C91.1245 27.7215 90.2769 28.5102 89.0548 28.5102C87.8327 28.5102 86.9654 27.7215 86.9654 26.6962Z" fill="#FF7E36"/>
<path d="M104.607 11.9088H105.454V8.71473C105.454 7.78805 106.204 7.15712 107.347 7.15712C108.49 7.15712 109.2 7.78805 109.2 8.71473V18.297C109.2 19.2237 108.49 19.8546 107.347 19.8546C106.204 19.8546 105.454 19.2237 105.454 18.297V15.4775H104.607C104.154 15.4775 103.74 15.2606 103.464 14.8466C102.32 17.3703 100.31 19.4011 97.5109 20.6433C96.6042 21.0376 95.6384 20.7813 95.1259 19.9335C94.6134 19.0856 94.9485 17.9815 95.7369 17.6463C96.9984 17.0943 98.0431 16.345 98.8513 15.3789H96.821C96.0523 15.3789 95.3624 14.9254 95.3624 13.9002C95.3624 12.9538 96.0326 12.4214 96.821 12.4214H100.389C100.487 12.0665 100.586 11.6722 100.625 11.2582C100.665 10.9427 100.507 10.7258 100.211 10.7258H96.9393C96.0129 10.7258 95.3624 10.1935 95.3624 9.12877C95.3624 8.10351 96.0129 7.4923 96.9393 7.4923H100.921C103.562 7.4923 104.784 8.75416 104.39 11.5933C104.37 11.6919 104.37 11.8102 104.351 11.9088C104.43 11.9088 104.508 11.9088 104.607 11.9088ZM112.038 28.1355C109.515 27.6032 106.499 26.223 104.548 24.6457C102.734 26.4399 100.31 27.7609 97.7474 28.2539C96.8802 28.4313 95.8552 28.0173 95.5398 26.9526C95.2441 25.9273 95.7566 25.0006 96.683 24.764C99.482 24.0345 101.808 22.4177 102.971 20.2489C103.326 19.5983 104.311 19.1645 105.415 19.4997C106.578 19.8546 107.051 20.9587 106.696 21.7277L106.677 21.7671C108.293 23.1078 110.698 24.1528 113.063 24.6654C113.97 24.8626 114.502 25.7893 114.206 26.8343C113.911 27.8792 112.925 28.3327 112.038 28.1355ZM110.106 18.9476V8.61614C110.106 7.68946 110.875 7.05853 112.058 7.05853C113.24 7.05853 113.97 7.68946 113.97 8.61614V18.9673C113.97 19.894 113.221 20.525 112.058 20.525C110.895 20.525 110.106 19.8743 110.106 18.9476Z" fill="#FF7E36"/>
<path d="M128.832 13.9987C128.832 16.621 130.133 19.4208 132.833 20.5446L131.572 22.3783C129.699 21.5699 128.418 19.9926 127.689 18.0406C126.979 20.1503 125.678 21.9248 123.786 22.7726L122.465 20.939C125.166 19.7165 126.486 16.759 126.486 13.9987V13.1115H123.116V11.199H132.163V13.1115H128.832V13.9987ZM135.967 9.66107V25.8089H133.661V9.66107H135.967Z" fill="#FF7E36"/>
<path d="M152.209 9.66107V19.2236H149.903V17.1731H146.395C145.626 18.0012 144.463 18.5138 143.162 18.5138C140.777 18.5138 138.924 16.8379 138.924 14.4916C138.924 12.1848 140.777 10.4892 143.162 10.4892C144.483 10.4892 145.626 11.0018 146.414 11.8299H149.903V9.66107H152.209ZM145.232 14.4916C145.232 13.2298 144.364 12.4805 143.162 12.4805C141.979 12.4805 141.112 13.2298 141.112 14.4916C141.112 15.7732 141.979 16.5224 143.162 16.5224C144.364 16.5224 145.232 15.7732 145.232 14.4916ZM141.23 19.9531H152.229V25.8287H149.923V21.7868H141.25V19.9531H141.23ZM149.903 15.3394V13.6833H147.341C147.4 13.9396 147.42 14.2156 147.42 14.5113C147.42 14.7874 147.38 15.0634 147.341 15.3592H149.903V15.3394Z" fill="#FF7E36"/>
<path d="M164.687 18.2181C161.375 18.7701 157.729 18.8293 154.851 18.8293L154.614 16.9956C155.521 16.9956 156.526 16.9956 157.551 16.9759V14.1367H159.818V16.9168C161.415 16.8379 163.031 16.7393 164.529 16.5619L164.687 18.2181ZM161.237 15.6549C161.474 14.3142 161.553 13.2692 161.572 12.382H155.58V10.5483H163.859V11.5933C163.859 12.658 163.859 14.0776 163.484 15.8324L161.237 15.6549ZM167.88 22.7332C167.88 24.6457 165.731 25.7892 162.302 25.7892C158.852 25.7892 156.684 24.6457 156.684 22.7332C156.684 20.8207 158.832 19.6771 162.302 19.6771C165.712 19.6771 167.88 20.8207 167.88 22.7332ZM165.515 22.7332C165.515 21.8656 164.371 21.4713 162.302 21.4713C160.193 21.4713 159.049 21.8656 159.049 22.7332C159.049 23.6007 160.193 23.9753 162.302 23.9753C164.371 23.9753 165.515 23.6007 165.515 22.7332ZM169.674 13.6241V15.5366H167.742V19.5194H165.436V9.66107H167.742V13.6241H169.674Z" fill="#FF7E36"/>
<path d="M185.6 22.0036V23.857H170.994V22.0036H176.158V16.4435H178.465V22.0036H185.6ZM181.224 20.0517C181.835 16.9956 181.875 14.7479 181.875 12.8748H172.472V11.0412H184.201V12.5791C184.201 14.5902 184.201 16.8773 183.55 20.308L181.224 20.0517Z" fill="#FF7E36"/>
</g>
<defs>
<clipPath id="clip0">
<rect width="185.6" height="32" fill="white"/>
</clipPath>
</defs>
</svg>
