<svg width="60" height="100" viewBox="0 0 60 100" fill="none" xmlns="http://www.w3.org/2000/svg">
<g clip-path="url(#clip0_3982_2657)">
<path d="M30.2378 36.8945C14.0894 36.8945 0.998047 49.7076 0.998047 65.856C0.998047 88.1831 30.3185 100.032 30.2378 99.998C30.1572 100.032 59.4776 88.1831 59.4776 65.856C59.4776 49.7076 46.3862 36.8945 30.2378 36.8945ZM30.2378 77.5781C28.0487 77.5777 25.9089 76.9282 24.0889 75.7117C22.2689 74.4952 20.8505 72.7664 20.0131 70.7438C19.1756 68.7212 18.9567 66.4957 19.384 64.3487C19.8113 62.2017 20.8657 60.2297 22.4137 58.6819C23.9618 57.1341 25.9341 56.0801 28.0812 55.6532C30.2282 55.2262 32.4537 55.4455 34.4761 56.2834C36.4986 57.1212 38.2272 58.5399 39.4433 60.3601C40.6595 62.1803 41.3086 64.3203 41.3086 66.5094C41.3086 67.9631 41.0222 69.4026 40.4658 70.7457C39.9095 72.0887 39.094 73.309 38.0659 74.3369C37.0379 75.3647 35.8174 76.18 34.4743 76.7362C33.1311 77.2923 31.6916 77.5784 30.2378 77.5781Z" fill="#FF6F0F"/>
<path d="M36.8216 0C29.9976 0 25.2467 4.76709 24.4985 10.3811C15.3999 7.8665 8.27148 14.761 8.27148 22.3916C8.27148 28.2093 12.2602 32.9119 17.604 34.4384C21.9053 35.6665 29.6488 34.753 29.6488 34.753C29.6105 32.8715 31.3427 30.8066 34.0126 28.9272C41.6089 23.5814 47.5556 21.0627 48.4752 13.775C49.435 6.16657 43.7726 0 36.8216 0Z" fill="#00A05B"/>
</g>
<defs>
<clipPath id="clip0_3982_2657">
<rect width="60" height="100" fill="white"/>
</clipPath>
</defs>
</svg>