<svg width="18" height="20" viewBox="0 0 18 20" fill="white" xmlns="http://www.w3.org/2000/svg" >
<path fill-rule="evenodd" clip-rule="evenodd" d="M12.6419 4.46594C14.9594 4.46594 16.4414 6.70828 16.4414 6.70828C16.4414 6.70828 14.1807 7.93506 14.1807 10.5993C14.1807 13.7615 17.0206 14.6813 17.0206 14.6813C17.0206 14.6813 14.7791 20 12.2621 20C10.8467 20 10.7521 19.1858 8.87126 19.1858C7.23785 19.1858 6.68701 20 5.44272 20C3.06784 20 0 14.8156 0 10.5993C0 6.21974 3.10607 4.46594 5.05312 4.46594C6.76297 4.46594 7.47505 5.47213 8.85215 5.47213C10.0112 5.47213 10.9232 4.46594 12.6419 4.46594ZM12.2434 0C12.585 2.14661 10.638 4.8015 8.31111 4.71514C7.96904 1.98376 10.4767 0.144094 12.2434 0Z" />
</svg>
