<svg width="16" height="16" viewBox="0 0 16 16" fill="none" xmlns="http://www.w3.org/2000/svg">
<path d="M0 3.42857C0 10.3716 5.62842 16 12.5714 16C13.252 16 14.4832 16 15.545 15.6213C15.8304 15.5195 16 15.2372 16 14.9341V11.0857C16 10.6439 15.6418 10.2857 15.2 10.2857H11.8428C11.5776 10.2857 11.3232 10.3911 11.1357 10.5786L9.71429 12C9.14286 11.8095 7.5865 11.2849 6.31717 10.0156C4.72936 8.42778 4.19048 6.85714 4 6.28572L5.44639 4.86539C5.63788 4.67735 5.74575 4.42025 5.74575 4.15188V0.8C5.74575 0.358172 5.38757 0 4.94574 0L1.06586 0C0.762837 0 0.480461 0.169578 0.378673 0.454989C0 1.51677 0 2.74805 0 3.42857Z" fill="#212124"/>
</svg>
