<svg width="166" height="166" viewBox="0 0 166 166" fill="none" xmlns="http://www.w3.org/2000/svg">
<rect x="0.5" y="0.5" width="165" height="165" rx="45.5" fill="white" stroke="#D1D3D8"/>
<path d="M82.1546 51.2861C61.2786 51.2861 44.3425 68.2222 44.3425 89.0982C44.3425 97.8602 47.3416 105.917 52.3695 112.326C52.7517 112.826 53.134 113.297 53.5456 113.767C54.1337 114.473 54.7511 115.149 55.398 115.796C55.4274 115.825 55.4274 115.825 55.4568 115.855C62.6899 123.529 71.8342 129.38 82.184 132.497C92.5338 129.351 101.678 123.529 108.911 115.855C108.941 115.825 108.941 115.825 108.97 115.796C109.617 115.149 110.205 114.473 110.822 113.767C111.234 113.297 111.616 112.797 111.998 112.326C116.997 105.917 120.025 97.8602 120.025 89.0982C119.967 68.2222 103.031 51.2861 82.1546 51.2861ZM82.1546 103.564C74.157 103.564 67.6884 97.0957 67.6884 89.0982C67.6884 81.1006 74.157 74.632 82.1546 74.632C90.1521 74.632 96.6208 81.1006 96.6208 89.0982C96.6208 97.0957 90.1521 103.564 82.1546 103.564Z" fill="#FF7E36"/>
<path d="M94.48 49.9489C96.9792 49.3903 98.861 47.1851 98.861 44.5094C98.861 41.4515 96.3617 38.9523 93.3038 38.9523C92.4512 38.9523 91.6279 39.1581 90.9222 39.5109C90.1283 35.3945 86.5118 32.2778 82.1602 32.2778C77.8086 32.2778 74.2214 35.3945 73.4275 39.5109C72.6925 39.1581 71.8986 38.9523 71.0459 38.9523C67.988 38.9523 65.4888 41.4515 65.4888 44.5094C65.4888 47.1851 67.3706 49.3903 69.8698 49.9489C73.7216 48.6258 77.8674 47.8613 82.1896 47.8613C86.5118 47.8613 90.5988 48.5964 94.48 49.9489Z" fill="#00B493"/>
</svg>
