<svg viewBox="0 0 146 146" fill="none" xmlns="http://www.w3.org/2000/svg">
  <path d="M106.96 32.8932C106.96 32.8932 115.012 28.4092 117.649 23.7117C120.285 19.0142 119.858 11.0426 113.373 9.33444C109.383 8.338 105.179 8.55152 101.259 9.90384C101.259 9.90384 99.9768 4.28106 92.4948 3.92519C85.0128 3.56932 79.2409 7.83978 77.1744 10.6156C75.108 13.3914 71.2601 18.8718 71.2601 18.8718L45.2511 37.9465L43.5409 37.5907C43.5409 37.5907 35.7026 50.7579 41.1182 60.9359C42.9708 64.4946 49.5265 71.7544 56.2247 73.1067C56.2247 73.1067 49.3128 82.4305 49.5265 94.7437C49.7403 107.057 57.0086 112.466 57.0086 112.466L60.3577 115.455C60.3577 115.455 62.2104 127.199 61.8541 128.694C61.4978 130.189 57.7211 133.391 60.5714 138.231C63.4217 143.071 69.7637 141.576 69.7637 141.576L75.7493 140.865L78.0295 139.726C78.0295 139.726 80.096 142.929 85.2978 142.715C90.4996 142.502 95.4164 140.509 96.3427 134.317C97.269 128.124 96.9128 119.37 97.2691 117.306C97.6253 115.242 99.9056 104.068 100.262 100.651C100.618 97.2348 100.476 89.4768 99.478 86.2739C98.4804 83.0711 96.699 77.6618 96.699 77.6618C96.699 77.6618 102.898 75.8113 106.96 72.822C111.022 69.8327 115.368 61.5764 116.152 56.5942C116.936 51.612 114.442 45.2063 113.73 42.3594C113.017 39.5124 106.96 32.8932 106.96 32.8932Z" fill="white"/>
  <path d="M50.0966 41.0781C46.9612 44.1386 45.4648 48.4091 45.8211 52.7507C46.6049 59.9393 50.0966 63.9251 53.3744 65.918C55.6546 67.2703 58.0774 68.4091 60.5714 69.4055C60.5714 69.4055 70.7612 72.1101 77.5307 71.3272C84.3002 70.5443 88.7181 68.4802 91.8535 65.2774C94.9888 62.0745 96.7702 56.4518 96.4139 53.1066C96.0576 49.7614 94.6325 43.9962 91.8535 41.3628C89.0744 38.7293 71.26 30.7578 71.26 30.7578L54.5145 36.3094L50.0966 41.0781Z" fill="#FCEDE4"/>
  <path d="M80.3025 50.4381C80.5325 47.8539 79.7338 45.6715 78.5186 45.5636C77.3034 45.4557 76.1318 47.4631 75.9018 50.0474C75.6718 52.6316 76.4705 54.814 77.6857 54.9219C78.9009 55.0298 80.0725 53.0224 80.3025 50.4381Z" fill="#414344"/>
  <path d="M61.2498 48.7418C61.4798 46.1576 60.6811 43.9752 59.4659 43.8673C58.2506 43.7594 57.079 45.7668 56.8491 48.3511C56.6191 50.9353 57.4178 53.1177 58.633 53.2256C59.8482 53.3335 61.0198 51.3261 61.2498 48.7418Z" fill="#414344"/>
  <path d="M74.4662 71.9675C70.4045 71.9675 64.1338 71.3269 59.9296 69.8322C49.9536 66.2735 46.6045 60.3661 45.5356 55.9532C44.0392 49.8322 46.2482 43.8536 48.956 40.9354C49.1698 40.6507 49.6686 40.5796 49.9536 40.7931C50.2386 41.0066 50.3099 41.5048 50.0961 41.7895L50.0248 41.8607C47.6021 44.4942 45.6069 49.9034 46.9608 55.5974C47.9584 59.6543 51.0937 65.1347 60.4997 68.4088C65.1314 70.0458 72.9698 70.6863 76.4614 70.4016C85.3686 69.6899 91.7817 66.1312 94.4895 60.2949C96.6985 55.5262 96.1997 49.9746 93.2069 45.633C92.9931 45.2771 93.0644 44.85 93.3494 44.6365C93.7057 44.423 94.1332 44.4942 94.347 44.7789C97.6248 49.4764 98.1949 55.5974 95.7722 60.8643C92.8506 67.1276 86.0099 71.0422 76.5326 71.754C75.8913 71.9675 75.25 71.9675 74.4662 71.9675Z" fill="#414344"/>
  <path d="M70.0065 53.2569C70.1526 51.9284 68.8123 50.6914 67.0129 50.494C65.2135 50.2965 63.6363 51.2134 63.4902 52.5419C63.344 53.8703 64.6843 55.1073 66.4838 55.3048C68.2832 55.5022 69.8604 54.5854 70.0065 53.2569Z" fill="#414344"/>
  <path d="M69.8349 58.3736C69.3361 58.3736 68.8373 58.3024 68.4097 58.1601C67.6259 57.9466 66.9133 57.4484 66.4145 56.8078C65.987 57.1637 65.4882 57.4484 64.9894 57.5195C63.6355 57.8754 62.2103 57.3772 61.284 56.3096C60.999 56.0249 61.0702 55.5266 61.3552 55.3131C61.6403 55.0284 62.1391 55.0996 62.3529 55.3843C62.9229 56.0249 63.8493 56.3096 64.6331 56.096C65.5594 55.8825 65.6307 55.2419 65.702 55.1708C65.6307 54.7437 65.9157 54.459 66.3433 54.3879C66.7708 54.3167 67.0559 54.6014 67.1271 55.0284C67.3409 55.8825 67.9822 56.5231 68.766 56.7366C69.6211 57.0213 70.5475 56.879 71.3313 56.4519C71.6163 56.1672 72.0439 56.1672 72.3289 56.4519C72.6139 56.7366 72.6139 57.1637 72.3289 57.4484C72.3289 57.4484 72.2577 57.4484 72.2577 57.5195C71.6163 58.1601 70.7612 58.4448 69.8349 58.3736Z" fill="#414344"/>
  <path d="M56.5095 74.0317C56.4382 74.0317 56.4382 74.0317 56.367 74.0317C56.1532 73.9605 51.664 72.964 46.2484 68.2665C43.2556 65.7043 38.2676 60.0815 38.2676 51.6829C38.2676 41.1491 45.3933 31.4694 56.937 26.4872C57.2933 26.3448 57.7209 26.4872 57.8634 26.843C58.0059 27.1989 57.8634 27.626 57.5071 27.7683C46.5335 32.537 39.6927 41.6473 39.6927 51.6829C39.6927 59.5121 44.3245 64.7078 47.1748 67.1989C52.3053 71.6117 56.5808 72.6082 56.652 72.6082C57.0796 72.6793 57.3646 73.0352 57.2933 73.3911C57.2221 73.8181 56.8658 74.1028 56.5095 74.0317Z" fill="#414344"/>
  <path d="M92.8512 78.5162C91.9249 78.5162 90.9985 78.445 90.1434 78.3738C89.7159 78.3027 89.4309 77.9468 89.5021 77.5909C89.5734 77.235 89.9297 76.8792 90.286 76.9503C104.252 78.445 113.943 67.5553 115.226 56.0963C116.152 47.5553 112.233 35.8116 101.402 30.3311C101.046 30.1176 100.975 29.6906 101.188 29.3347C101.402 29.05 101.758 28.9076 102.043 29.05C113.516 34.8151 117.649 47.1995 116.651 56.2386C115.297 67.6265 106.176 78.5162 92.8512 78.5162Z" fill="#414344"/>
  <path d="M69.6923 142.43C63.6354 142.43 59.7162 140.153 58.8611 136.238C58.1485 133.035 59.7875 130.971 60.7138 129.761C60.9276 129.548 61.0701 129.334 61.2126 129.05C61.4976 126.345 59.7162 115.882 59.7162 115.74C59.645 115.313 59.93 114.957 60.2863 114.886C60.6426 114.815 61.0701 115.1 61.1414 115.455C61.2126 115.882 62.9941 126.274 62.6378 129.192C62.4953 129.761 62.2102 130.188 61.8539 130.616C60.9988 131.683 59.7162 133.391 60.2863 135.882C61.2839 140.295 66.6282 141.007 69.7635 141.007C74.609 141.007 77.0318 139.512 77.103 139.512C77.4593 139.299 77.8869 139.441 78.1006 139.726C78.3144 140.082 78.1719 140.509 77.8869 140.722C77.6731 140.793 74.9653 142.43 69.6923 142.43Z" fill="#414344"/>
  <path d="M85.4396 142.999C79.8103 142.999 76.3187 140.864 75.6774 137.092C75.1073 133.818 76.1049 132.466 76.7462 131.612C77.0313 131.185 77.245 130.971 77.245 130.757C77.245 129.334 76.6037 121.79 76.6037 121.718C76.6037 121.291 76.8887 121.007 77.245 120.935C77.6013 120.864 77.9576 121.22 78.0289 121.576C78.0289 121.861 78.7414 129.263 78.7414 130.757C78.6702 131.398 78.3852 132.039 77.9576 132.466C77.3876 133.249 76.675 134.174 77.1025 136.878C77.8151 141.078 82.6606 141.647 85.5822 141.647C90.9265 141.647 94.1331 139.725 95.4157 135.953C96.2708 133.32 96.2708 130.686 96.2708 127.412C96.1995 123.782 96.4133 120.224 96.9121 116.594C97.1971 114.459 97.5534 112.679 97.8384 110.686C98.3373 107.768 98.9073 104.708 99.3349 100.437C100.19 92.8927 99.0498 85.2059 95.9145 78.2308C95.772 77.8749 95.9145 77.4479 96.2708 77.3055C96.6271 77.1632 97.0546 77.3055 97.1971 77.6614C100.404 84.85 101.615 92.8215 100.689 100.651C100.19 104.992 99.6911 108.053 99.1211 110.971C98.7648 112.893 98.4798 114.743 98.1947 116.807C97.6959 120.295 97.5534 123.854 97.6247 127.412C97.6247 130.829 97.6247 133.533 96.6983 136.38C95.2019 140.793 91.4253 143.071 85.5109 143.071L85.4396 142.999Z" fill="#414344"/>
  <path d="M62.9223 27.4839C63.0648 24.4234 56.2241 22.9287 50.0959 25.7045C43.9678 28.4803 42.5426 34.7437 44.9654 38.1601C47.4594 41.6476 53.2313 42.217 57.4354 39.37C61.6396 36.523 62.9223 27.4839 62.9223 27.4839Z" fill="#39C5AB"/>
  <path d="M51.5215 41.9323C48.7424 42.0746 46.1059 40.7935 44.3957 38.5871C43.1844 36.6654 42.8281 34.3166 43.4694 32.1814C44.3957 28.9786 46.7472 26.3451 49.8113 25.064C54.7281 22.8576 59.7874 23.2846 62.0676 24.7793C62.9939 25.3487 63.564 26.3451 63.564 27.4839V27.5551C63.4927 27.9109 62.1388 36.9501 57.7209 39.9394C55.9394 41.2206 53.8017 41.8611 51.5215 41.9323ZM56.8658 24.9216C54.6568 24.9216 52.4478 25.4198 50.4526 26.3451C47.7448 27.4839 45.7496 29.7615 44.8945 32.5373C44.3245 34.3166 44.6095 36.1672 45.6071 37.733C47.8161 40.8647 53.2317 41.3629 57.0796 38.8006C60.8562 36.3095 62.2101 28.0533 62.2814 27.4127C62.2814 26.8433 61.9251 26.2739 61.355 25.9892C60.0011 25.2063 58.4335 24.8504 56.8658 24.9216Z" fill="#414344"/>
  <path d="M77.459 38.801C78.029 41.0074 83.4446 48.6231 91.4967 46.9861C95.2734 46.2032 96.841 42.7156 96.9835 40.2245C97.126 36.9505 95.3446 34.2459 93.0644 31.9683C88.7889 27.769 81.9482 25.9185 78.3141 27.6978" fill="#39C5AB"/>
  <path d="M89.3596 47.9819C82.3051 47.9819 77.3884 41.3626 76.7471 39.0139C76.6758 38.658 76.8896 38.231 77.2459 38.1598C77.6021 38.0886 78.0297 38.3021 78.1009 38.658C78.5285 40.295 83.5165 47.9107 91.2836 46.3448C94.989 45.6331 96.1291 42.0032 96.2004 40.2238C96.3429 37.5904 95.1315 35.1705 92.495 32.537C88.5045 28.6224 82.0201 26.7007 78.5997 28.4089C78.2435 28.5513 77.8159 28.4801 77.6734 28.1242C77.4596 27.7683 77.6021 27.3413 77.9584 27.1989C81.9488 25.2061 89.0746 27.1989 93.4926 31.5406C96.4141 34.4587 97.768 37.3057 97.6255 40.295C97.483 43.2843 95.4878 46.9854 91.5686 47.7683C90.9273 47.9107 90.1435 47.9819 89.3596 47.9819Z" fill="#414344"/>
  <path d="M75.8208 20.5798C69.6927 17.0923 62.1394 20.7222 59.1465 28.1243C56.1537 35.5264 60.0016 41.7186 66.6998 42.9998C73.398 44.2809 78.2436 39.5122 79.5975 33.8183C80.9513 28.1243 80.025 22.9286 75.8208 20.5798Z" fill="#39C5AB"/>
  <path d="M68.8372 43.9248C68.0534 43.9248 67.3408 43.8536 66.5569 43.7113C63.2078 43.2131 60.3575 41.149 58.6474 38.2309C57.0084 35.2415 56.9372 31.6116 58.4336 27.8394C59.93 23.8536 63.0653 20.6508 67.127 19.1561C70.1198 18.0885 73.3977 18.3732 76.1767 19.939C80.3096 22.2878 81.8061 27.5547 80.3096 34.0316C79.027 39.2273 74.8228 43.9248 68.8372 43.9248ZM70.8324 20.0102C69.7635 20.0102 68.6234 20.2237 67.6258 20.5796C63.9917 21.9319 61.1414 24.8501 59.7875 28.48C58.4336 31.8252 58.5049 35.028 59.93 37.6615C61.3552 40.2237 63.9204 41.9319 66.842 42.4301C71.4737 43.2842 77.1743 41.0067 78.9558 33.818C80.3809 28.0529 79.0983 23.3554 75.5354 21.3625C74.039 20.4373 72.4713 20.0102 70.8324 20.0102Z" fill="#414344"/>
  <path d="M106.532 33.3913C106.247 33.3913 106.033 33.249 105.89 32.9643C105.748 32.6084 105.89 32.1814 106.247 32.039C113.087 28.6938 120.356 22.2881 118.147 15.4554C117.292 12.8219 115.225 10.6867 112.589 9.83261C108.384 8.33795 102.969 9.26322 98.1946 12.3949C93.4203 15.5266 89.4299 19.6547 86.4371 24.4945C86.2233 24.8504 85.7958 24.9216 85.4395 24.7081C85.0832 24.4945 85.0119 24.0675 85.2257 23.7116C88.361 18.7294 92.494 14.4589 97.482 11.1849C102.613 7.83973 108.456 6.77212 113.087 8.4803C116.151 9.47674 118.503 11.9678 119.501 15.0283C121.923 22.7864 114.228 29.6903 106.817 33.3202C106.745 33.3202 106.674 33.3913 106.532 33.3913Z" fill="#414344"/>
  <path d="M71.402 20.0105C71.3307 20.0105 71.1882 20.0105 71.117 19.9394C70.7607 19.797 70.6182 19.37 70.7607 19.0141C70.9032 18.6582 74.8936 9.40557 83.6583 4.70806C87.8625 2.43048 92.9217 2.3593 97.1972 4.63688C99.7625 5.9892 101.686 7.98208 101.829 9.47674C101.9 9.90379 101.615 10.2597 101.188 10.2597C100.76 10.3308 100.404 10.0461 100.404 9.61909C100.333 8.90734 98.9786 7.19916 96.4846 5.84685C92.708 3.85396 88.1475 3.85396 84.3708 5.91802C76.0337 10.3308 72.1146 19.4412 72.0433 19.5123C71.972 19.8682 71.687 20.0105 71.402 20.0105Z" fill="#414344"/>
  <path d="M71.2599 120.366C69.1222 120.437 66.9845 119.725 65.2743 118.444C60.5713 114.814 60.3575 108.338 64.633 102.003C68.7659 95.9532 76.6043 89.2628 76.8893 88.9781C77.1743 88.6934 77.6731 88.7646 77.8869 89.0493C78.1719 89.334 78.1007 89.8322 77.8156 90.0457C77.7444 90.1169 69.8348 96.8785 65.7731 102.786C61.9252 108.48 62.0677 114.103 66.1294 117.306C68.0534 118.729 70.5474 119.298 72.8989 118.8C75.1078 118.515 77.1743 117.306 78.4569 115.455C79.5971 113.889 81.5923 112.608 83.8725 111.042C87.1504 108.907 91.1408 106.202 94.3474 101.789C94.5611 101.505 95.0599 101.434 95.345 101.647C95.63 101.861 95.7013 102.288 95.4875 102.572C92.1384 107.199 88.0055 109.975 84.6564 112.181C82.5186 113.604 80.5947 114.886 79.5971 116.238C78.1007 118.373 75.7492 119.797 73.1126 120.081C72.4713 120.366 71.9013 120.366 71.2599 120.366Z" fill="#414344"/>
  <path d="M69.8342 97.0211C69.6917 97.0211 69.5492 96.95 69.4067 96.8788C67.6252 95.5976 66.1288 90.9713 65.9151 90.4019C65.7725 90.046 65.9863 89.619 66.4139 89.5478C66.7702 89.4055 67.1977 89.619 67.269 90.046C67.839 91.8966 69.1216 95.0283 70.1905 95.74C70.4755 95.9535 70.5468 96.3806 70.333 96.7364C70.333 96.95 70.1193 97.0211 69.8342 97.0211Z" fill="#414344"/>
  <path d="M62.9222 116.808C61.0695 116.808 59.4306 115.598 58.148 114.53C53.9438 110.829 49.5258 103.712 48.9557 96.0247C48.1007 83.7827 54.9414 73.676 55.2264 73.2489C55.4402 72.9642 55.939 72.8931 56.224 73.1066C56.509 73.3201 56.5803 73.7471 56.3665 74.0318C56.2953 74.103 49.5258 84.0674 50.3096 95.8824C50.8084 103.142 55.0126 109.904 59.0031 113.391C60.7845 114.957 62.0671 115.527 63.3498 115.313C63.7773 115.242 64.1336 115.527 64.2048 115.882C64.2761 116.309 63.9911 116.665 63.6348 116.736C63.4923 116.736 63.2072 116.808 62.9222 116.808Z" fill="#414344"/>
  <path d="M39.9072 86.8432H39.8359C39.4084 86.7721 39.1233 86.4162 39.1233 85.9891C39.1946 85.2062 39.0521 84.4233 38.9096 83.5692C38.8383 83.3557 38.8383 83.071 38.767 82.8575C38.6245 81.7899 38.482 80.2952 39.1233 79.0852C39.3371 78.7294 39.6934 78.587 40.0497 78.7294C40.3347 78.8005 40.9048 79.1564 40.8335 80.2952L40.5485 83.1422C40.5485 83.2845 40.4772 83.4269 40.406 83.5692C40.5485 84.4233 40.691 85.3486 40.6197 86.2738C40.6197 86.5585 40.3347 86.8432 39.9072 86.8432Z" fill="#414344"/>
  <path d="M39.3365 90.2594C39.2653 90.2594 39.194 90.2594 39.1228 90.2594C38.7665 90.1883 38.4814 89.8324 38.4814 89.4765C38.4814 89.1206 38.6952 88.8359 38.9802 88.6224C39.194 88.4801 39.4791 88.4089 39.7641 88.4801C39.9066 88.4801 40.0491 88.5512 40.1916 88.6224C40.5479 88.8359 40.6904 89.3342 40.4054 89.69C40.1916 89.9747 39.7641 90.2594 39.3365 90.2594Z" fill="#414344"/>
  <path d="M18.814 67.3413C18.7427 67.3413 18.6715 67.3413 18.6002 67.3413C18.1727 67.2701 17.9589 66.8431 18.0302 66.4161C18.2439 65.562 18.3152 64.7079 18.3152 63.8538C15.5362 63.6403 12.6859 63.6403 9.83556 63.8538C9.40801 63.925 9.05173 63.5691 8.98047 63.142C8.98047 62.715 9.2655 62.3591 9.69304 62.2879C12.8284 62.0744 15.9637 62.0744 19.099 62.3591C19.4553 62.3591 19.8116 62.715 19.8116 63.0709C19.8829 64.352 19.8116 65.562 19.4553 66.8431C19.5266 67.1278 19.1703 67.3413 18.814 67.3413Z" fill="#414344"/>
  <path d="M14.0404 72.4666C13.6129 72.4666 13.3278 72.1819 13.2566 71.7548C13.1853 70.9719 13.1853 70.189 13.2566 69.4061C13.3278 68.979 13.6841 68.6943 14.1117 68.6943C14.5392 68.7655 14.8955 69.1214 14.8242 69.5484C14.753 70.2602 14.753 70.9007 14.8242 71.6125C14.8955 72.0395 14.5392 72.3954 14.1117 72.4666H14.0404Z" fill="#414344"/>
  <path d="M19.1701 73.3917C15.8923 73.3205 12.6144 73.2493 9.40786 73.1781C8.98031 73.1781 8.62402 72.8223 8.62402 72.3952C8.62402 71.9682 8.98031 71.6123 9.40786 71.6123C12.6144 71.6123 15.8923 71.6835 19.1701 71.8258C19.5977 71.8258 19.954 72.1817 19.954 72.6087C19.954 73.0358 19.5977 73.3917 19.1701 73.3917Z" fill="#414344"/>
  <path d="M28.7189 73.534C27.5075 73.4629 26.3674 73.3917 25.2273 73.3917C24.7998 73.3917 24.4435 73.107 24.4435 72.6799C24.3722 71.5411 24.301 70.3312 24.301 69.1924C24.301 68.1959 24.301 67.1995 24.301 66.2031C24.301 66.0607 24.301 65.8472 24.301 65.6337C24.2297 64.7796 24.2297 63.7831 24.6572 63.1426C25.156 62.3596 26.5099 62.4308 28.4339 62.5732C28.7189 62.5732 29.0752 62.6443 29.289 62.6443C29.4315 62.5732 29.5027 62.5732 29.6453 62.5732C30.0728 62.6443 30.3578 63.0002 30.3578 63.4273C30.0015 66.4878 29.7878 69.6194 29.6453 72.7511C29.6453 72.9646 29.574 73.1782 29.3602 73.3205C29.0752 73.4629 28.9327 73.534 28.7189 73.534ZM25.9399 71.8258C26.6524 71.8258 27.2938 71.8258 28.0063 71.897C28.1489 69.3347 28.3626 66.7013 28.5764 64.139C28.4339 64.139 28.3626 64.139 28.2201 64.139C27.6501 64.0678 26.2962 63.9967 25.8686 64.0678C25.7974 64.3525 25.7974 65.1354 25.8686 65.4913C25.8686 65.776 25.8686 65.9895 25.8686 66.2031C25.8686 67.1995 25.8686 68.1959 25.8686 69.1212C25.8686 70.0465 25.8686 70.9717 25.9399 71.8258ZM28.7189 63.2137C28.7189 63.2849 28.7189 63.2849 28.7189 63.3561C28.7189 63.2849 28.7189 63.2137 28.7189 63.2137Z" fill="#414344"/>
  <path d="M34.6332 73.8901C34.2056 73.8901 33.8494 73.5343 33.8494 73.1784L33.2793 62.9293C33.2793 62.5022 33.5643 62.1464 33.9919 62.0752C34.4194 62.0752 34.7757 62.3599 34.847 62.7869L35.417 73.0361C35.417 73.4631 35.0607 73.8901 34.6332 73.8901Z" fill="#414344"/>
  <path d="M34.8473 69.1917C34.4198 69.1917 34.0635 68.8358 34.0635 68.4088C34.0635 67.9817 34.4198 67.6259 34.8473 67.6259L36.9138 67.5547C37.3413 67.5547 37.6976 67.9106 37.6976 68.3376C37.6976 68.7647 37.3413 69.1205 36.9138 69.1205L34.8473 69.1917Z" fill="#414344"/>
  <path d="M12.3296 83.4986C12.2583 83.4986 12.1158 83.4986 12.0446 83.4986C11.047 83.4274 10.0494 82.7157 9.4793 81.7904C9.19427 81.3633 9.05176 80.8651 9.05176 80.4381C9.05176 80.0822 9.12302 79.6552 9.33679 79.2993C9.69307 78.6587 10.1919 78.2317 10.8332 78.0181C11.6883 77.7335 12.7571 77.8758 13.7548 78.374C14.0398 78.5164 14.3248 78.6587 14.4673 78.8722C15.3224 79.6552 15.4649 81.0786 14.8949 82.0751C14.3961 83.0004 13.3985 83.4986 12.3296 83.4986ZM11.7595 79.4416C11.617 79.4416 11.4745 79.4416 11.332 79.5128C11.047 79.584 10.9045 79.7263 10.7619 80.011C10.6907 80.2246 10.6194 80.3669 10.6194 80.5093C10.6194 80.6516 10.6907 80.8651 10.8332 81.0786C11.1182 81.5769 11.6883 81.9327 12.1871 82.0039C12.7571 82.0751 13.2559 81.7904 13.541 81.3633C13.7548 80.9363 13.7548 80.3669 13.3985 80.0822C13.3272 80.011 13.1847 79.9399 13.0422 79.7975C12.6146 79.5128 12.1158 79.4416 11.7595 79.4416Z" fill="#414344"/>
  <path d="M15.0381 86.1311C12.8291 86.1311 10.5488 86.06 8.33986 85.8464C7.91232 85.7753 7.55603 85.4194 7.62729 84.9923C7.69855 84.5653 8.05483 84.2094 8.48238 84.2806C10.9051 84.4941 13.3991 84.5653 15.8932 84.5653C16.3207 84.5653 16.677 84.9212 16.677 85.3482C16.677 85.7753 16.3207 86.1311 15.8932 86.1311C15.6081 86.1311 15.3231 86.1311 15.0381 86.1311Z" fill="#414344"/>
  <path d="M11.4039 90.4024C10.9764 90.4024 10.6201 90.0465 10.6201 89.6195C10.6201 88.3384 10.6201 87.0572 10.6914 85.7761C10.6914 85.349 11.0477 84.9932 11.4752 84.9932C11.9028 84.9932 12.259 85.349 12.259 85.7761C12.1878 87.0572 12.1878 88.2672 12.1878 89.5483C12.1878 90.0465 11.8315 90.4024 11.4039 90.4024Z" fill="#414344"/>
  <path d="M19.4554 88.1244C18.4578 88.0533 17.4601 88.0533 16.4625 88.1244C16.035 88.1244 15.6787 87.7686 15.6787 87.3415C15.6787 86.9145 16.035 86.5586 16.4625 86.5586C17.4601 86.5586 18.529 86.5586 19.5266 86.5586C19.9542 86.5586 20.3104 86.9145 20.2392 87.3415C20.2392 87.7686 19.8829 88.1244 19.4554 88.1244Z" fill="#414344"/>
  <path d="M19.4559 90.6865C19.3846 90.6865 19.3846 90.6865 19.3134 90.6865C18.8858 90.6153 18.6008 90.1883 18.672 89.7612C18.9571 88.053 18.9571 86.3449 18.8858 84.4943C18.8858 82.715 18.8146 80.8644 19.0996 79.0851C19.1708 78.658 19.5984 78.3733 20.0259 78.4445C20.4535 78.5157 20.7385 78.9427 20.6673 79.3698C20.3822 81.0779 20.4535 82.715 20.4535 84.4943C20.4535 86.3449 20.5247 88.1954 20.1685 90.0459C20.1685 90.4018 19.8834 90.6865 19.4559 90.6865Z" fill="#414344"/>
  <path d="M29.5738 84.2814C28.8613 84.2814 28.0774 84.2102 27.2936 84.139C26.5098 83.9967 25.3697 83.7832 24.5858 82.9291C24.1583 82.4309 23.8732 81.7191 23.9445 81.0785C24.0158 80.5091 24.2295 80.0109 24.6571 79.6551C25.0134 79.3704 25.5122 79.228 25.8685 79.1568C26.7235 78.9433 27.6499 78.8721 28.5762 79.0145C28.7188 79.0145 28.8613 79.0857 28.9325 79.1568C29.0038 79.1568 29.0038 79.1568 29.075 79.1568C30.5002 79.0857 31.9966 79.3704 33.3505 79.9398C33.8493 80.1533 34.4194 80.438 34.8469 80.9362C35.417 81.6479 35.4882 82.502 35.0607 83.1426C34.4906 83.9967 33.493 84.0679 32.9229 84.139C31.9253 84.2102 30.7852 84.2814 29.5738 84.2814ZM27.6499 80.438C27.1511 80.438 26.7235 80.5091 26.2247 80.5803C26.011 80.6515 25.7972 80.7227 25.6547 80.7938C25.5834 80.865 25.5122 81.0074 25.5122 81.1497C25.5122 81.3632 25.5834 81.6479 25.7259 81.8615C26.0822 82.2173 26.6523 82.502 27.5074 82.5732C29.2888 82.8579 31.1415 82.6444 32.7092 82.502C32.9229 82.502 33.5643 82.4309 33.6355 82.2173C33.7068 82.1462 33.6355 81.9326 33.5643 81.7903C33.3505 81.5056 32.9942 81.3632 32.6379 81.2209C31.4978 80.7227 30.2864 80.5091 29.0038 80.5803C28.8613 80.5803 28.6475 80.5091 28.505 80.438C28.4337 80.438 28.3625 80.438 28.22 80.438C28.1487 80.438 27.9349 80.438 27.6499 80.438Z" fill="#414344"/>
  <path d="M27.2936 89.9035C27.2936 89.9035 27.2223 89.9035 27.2936 89.9035C26.7948 89.9035 26.5098 89.4765 26.5098 89.0495C26.581 88.1242 26.6523 87.1989 26.7948 86.3448C26.8661 85.9178 27.2223 85.6331 27.6499 85.7043C28.0774 85.7754 28.3625 86.1313 28.2912 86.5584C28.1487 87.4124 28.0774 88.2665 28.0062 89.1918C28.0062 89.5477 27.7211 89.9035 27.2936 89.9035Z" fill="#414344"/>
  <path d="M31.57 89.9752C31.1424 89.9752 30.7861 89.6193 30.7861 89.1923V86.2741C30.7861 85.8471 31.1424 85.4912 31.57 85.4912C31.9975 85.4912 32.3538 85.8471 32.3538 86.2741V89.1923C32.3538 89.6193 31.9975 89.9752 31.57 89.9752Z" fill="#414344"/>
  <path d="M35.1325 90.4022C31.4984 90.1887 27.8643 90.0463 24.3014 90.0463C23.8739 90.0463 23.5176 89.6904 23.5176 89.2634C23.5176 88.8363 23.8739 88.4805 24.3014 88.4805C27.9355 88.4805 31.5697 88.6228 35.1325 88.8363C35.5601 88.8363 35.9164 89.2634 35.8451 89.6904C35.9164 90.1175 35.5601 90.4022 35.1325 90.4022Z" fill="#414344"/>
</svg>
