<svg width="20" height="20" viewBox="0 0 20 20" fill="#d1d3d8" xmlns="http://www.w3.org/2000/svg">
<path fill-rule="evenodd" clip-rule="evenodd" d="M8.49922 0.199219C3.91526 0.199219 0.199219 3.91526 0.199219 8.49922C0.199219 13.0832 3.91526 16.7992 8.49922 16.7992C10.5031 16.7992 12.3411 16.0891 13.7754 14.9067L18.4335 19.5649C18.746 19.8773 19.2525 19.8773 19.5649 19.5649C19.8773 19.2525 19.8773 18.746 19.5649 18.4335L14.9067 13.7754C16.0891 12.3411 16.7992 10.5031 16.7992 8.49922C16.7992 3.91526 13.0832 0.199219 8.49922 0.199219ZM1.79922 8.49922C1.79922 4.79891 4.79891 1.79922 8.49922 1.79922C12.1995 1.79922 15.1992 4.79891 15.1992 8.49922C15.1992 12.1995 12.1995 15.1992 8.49922 15.1992C4.79891 15.1992 1.79922 12.1995 1.79922 8.49922Z" fill="#d1d3d8"/>
</svg>
