<svg width="18" height="18" viewBox="0 0 18 18" fill="none" xmlns="http://www.w3.org/2000/svg">
<path fill-rule="evenodd" clip-rule="evenodd" d="M9 1.5C5.69263 1.5 3 4.21942 3 7.58824C3 9.85195 4.35597 11.9762 5.86719 13.6282C7.12786 15.0063 8.44308 15.9977 9 16.393C9.55691 15.9977 10.8721 15.0063 12.1328 13.6282C13.644 11.9762 15 9.85195 15 7.58824C15 4.21942 12.3074 1.5 9 1.5ZM2 7.58824C2 3.67989 5.12767 0.5 9 0.5C12.8723 0.5 16 3.67989 16 7.58824C16 10.2335 14.4332 12.595 12.8707 14.3032C11.2957 16.0249 9.64676 17.1677 9.32954 17.3813C9.24351 17.4392 9.13094 17.4831 9 17.4831C8.86906 17.4831 8.75649 17.4392 8.67046 17.3813C8.35324 17.1677 6.70432 16.0249 5.12934 14.3031C3.56677 12.595 2 10.2334 2 7.58824ZM9 5.5C7.89543 5.5 7 6.39543 7 7.5C7 8.60457 7.89543 9.5 9 9.5C10.1046 9.5 11 8.60457 11 7.5C11 6.39543 10.1046 5.5 9 5.5ZM6 7.5C6 5.84315 7.34315 4.5 9 4.5C10.6569 4.5 12 5.84315 12 7.5C12 9.15685 10.6569 10.5 9 10.5C7.34315 10.5 6 9.15685 6 7.5Z" fill="#706E6E" stroke="#706E6E" stroke-width="0.5" stroke-linecap="round"/>
</svg>
