<svg width="18" height="18" viewBox="0 0 18 18" fill="none" xmlns="http://www.w3.org/2000/svg">
<path d="M12.3536 9.35355C12.5488 9.15829 12.5488 8.84171 12.3536 8.64645C12.1583 8.45118 11.8417 8.45118 11.6464 8.64645L8 12.2929L6.35355 10.6464C6.15829 10.4512 5.84171 10.4512 5.64645 10.6464C5.45118 10.8417 5.45118 11.1583 5.64645 11.3536L7.64645 13.3536C7.84171 13.5488 8.15829 13.5488 8.35355 13.3536L12.3536 9.35355Z" fill="#696F70"/>
<path fill-rule="evenodd" clip-rule="evenodd" d="M6 1.5C6.27614 1.5 6.5 1.72386 6.5 2V2.5H11.5V2C11.5 1.72386 11.7239 1.5 12 1.5C12.2761 1.5 12.5 1.72386 12.5 2V2.5H15C15.8284 2.5 16.5 3.17157 16.5 4V14C16.5 15.3807 15.3807 16.5 14 16.5H4C2.61929 16.5 1.5 15.3807 1.5 14V4C1.5 3.17157 2.17157 2.5 3 2.5H5.5V2C5.5 1.72386 5.72386 1.5 6 1.5ZM5.5 4V3.5H3C2.72386 3.5 2.5 3.72386 2.5 4V5.5H15.5V4C15.5 3.72386 15.2761 3.5 15 3.5H12.5V4C12.5 4.27614 12.2761 4.5 12 4.5C11.7239 4.5 11.5 4.27614 11.5 4V3.5H6.5V4C6.5 4.27614 6.27614 4.5 6 4.5C5.72386 4.5 5.5 4.27614 5.5 4ZM2.5 14V6.5H15.5V14C15.5 14.8284 14.8284 15.5 14 15.5H4C3.17157 15.5 2.5 14.8284 2.5 14Z" fill="#696F70"/>
<path d="M12.3536 9.35355C12.5488 9.15829 12.5488 8.84171 12.3536 8.64645C12.1583 8.45118 11.8417 8.45118 11.6464 8.64645L8 12.2929L6.35355 10.6464C6.15829 10.4512 5.84171 10.4512 5.64645 10.6464C5.45118 10.8417 5.45118 11.1583 5.64645 11.3536L7.64645 13.3536C7.84171 13.5488 8.15829 13.5488 8.35355 13.3536L12.3536 9.35355Z" stroke="#696F70" stroke-width="0.5" stroke-miterlimit="10" stroke-linecap="round" stroke-linejoin="round"/>
<path fill-rule="evenodd" clip-rule="evenodd" d="M6 1.5C6.27614 1.5 6.5 1.72386 6.5 2V2.5H11.5V2C11.5 1.72386 11.7239 1.5 12 1.5C12.2761 1.5 12.5 1.72386 12.5 2V2.5H15C15.8284 2.5 16.5 3.17157 16.5 4V14C16.5 15.3807 15.3807 16.5 14 16.5H4C2.61929 16.5 1.5 15.3807 1.5 14V4C1.5 3.17157 2.17157 2.5 3 2.5H5.5V2C5.5 1.72386 5.72386 1.5 6 1.5ZM5.5 4V3.5H3C2.72386 3.5 2.5 3.72386 2.5 4V5.5H15.5V4C15.5 3.72386 15.2761 3.5 15 3.5H12.5V4C12.5 4.27614 12.2761 4.5 12 4.5C11.7239 4.5 11.5 4.27614 11.5 4V3.5H6.5V4C6.5 4.27614 6.27614 4.5 6 4.5C5.72386 4.5 5.5 4.27614 5.5 4ZM2.5 14V6.5H15.5V14C15.5 14.8284 14.8284 15.5 14 15.5H4C3.17157 15.5 2.5 14.8284 2.5 14Z" stroke="#696F70" stroke-width="0.5" stroke-miterlimit="10" stroke-linecap="round" stroke-linejoin="round"/>
</svg>
