<svg width="18" height="18" viewBox="0 0 18 18" fill="none" xmlns="http://www.w3.org/2000/svg">
<path fill-rule="evenodd" clip-rule="evenodd" d="M11.6464 1.89645C11.8417 1.70118 12.1583 1.70118 12.3536 1.89645L16.1036 5.64645C16.2988 5.84171 16.2988 6.15829 16.1036 6.35355L6.35355 16.1036C6.25979 16.1973 6.13261 16.25 6 16.25H2.25C1.97386 16.25 1.75 16.0261 1.75 15.75V12C1.75 11.8674 1.80268 11.7402 1.89645 11.6464L11.6464 1.89645ZM12.75 8.29289L10.8536 6.39645C10.6583 6.20118 10.3417 6.20118 10.1464 6.39645C9.95118 6.59171 9.95118 6.90829 10.1464 7.10355L12.0429 9L5.79289 15.25H2.75V12.2071L12 2.95711L15.0429 6L12.75 8.29289Z" fill="#706E6E"/>
<path d="M9.75 15.75C9.75 15.4739 9.97386 15.25 10.25 15.25H15.9C16.1761 15.25 16.4 15.4739 16.4 15.75C16.4 16.0261 16.1761 16.25 15.9 16.25H10.25C9.97386 16.25 9.75 16.0261 9.75 15.75Z" fill="#706E6E"/>
<path fill-rule="evenodd" clip-rule="evenodd" d="M11.6464 1.89645C11.8417 1.70118 12.1583 1.70118 12.3536 1.89645L16.1036 5.64645C16.2988 5.84171 16.2988 6.15829 16.1036 6.35355L6.35355 16.1036C6.25979 16.1973 6.13261 16.25 6 16.25H2.25C1.97386 16.25 1.75 16.0261 1.75 15.75V12C1.75 11.8674 1.80268 11.7402 1.89645 11.6464L11.6464 1.89645ZM12.75 8.29289L10.8536 6.39645C10.6583 6.20118 10.3417 6.20118 10.1464 6.39645C9.95118 6.59171 9.95118 6.90829 10.1464 7.10355L12.0429 9L5.79289 15.25H2.75V12.2071L12 2.95711L15.0429 6L12.75 8.29289Z" stroke="#706E6E" stroke-width="0.5" stroke-miterlimit="10" stroke-linecap="round" stroke-linejoin="round"/>
<path d="M9.75 15.75C9.75 15.4739 9.97386 15.25 10.25 15.25H15.9C16.1761 15.25 16.4 15.4739 16.4 15.75C16.4 16.0261 16.1761 16.25 15.9 16.25H10.25C9.97386 16.25 9.75 16.0261 9.75 15.75Z" stroke="#706E6E" stroke-width="0.5" stroke-miterlimit="10" stroke-linecap="round" stroke-linejoin="round"/>
</svg>
