<svg viewBox="0 0 100 28" fill="none" xmlns="http://www.w3.org/2000/svg">
<g clip-path="url(#clip0)">
<path d="M41.397 9.71334H36.5899L32.4105 15.3794V5.10449H28.1816V23.8868H32.4105V18.6998L36.3999 23.8868H41.6365L35.9704 16.7753L41.397 9.71334Z" fill="#FF7E36"/>
<path d="M50.9532 10.5807C50.5237 10.2916 50.0447 10.1016 49.4665 9.91164C48.7479 9.67211 47.9798 9.573 47.1621 9.573C46.204 9.573 45.2376 9.76297 44.3786 10.1512C43.5113 10.5394 42.7432 11.0597 42.1237 11.6875C41.496 12.3565 40.9674 13.1246 40.5874 13.9919C40.1992 14.9004 40.0093 15.8668 40.0093 16.8745C40.0093 17.8821 40.1992 18.8403 40.5874 19.7571C40.9756 20.6243 41.496 21.3925 42.1237 22.0119C42.7515 22.6397 43.5196 23.1683 44.3786 23.5482C45.2459 23.9364 46.1544 24.1264 47.1621 24.1264C47.9798 24.1264 48.7479 24.0273 49.4665 23.7877C49.9951 23.6473 50.5237 23.3995 50.9532 23.1187V23.9364H55.1326V9.71341H50.9532V10.5807ZM46.1544 20.0379C45.7662 19.8479 45.3863 19.6084 45.0972 19.3193C44.8081 18.9807 44.5686 18.6503 44.3786 18.2125C44.1886 17.783 44.1391 17.3453 44.1391 16.8662C44.1391 16.3872 44.2382 15.9577 44.3786 15.5199C44.5686 15.0904 44.8081 14.7022 45.0972 14.4131C45.3863 14.124 45.7662 13.8349 46.1544 13.6945C46.5426 13.5046 47.0217 13.4054 47.5007 13.4054C47.9798 13.4054 48.4588 13.5046 48.847 13.6945C49.2765 13.8845 49.6647 14.124 49.9538 14.4131C50.2925 14.7022 50.532 15.0821 50.722 15.5199C50.9119 15.9494 51.0111 16.3872 51.0111 16.8662C51.0111 17.3453 50.9119 17.8243 50.7715 18.2125C50.5816 18.642 50.342 18.9807 50.0529 19.3193C49.7143 19.658 49.3839 19.8975 48.9462 20.0379C48.0293 20.3765 46.9721 20.4261 46.1544 20.0379Z" fill="#FF7E36"/>
<path d="M62.3433 10.1016C61.8643 10.3907 61.3852 10.7293 60.997 11.1588V9.72167H56.8176V23.8869H61.0465V17.4031C61.0465 16.2963 61.3356 15.3877 61.9138 14.7105C62.492 14.0827 63.4501 13.7523 64.7469 13.7523H64.9864V9.52344H64.7469C63.8796 9.52344 63.0619 9.71341 62.3433 10.1016Z" fill="#FF7E36"/>
<path d="M72.0401 10.1016C71.561 10.3907 71.082 10.7293 70.6938 11.1588V9.72167H66.5144V23.8869H70.7433V17.4031C70.7433 16.2963 71.0324 15.3877 71.6106 14.7105C72.1887 14.0827 73.1469 13.7523 74.4436 13.7523H74.6831V9.52344H74.4436C73.5764 9.52344 72.7587 9.71341 72.0401 10.1016Z" fill="#FF7E36"/>
<path d="M88.0388 11.5883C87.3698 10.9193 86.5521 10.3907 85.6353 10.0025C84.7185 9.61429 83.7108 9.42432 82.6123 9.42432C81.5055 9.42432 80.4978 9.61429 79.5893 10.0025C78.6725 10.3907 77.863 10.911 77.1857 11.5883C76.5167 12.2574 75.9881 13.0255 75.5999 13.9423C75.2117 14.8509 75.0217 15.8172 75.0217 16.8249C75.0217 17.8326 75.2117 18.8402 75.5999 19.7075C75.9881 20.6161 76.5085 21.3925 77.1857 22.0615C77.8548 22.7305 78.6725 23.2591 79.5893 23.5978C80.4978 23.986 81.5138 24.1759 82.6123 24.1759C83.6695 24.1759 84.7267 23.986 85.6353 23.5978C86.5439 23.2096 87.3616 22.6892 88.0388 22.0119C88.7079 21.3429 89.2365 20.5748 89.6247 19.6579C90.0129 18.7494 90.2028 17.783 90.2028 16.7754C90.2028 15.7677 90.0129 14.76 89.6247 13.8928C89.286 13.0255 88.7574 12.2574 88.0388 11.5883ZM81.266 13.5541C81.6955 13.3641 82.1332 13.3146 82.6123 13.3146C83.0913 13.3146 83.5704 13.4137 83.9586 13.5541C84.3881 13.7441 84.7267 13.9836 85.0654 14.2727C85.3545 14.6113 85.594 14.9417 85.784 15.3795C85.9739 15.809 86.0235 16.288 86.0235 16.8166C86.0235 17.3453 85.9244 17.8243 85.7344 18.2538C85.5444 18.6833 85.3049 19.0715 84.9663 19.3606C84.6276 19.6992 84.2972 19.9388 83.8595 20.1287C82.9922 20.5169 81.935 20.5169 81.1256 20.1287C80.6961 19.9388 80.3574 19.6992 80.0683 19.3606C79.7793 19.022 79.5397 18.6916 79.3498 18.2538C79.2093 17.8243 79.1102 17.3453 79.1102 16.8166C79.1102 16.288 79.2093 15.809 79.3498 15.3795C79.5397 14.95 79.7793 14.5618 80.0683 14.2727C80.4483 13.9423 80.8282 13.7028 81.266 13.5541Z" fill="#FF7E36"/>
<path d="M100.238 13.5046V9.71349H96.8766V6.16187H92.6972V9.66393H90.7314V13.4633H92.6972V18.9394C92.6972 20.5748 93.1267 21.7725 94.0435 22.6397C94.9108 23.4574 96.348 23.8869 98.2229 23.8869H100.288V20.2362H98.512C97.9338 20.2362 97.5539 20.1371 97.3143 19.8976C97.0748 19.7076 96.9261 19.3194 96.9261 18.7412V13.4551H100.238V13.5046Z" fill="#FF7E36"/>
<path d="M10.6218 5.18701C4.75752 5.18701 0 9.94453 0 15.8088C0 18.2702 0.842478 20.5333 2.25487 22.3339C2.36224 22.4743 2.46962 22.6065 2.58525 22.7386C2.75044 22.9369 2.92389 23.1268 3.1056 23.3085C3.11386 23.3168 3.11386 23.3168 3.12212 23.3251C5.15398 25.4808 7.72271 27.1245 10.6301 28C13.5375 27.1162 16.1062 25.4808 18.1381 23.3251C18.1463 23.3168 18.1463 23.3168 18.1546 23.3085C18.3363 23.1268 18.5015 22.9369 18.6749 22.7386C18.7906 22.6065 18.8979 22.4661 19.0053 22.3339C20.4094 20.5333 21.2602 18.2702 21.2602 15.8088C21.2437 9.94453 16.4861 5.18701 10.6218 5.18701ZM10.6218 19.8726C8.37522 19.8726 6.55811 18.0554 6.55811 15.8088C6.55811 13.5622 8.37522 11.7451 10.6218 11.7451C12.8684 11.7451 14.6855 13.5622 14.6855 15.8088C14.6855 18.0554 12.8684 19.8726 10.6218 19.8726Z" fill="#FF7E36"/>
<path d="M14.0827 4.96401C14.7847 4.80708 15.3133 4.18761 15.3133 3.43599C15.3133 2.57699 14.6113 1.87493 13.7523 1.87493C13.5128 1.87493 13.2815 1.93274 13.0833 2.03186C12.8603 0.875516 11.8443 0 10.6219 0C9.39949 0 8.39182 0.875516 8.16881 2.03186C7.96232 1.93274 7.73931 1.87493 7.49978 1.87493C6.64079 1.87493 5.93872 2.57699 5.93872 3.43599C5.93872 4.18761 6.46733 4.80708 7.1694 4.96401C8.2514 4.59233 9.41601 4.37758 10.6302 4.37758C11.8443 4.37758 12.9924 4.58407 14.0827 4.96401Z" fill="#00B493"/>
</g>
<defs>
<clipPath id="clip0">
<rect width="100" height="28" fill="white"/>
</clipPath>
</defs>
</svg>
