<svg width="500" height="500" viewBox="0 0 500 500" fill="none" xmlns="http://www.w3.org/2000/svg">
<g clip-path="url(#clip0_201_41)">
<path d="M249.977 165.711C179.847 165.711 123 222.613 123 292.811C123 295.769 123.138 298.685 123.331 301.56C123.373 302.113 123.414 302.666 123.456 303.233C124.919 321.325 130.152 338.366 138.396 353.528C166.011 406.145 222.941 438.294 242.894 448.314C247.381 450.567 252.601 450.567 257.074 448.314C277.013 438.294 333.943 406.159 361.559 353.542C369.816 338.366 375.049 321.311 376.512 303.191C376.554 302.666 376.595 302.127 376.637 301.602C376.83 298.699 376.968 295.769 376.968 292.811C376.968 222.613 320.121 165.711 249.991 165.711H249.977V165.711ZM249.977 340.149C223.673 340.149 202.354 318.809 202.354 292.48C202.354 266.15 223.673 244.81 249.977 244.81C276.281 244.81 297.6 266.15 297.6 292.48C297.6 318.809 276.281 340.149 249.977 340.149V340.149Z" fill="#FF7E36"/>
<path d="M202.367 153.258H212.613C224.432 149.623 236.984 147.647 249.991 147.647C262.998 147.647 275.549 149.61 287.369 153.258H297.614C310.759 153.258 321.419 142.588 321.419 129.431C321.419 116.273 310.759 105.603 297.614 105.603C292.643 105.603 288.045 107.137 284.234 109.735C287.672 103.847 289.688 97.0198 289.688 89.7222C289.688 67.7879 271.918 50 250.005 50C228.091 50 210.321 67.7879 210.321 89.7222C210.321 97.0336 212.323 103.861 215.775 109.735C211.964 107.137 207.352 105.603 202.395 105.603C189.25 105.603 178.59 116.273 178.59 129.431C178.59 142.588 189.25 153.258 202.395 153.258H202.367V153.258Z" fill="#00B493"/>
</g>
<defs>
<clipPath id="clip0_201_41">
<rect width="253.968" height="400" fill="white" transform="translate(123 50)"/>
</clipPath>
</defs>
</svg>
