<svg viewBox="0 0 16 16" fill="none" xmlns="http://www.w3.org/2000/svg">
<g clip-path="url(#clip0)">
<path fill-rule="evenodd" clip-rule="evenodd" d="M7.19638 1.34351C4.21417 1.34351 1.65381 3.3435 1.65381 5.98562C1.65381 7.60091 2.61574 9.15734 4.08984 10.0067C3.735 10.7924 3.41812 11.2616 3.23494 11.4988C3.08806 11.6889 3.0912 11.924 3.17505 12.0962C3.26108 12.2729 3.4598 12.4329 3.72492 12.4072C4.20049 12.361 5.14831 12.209 6.08302 11.6917C6.85588 12.0734 7.74721 12.3012 8.69654 12.33C9.8967 13.7381 11.662 14.0436 12.3732 14.1126C12.6384 14.1383 12.8371 13.9783 12.9231 13.8016C13.007 13.6294 13.0101 13.3943 12.8632 13.2042C12.68 12.967 12.3632 12.4978 12.0083 11.7121C13.4824 10.8627 14.4443 9.3063 14.4443 7.69102C14.4443 6.17351 13.4895 4.87322 12.2413 4.04928C11.3552 2.42555 9.38992 1.34351 7.19638 1.34351ZM12.718 5.57441C12.7319 5.70957 12.7389 5.84671 12.7389 5.98562C12.7389 8.56692 10.2945 10.5356 7.40166 10.6246C7.24505 10.8083 7.07882 10.9733 6.90655 11.1214C7.48809 11.3427 8.13672 11.4709 8.82376 11.4799C9.00635 11.4823 9.17461 11.5675 9.28552 11.7047C10.0143 12.6058 11.0486 12.9941 11.8036 13.1601C11.5944 12.8165 11.3506 12.3571 11.0987 11.7593C10.9923 11.5069 11.1039 11.2188 11.3449 11.1001C12.7157 10.4251 13.5916 9.05448 13.5916 7.69102C13.5916 6.92412 13.2638 6.19119 12.718 5.57441ZM2.50651 5.98562C2.50651 3.96175 4.52284 2.19621 7.19638 2.19621C9.86991 2.19621 11.8862 3.96175 11.8862 5.98562C11.8862 7.99959 9.89022 9.75738 7.23558 9.7749C7.07827 9.77594 6.93169 9.84919 6.8361 9.96994C6.10617 10.892 5.05772 11.2869 4.29451 11.4547C4.50379 11.1111 4.74753 10.6517 4.99951 10.0539C5.10587 9.80149 4.99428 9.51343 4.75324 9.39473C3.38241 8.71966 2.50651 7.34908 2.50651 5.98562Z" fill="#868B94"/>
</g>
<defs>
<clipPath id="clip0">
<rect width="15.3486" height="15.3486" fill="white" transform="translate(0.374756 0.0644531)"/>
</clipPath>
</defs>
</svg>
