<svg viewBox="0 0 11 11" fill="none" xmlns="http://www.w3.org/2000/svg">
<path d="M0.873047 6.24026H10.088V10.1895C10.088 10.553 9.79328 10.8477 9.42976 10.8477H1.53126C1.16774 10.8477 0.873047 10.553 0.873047 10.1895V6.24026Z" fill="#FFCD40"/>
<rect x="0.214844" y="2.94922" width="10.5313" height="3.29104" rx="0.658209" fill="#FFCD40"/>
<rect x="0.873047" y="6.24026" width="9.21493" height="0.658209" fill="#F79D14"/>
<rect x="4.16406" y="2.94922" width="2.63284" height="7.89851" fill="#F05705"/>
<path d="M1.53125 1.79862C1.53125 0.980017 2.19486 0.316406 3.01347 0.316406C3.52452 0.316406 3.99953 0.579677 4.27038 1.01305L5.4805 2.94924H1.53125V1.79862Z" fill="#FF7E36"/>
<path d="M9.42969 1.79862C9.42969 0.980017 8.76608 0.316406 7.94747 0.316406C7.43642 0.316406 6.96141 0.579677 6.69055 1.01305L5.48043 2.94924H9.42969V1.79862Z" fill="#FF7E36"/>
<path d="M4.16406 2.94923C4.16406 2.22219 4.75344 1.63281 5.48048 1.63281C6.20752 1.63281 6.7969 2.22219 6.7969 2.94923H4.16406Z" fill="#F05705"/>
</svg>
