<svg  viewBox="0 0 13 12" fill="none" xmlns="http://www.w3.org/2000/svg">
<path fill-rule="evenodd" clip-rule="evenodd" d="M1.02569 1.26871C2.3875 -0.161185 4.62162 -0.161185 5.98342 1.26871L6.47623 1.78773L6.96858 1.26918C8.33039 -0.160716 10.565 -0.161185 11.9268 1.26871L11.9278 1.26975C13.3036 2.72427 13.0779 4.90959 11.9581 6.3904L11.9574 6.39126C10.8217 7.88525 9.50886 9.09033 8.48404 9.92016C7.97074 10.3358 7.52747 10.6591 7.21149 10.8791C7.05344 10.9891 6.92709 11.0734 6.83956 11.1307C6.79579 11.1593 6.76172 11.1811 6.73823 11.1961L6.71104 11.2132L6.7036 11.2179L6.70146 11.2192L6.70055 11.2198C6.70046 11.2198 6.70038 11.2199 6.47623 10.8572C6.25853 11.2238 6.25845 11.2237 6.25835 11.2237L6.25739 11.2231L6.25515 11.2218L6.24738 11.2171L6.21904 11.1999C6.19459 11.1849 6.15917 11.163 6.11376 11.1344C6.02294 11.077 5.89209 10.9926 5.72906 10.8824C5.40312 10.6621 4.94779 10.3384 4.42603 9.92207C3.3849 9.09134 2.06769 7.88278 0.988314 6.38219L0.987781 6.38145C-0.0744442 4.898 -0.357532 2.72109 1.02569 1.26871ZM6.47623 10.8572L6.25835 11.2237C6.39487 11.3048 6.56549 11.3032 6.70055 11.2198L6.47623 10.8572ZM6.47203 10.3515C6.5416 10.305 6.62631 10.2475 6.72424 10.1793C7.02593 9.96923 7.45242 9.65829 7.94744 9.25746C8.93913 8.45446 10.197 7.29776 11.2782 5.87574C12.2215 4.62813 12.3199 2.92566 11.3088 1.85624C10.283 0.77977 8.61222 0.77991 7.58662 1.85666C7.58658 1.8567 7.58666 1.85662 7.58662 1.85666L6.78541 2.70049C6.70491 2.78527 6.59313 2.83327 6.47623 2.83327C6.35932 2.83327 6.24754 2.78527 6.16704 2.70049L5.36595 1.85678C5.36589 1.85672 5.36601 1.85685 5.36595 1.85678C4.34017 0.779923 2.66887 0.779793 1.64317 1.85678C0.638892 2.91127 0.765013 4.60547 1.68088 5.88474C2.6991 7.30018 3.95262 8.45345 4.95786 9.25555C5.45934 9.65569 5.89615 9.96615 6.20655 10.1759C6.30991 10.2458 6.39917 10.3044 6.47203 10.3515Z" fill="#868B94"/>
</svg>
