<svg viewBox="0 0 7 9" fill="none" xmlns="http://www.w3.org/2000/svg">
<g clip-path="url(#clip0_21304_41562)">
<path d="M3.40942 1.97945C2.84659 1.97873 2.2949 2.13803 1.81734 2.43918C1.33978 2.74032 0.95559 3.17117 0.708637 3.68254C0.461683 4.1939 0.361917 4.76517 0.420729 5.33112C0.479541 5.89707 0.694561 6.4349 1.04124 6.8832L1.13459 7.00015C1.18126 7.05555 1.22996 7.11095 1.2807 7.16224C1.86114 7.78821 2.5937 8.24945 3.40536 8.5C4.21646 8.24948 4.94836 7.78821 5.528 7.16224C5.57873 7.11095 5.62743 7.05555 5.67411 7.00015L5.76948 6.8832C6.11535 6.43468 6.32968 5.89696 6.38807 5.3313C6.44646 4.76563 6.34656 4.19476 6.09975 3.68369C5.85294 3.17263 5.46914 2.74191 4.99206 2.44061C4.51499 2.1393 3.96381 1.97951 3.4013 1.97945H3.40942ZM3.40942 6.17944C3.18225 6.17944 2.96019 6.11133 2.77131 5.98372C2.58242 5.85612 2.43521 5.67475 2.34827 5.46254C2.26134 5.25034 2.2386 5.01684 2.28291 4.79157C2.32723 4.5663 2.43662 4.35938 2.59725 4.19696C2.75789 4.03455 2.96254 3.92395 3.18534 3.87914C3.40815 3.83433 3.63909 3.85733 3.84896 3.94522C4.05884 4.03312 4.23822 4.18197 4.36443 4.37294C4.49064 4.56392 4.558 4.78845 4.558 5.01813C4.558 5.32613 4.43699 5.62151 4.22159 5.8393C4.00619 6.05709 3.71404 6.17944 3.40942 6.17944Z" fill="#FF7E36"/>
<path d="M4.38758 1.91584C4.49235 1.89053 4.58439 1.82743 4.64643 1.73838C4.70846 1.64934 4.73624 1.54047 4.72453 1.4322C4.71283 1.32393 4.66245 1.22369 4.58285 1.1503C4.50326 1.07691 4.39991 1.0354 4.2922 1.03357C4.2263 1.03397 4.16125 1.04867 4.10145 1.07666C4.06995 0.914221 3.98362 0.767892 3.85721 0.662703C3.73079 0.557514 3.57216 0.5 3.40845 0.5C3.24473 0.5 3.0861 0.557514 2.95969 0.662703C2.83327 0.767892 2.74694 0.914221 2.71544 1.07666C2.65564 1.04867 2.59059 1.03397 2.52469 1.03357C2.41436 1.0311 2.30713 1.07061 2.22424 1.14428C2.14134 1.21794 2.08883 1.32039 2.07709 1.43134C2.06535 1.54229 2.09524 1.65365 2.16085 1.74338C2.22645 1.83311 2.32299 1.89465 2.43134 1.91584C3.06456 1.69157 3.75436 1.69157 4.38758 1.91584Z" fill="#00B493"/>
</g>
<defs>
<clipPath id="clip0_21304_41562">
<rect width="6" height="8" fill="white" transform="translate(0.404297 0.5)"/>
</clipPath>
</defs>
</svg>
