<svg viewBox="0 0 13 13" fill="none" xmlns="http://www.w3.org/2000/svg">
<g clip-path="url(#clip0)">
<path fill-rule="evenodd" clip-rule="evenodd" d="M1.52868 2.26798C2.68662 1.02688 4.58918 1.02688 5.74711 2.26798L6.18465 2.73836L6.62184 2.26836C7.77977 1.02726 9.68269 1.02688 10.8406 2.26798L10.8414 2.26882C12.0063 3.52585 11.818 5.41605 10.8653 6.70204L10.8648 6.70273C9.89333 8.00712 8.77008 9.05974 7.89274 9.7849C7.45338 10.1481 7.07399 10.4305 6.80359 10.6227C6.66835 10.7188 6.56026 10.7924 6.48542 10.8424C6.448 10.8674 6.41889 10.8864 6.39884 10.8994L6.37566 10.9143L6.36935 10.9184L6.36754 10.9195L6.36679 10.92C6.36679 10.92 6.36665 10.9201 6.18465 10.6316C6.00784 10.9233 6.0077 10.9232 6.0077 10.9232L6.0069 10.9227L6.00501 10.9216L5.99841 10.9175L5.97426 10.9025C5.95339 10.8895 5.92313 10.8704 5.8843 10.8454C5.80666 10.7954 5.69473 10.7216 5.55523 10.6254C5.27634 10.433 4.88665 10.1502 4.4401 9.78646C3.54884 9.06053 2.42211 8.00512 1.49926 6.69547C0.59475 5.40603 0.358112 3.52261 1.52868 2.26798ZM6.18465 10.6316L6.0077 10.9232C6.11824 10.9902 6.25746 10.989 6.36679 10.92L6.18465 10.6316Z" fill="#4D5159"/>
</g>
<defs>
<clipPath id="clip0">
<rect width="11.9378" height="11.9378" fill="white" transform="translate(0.191162 0.155029)"/>
</clipPath>
</defs>
</svg>
