<svg viewBox="0 0 17 17" fill="none" xmlns="http://www.w3.org/2000/svg">
<path d="M11.857 8.69766C12.0453 8.50937 12.0453 8.2041 11.857 8.01582C11.6687 7.82754 11.3635 7.82754 11.1752 8.01582L7.65906 11.532L6.07146 9.94435C5.88317 9.75606 5.5779 9.75606 5.38962 9.94435C5.20134 10.1326 5.20134 10.4379 5.38962 10.6262L7.31814 12.5547C7.50643 12.743 7.8117 12.743 7.99998 12.5547L11.857 8.69766Z" fill="#FF7E36"/>
<path fill-rule="evenodd" clip-rule="evenodd" d="M5.73054 1.12477C5.99681 1.12477 6.21267 1.34063 6.21267 1.6069V2.08903H11.034V1.6069C11.034 1.34063 11.2498 1.12477 11.5161 1.12477C11.7824 1.12477 11.9982 1.34063 11.9982 1.6069V2.08903H14.4089C15.2077 2.08903 15.8553 2.73661 15.8553 3.53543V13.1781C15.8553 14.5094 14.776 15.5887 13.4446 15.5887H3.80201C2.47064 15.5887 1.39136 14.5094 1.39136 13.1781V3.53543C1.39136 2.73661 2.03893 2.08903 2.83775 2.08903H5.24841V1.6069C5.24841 1.34063 5.46426 1.12477 5.73054 1.12477ZM5.24841 3.53543V3.0533H2.83775C2.57148 3.0533 2.35562 3.26915 2.35562 3.53543V4.98182H14.891V3.53543C14.891 3.26915 14.6752 3.0533 14.4089 3.0533H11.9982V3.53543C11.9982 3.8017 11.7824 4.01756 11.5161 4.01756C11.2498 4.01756 11.034 3.8017 11.034 3.53543V3.0533H6.21267V3.53543C6.21267 3.8017 5.99681 4.01756 5.73054 4.01756C5.46426 4.01756 5.24841 3.8017 5.24841 3.53543ZM2.35562 13.1781V5.94608H14.891V13.1781C14.891 13.9769 14.2435 14.6244 13.4446 14.6244H3.80201C3.00319 14.6244 2.35562 13.9769 2.35562 13.1781Z" fill="#FF7E36"/>
<path d="M11.857 8.69766C12.0453 8.50937 12.0453 8.2041 11.857 8.01582C11.6687 7.82754 11.3635 7.82754 11.1752 8.01582L7.65906 11.532L6.07146 9.94435C5.88317 9.75606 5.5779 9.75606 5.38962 9.94435C5.20134 10.1326 5.20134 10.4379 5.38962 10.6262L7.31814 12.5547C7.50643 12.743 7.8117 12.743 7.99998 12.5547L11.857 8.69766Z" stroke="#FF7E36" stroke-width="0.520702" stroke-miterlimit="10" stroke-linecap="round" stroke-linejoin="round"/>
<path fill-rule="evenodd" clip-rule="evenodd" d="M5.73054 1.12477C5.99681 1.12477 6.21267 1.34063 6.21267 1.6069V2.08903H11.034V1.6069C11.034 1.34063 11.2498 1.12477 11.5161 1.12477C11.7824 1.12477 11.9982 1.34063 11.9982 1.6069V2.08903H14.4089C15.2077 2.08903 15.8553 2.73661 15.8553 3.53543V13.1781C15.8553 14.5094 14.776 15.5887 13.4446 15.5887H3.80201C2.47064 15.5887 1.39136 14.5094 1.39136 13.1781V3.53543C1.39136 2.73661 2.03893 2.08903 2.83775 2.08903H5.24841V1.6069C5.24841 1.34063 5.46426 1.12477 5.73054 1.12477ZM5.24841 3.53543V3.0533H2.83775C2.57148 3.0533 2.35562 3.26915 2.35562 3.53543V4.98182H14.891V3.53543C14.891 3.26915 14.6752 3.0533 14.4089 3.0533H11.9982V3.53543C11.9982 3.8017 11.7824 4.01756 11.5161 4.01756C11.2498 4.01756 11.034 3.8017 11.034 3.53543V3.0533H6.21267V3.53543C6.21267 3.8017 5.99681 4.01756 5.73054 4.01756C5.46426 4.01756 5.24841 3.8017 5.24841 3.53543ZM2.35562 13.1781V5.94608H14.891V13.1781C14.891 13.9769 14.2435 14.6244 13.4446 14.6244H3.80201C3.00319 14.6244 2.35562 13.9769 2.35562 13.1781Z" stroke="#FF7E36" stroke-width="0.520702" stroke-miterlimit="10" stroke-linecap="round" stroke-linejoin="round"/>
</svg>
