<svg xmlns="http://www.w3.org/2000/svg" xml:space="preserve" viewBox="0 0 500 500">
  <path fill="#ff6f0f" d="M250 196.2c-63.08 0-114.22 50.05-114.22 113.13 0 87.21 114.54 133.5 114.22 133.36-.32.13 114.21-46.15 114.21-133.36 0-63.07-51.13-113.13-114.21-113.13zm0 158.92c-23.88 0-43.24-19.36-43.24-43.24s19.36-43.24 43.24-43.24 43.24 19.36 43.24 43.24-19.36 43.24-43.24 43.24z"/>
  <path fill="#00a05b" d="M275.72 52.08c-26.66 0-45.22 18.62-48.14 40.55-35.54-9.82-63.38 17.11-63.38 46.91 0 22.73 15.58 41.1 36.45 47.06 16.81 4.8 47.05 1.23 47.05 1.23-.15-7.35 6.61-15.41 17.05-22.76 29.67-20.88 52.9-30.71 56.49-59.18 3.74-29.75-18.37-53.81-45.52-53.81z"/>
</svg>
