<svg xmlns="http://www.w3.org/2000/svg" fill="none" viewBox="0 0 1024 1024">
  <path fill="currentColor" d="M844.351 0C943.568 0 1024 80.432 1024 179.649V371.13c-4.29-.286-8.6-.431-12.94-.431h-.99c-22.9 0-50.992 5.554-70.98 15.617-22.756 10.536-42.823 26.29-59.522 46.968-26.881 33.31-43.167 78.329-47.125 128.92-.128 1.516-.237 3.032-.345 4.549-.109 1.516-.177 2.875-.246 4.322-.138 2.708-.246 5.427-.306 8.154-.098 4.371-.128 8.774-.049 13.204 2.669 114.583 64.564 206.155 174.503 206.155 6.16 0 12.16-.288 18-.852v46.615C1024 943.568 943.568 1024 844.351 1024H179.649C80.432 1024 0 943.568 0 844.351V179.649C0 80.432 80.432 0 179.649 0h664.702ZM188.059 238.194v6.254l.798.177c30.1 6.794 45.382 16.926 45.382 53.466v427.781c0 36.54-15.341 46.672-45.441 53.466l-.798.178v6.272h120.57v-6.253l-.797-.178c-30.101-6.794-45.383-16.925-45.383-53.465V322.905l196.703 462.883h11.156l202.434-475.792v426.461c-2.579 28.86-17.723 37.771-44.978 43.925l-.808.186v6.204h210.026v-6.204l-.808-.186c-27.284-6.154-42.793-15.065-45.372-43.925l-.138-438.366h.138c0-36.54 15.281-46.672 45.372-53.466l.808-.177v-6.254H672.014l-153.123 359.89-153.123-359.89H188.059ZM1024 704.736c-57.308-16.866-98.297-80.157-94.058-155.047l.03-.02H1024v155.067Zm-14.6-310.021c5.18.086 10.05.755 14.6 2.002v131.29h-91.951c3.437-76.862 31.037-132.337 77.351-133.292Z"/>
</svg>
