<svg viewBox="0 0 24 24" fill="none" xmlns="http://www.w3.org/2000/svg">
  <path d="M5.07699 10.269C4.80916 10.269 4.5798 10.3662 4.39039 10.5577C4.1995 10.7506 4.1048 10.9847 4.1048 11.2587C4.1048 11.5326 4.1995 11.7667 4.39039 11.9596C4.58128 12.1525 4.80916 12.2497 5.07699 12.2497C5.34926 12.2497 5.58158 12.1525 5.77543 11.9596C5.96928 11.7667 6.06546 11.534 6.06546 11.2587C6.06546 10.9847 5.96928 10.7506 5.77543 10.5577C5.58158 10.3648 5.34926 10.269 5.07699 10.269Z" fill="currentColor"/>
  <path d="M13.3828 10.2603C13.115 10.2603 12.8856 10.356 12.6962 10.5489C12.5053 10.7418 12.4106 10.976 12.4106 11.2499C12.4106 11.5252 12.5068 11.7579 12.6962 11.9508C12.8856 12.1438 13.115 12.2395 13.3828 12.2395C13.6551 12.2395 13.8874 12.1423 14.0813 11.9508C14.2751 11.7579 14.3713 11.5238 14.3713 11.2499C14.3713 10.976 14.2751 10.7418 14.0813 10.5489C13.8874 10.356 13.6551 10.2603 13.3828 10.2603Z" fill="currentColor"/>
  <path d="M18.9215 10.269C18.6537 10.269 18.4243 10.3662 18.2334 10.5577C18.044 10.7506 17.9478 10.9847 17.9478 11.2587C17.9478 11.5326 18.044 11.7667 18.2334 11.9596C18.4243 12.1525 18.6537 12.2497 18.9215 12.2497C19.1923 12.2497 19.4261 12.1525 19.6199 11.9596C19.8138 11.7667 19.91 11.534 19.91 11.2587C19.91 10.9847 19.8123 10.7506 19.6199 10.5577C19.4261 10.3648 19.1938 10.269 18.9215 10.269Z" fill="currentColor"/>
  <path d="M21.3838 3H2.61619C1.17788 3 0 4.17222 0 5.60362V16.1668C0 17.5982 1.17788 18.7704 2.61619 18.7704H9.98532C9.98532 18.7704 11.4088 22.6376 11.9268 22.6376C12.4461 22.6376 13.9851 18.7704 13.9851 18.7704H21.3838C22.8236 18.7704 24 17.5982 24 16.1668V5.60362C24.0015 4.17222 22.8236 3 21.3838 3ZM6.97552 12.7518C6.60411 13.1685 6.0344 13.3438 5.41291 13.3438C4.85209 13.3438 4.4422 13.1759 4.13885 12.9462H4.12109V13.2436H2.71237V7.12779H4.12109V9.46633H4.13885C4.52062 9.14236 5.0267 9.03191 5.62303 9.01276C6.13355 8.99509 6.66477 9.31318 6.98292 9.67987C7.29959 10.0451 7.53191 10.6179 7.53191 11.2512C7.53191 11.9404 7.34842 12.335 6.97552 12.7518ZM10.0001 13.2893H8.56329C8.56329 13.2893 8.56329 10.076 8.56329 9.50462C8.56329 8.63135 7.86929 8.51649 7.86929 8.51649V7.00115C7.86929 7.00115 9.88322 7.12337 10.0001 9.55175C10.0001 10.2527 10.0001 13.2893 10.0001 13.2893ZM15.6394 12.1289C15.5181 12.4028 15.3435 12.6472 15.1112 12.8622C14.8833 13.0743 14.6214 13.2378 14.3239 13.3511C14.028 13.4645 13.7143 13.522 13.3843 13.522C13.0602 13.522 12.7524 13.4645 12.4595 13.3511C12.165 13.2378 11.9031 13.0743 11.6722 12.8622C11.434 12.6384 11.2549 12.391 11.1321 12.12C11.0108 11.8505 10.9501 11.5619 10.9501 11.2585C10.9501 10.9552 11.0108 10.6665 11.1336 10.3956C11.2564 10.1246 11.4355 9.8772 11.6737 9.65336C11.906 9.43983 12.1679 9.27784 12.4609 9.16444C12.7539 9.05105 13.0617 8.99509 13.3858 8.99509C13.7158 8.99509 14.028 9.05105 14.3254 9.16444C14.6214 9.27784 14.8833 9.4413 15.1126 9.65336C15.345 9.86836 15.5196 10.1128 15.6409 10.3867C15.7608 10.6606 15.8214 10.9507 15.8214 11.2585C15.8185 11.5663 15.7593 11.8564 15.6394 12.1289ZM21.2891 12.7371C21.2891 13.8106 21.0849 14.4659 20.6025 14.921C20.0298 15.4614 19.2145 15.4997 18.5279 15.4025V14.2922C19.1006 14.3496 19.8893 13.9741 19.8878 13.2348V12.9506H19.87C19.5489 13.3924 19.0798 13.5529 18.4554 13.5529C17.8768 13.5529 17.3752 13.3408 17.0363 12.9447C16.696 12.5486 16.5273 12.0184 16.5273 11.3528C16.5273 10.6076 16.7167 10.0142 17.0955 9.57678C17.4728 9.13794 18.0129 8.93324 18.63 8.93324C19.1834 8.93324 19.5312 9.06578 19.8715 9.37503H19.8893V9.0378H21.2891V12.7371Z" fill="currentColor"/>
</svg>
