<svg viewBox="0 0 24 24" fill="none" xmlns="http://www.w3.org/2000/svg">
  <g clip-path="url(#clip0_702_43)">
    <path fill-rule="evenodd" clip-rule="evenodd" d="M21.3904 3.5339C22.4184 3.82139 23.2289 4.66332 23.5057 5.73112C24.0197 7.68193 23.9999 11.7478 23.9999 11.7478C23.9999 11.7478 23.9999 15.7932 23.5057 17.744C23.2289 18.8118 22.4184 19.6537 21.3904 19.9412C19.5123 20.4545 11.9999 20.4545 11.9999 20.4545C11.9999 20.4545 4.50739 20.4545 2.60954 19.9206C1.58154 19.6332 0.771002 18.7912 0.494232 17.7234C0 15.7932 0 11.7273 0 11.7273C0 11.7273 0 7.68193 0.494232 5.73112C0.771002 4.66332 1.60131 3.80086 2.60954 3.51337C4.48763 3 11.9999 3 11.9999 3C11.9999 3 19.5123 3 21.3904 3.5339ZM9.60785 7.99023L15.8549 11.7276L9.60785 15.4649V7.99023Z" fill="currentColor"/>
  </g>
  <defs>
    <clipPath id="clip0_702_43">
      <rect width="24" height="24"/>
    </clipPath>
  </defs>
</svg>

