<svg viewBox="0 0 130 40" fill="none" xmlns="http://www.w3.org/2000/svg">
<path d="M120.171 0H9.53468C9.16798 0 8.80568 0 8.43995 0.002C8.1338 0.004 7.83009 0.00981 7.521 0.0147C6.84951 0.0226018 6.17961 0.0816763 5.5171 0.19141C4.85552 0.303533 4.21467 0.514916 3.61622 0.81841C3.0185 1.12447 2.47235 1.52217 1.99757 1.99707C1.5203 2.47064 1.12246 3.01802 0.81935 3.61816C0.5154 4.21711 0.304641 4.85894 0.19435 5.52148C0.0830109 6.18318 0.0230984 6.85252 0.01515 7.52348C0.00587 7.83008 0.00489 8.1377 0 8.44434V31.5586C0.00489 31.8691 0.00587 32.1699 0.01515 32.4805C0.0231008 33.1514 0.0830134 33.8207 0.19435 34.4824C0.304336 35.1453 0.515108 35.7875 0.81935 36.3867C1.12233 36.9849 1.52022 37.5301 1.99757 38.001C2.47054 38.478 3.01705 38.876 3.61622 39.1797C4.21467 39.484 4.85545 39.6966 5.5171 39.8105C6.17972 39.9194 6.84956 39.9785 7.521 39.9873C7.83009 39.9941 8.1338 39.998 8.43995 39.998C8.80567 40 9.168 40 9.53468 40H120.171C120.531 40 120.896 40 121.255 39.998C121.56 39.998 121.873 39.9941 122.177 39.9873C122.847 39.9789 123.516 39.9198 124.177 39.8105C124.841 39.6958 125.484 39.4833 126.086 39.1797C126.684 38.8758 127.23 38.4778 127.703 38.001C128.179 37.5282 128.578 36.9835 128.884 36.3867C129.186 35.7871 129.395 35.1449 129.503 34.4824C129.615 33.8206 129.677 33.1515 129.689 32.4805C129.693 32.1699 129.693 31.8691 129.693 31.5586C129.701 31.1953 129.701 30.834 129.701 30.4648V9.53613C129.701 9.16992 129.701 8.80664 129.693 8.44434C129.693 8.1377 129.693 7.83008 129.689 7.52344C129.677 6.85242 129.615 6.18324 129.503 5.52144C129.395 4.85928 129.186 4.2175 128.884 3.61812C128.267 2.4152 127.288 1.43603 126.086 0.81832C125.484 0.515567 124.841 0.30424 124.177 0.19132C123.516 0.0811028 122.848 0.0220078 122.177 0.01456C121.873 0.00968 121.56 0.00382 121.255 0.00187C120.896 0 120.531 0 120.171 0Z" fill="#A6A6A6"/>
<path d="M8.44487 39.125C8.14019 39.125 7.84287 39.1211 7.54058 39.1143C6.91436 39.1061 6.2896 39.0516 5.67144 38.9512C5.09503 38.8519 4.53664 38.6673 4.0147 38.4033C3.49754 38.1415 3.02585 37.7983 2.6177 37.3867C2.20364 36.98 1.85891 36.5082 1.59719 35.9902C1.33258 35.4688 1.14945 34.9099 1.05419 34.333C0.951311 33.7131 0.895651 33.0863 0.887687 32.458C0.881347 32.2471 0.873047 31.5449 0.873047 31.5449V8.44434C0.873047 8.44434 0.881887 7.75293 0.887737 7.5498C0.895363 6.92248 0.950699 6.29665 1.05327 5.67773C1.14871 5.09925 1.33197 4.53875 1.59673 4.01563C1.85749 3.49794 2.2003 3.02586 2.61187 2.61768C3.02297 2.20562 3.49617 1.8606 4.01421 1.59521C4.53495 1.33209 5.09228 1.14873 5.66753 1.05127C6.28772 0.949836 6.91465 0.894996 7.54304 0.88721L8.44536 0.875H121.251L122.164 0.8877C122.786 0.895099 123.408 0.94945 124.022 1.05029C124.603 1.14898 125.166 1.33362 125.693 1.59814C126.731 2.13299 127.575 2.97916 128.108 4.01807C128.368 4.53758 128.549 5.09351 128.643 5.66699C128.747 6.29099 128.805 6.92174 128.817 7.5542C128.82 7.8374 128.82 8.1416 128.82 8.44434C128.828 8.81934 128.828 9.17627 128.828 9.53613V30.4648C128.828 30.8281 128.828 31.1826 128.82 31.54C128.82 31.8652 128.82 32.1631 128.816 32.4697C128.804 33.0909 128.747 33.7104 128.645 34.3232C128.552 34.9043 128.37 35.4675 128.105 35.9932C127.841 36.5056 127.499 36.9733 127.089 37.3789C126.681 37.7927 126.208 38.1379 125.69 38.4014C125.165 38.6674 124.603 38.8527 124.022 38.9512C123.404 39.0522 122.779 39.1067 122.153 39.1143C121.86 39.1211 121.553 39.125 121.255 39.125L120.171 39.127L8.44487 39.125Z" fill="black"/>
<path d="M37.9268 25.2842H35.4131V28.7734C36.4521 28.7928 37.4907 28.7163 38.5156 28.5449L38.6079 29.2969C37.4276 29.481 36.2341 29.5675 35.0396 29.5557H34.4946V24.5234H37.9268L37.9268 25.2842ZM40.0141 26.6856H41.0996V27.4512H40.0141V31.2959H39.0869V23.8203H40.0141V26.6856Z" fill="white"/>
<path d="M48.5547 27.5039V28.2422H45.6982V29.6524H44.7622V28.2422H41.7959V27.5039H48.5547ZM42.5825 25.5303C42.5825 24.6641 43.5889 24.0361 45.1797 24.0361C46.7705 24.0361 47.7857 24.6641 47.7857 25.5303C47.7857 26.4092 46.7705 27.0371 45.1885 27.0371C43.5889 27.0371 42.5825 26.4092 42.5825 25.5303ZM43.5537 30.3594H47.7768V31.0938H42.6352V28.9668H43.5537V30.3594ZM43.5273 25.5391C43.5273 26.0176 44.2261 26.3262 45.1753 26.3262C46.1553 26.3262 46.832 26.0176 46.832 25.5391C46.832 25.0508 46.1597 24.7393 45.1797 24.7393C44.2261 24.7393 43.5273 25.0508 43.5273 25.5391Z" fill="white"/>
<path d="M56.1543 29.6133V30.3516H49.3955V29.6133H52.3091V28.3955H50.2612V25.9434H54.3613V25.0332H50.248V24.291H55.2974V26.6904H51.1841V27.6572H55.4863V28.3955H53.232V29.6133L56.1543 29.6133Z" fill="white"/>
<path d="M63.7544 30.3027H56.9956V29.5645H63.7544L63.7544 30.3027ZM62.8843 25.2012H58.7842V27.2578H62.9414V28.0039H57.8701V24.4531H62.8843L62.8843 25.2012Z" fill="white"/>
<path d="M71.1753 26.3565H66.8159V25.623H71.1753L71.1753 26.3565ZM69.0347 29.877C68.7292 29.8388 68.4413 29.7132 68.2054 29.5154C67.9696 29.3176 67.7958 29.0559 67.7051 28.7617C67.6143 28.4676 67.6103 28.1535 67.6936 27.8571C67.777 27.5608 67.9441 27.2948 68.1748 27.0911C68.4056 26.8874 68.6903 26.7546 68.9947 26.7087C69.2991 26.6628 69.6103 26.7057 69.8909 26.8323C70.1715 26.9588 70.4096 27.1637 70.5766 27.4223C70.7436 27.6809 70.8325 27.9822 70.8325 28.29C70.8272 28.5151 70.7754 28.7367 70.6803 28.9408C70.5853 29.145 70.4491 29.3273 70.2803 29.4763C70.1115 29.6253 69.9137 29.7378 69.6993 29.8068C69.485 29.8757 69.2587 29.8996 69.0347 29.877ZM70.1645 25.0557H67.897V24.3047H70.1646L70.1645 25.0557ZM69.0347 29.1465C69.1519 29.1538 69.2695 29.137 69.38 29.0972C69.4906 29.0573 69.5918 28.9953 69.6774 28.9148C69.7631 28.8343 69.8313 28.7371 69.878 28.6293C69.9246 28.5214 69.9487 28.4052 69.9487 28.2876C69.9487 28.1701 69.9246 28.0539 69.878 27.946C69.8313 27.8381 69.7631 27.741 69.6774 27.6605C69.5918 27.58 69.4906 27.518 69.38 27.4781C69.2695 27.4382 69.1519 27.4215 69.0347 27.4288C68.9192 27.4244 68.804 27.4434 68.696 27.4846C68.588 27.5258 68.4894 27.5884 68.4062 27.6686C68.3229 27.7488 68.2567 27.8449 68.2115 27.9513C68.1662 28.0577 68.1429 28.1721 68.1429 28.2876C68.1429 28.4032 68.1662 28.5176 68.2115 28.624C68.2567 28.7304 68.3229 28.8265 68.4062 28.9067C68.4894 28.9869 68.588 29.0494 68.696 29.0907C68.804 29.1319 68.9192 29.1509 69.0347 29.1465ZM72.6909 26.9102H73.7632V27.67H72.6909V31.296H71.769V23.8252H72.6909L72.6909 26.9102Z" fill="white"/>
<path d="M74.9956 29.9375L74.4731 29.2129C75.2514 28.8791 75.9304 28.3503 76.4446 27.6775C76.9588 27.0047 77.2909 26.2106 77.4087 25.3721H74.8901V24.6074H78.3931C78.3826 25.7249 78.0586 26.8169 77.458 27.7592C76.8573 28.7016 76.0042 29.4563 74.9956 29.9375ZM80.6382 31.3008H79.7114V23.8203H80.6382V31.3008Z" fill="white"/>
<path d="M41.1602 16.5542H37.1152L36.1445 19.4224H34.4307L38.2627 8.80908H40.042L43.874 19.4224H42.1309L41.1602 16.5542ZM37.5342 15.23H40.7412L39.1592 10.5747H39.1152L37.5342 15.23Z" fill="white"/>
<path d="M52.1641 15.5542C52.1641 17.9585 50.877 19.5034 48.9355 19.5034C48.4436 19.5294 47.9542 19.4161 47.5236 19.1767C47.093 18.9373 46.7386 18.5815 46.501 18.1499H46.4649V21.9819H44.876V11.6851H46.4131V12.9722H46.4424C46.6909 12.5426 47.0513 12.1885 47.4852 11.9475C47.9191 11.7066 48.4102 11.5879 48.9063 11.604C50.8701 11.604 52.1641 13.1558 52.1641 15.5542ZM50.5313 15.5542C50.5313 13.9868 49.7227 12.9575 48.4873 12.9575C47.2734 12.9575 46.457 14.0093 46.457 15.5542C46.457 17.1128 47.2734 18.1577 48.4873 18.1577C49.7227 18.1577 50.5313 17.1353 50.5313 15.5542Z" fill="white"/>
<path d="M60.6953 15.5542C60.6953 17.9585 59.4082 19.5034 57.4668 19.5034C56.9748 19.5294 56.4855 19.4161 56.0549 19.1767C55.6243 18.9374 55.2699 18.5815 55.0322 18.1499H54.9961V21.9819H53.4072V11.6851H54.9443V12.9722H54.9736C55.2222 12.5426 55.5826 12.1885 56.0165 11.9475C56.4504 11.7066 56.9415 11.5879 57.4375 11.604C59.4014 11.604 60.6953 13.1558 60.6953 15.5542ZM59.0625 15.5542C59.0625 13.9868 58.2539 12.9575 57.0186 12.9575C55.8047 12.9575 54.9883 14.0093 54.9883 15.5542C54.9883 17.1128 55.8047 18.1577 57.0186 18.1577C58.2539 18.1577 59.0625 17.1353 59.0625 15.5542Z" fill="white"/>
<path d="M66.354 16.4653C66.4721 17.5171 67.4936 18.2085 68.8911 18.2085C70.23 18.2085 71.1938 17.5171 71.1938 16.5688C71.1938 15.7446 70.6128 15.2524 69.2368 14.9136L67.8618 14.5825C65.9126 14.1118 65.0083 13.2007 65.0083 11.7222C65.0083 9.89112 66.604 8.6333 68.8696 8.6333C71.1128 8.6333 72.6499 9.89111 72.7016 11.7222H71.0981C71.0024 10.6626 70.1274 10.023 68.8471 10.023C67.5678 10.023 66.6928 10.6704 66.6928 11.6118C66.6928 12.3618 67.2514 12.8032 68.6196 13.1411L69.7886 13.4282C71.9653 13.9429 72.8706 14.8179 72.8706 16.3706C72.8706 18.356 71.2895 19.5991 68.7739 19.5991C66.4204 19.5991 64.832 18.3853 64.7294 16.4653L66.354 16.4653Z" fill="white"/>
<path d="M76.2993 9.854V11.6851H77.77V12.9429H76.2993V17.2085C76.2993 17.8706 76.5932 18.1792 77.2407 18.1792C77.415 18.1765 77.5891 18.1645 77.7622 18.1431V19.3931C77.4715 19.4472 77.176 19.4717 76.8803 19.4663C75.313 19.4663 74.7026 18.8784 74.7026 17.3774V12.9429H73.5776V11.6851H74.7026V9.854H76.2993Z" fill="white"/>
<path d="M78.6401 15.5542C78.6401 13.1196 80.0737 11.5894 82.3101 11.5894C84.5532 11.5894 85.98 13.1196 85.98 15.5542C85.98 17.9956 84.561 19.5181 82.3101 19.5181C80.0591 19.5181 78.6401 17.9956 78.6401 15.5542ZM84.3618 15.5542C84.3618 13.8843 83.5972 12.8989 82.3101 12.8989C81.023 12.8989 80.2583 13.8911 80.2583 15.5542C80.2583 17.231 81.023 18.2085 82.3101 18.2085C83.5972 18.2085 84.3618 17.231 84.3618 15.5542Z" fill="white"/>
<path d="M87.2905 11.6851H88.8052V13.0015H88.8423C88.9446 12.5903 89.1855 12.2268 89.5243 11.9723C89.8631 11.7178 90.2792 11.5878 90.7026 11.604C90.886 11.6029 91.0688 11.6228 91.2476 11.6636V13.1489C91.0164 13.0784 90.7753 13.0461 90.5337 13.0532C90.3031 13.0438 90.0731 13.0844 89.8597 13.1723C89.6462 13.2601 89.4543 13.3932 89.2971 13.5622C89.14 13.7313 89.0212 13.9323 88.9491 14.1516C88.877 14.3709 88.8532 14.6032 88.8794 14.8325V19.4224H87.2905V11.6851Z" fill="white"/>
<path d="M98.5698 17.1499C98.3953 17.8812 97.9614 18.5243 97.3486 18.9598C96.7358 19.3953 95.9858 19.5937 95.2378 19.5181C92.9878 19.5181 91.5904 18.0103 91.5904 15.5903C91.5904 13.1636 92.9947 11.5893 95.1724 11.5893C97.312 11.5893 98.6577 13.06 98.6577 15.4067V15.9507H93.1939V16.0464C93.1686 16.3311 93.2042 16.6179 93.2983 16.8879C93.3924 17.1578 93.5429 17.4046 93.7397 17.6118C93.9365 17.8191 94.1752 17.9821 94.4399 18.0901C94.7046 18.198 94.9892 18.2483 95.2749 18.2378C95.6502 18.273 96.0268 18.1862 96.3488 17.9902C96.6708 17.7942 96.9209 17.4995 97.062 17.1499H98.5698ZM93.2007 14.8403H97.0698C97.084 14.5843 97.0451 14.3282 96.9556 14.0879C96.8661 13.8477 96.728 13.6285 96.5499 13.4441C96.3717 13.2598 96.1574 13.1142 95.9204 13.0165C95.6833 12.9188 95.4287 12.8711 95.1724 12.8765C94.9137 12.8749 94.6572 12.9245 94.4178 13.0226C94.1783 13.1206 93.9607 13.2651 93.7774 13.4476C93.5941 13.6302 93.4488 13.8473 93.3498 14.0863C93.2508 14.3253 93.2001 14.5816 93.2007 14.8403Z" fill="white"/>
<path d="M105.087 8.98779H106.326V18.9165H105.087V13.9048H104.18C104.067 15.6753 103.348 17.2144 101.896 17.2144C100.301 17.2144 99.5942 15.3628 99.5942 13.3862C99.5942 11.4087 100.301 9.59523 101.896 9.59523C103.317 9.59523 104.036 11.0337 104.173 12.7476H105.087L105.087 8.98779ZM102.979 13.3862C102.979 11.9282 102.628 10.8149 101.896 10.8149C101.183 10.8149 100.858 11.9282 100.858 13.3862C100.858 14.8501 101.183 15.9507 101.896 15.9507C102.628 15.9507 102.979 14.8501 102.979 13.3862ZM108.49 8.7749V19.4165H107.251V8.7749H108.49Z" fill="white"/>
<path d="M114.087 11.271C114.044 12.2087 114.268 13.1395 114.733 13.9548C115.198 14.7701 115.886 15.4362 116.715 15.8755L115.946 16.8706C114.809 16.224 113.921 15.2153 113.424 14.0054C112.974 15.3223 112.069 16.4357 110.872 17.146L110.058 16.1821C110.906 15.6931 111.603 14.9804 112.073 14.1221C112.543 13.2637 112.768 12.2926 112.724 11.3149V9.66943H114.087L114.087 11.271ZM119.074 19.4165H117.748V13.5669H115.614V12.4478H117.748V8.7749H119.074V19.4165Z" fill="white"/>
<path d="M24.769 20.3006C24.7797 19.466 25.0014 18.6476 25.4135 17.9216C25.8255 17.1957 26.4145 16.5857 27.1256 16.1486C26.6738 15.5034 26.0779 14.9725 25.385 14.5979C24.6922 14.2234 23.9216 14.0155 23.1344 13.9909C21.4552 13.8146 19.8272 14.9957 18.9715 14.9957C18.0992 14.9957 16.7817 14.0084 15.363 14.0376C14.4453 14.0672 13.551 14.3341 12.7671 14.8121C11.9832 15.2902 11.3365 15.9632 10.8901 16.7654C8.95607 20.1139 10.3987 25.0349 12.2513 27.7415C13.1782 29.0669 14.2615 30.5473 15.6789 30.4948C17.066 30.4373 17.584 29.6103 19.2583 29.6103C20.9171 29.6103 21.4031 30.4948 22.8493 30.4614C24.3377 30.4373 25.2754 29.1302 26.1698 27.7923C26.8358 26.8479 27.3483 25.8042 27.6882 24.6998C26.8235 24.3341 26.0856 23.7219 25.5665 22.9396C25.0474 22.1573 24.77 21.2395 24.769 20.3006Z" fill="white"/>
<path d="M22.0374 12.2108C22.8489 11.2366 23.2487 9.98445 23.1519 8.72021C21.9121 8.85044 20.7668 9.44299 19.9443 10.3798C19.5422 10.8375 19.2342 11.3699 19.0379 11.9467C18.8417 12.5235 18.761 13.1333 18.8006 13.7412C19.4207 13.7476 20.0342 13.6132 20.5949 13.3481C21.1556 13.083 21.6488 12.6942 22.0374 12.2108Z" fill="white"/>
</svg>
