<svg width="500" height="500" viewBox="0 0 500 500" fill="none" xmlns="http://www.w3.org/2000/svg">
  <path d="M250.001 205.181C194.776 205.181 150 249.008 150 304.233C150 380.593 250.283 421.111 250.001 421C249.719 421.111 350.001 380.593 350.001 304.233C350.001 249.008 305.225 205.181 250.001 205.181ZM250.001 344.324C229.096 344.324 212.141 327.377 212.141 306.464C212.141 285.559 229.087 268.605 250.001 268.605C270.914 268.605 287.86 285.551 287.86 306.464C287.86 327.377 270.905 344.324 250.001 344.324Z" fill="#FF6F0F"/>
  <path d="M272.513 79C249.172 79 232.927 95.3048 230.37 114.508C199.248 105.915 174.872 129.488 174.872 155.582C174.872 175.487 188.509 191.569 206.781 196.785C221.495 200.983 247.975 197.862 247.975 197.862C247.838 191.424 253.763 184.37 262.903 177.941C288.878 159.661 309.218 151.051 312.365 126.119C315.648 100.067 296.291 79 272.513 79Z" fill="#00A05B"/>
</svg>
