<svg xmlns="http://www.w3.org/2000/svg" xmlns:xlink="http://www.w3.org/1999/xlink">
  <symbol id="icon_backward_regular" width="24" height="24" viewBox="0 0 24 24" fill="none" xmlns="http://www.w3.org/2000/svg" data-karrot-ui-icon="true">
  <path d="M12.5661 19.4344C12.8785 19.7468 12.8785 20.2533 12.5661 20.5657C12.2537 20.8782 11.7472 20.8782 11.4348 20.5657L3.43475 12.5657C3.12234 12.2533 3.12234 11.7468 3.43475 11.4344L11.4348 3.43436C11.7472 3.12194 12.2537 3.12194 12.5661 3.43436C12.8785 3.74678 12.8785 4.25331 12.5661 4.56573L5.93181 11.2L20 11.2C20.4419 11.2 20.8 11.5582 20.8 12C20.8 12.4419 20.4419 12.8 20 12.8L5.93181 12.8L12.5661 19.4344Z" fill="currentColor"/>
  </symbol>
  <symbol id="icon_search_regular" width="24" height="24" viewBox="0 0 24 24" fill="none" xmlns="http://www.w3.org/2000/svg" data-karrot-ui-icon="true">
  <path fill-rule="evenodd" clip-rule="evenodd" d="M10.5002 2.19995C5.91623 2.19995 2.2002 5.91599 2.2002 10.5C2.2002 15.0839 5.91623 18.8 10.5002 18.8C12.5041 18.8 14.3421 18.0898 15.7763 16.9075L20.4345 21.5656C20.7469 21.8781 21.2535 21.8781 21.5659 21.5656C21.8783 21.2532 21.8783 20.7467 21.5659 20.4343L16.9077 15.7761C18.0901 14.3419 18.8002 12.5038 18.8002 10.5C18.8002 5.91599 15.0842 2.19995 10.5002 2.19995ZM3.8002 10.5C3.8002 6.79964 6.79989 3.79995 10.5002 3.79995C14.2005 3.79995 17.2002 6.79964 17.2002 10.5C17.2002 14.2003 14.2005 17.2 10.5002 17.2C6.79989 17.2 3.8002 14.2003 3.8002 10.5Z" fill="currentColor"/>
  </symbol>
  <symbol id="icon_expand_more_regular" width="24" height="24" viewBox="0 0 24 24" fill="none" xmlns="http://www.w3.org/2000/svg" data-karrot-ui-icon="true">
  <path fill-rule="evenodd" clip-rule="evenodd" d="M2.93427 7.43427C3.24669 7.12185 3.75322 7.12185 4.06564 7.43427L12 15.3686L19.9343 7.43427C20.2467 7.12185 20.7532 7.12185 21.0656 7.43427C21.3781 7.74669 21.3781 8.25322 21.0656 8.56564L12.5656 17.0656C12.2532 17.3781 11.7467 17.3781 11.4343 17.0656L2.93427 8.56564C2.62185 8.25322 2.62185 7.74669 2.93427 7.43427Z" fill="currentColor"/>
  </symbol>
  <symbol id="icon_chevron_right_regular" width="24" height="24" viewBox="0 0 24 24" fill="none" xmlns="http://www.w3.org/2000/svg" data-karrot-ui-icon="true">
  <path fill-rule="evenodd" clip-rule="evenodd" d="M8.42511 3.22988L16.6551 11.4499C16.9551 11.7499 16.9551 12.2399 16.6551 12.5399L8.42511 20.7699C8.12511 21.0699 7.63511 21.0699 7.33511 20.7699C7.03511 20.4699 7.03511 19.9799 7.33511 19.6799L15.0151 11.9999L7.33511 4.31988C7.03511 4.01988 7.03511 3.52988 7.33511 3.22988C7.63511 2.92988 8.12511 2.92988 8.42511 3.22988Z" fill="currentColor"/>
  </symbol>
</svg>
