<svg width="100" height="28" viewBox="0 0 100 28" fill="none" xmlns="http://www.w3.org/2000/svg">
<path d="M10.4881 5.12549C4.69831 5.12549 0 9.82379 0 15.6136C0 18.034 0.854237 20.2645 2.23051 22.0679C2.32542 22.2102 2.4678 22.3526 2.56271 22.4475C2.70509 22.6374 2.89492 22.8272 3.08475 23.017C5.07797 25.1526 7.64068 26.7662 10.4881 27.6204C13.3356 26.7662 15.8983 25.1526 17.8915 23.017C18.0814 22.8272 18.2237 22.6374 18.4136 22.4475C18.5085 22.3051 18.6508 22.1628 18.7458 22.0679C20.122 20.3119 20.9763 18.0814 20.9763 15.6136C20.9763 9.82379 16.278 5.12549 10.4881 5.12549ZM10.4881 19.6001C8.25763 19.6001 6.45424 17.7967 6.45424 15.5662C6.45424 13.3357 8.25763 11.5323 10.4881 11.5323C12.7186 11.5323 14.4746 13.3357 14.4746 15.5662C14.4746 17.7967 12.7186 19.6001 10.4881 19.6001Z" fill="#FF8A3D"/>
<path d="M13.9051 4.88814C14.617 4.74576 15.139 4.12881 15.139 3.36949C15.139 2.51525 14.4271 1.85085 13.6204 1.85085C13.3831 1.85085 13.1458 1.8983 12.956 1.99322C12.6712 0.854237 11.6746 0 10.4882 0C9.30172 0 8.30511 0.854237 8.06782 1.99322C7.87799 1.8983 7.6407 1.85085 7.40341 1.85085C6.54917 1.85085 5.88477 2.56271 5.88477 3.36949C5.88477 4.12881 6.4068 4.74576 7.11866 4.88814C8.21019 4.50847 9.34917 4.31864 10.5356 4.31864C11.7221 4.31864 12.8136 4.50847 13.9051 4.88814Z" fill="#56C271"/>
<path d="M41.1456 9.49148H36.3998L32.271 15.0915V4.93555H28.0947V23.5389H32.271V18.4135L36.21 23.5389H41.3829L35.7829 16.4678L41.1456 9.49148Z" fill="#FF8A3D"/>
<path d="M50.5899 10.3457C50.1628 10.061 49.6882 9.87115 49.1187 9.68132C48.4068 9.44404 47.6475 9.34912 46.8407 9.34912C45.8916 9.34912 44.9424 9.53895 44.0882 9.91861C43.2339 10.2983 42.4746 10.8203 41.8577 11.4373C41.2407 12.1017 40.7187 12.861 40.339 13.7152C39.9594 14.6169 39.7695 15.5661 39.7695 16.5627C39.7695 17.5593 39.9594 18.5084 40.339 19.4101C40.7187 20.2644 41.2407 21.0237 41.8577 21.6406C42.4746 22.2576 43.2339 22.7796 44.0882 23.1593C44.9424 23.539 45.8441 23.7288 46.8407 23.7288C47.6475 23.7288 48.4068 23.6339 49.1187 23.3966C49.6407 23.2542 50.1628 23.0169 50.5899 22.7322V23.539H54.7187V9.49149H50.5899V10.3457ZM45.8441 19.7423C45.4644 19.5525 45.0848 19.3152 44.8 19.0305C44.5153 18.6983 44.278 18.3661 44.0882 17.939C43.8983 17.5118 43.8509 17.0847 43.8509 16.6101C43.8509 16.1356 43.9458 15.7084 44.0882 15.2813C44.278 14.8542 44.5153 14.4745 44.8 14.1898C45.0848 13.9051 45.4644 13.6203 45.8441 13.4779C46.2238 13.2881 46.6983 13.1932 47.1729 13.1932C47.6475 13.1932 48.1221 13.2881 48.5017 13.4779C48.9289 13.6678 49.3085 13.9051 49.5933 14.1898C49.9255 14.4745 50.1628 14.8542 50.3526 15.2813C50.5424 15.7084 50.6373 16.1356 50.6373 16.6101C50.6373 17.0847 50.5424 17.5593 50.4 17.939C50.2102 18.3661 49.9729 18.6983 49.6882 19.0305C49.356 19.3627 49.0238 19.6 48.5967 19.7423C47.695 20.0745 46.6509 20.0745 45.8441 19.7423Z" fill="#FF8A3D"/>
<path d="M61.8375 9.91871C61.3629 10.2035 60.8884 10.5357 60.5087 10.9628V9.53905H56.3799V23.539H60.5562V17.0848C60.5562 15.9933 60.8409 15.0916 61.4104 14.4272C61.9799 13.8102 62.929 13.478 64.2104 13.478H64.4477V9.30176H64.2104C63.3562 9.30176 62.5494 9.49159 61.8375 9.91871Z" fill="#FF8A3D"/>
<path d="M71.4239 9.91871C70.9494 10.2035 70.4748 10.5357 70.0951 10.9628V9.53905H65.9663V23.539H70.1426V17.0848C70.1426 15.9933 70.4273 15.0916 70.9968 14.4272C71.5663 13.8102 72.5155 13.478 73.7968 13.478H74.0341V9.30176H73.7968C72.9426 9.30176 72.1358 9.49159 71.4239 9.91871Z" fill="#FF8A3D"/>
<path d="M87.2272 11.3424C86.5628 10.678 85.756 10.1559 84.8543 9.77628C83.9526 9.39662 82.956 9.20679 81.8645 9.20679C80.8204 9.20679 79.7764 9.39662 78.8747 9.77628C77.973 10.1559 77.1662 10.678 76.5018 11.3424C75.8374 12.0068 75.3154 12.7661 74.9357 13.6678C74.556 14.5695 74.3662 15.5187 74.3662 16.5153C74.3662 17.5119 74.556 18.5085 74.9357 19.3627C75.3154 20.2644 75.8374 21.0237 76.5018 21.6881C77.1662 22.3526 77.973 22.8746 78.8747 23.2068C79.7764 23.5865 80.773 23.7763 81.8645 23.7763C82.9086 23.7763 83.9526 23.5865 84.8543 23.2068C85.756 22.8271 86.5628 22.3051 87.2272 21.6407C87.8916 20.9763 88.4137 20.217 88.7933 19.3153C89.173 18.4136 89.3628 17.4644 89.3628 16.4678C89.3628 15.4712 89.173 14.4746 88.7933 13.6203C88.4611 12.8136 87.9391 12.0068 87.2272 11.3424ZM80.5357 13.2881C80.9628 13.0983 81.3899 13.0509 81.8645 13.0509C82.3391 13.0509 82.8137 13.1458 83.1933 13.2881C83.6204 13.478 83.9527 13.7153 84.2849 14C84.5696 14.3322 84.8069 14.6644 84.9967 15.0915C85.1865 15.5187 85.234 15.9932 85.234 16.5153C85.234 17.0373 85.1391 17.5119 84.9493 17.939C84.7594 18.3661 84.5221 18.7458 84.1899 19.0305C83.8577 19.3627 83.5255 19.6 83.0984 19.7898C82.2442 20.1695 81.2001 20.1695 80.3933 19.7898C79.9662 19.6 79.634 19.3627 79.3493 19.0305C79.0645 18.6983 78.8272 18.3661 78.6374 17.939C78.495 17.5119 78.4001 17.0373 78.4001 16.5153C78.4001 15.9932 78.495 15.5187 78.6374 15.0915C78.8272 14.6644 79.0645 14.2848 79.3493 14C79.7289 13.7153 80.1086 13.478 80.5357 13.2881Z" fill="#FF8A3D"/>
<path d="M99.2814 13.2407V9.49151H95.9593V6.0271H91.8305V9.49151H89.8848V13.2407H91.8305V18.6508C91.8305 20.2644 92.2576 21.4508 93.1593 22.3051C94.0136 23.1118 95.4373 23.539 97.2881 23.539H99.3288V19.9322H97.5729C97.0034 19.9322 96.6237 19.8373 96.3865 19.6C96.1492 19.4102 96.0068 19.0305 96.0068 18.461V13.2407H99.2814Z" fill="#FF8A3D"/>
</svg>
