<svg viewBox="0 0 32 32" fill="none" xmlns="http://www.w3.org/2000/svg">
  <circle cx="16" cy="16" r="15.5" stroke="currentColor"/>
  <path fill-rule="evenodd" clip-rule="evenodd" d="M15.8845 10.0346C16.1969 9.72219 16.7035 9.72219 17.0159 10.0346L22.4157 15.4344C22.5657 15.5844 22.65 15.7879 22.65 16.0001C22.65 16.2123 22.5657 16.4157 22.4157 16.5658L17.0159 21.9656C16.7035 22.278 16.1969 22.278 15.8845 21.9656C15.5721 21.6532 15.5721 21.1466 15.8845 20.8342L19.9186 16.8001H9.70039C9.25856 16.8001 8.90039 16.4419 8.90039 16.0001C8.90039 15.5583 9.25856 15.2001 9.70039 15.2001H19.9186L15.8845 11.166C15.5721 10.8536 15.5721 10.347 15.8845 10.0346Z" fill="currentColor"/>
</svg>

