<svg viewBox="0 0 179 125" fill="none" xmlns="http://www.w3.org/2000/svg">
<path fill-rule="evenodd" clip-rule="evenodd" d="M32.664 46.8912C32.664 46.8912 7.04792 34.2436 17.3798 22.0651C24.9302 13.1668 41.2343 27.052 41.2343 27.052C41.2343 27.052 30.6641 14.0489 38.6442 6.07108C46.6253 -1.90758 66.0218 13.1032 71.7557 27.052C71.7557 27.052 115.363 28.4194 109.681 64.9511C109.681 64.9511 131.439 55.6884 133.946 77.2988C133.946 77.2988 148.09 81.6929 159.825 83.7865C171.56 85.8801 177.668 87.0998 176.942 95.0184C176.216 102.938 166.364 102.932 166.364 102.932C166.364 102.932 172.435 106.731 172.665 112.894C172.894 119.057 166.565 120.971 159.819 120.791C153.073 120.613 127.136 119.252 115.182 118.713C103.229 118.174 66.8388 115.879 66.8388 115.879C66.8388 115.879 41.0207 130.096 31.085 118.755C21.1501 107.415 30.213 96.1602 30.213 96.1602C30.213 96.1602 25.6399 90.0736 29.7638 84.1931C29.7638 84.1931 21.835 78.0832 25.5354 65.4929C29.2357 52.9034 32.664 46.8912 32.664 46.8912" fill="#FEFEFE"/>
<path fill-rule="evenodd" clip-rule="evenodd" d="M39.4484 67.063C39.4484 67.063 37.1924 83.7089 49.2929 87.2049C61.3934 90.6999 86.4061 86.3864 91.6952 70.4094C96.9851 54.4332 87.9762 46.194 83.5458 44.1201C79.1153 42.0461 73.828 41.7739 73.828 41.7739C73.828 41.7739 73.5037 50.7018 69.5162 52.045C65.5288 53.3882 61.9065 44.1201 61.9065 44.1201C61.9065 44.1201 58.8831 59.0592 51.9415 59.2088L49.2132 54.3929C49.2132 54.3929 45.2683 68.0525 39.4484 67.063" fill="#FCECE3"/>
<path fill-rule="evenodd" clip-rule="evenodd" d="M68.0891 36.1595C68.0891 36.1595 73.8168 35.9455 74.0941 42.1574C74.3706 48.3702 70.182 51.9843 69.3925 52.0801C68.6021 52.176 63.3157 48.1374 62.5572 45.5951L61.135 46.3446C61.135 46.3446 61.1137 50.5417 58.9047 53.6221C56.6957 56.7035 51.5537 59.3218 51.5537 59.3218L49.3243 53.3589C49.3243 53.3589 47.1232 66.5573 40.7549 66.7256C34.3856 66.8948 38.5689 52.2968 42.9284 49.2701C47.2898 46.2434 50.4638 44.5483 50.4638 44.5483C50.4638 44.5483 51.6582 40.5285 55.5934 39.2167C59.5285 37.9039 64.2913 38.7994 64.2913 38.7994C64.2913 38.7994 65.421 35.5954 68.0891 36.1595" fill="#C9E4CC"/>
<path fill-rule="evenodd" clip-rule="evenodd" d="M86.5195 56.8232C87.3215 57.998 86.8678 59.7209 85.505 60.6719C84.1422 61.622 82.3868 61.4411 81.5849 60.2663C80.7821 59.0914 81.2366 57.3685 82.5986 56.4175C83.9614 55.4665 85.7167 55.6483 86.5195 56.8232" fill="#EACCC3"/>
<path fill-rule="evenodd" clip-rule="evenodd" d="M52.582 76.3234C53.3511 77.449 52.9152 79.1003 51.6091 80.0119C50.3039 80.9235 48.6212 80.7488 47.8521 79.6232C47.0829 78.4976 47.518 76.8455 48.8241 75.9348C50.1302 75.0232 51.8129 75.1978 52.582 76.3234" fill="#EACCC3"/>
<path fill-rule="evenodd" clip-rule="evenodd" d="M63.7503 72.9505C63.0033 72.0586 64.6417 69.1886 65.6819 68.0666C66.7222 66.9445 70.5971 66.9902 71.4265 68.4328C72.2558 69.8754 71.9962 73.4654 69.6667 74.1074C67.3371 74.7486 65.2646 74.7593 63.7503 72.9505" fill="#F6BA9D"/>
<path fill-rule="evenodd" clip-rule="evenodd" d="M55.4419 66.4924C56.8632 69.0982 57.036 71.756 55.8273 72.4294C54.6187 73.1028 52.4868 71.5366 51.0655 68.9308C49.6442 66.3249 49.4714 63.6663 50.68 62.9929C51.8886 62.3204 54.0206 63.8866 55.4419 66.4924" fill="#212124"/>
<path fill-rule="evenodd" clip-rule="evenodd" d="M75.3427 56.124C76.484 58.8669 76.3768 61.5291 75.1052 62.0691C73.8328 62.6099 71.8763 60.8244 70.7359 58.0815C69.5946 55.3378 69.7009 52.6765 70.9734 52.1356C72.2458 51.5956 74.2014 53.3812 75.3427 56.124" fill="#212124"/>
<path d="M46.9362 46.3442C36.8002 51.4475 37.3664 64.7847 39.9042 66.4637C42.8761 68.4293 49.1328 59.1871 49.2135 50.6524" stroke="#212124" stroke-width="2.7" stroke-linecap="round" stroke-linejoin="round"/>
<path d="M60.6979 44.5918C61.444 53.9638 54.8382 59.3429 52.2712 59.3214C48.212 59.2883 46.0455 37.8453 60.0121 38.5688" stroke="#212124" stroke-width="2.7" stroke-linecap="round" stroke-linejoin="round"/>
<path d="M68.3542 36.1595C78.0366 37.8457 72.6137 52.0694 69.2031 52.0802C64.731 52.0954 58.5797 43.9609 65.3743 37.021" stroke="#212124" stroke-width="2.7" stroke-linecap="round" stroke-linejoin="round"/>
<path d="M39.4486 67.0629C36.7983 83.3122 50.7861 94.297 71.5916 87.0007C105.251 75.1974 95.1351 41.1686 75.198 41.6915" stroke="#212124" stroke-width="2.7" stroke-linecap="round" stroke-linejoin="round"/>
<path fill-rule="evenodd" clip-rule="evenodd" d="M60.6291 66.7697C61.3602 68.1792 63.4903 68.5069 65.3848 67.5022C67.2802 66.4984 68.2238 64.5418 67.4928 63.1323C66.7618 61.7228 64.6325 61.3951 62.7372 62.3998C60.8418 63.4045 59.8981 65.3611 60.6291 66.7697" fill="#212124"/>
<path fill-rule="evenodd" clip-rule="evenodd" d="M65.5645 67.899C64.2992 68.8016 62.418 70.9874 63.7489 73.1634C65.0798 75.3394 68.2892 74.6669 69.5421 73.955C70.7942 73.2422 72.7516 71.1459 71.9302 69.2475C71.1079 67.3482 67.7319 66.3534 65.5645 67.899Z" stroke="#212124" stroke-width="2.7" stroke-linecap="round" stroke-linejoin="round"/>
<path d="M29.9329 84.3009C27.2126 82.7338 21.0348 73.2194 28.4558 56.5188" stroke="#212124" stroke-width="2.7" stroke-linecap="round" stroke-linejoin="round"/>
<path d="M29.933 52.0804C31.4101 48.0338 39.1271 34.1539 55.9248 31.4675" stroke="#212124" stroke-width="2.7" stroke-linecap="round" stroke-linejoin="round"/>
<path d="M66.3469 27.886C91.0733 22.6627 116.327 42.8109 109.681 64.9514" stroke="#212124" stroke-width="2.7" stroke-linecap="round" stroke-linejoin="round"/>
<path d="M31.8526 46.3442C23.5827 44.3035 11.1774 31.1696 17.3801 22.0653C23.5827 12.9619 42.0427 26.5426 47.3105 34.07" stroke="#212124" stroke-width="2.7" stroke-linecap="round" stroke-linejoin="round"/>
<path d="M71.7559 26.5428C69.2163 20.424 50.4604 -3.67942 39.1273 5.64873C28.2142 14.6294 48.0671 33.7344 48.0671 33.7344" stroke="#212124" stroke-width="2.7" stroke-linecap="round" stroke-linejoin="round"/>
<path d="M53.254 107.919C53.4888 103.33 54.7072 94.4868 50.8305 90.6811C46.9539 86.8753 35.8405 78.0325 29.9329 84.3008C24.0262 90.5691 32.4441 98.9642 32.4441 98.9642" stroke="#212124" stroke-width="2.7" stroke-linecap="round" stroke-linejoin="round"/>
<path d="M66.3467 115.799C61.312 118.262 40.7254 129.186 30.6718 118.329C22.6943 109.715 29.9328 95.7261 29.9328 95.7261" stroke="#212124" stroke-width="2.7" stroke-linecap="round" stroke-linejoin="round"/>
<path d="M61.9064 98.1434C60.4292 97.4718 57.5237 96.2782 53.2537 95.6809" stroke="#212124" stroke-width="2.7" stroke-linecap="round" stroke-linejoin="round"/>
<path d="M74.9763 91.1664C76.5269 90.1966 78.8901 89.4497 80.8838 87.9579" stroke="#212124" stroke-width="2.7" stroke-linecap="round" stroke-linejoin="round"/>
<path d="M94.6177 76.5403C101.411 71.1674 114.191 58.0998 127.255 64.9511C138.221 70.7018 132.748 88.3865 131.284 92.3293C128.958 98.5976 122.82 107.882 115.07 104.748C107.318 101.614 108.943 88.331 111.749 79.2267" stroke="#212124" stroke-width="2.7" stroke-linecap="round" stroke-linejoin="round"/>
<path d="M66.3469 115.799C72.7613 116.985 116.401 118.776 132.573 119.448C148.744 120.12 151.624 120.791 159.82 120.791C168.016 120.791 172.096 119.243 172.612 114.075C173.158 108.615 169.64 103.031 163.216 102.807C156.792 102.584 146.307 101.315 146.307 101.315" stroke="#212124" stroke-width="2.7" stroke-linecap="round" stroke-linejoin="round"/>
<path d="M133.946 77.2985C137.269 78.2369 140.978 80.027 150.852 82.0946C157.383 83.4611 163.843 84.4954 167.573 84.9163C176.489 85.9237 177.273 91.9771 176.895 95.6216C176.049 103.755 164.51 102.931 164.51 102.931" stroke="#212124" stroke-width="2.7" stroke-linecap="round" stroke-linejoin="round"/>
<path d="M79.6485 6.04139C79.4163 5.05189 79.1842 4.06239 78.952 3.0729C78.8865 2.79261 78.8218 2.48815 78.9352 2.22309C79.0911 1.85774 79.5173 1.7073 79.9019 1.62581C81.099 1.3715 82.39 1.41179 83.4914 1.94997C84.5929 2.48815 85.4656 3.57884 85.5569 4.81101C85.7226 7.05148 83.4294 9.09495 84.0577 11.2495" stroke="#212124" stroke-width="2.7" stroke-linecap="round" stroke-linejoin="round"/>
<path d="M85.0578 16.0945C85.3573 16.2638 85.1039 16.8467 84.7778 16.7375C84.5757 16.4554 84.8283 15.9835 85.1721 16.0005" stroke="#212124" stroke-width="2.7" stroke-linecap="round" stroke-linejoin="round"/>
<path d="M2.53027 57.2499C1.89937 56.9276 1.85064 55.9551 2.28217 55.3883C2.71458 54.8223 3.44472 54.585 4.14208 54.4641C5.1921 54.2815 6.48579 54.4077 6.99884 55.3498C7.54733 56.3554 6.85707 57.5643 6.21642 58.5108C5.57489 59.4582 4.95285 60.7351 5.60236 61.6763" stroke="#212124" stroke-width="2.7" stroke-linecap="round" stroke-linejoin="round"/>
<path d="M6.90624 65.7404C7.01523 65.6374 7.16764 65.5837 7.31651 65.5944C7.3679 65.8049 7.34841 66.0484 7.20309 66.2087C7.05865 66.3699 6.7689 66.3959 6.63776 66.2239C6.50661 66.052 6.67852 65.7368 6.88498 65.7986" stroke="#212124" stroke-width="2.7" stroke-linecap="round" stroke-linejoin="round"/>
<path d="M122.682 36.8955C122.159 36.4177 122.369 35.467 122.935 35.0345C123.502 34.6031 124.269 34.5674 124.974 34.6353C126.034 34.7369 127.249 35.2008 127.494 36.245C127.757 37.3599 126.772 38.3431 125.904 39.0865C125.034 39.8304 124.097 40.8974 124.474 41.9768" stroke="#212124" stroke-width="2.7" stroke-linecap="round" stroke-linejoin="round"/>
<path d="M124.656 46.2411C124.789 46.1706 124.95 46.1591 125.091 46.2088C125.085 46.4254 125.001 46.6551 124.819 46.7712C124.637 46.8885 124.351 46.8369 124.27 46.6364C124.189 46.4359 124.438 46.1774 124.621 46.2916" stroke="#212124" stroke-width="2.7" stroke-linecap="round" stroke-linejoin="round"/>
<path d="M4.44907 89.731C4.77072 88.7218 5.5239 87.8604 6.47645 87.4144C7.14279 87.1019 8.10154 87.0831 8.44092 87.7413C8.52332 87.8998 8.55611 88.0789 8.57915 88.2562C8.72358 89.4185 8.40547 90.6336 7.71166 91.573C7.569 91.7655 7.40773 91.9518 7.33241 92.181C7.09937 92.8902 7.76926 93.6944 7.46887 94.3776" stroke="#212124" stroke-width="2.7" stroke-linecap="round" stroke-linejoin="round"/>
<path d="M8.379 98.7303C8.768 98.6461 9.18358 98.6936 9.54422 98.8646C9.32978 99.3338 8.63331 99.4807 8.24963 99.1386" stroke="#212124" stroke-width="2.7" stroke-linecap="round" stroke-linejoin="round"/>
</svg>
