<svg width="438" height="335" viewBox="0 0 438 335" fill="none" xmlns="http://www.w3.org/2000/svg">
<path d="M271.594 174.802L226.219 156.804L172.494 176.588L179.014 203.205C178.657 208.699 176.692 223.928 175.397 231.832C173.789 241.836 170.037 258.718 168.519 260.638C168.296 260.951 167.983 261.308 167.626 261.71C165.393 264.3 161.641 268.632 161.686 273.545C161.775 281.315 166.777 286.541 175.084 287.479C184.686 288.55 192.457 282.745 194.913 280.646C196.923 287.389 200.629 291.543 207.016 294.311C209.74 295.517 212.911 296.187 215.948 296.187C220.012 296.187 223.852 294.937 226.264 291.945C229.658 287.702 228.72 281.896 228.095 278.1C227.872 276.805 227.693 275.599 227.827 275.152C228.095 274.304 232.65 265.015 237.072 256.038C242.699 244.605 249.085 231.698 250.648 227.947L275.434 211.914L271.549 174.757L271.594 174.802Z" fill="#F3F3F3"/>
<path d="M264.178 193.202C253.37 195.077 234.881 197.846 236.31 212.048C236.846 220.131 243.277 224.821 250.78 227.902C241.714 228.081 232.514 222.23 231.353 212.673C228.584 194.72 250.557 189.629 264.178 193.202Z" fill="#C6C6C6"/>
<path d="M270.566 170.602C270.253 170.424 269.851 170.558 269.673 170.87C269.494 171.183 269.628 171.585 269.941 171.763C269.985 171.763 270.03 171.808 270.074 171.853L264.313 193.245C264.313 193.245 264.224 193.245 264.179 193.245C259.445 192.887 244.395 193.423 237.473 200.614C234.525 203.695 233.275 207.625 233.855 212.27C235.374 225.4 249.397 228.705 258.954 228.705C260.205 228.705 261.41 228.66 262.482 228.526C274.54 227.365 288.117 220.219 290.127 203.517C291.511 191.86 282.937 177.391 270.61 170.602H270.566Z" fill="#F3F3F3"/>
<path d="M206.925 245.587C204.737 257.422 200.807 268.855 195.225 279.484C197.368 267.694 201.343 256.216 206.925 245.587Z" fill="#C6C6C6"/>
<path d="M226.934 296.9C226.487 296.9 181.381 296.32 178.299 296.23C177.942 296.23 177.63 295.918 177.674 295.56C177.674 295.203 177.987 294.935 178.344 294.935C181.426 295.024 226.532 295.605 226.979 295.605C227.336 295.605 227.649 295.918 227.604 296.275C227.604 296.632 227.291 296.9 226.934 296.9Z" fill="#404243"/>
<path d="M268.066 54.5775C267.485 48.4145 264.404 43.7252 259.179 41.0456C242.967 32.7389 226.398 43.4572 217.109 55.1134C207.552 67.1716 202.773 83.5171 204.381 98.88C204.381 99.2373 204.694 99.4606 205.051 99.4606C205.051 99.4606 205.096 99.4606 205.14 99.4606C205.498 99.4606 205.766 99.1033 205.721 98.7461L245.289 92.9403C245.289 92.9403 245.334 93.1636 245.423 93.2529C245.647 93.5209 246.049 93.6102 246.361 93.3422C260.742 82.0433 269.272 66.8143 268.111 54.5329L268.066 54.5775Z" fill="#F3F3F3"/>
<path d="M268.157 57.6145C263.959 64.1348 260.073 69.9406 256.501 76.5503C252.838 83.1152 249.891 89.7249 245.827 96.2899C244.219 80.8376 253.196 63.1523 268.157 57.6145Z" fill="#C6C6C6"/>
<path d="M311.342 66.2328C310.985 60.0251 308.037 55.2465 302.946 52.433C287.047 43.5903 270.121 53.6834 260.43 65.0717C253.508 73.1998 248.595 83.7395 245.826 96.3336C245.737 96.6908 245.96 97.0481 246.318 97.0928C246.675 97.1821 247.032 96.9588 247.077 96.6015L287.226 103.658C287.226 103.658 287.226 104.015 287.36 104.149C287.494 104.328 287.673 104.417 287.896 104.417C288.03 104.417 288.164 104.417 288.298 104.283C303.08 93.52 312.101 78.6036 311.387 66.2775L311.342 66.2328Z" fill="#F3F3F3"/>
<path d="M259.314 177.66C263.691 173.462 269.586 172.033 275.437 173.506C272.087 178.776 264.808 180.518 259.314 177.66Z" fill="#C6C6C6"/>
<path d="M290.529 107.321C279.052 92.8957 260.161 84.1424 234.392 81.3288C179.773 75.2997 158.292 107.544 156.505 124.113C154.674 140.637 161.195 153.812 175.888 163.19C187.231 170.47 203.8 175.472 223.808 177.66C230.551 178.419 236.848 178.776 242.788 178.776C255.07 178.776 265.565 177.169 274.139 173.998C290.217 168.058 299.327 156.625 301.159 140.012C302.052 131.75 299.774 118.798 290.574 107.276L290.529 107.321Z" fill="#F3F3F3"/>
<path d="M262.482 113.617C254.042 105.31 242.341 99.9957 229.568 98.5666C215.992 97.0481 203.174 99.7277 193.394 105.98C183.926 112.054 178.12 120.896 177.048 130.856C174.771 151.667 191.071 165.512 221.842 168.906C225.861 169.352 229.702 169.576 233.32 169.576C243.681 169.576 252.3 167.745 258.954 164.082C267.574 159.349 272.71 151.578 273.826 141.485C274.898 131.838 270.745 121.656 262.482 113.572V113.617Z" fill="#FBDFD1"/>
<path d="M262.482 113.617C254.041 105.31 242.34 99.9957 229.568 98.5666C215.991 97.0481 203.174 99.7277 193.393 105.98C183.925 112.054 178.12 120.896 177.048 130.856C180.129 120.003 188.079 111.965 197.993 107.499C225.459 94.8598 270.476 107.588 273.826 141.529C274.897 131.883 270.744 121.7 262.482 113.617Z" fill="#F5C0AA"/>
<path d="M210.373 125.718C210.894 120.986 209.628 116.964 207.544 116.735C205.46 116.505 203.348 120.154 202.826 124.886C202.305 129.618 203.571 133.64 205.655 133.87C207.739 134.099 209.851 130.45 210.373 125.718Z" fill="#F3F3F3"/>
<path d="M205.901 135.455C205.901 135.455 205.634 135.455 205.5 135.455C204.517 135.366 202.775 134.696 201.793 131.57C201.212 129.694 201.034 127.238 201.302 124.737C201.837 119.69 204.249 114.823 207.733 115.224C208.715 115.314 210.457 115.984 211.439 119.11C212.02 120.986 212.198 123.442 211.931 125.943C211.395 130.766 209.162 135.5 205.857 135.5L205.901 135.455ZM207.375 118.306C206.795 118.306 204.919 120.539 204.428 125.05C204.204 127.104 204.338 129.114 204.785 130.587C205.187 131.838 205.678 132.284 205.857 132.284C206.437 132.374 208.313 130.141 208.849 125.541C209.072 123.487 208.938 121.477 208.492 120.003C208.09 118.753 207.599 118.306 207.42 118.306H207.375Z" fill="#404243"/>
<path d="M246.807 129.728C247.329 124.996 246.062 120.974 243.978 120.745C241.894 120.515 239.782 124.164 239.261 128.896C238.739 133.628 240.006 137.65 242.09 137.88C244.174 138.109 246.286 134.46 246.807 129.728Z" fill="#F3F3F3"/>
<path d="M242.3 139.431C242.3 139.431 242.032 139.431 241.898 139.431C240.915 139.341 239.174 138.671 238.191 135.545C237.611 133.67 237.432 131.213 237.7 128.712C238.236 123.666 240.647 118.798 244.131 119.2C245.113 119.289 246.855 119.959 247.838 123.085C248.418 124.961 248.597 127.417 248.329 129.918C247.793 134.741 245.56 139.475 242.255 139.475L242.3 139.431ZM243.774 122.281C243.193 122.281 241.317 124.514 240.826 129.025C240.603 131.079 240.737 133.089 241.183 134.563C241.585 135.813 242.077 136.26 242.255 136.26C242.791 136.349 244.712 134.116 245.247 129.516C245.471 127.462 245.337 125.452 244.89 123.978C244.488 122.728 243.997 122.281 243.818 122.281H243.774Z" fill="#404243"/>
<path d="M229.662 134.422C229.908 132.191 227.345 130.078 223.937 129.703C220.529 129.327 217.567 130.831 217.321 133.062C217.075 135.293 219.639 137.406 223.046 137.782C226.454 138.157 229.416 136.653 229.662 134.422Z" fill="#404243"/>
<mask id="mask0_630_36534" style="mask-type:luminance" maskUnits="userSpaceOnUse" x="215" y="139" width="16" height="14">
<path d="M230.239 139.566H215.948V152.651H230.239V139.566Z" fill="white"/>
</mask>
<g mask="url(#mask0_630_36534)">
<path d="M228.632 146.8C228.989 144.076 226.756 141.575 223.719 141.218C220.683 140.861 217.914 142.736 217.601 145.461C217.244 148.185 219.477 150.686 222.514 151.043C225.55 151.4 228.319 149.525 228.632 146.8Z" fill="#F2AD92"/>
<path fill-rule="evenodd" clip-rule="evenodd" d="M219.164 145.595C218.94 147.292 220.369 149.168 222.736 149.436C225.103 149.748 226.934 148.274 227.113 146.577C227.336 144.88 225.907 143.005 223.54 142.737C221.173 142.469 219.342 143.898 219.164 145.595ZM222.334 152.562C218.583 152.115 215.591 148.944 216.037 145.193C216.484 141.441 220.191 139.119 223.942 139.566C227.694 140.012 230.686 143.183 230.239 146.935C229.793 150.686 226.086 153.008 222.334 152.562Z" fill="#404243"/>
</g>
<path d="M220.414 89.7697C218.672 84.4999 214.876 79.7213 209.74 76.2824C204.605 72.8436 198.709 71.1912 193.172 71.5932C187.589 71.9951 182.989 74.4961 180.265 78.5601C174.682 86.9115 178.791 99.5055 189.42 106.651C194.199 109.822 199.469 111.385 204.337 111.385C210.366 111.385 215.814 109.018 218.94 104.373C221.665 100.265 222.201 95.0842 220.459 89.7697H220.414Z" fill="#21B299"/>
<path d="M279.188 88.7871C274.901 85.2589 269.139 83.2046 262.976 83.0706C256.813 82.892 250.918 84.6337 246.452 87.9385C241.942 91.288 239.396 95.7987 239.262 100.711C238.994 110.804 249.221 119.245 261.994 119.558C262.262 119.558 262.53 119.558 262.753 119.558C268.648 119.558 274.186 117.816 278.473 114.69C282.984 111.34 285.53 106.83 285.664 101.917C285.797 97.0045 283.475 92.3598 279.143 88.7871H279.188Z" fill="#21B299"/>
<path d="M243.456 112.233C249.217 103.569 250.468 94.9049 252.165 84.8118C260.427 93.1632 255.827 111.072 243.456 112.233Z" fill="#009B7C"/>
<path d="M208.671 75.6116C208.715 87.1785 211.931 96.7803 216.263 107.365C204.249 103.077 199.158 84.7222 208.671 75.6116Z" fill="#009B7C"/>
<path d="M249.216 78.1137C241.803 65.475 227.199 60.2498 216.659 66.4575C211.523 69.4497 208.085 74.6749 207.013 81.1506C205.941 87.5816 207.325 94.4592 210.898 100.578C214.471 106.651 219.785 111.251 225.949 113.484C228.539 114.422 231.174 114.913 233.719 114.913C237.203 114.913 240.552 114.02 243.5 112.278C254.084 106.071 256.63 90.7525 249.261 78.1584L249.216 78.1137Z" fill="#21B299"/>
<path d="M175.84 186.369C185.754 188.021 197.946 189.808 205.896 182.618C209.737 178.732 211.076 172.212 208.263 167.344C201.698 155.33 175.483 149.927 162.531 150.641C176.956 146.086 205.003 150.329 212.908 164.843C216.793 171.587 214.873 180.876 209.067 185.967C199.644 193.783 185.978 190.969 175.885 186.369H175.84Z" fill="#C6C6C6"/>
<path d="M195.222 154.437C194.195 154.08 170.034 145.326 155.162 153.142C149.759 155.955 146.23 160.645 144.623 167.031C138.594 190.79 170.034 200.303 180.395 203.429L181.601 203.786C181.601 203.786 181.735 203.786 181.78 203.786C182.048 203.786 182.316 203.607 182.405 203.339C182.494 202.982 182.316 202.625 181.958 202.536L181.512 202.402L175.84 186.413C187.451 190.209 197.813 190.254 204.422 186.547C208.397 184.314 210.942 180.831 212.014 176.186C214.426 165.647 204.913 158.054 195.267 154.482L195.222 154.437Z" fill="#F3F3F3"/>
<path d="M137.39 131.57C136.765 131.57 136.184 131.392 135.649 131.034C135.157 130.677 134.755 130.186 134.487 129.605C131.004 120.45 128.726 110.848 127.788 101.068C127.699 100.219 127.788 99.3706 128.056 98.5667C128.324 97.7628 128.726 97.0036 129.307 96.3784C129.843 95.7531 130.557 95.2619 131.317 94.9046C132.076 94.5473 132.924 94.4133 133.773 94.4133H134.041C135.247 94.4133 136.408 94.7706 137.435 95.4852C138.417 96.1551 139.221 97.1376 139.668 98.2541C142.035 103.479 141.231 123.844 140.427 129.025C140.293 129.695 139.981 130.275 139.489 130.766C138.998 131.213 138.373 131.526 137.703 131.57H137.39Z" fill="#F3F3F3"/>
<path d="M133.994 95.6199C134.976 95.6199 135.959 95.9325 136.763 96.4684C137.567 97.049 138.192 97.8082 138.549 98.7461C140.693 103.48 140.112 123.175 139.219 128.847C139.174 129.249 138.951 129.651 138.638 129.919C138.326 130.187 137.969 130.365 137.522 130.41H137.343C136.941 130.41 136.584 130.276 136.271 130.097C135.959 129.874 135.736 129.561 135.602 129.204C132.118 120.138 129.885 110.626 128.947 100.979C128.858 100.309 128.947 99.5946 129.126 98.9694C129.349 98.2995 129.662 97.7189 130.108 97.183C130.555 96.6917 131.136 96.2898 131.761 96.0218C132.386 95.7539 133.056 95.6199 133.726 95.6199H133.949H133.994ZM133.994 93.2529H133.637C132.654 93.2529 131.672 93.4762 130.778 93.8782C129.84 94.2801 129.037 94.9053 128.367 95.6199C127.697 96.3791 127.206 97.2723 126.938 98.2102C126.625 99.148 126.491 100.175 126.625 101.202C127.607 111.072 129.885 120.808 133.413 130.053C133.726 130.856 134.262 131.571 134.976 132.062C135.691 132.554 136.539 132.822 137.388 132.822H137.79C138.728 132.732 139.576 132.33 140.291 131.705C140.961 131.08 141.407 130.231 141.586 129.293C142.435 124.247 143.283 103.525 140.737 97.8082C140.202 96.4684 139.264 95.3519 138.058 94.5481C136.852 93.7442 135.468 93.2529 134.039 93.2529H133.994Z" fill="#F3F3F3"/>
<path d="M139.175 145.372C140.247 145.372 141.318 145.059 142.256 144.434C143.15 143.809 143.864 142.96 144.266 141.978C144.668 140.95 144.802 139.879 144.579 138.807C144.355 137.735 143.819 136.752 143.06 135.993C142.301 135.234 141.318 134.698 140.247 134.475C139.175 134.251 138.058 134.385 137.076 134.787C136.049 135.189 135.2 135.904 134.619 136.797C133.994 137.69 133.682 138.762 133.682 139.879C133.682 141.352 134.262 142.737 135.289 143.764C136.317 144.791 137.701 145.372 139.175 145.372Z" fill="#F3F3F3"/>
<path d="M139.174 135.546C140.023 135.546 140.871 135.769 141.586 136.26C142.122 136.618 142.568 137.064 142.926 137.645C143.238 138.181 143.462 138.806 143.506 139.476C143.551 140.101 143.506 140.771 143.283 141.351C143.06 141.932 142.702 142.513 142.256 142.959C141.631 143.584 140.871 143.986 140.023 144.165C139.174 144.344 138.281 144.254 137.522 143.897C136.718 143.584 136.048 143.004 135.602 142.289C135.11 141.575 134.887 140.726 134.887 139.878C134.887 138.717 135.334 137.645 136.137 136.841C136.941 136.037 138.058 135.59 139.174 135.59V135.546ZM139.174 133.179C137.834 133.179 136.539 133.581 135.423 134.295C134.306 135.01 133.458 136.082 132.967 137.332C132.431 138.583 132.297 139.967 132.565 141.262C132.833 142.557 133.458 143.763 134.396 144.701C135.334 145.639 136.539 146.309 137.834 146.532C139.174 146.8 140.514 146.666 141.765 146.13C142.97 145.639 144.042 144.746 144.757 143.674C145.471 142.557 145.873 141.262 145.873 139.967C145.873 138.181 145.159 136.484 143.908 135.233C142.658 133.983 140.916 133.223 139.13 133.223L139.174 133.179Z" fill="#F3F3F3"/>
<path d="M137.39 128.49C133.952 119.603 131.763 110.269 130.825 100.756C130.781 100.354 130.825 99.9076 130.959 99.5057C131.093 99.1037 131.272 98.7018 131.585 98.3892C131.853 98.0766 132.21 97.8086 132.612 97.6746C133.014 97.496 133.416 97.4067 133.818 97.4513C134.443 97.4513 135.113 97.5853 135.649 97.9426C136.185 98.2999 136.631 98.7911 136.81 99.4164C138.73 103.614 138.328 122.907 137.39 128.445V128.49Z" fill="#404243"/>
<path d="M137.39 129.964C136.81 129.964 136.274 129.607 136.051 129.026C132.567 120.005 130.334 110.537 129.396 100.935C129.307 100.354 129.396 99.6846 129.575 99.104C129.709 98.5234 130.066 97.9428 130.513 97.4516C130.915 97.005 131.451 96.603 132.076 96.3797C132.612 96.1564 133.237 96.0225 133.862 96.0225C134.711 96.0225 135.649 96.2458 136.453 96.7817C137.212 97.2729 137.837 98.0768 138.194 98.97C140.293 103.525 139.802 123.086 138.82 128.713C138.73 129.339 138.194 129.83 137.524 129.919C137.48 129.919 137.435 129.919 137.39 129.919V129.964ZM133.818 98.9253C133.55 98.9253 133.371 98.9253 133.192 99.0593C132.969 99.1486 132.791 99.2826 132.657 99.4166C132.478 99.5952 132.389 99.7739 132.344 99.9525C132.255 100.22 132.255 100.444 132.255 100.622C132.969 107.813 134.398 114.869 136.542 121.747C136.944 113.931 136.765 102.9 135.47 100.131C135.291 99.6846 135.113 99.4166 134.845 99.2826C134.532 99.0593 134.175 98.97 133.862 99.0147C133.862 99.0147 133.818 99.0147 133.773 99.0147L133.818 98.9253Z" fill="#404243"/>
<path d="M139.175 142.335C139.666 142.335 140.113 142.201 140.515 141.933C140.917 141.665 141.229 141.263 141.408 140.817C141.586 140.37 141.631 139.879 141.542 139.388C141.452 138.896 141.229 138.494 140.872 138.137C140.515 137.78 140.113 137.557 139.621 137.467C139.13 137.378 138.639 137.423 138.192 137.601C137.746 137.78 137.344 138.093 137.076 138.494C136.808 138.896 136.674 139.388 136.674 139.834C136.674 140.459 136.942 141.085 137.388 141.576C137.835 142.023 138.46 142.291 139.13 142.291L139.175 142.335Z" fill="#404243"/>
<path d="M139.176 143.763C138.149 143.763 137.166 143.361 136.451 142.647C135.737 141.932 135.335 140.95 135.335 139.922C135.335 139.163 135.558 138.404 136.005 137.779C136.451 137.154 137.032 136.662 137.747 136.35C138.461 136.037 139.22 135.992 139.98 136.126C140.739 136.26 141.409 136.662 141.989 137.198C142.57 137.734 142.882 138.449 143.061 139.208C143.195 139.967 143.15 140.726 142.838 141.441C142.525 142.155 142.034 142.736 141.409 143.183C140.783 143.629 140.024 143.853 139.265 143.853L139.176 143.763ZM139.176 138.895C139.176 138.895 138.908 138.895 138.774 138.985C138.595 139.074 138.416 139.208 138.327 139.342C138.238 139.521 138.149 139.699 138.149 139.878C138.149 140.146 138.238 140.414 138.461 140.592C138.774 140.905 139.354 140.994 139.712 140.726C139.89 140.637 139.98 140.458 140.069 140.28C140.158 140.101 140.158 139.878 140.114 139.699C140.114 139.521 139.98 139.342 139.846 139.208C139.712 139.074 139.533 138.985 139.354 138.94C139.31 138.94 139.22 138.94 139.176 138.94V138.895Z" fill="#404243"/>
<path d="M153.512 277.116C153.199 277.116 152.886 277.027 152.618 276.848C150.117 275.33 148.599 272.338 148.688 269.078C148.778 265.817 150.385 262.87 152.976 261.485C153.78 261.039 154.851 261.351 155.298 262.155C155.745 262.959 155.432 264.031 154.628 264.478C153.11 265.282 152.172 267.113 152.127 269.167C152.082 271.221 152.976 273.052 154.405 273.946C155.209 274.437 155.477 275.464 154.985 276.268C154.673 276.804 154.092 277.072 153.512 277.072V277.116Z" fill="#404243"/>
<path d="M146.41 279.439C146.41 279.439 146.142 279.439 146.008 279.395C144.311 278.948 142.793 277.787 141.81 276.134C140.828 274.482 140.605 272.606 141.051 270.909C141.319 270.016 142.257 269.48 143.15 269.703C144.043 269.971 144.579 270.909 144.356 271.802C144.133 272.606 144.267 273.589 144.758 274.437C145.249 275.286 146.008 275.867 146.812 276.09C147.705 276.313 148.286 277.251 148.063 278.144C147.884 278.903 147.17 279.439 146.41 279.439Z" fill="#404243"/>
</svg>
